<svg width="1440" height="1768" viewBox="0 0 1440 1768" fill="none" xmlns="http://www.w3.org/2000/svg">
<rect y="100" width="1440" height="400" fill="#478C5C"/>
<path d="M1292.97 383.38C1287.95 375.337 1283.48 365.205 1287.65 356.698C1288.26 355.383 1289.27 354.068 1290.65 353.604C1291.58 353.295 1292.66 353.449 1293.66 353.604C1297.83 354.532 1301.61 357.316 1303.85 360.951C1304.62 357.858 1305.39 354.764 1306.24 351.671C1306.47 350.665 1306.78 349.505 1307.71 348.964C1309.56 347.649 1312.03 349.66 1313.03 351.671C1314.03 353.759 1314.88 356.311 1317.12 356.852C1317.66 352.908 1318.2 348.886 1318.74 344.942C1319.2 341.229 1320.59 336.589 1324.3 336.048C1327.46 335.584 1330.01 338.6 1331.39 341.384C1333.94 346.643 1334.87 352.676 1333.94 358.477C1335.56 357.78 1336.33 356.002 1337.34 354.532C1338.34 353.14 1340.27 351.903 1341.81 352.831C1343.2 353.681 1343.12 355.692 1342.81 357.316C1341.58 364.432 1340.04 371.547 1338.11 378.508C1338.11 378.508 1329.39 398.23 1315.35 397.998C1301.15 397.766 1292.97 383.38 1292.97 383.38Z" fill="#407E53"/>
<path d="M675 500C675 500 393.842 380.964 0.169312 389.431L0 500H675Z" fill="#356945"/>
<path d="M28.9713 393.38C23.956 385.337 19.4808 375.205 23.6473 366.698C24.2646 365.383 25.2677 364.068 26.6565 363.604C27.5825 363.295 28.6627 363.449 29.6657 363.604C33.8323 364.532 37.6131 367.316 39.8507 370.951C40.6223 367.858 41.3939 364.764 42.2426 361.671C42.4741 360.665 42.7827 359.505 43.7086 358.964C45.5604 357.649 48.0295 359.66 49.0326 361.671C50.0357 363.759 50.8844 366.311 53.122 366.852C53.6621 362.908 54.2022 358.886 54.7423 354.942C55.2053 351.229 56.5941 346.589 60.2978 346.048C63.4613 345.584 66.0075 348.6 67.3964 351.384C69.9426 356.643 70.8685 362.676 69.9426 368.477C71.5629 367.78 72.3345 366.002 73.3376 364.532C74.3407 363.14 76.2696 361.903 77.8128 362.831C79.2017 363.681 79.1245 365.692 78.8159 367.316C77.5813 374.432 76.0382 381.547 74.1092 388.508C74.1092 388.508 65.3903 408.23 51.3474 407.998C37.1501 407.766 28.9713 393.38 28.9713 393.38Z" fill="#356945"/>
<path d="M521.842 449.521C520.036 448.799 518.591 448.619 516.966 448.257C516.244 448.077 515.341 448.077 514.619 447.896C513.896 447.896 512.993 447.716 512.09 447.896H511.91C510.826 447.896 510.104 448.98 510.104 449.883C510.104 450.244 510.285 450.605 510.646 450.966C511.368 451.869 512.271 452.411 513.174 452.772C514.077 453.133 515.16 453.494 516.244 453.675C518.23 453.855 520.397 453.675 522.203 452.591C522.926 452.049 523.287 450.966 522.745 450.244C522.564 449.883 522.203 449.702 521.842 449.521Z" fill="#BACC81"/>
<path d="M474.89 450.063C473.084 448.618 471.097 447.896 469.111 447.173C468.027 446.812 467.124 446.632 466.041 446.451C464.957 446.271 463.874 446.271 462.79 446.451C461.707 446.632 460.984 447.535 461.165 448.618C461.165 449.16 461.526 449.521 461.887 449.882C462.79 450.604 463.693 451.146 464.596 451.507C465.499 451.868 466.583 452.23 467.486 452.591C469.472 453.132 471.639 453.494 473.806 453.313C474.709 453.132 475.431 452.41 475.251 451.507C475.612 450.785 475.251 450.243 474.89 450.063Z" fill="#BACC81"/>
<path d="M531.989 476.598C530.183 474.792 528.016 473.709 525.849 472.806C524.765 472.264 523.682 471.903 522.418 471.542C521.334 471.181 520.07 471 518.806 471C517.722 471 517 471.722 517 472.806C517 473.348 517.18 473.889 517.542 474.25C518.445 475.153 519.528 475.876 520.612 476.417C521.695 476.959 522.779 477.501 523.862 478.042C526.029 478.945 528.377 479.668 530.905 479.668C531.808 479.668 532.53 478.945 532.711 478.042C532.53 477.32 532.35 476.959 531.989 476.598Z" fill="#BACC81"/>
<path d="M180.634 457.814C178.857 454.938 177.334 451.808 176.319 448.509C175.22 445.295 174.543 441.911 174.204 438.528C174.035 436.836 173.951 435.144 173.951 433.453C173.951 432.607 174.12 431.845 174.374 431.169C174.627 430.492 175.135 430.069 175.727 429.984C176.319 429.9 177.081 430.069 177.673 430.492C178.265 430.915 178.772 431.422 179.195 432.099C180.041 433.453 180.634 435.229 182.156 436.582C182.495 436.836 182.918 436.836 183.171 436.582C183.256 436.498 183.341 436.329 183.341 436.244C184.102 432.099 182.833 428.039 183.594 424.486C184.017 422.71 184.863 420.933 186.217 419.918C187.57 418.903 189.431 418.819 190.954 419.58C192.561 420.341 193.83 421.695 194.676 423.386C195.522 425.078 196.114 426.855 196.791 428.8L200.513 440.05C200.682 440.473 201.105 440.727 201.528 440.558C201.782 440.473 202.036 440.22 202.036 439.966C202.374 438.274 202.966 436.582 203.982 435.313C204.489 434.721 205.081 434.214 205.758 434.045C206.435 433.875 207.196 433.875 207.873 434.214C209.226 434.891 210.241 436.329 210.495 437.936C210.749 439.543 210.495 441.319 210.241 443.18C210.157 443.603 210.495 443.942 210.834 444.026C211.172 444.111 211.426 443.942 211.595 443.603C212.187 442.419 212.948 441.319 213.879 440.389C214.725 439.458 215.825 438.612 216.924 438.528C218.024 438.359 219.208 438.866 219.801 439.881C220.477 440.896 220.646 442.165 220.646 443.434C220.646 444.703 220.308 446.056 219.97 447.325C219.631 448.594 219.124 449.863 218.447 451.047C217.178 453.416 215.486 455.53 213.371 457.307C213.118 457.476 213.118 457.814 213.287 458.068C213.456 458.322 213.794 458.322 214.048 458.153C216.332 456.376 218.193 454.177 219.547 451.639C220.224 450.37 220.816 449.102 221.239 447.664C221.662 446.31 222 444.872 222 443.434C222 441.996 221.831 440.389 220.9 439.035C220.477 438.359 219.801 437.767 219.039 437.428C218.278 437.09 217.432 436.921 216.586 437.09C215.74 437.174 214.979 437.513 214.387 437.936C213.71 438.359 213.202 438.866 212.695 439.374C211.68 440.473 210.918 441.658 210.157 442.927L211.595 443.434C211.849 441.658 212.187 439.712 211.849 437.767C211.51 435.821 210.411 433.791 208.38 432.86C207.365 432.353 206.181 432.268 205.166 432.607C204.066 432.945 203.22 433.622 202.543 434.383C201.274 435.99 200.598 437.851 200.259 439.712L201.867 439.628L198.229 428.377C197.637 426.516 197.045 424.571 196.03 422.71C195.099 420.849 193.576 419.157 191.546 418.226C190.531 417.719 189.431 417.465 188.247 417.55C187.063 417.634 185.963 418.057 185.117 418.734C184.186 419.411 183.51 420.341 183.002 421.272C182.495 422.202 182.156 423.217 181.902 424.232C181.479 426.347 181.649 428.377 181.733 430.323C181.902 432.268 181.987 434.214 181.649 436.075L182.918 435.652C181.818 434.637 181.226 433.03 180.211 431.507C179.703 430.746 179.026 429.984 178.18 429.392C177.334 428.885 176.319 428.462 175.22 428.631C174.12 428.8 173.189 429.731 172.766 430.661C172.343 431.592 172.259 432.522 172.259 433.453C172.259 435.229 172.343 437.005 172.513 438.697C173.274 445.718 175.727 452.485 179.534 458.322C179.703 458.576 179.957 458.576 180.211 458.491C180.718 458.406 180.718 458.068 180.634 457.814Z" fill="#478C5C"/>
<path d="M37.002 500C37.002 500 621.395 376.296 1439.65 387.749L1440 500H37.002Z" fill="#407E53"/>
<path d="M598.983 491.645C601.173 488.1 603.05 484.243 604.301 480.177C605.656 476.215 606.49 472.045 606.907 467.875C607.116 465.79 607.22 463.705 607.22 461.62C607.22 460.577 607.012 459.639 606.699 458.805C606.386 457.971 605.76 457.45 605.031 457.345C604.301 457.241 603.362 457.45 602.633 457.971C601.903 458.492 601.277 459.118 600.756 459.952C599.713 461.62 598.984 463.809 597.107 465.477C596.69 465.79 596.168 465.79 595.856 465.477C595.751 465.373 595.647 465.164 595.647 465.06C594.709 459.952 596.273 454.947 595.334 450.569C594.813 448.379 593.77 446.19 592.102 444.939C590.434 443.688 588.14 443.584 586.264 444.522C584.283 445.46 582.719 447.128 581.676 449.213C580.634 451.298 579.904 453.488 579.07 455.886L574.482 469.752C574.274 470.273 573.752 470.586 573.231 470.377C572.918 470.273 572.606 469.96 572.606 469.647C572.189 467.562 571.459 465.477 570.208 463.913C569.582 463.184 568.852 462.558 568.018 462.349C567.184 462.141 566.246 462.141 565.412 462.558C563.743 463.392 562.492 465.164 562.179 467.145C561.867 469.126 562.179 471.315 562.492 473.609C562.597 474.13 562.179 474.547 561.762 474.652C561.345 474.756 561.033 474.547 560.824 474.13C560.094 472.671 559.156 471.315 558.009 470.169C556.966 469.022 555.611 467.979 554.256 467.875C552.9 467.667 551.441 468.292 550.711 469.543C549.877 470.794 549.668 472.358 549.668 473.922C549.668 475.486 550.085 477.154 550.502 478.718C550.919 480.281 551.545 481.845 552.379 483.305C553.943 486.224 556.028 488.83 558.635 491.02C558.947 491.228 558.947 491.645 558.739 491.958C558.53 492.271 558.113 492.271 557.801 492.062C554.985 489.873 552.692 487.162 551.024 484.035C550.189 482.471 549.46 480.907 548.938 479.135C548.417 477.466 548 475.694 548 473.922C548 472.149 548.209 470.169 549.355 468.501C549.877 467.666 550.711 466.937 551.649 466.52C552.587 466.103 553.63 465.894 554.673 466.103C555.715 466.207 556.654 466.624 557.383 467.145C558.218 467.666 558.843 468.292 559.469 468.918C560.72 470.273 561.658 471.732 562.596 473.296L560.824 473.922C560.511 471.732 560.094 469.335 560.511 466.937C560.928 464.539 562.284 462.037 564.786 460.89C566.037 460.264 567.497 460.16 568.748 460.577C570.103 460.994 571.146 461.828 571.98 462.766C573.544 464.747 574.378 467.041 574.795 469.335L572.814 469.23L577.297 455.364C578.027 453.071 578.757 450.673 580.008 448.379C581.155 446.086 583.032 444.001 585.534 442.854C586.785 442.228 588.14 441.916 589.6 442.02C591.06 442.124 592.415 442.645 593.458 443.479C594.605 444.313 595.439 445.46 596.064 446.607C596.69 447.754 597.107 449.005 597.42 450.256C597.941 452.862 597.732 455.364 597.628 457.762C597.42 460.16 597.315 462.558 597.732 464.852L596.168 464.33C597.524 463.079 598.254 461.098 599.505 459.222C600.13 458.284 600.964 457.345 602.007 456.615C603.05 455.99 604.301 455.469 605.656 455.677C607.012 455.886 608.158 457.032 608.68 458.179C609.201 459.326 609.305 460.473 609.305 461.62C609.305 463.809 609.201 465.998 608.992 468.084C608.054 476.737 605.031 485.077 600.339 492.271C600.13 492.583 599.818 492.583 599.505 492.479C598.879 492.375 598.879 491.958 598.983 491.645Z" fill="#BACC81"/>
<path d="M1243.68 457.442C1253.8 444.801 1260.48 429.633 1263.01 413.742C1263.37 411.756 1263.55 409.769 1263.73 407.783C1263.91 405.797 1263.91 403.81 1263.55 402.005C1263.19 400.199 1262.65 398.393 1261.56 397.31C1260.48 396.226 1258.85 395.504 1257.23 395.684C1255.6 395.865 1253.98 396.587 1252.53 397.851C1251.09 398.935 1249.82 400.379 1248.74 402.005C1246.57 405.255 1244.77 409.228 1241.16 412.117C1240.43 412.659 1239.53 412.478 1238.99 411.936C1238.63 411.575 1238.63 411.033 1238.63 410.672C1240.79 400.741 1242.06 390.448 1242.24 380.335C1242.24 377.807 1242.24 375.46 1241.7 373.112C1241.16 370.765 1240.25 368.598 1238.63 367.514C1237 366.431 1234.83 366.25 1233.03 367.334C1231.22 368.237 1229.42 370.043 1228.15 372.029C1226.71 374.015 1225.62 376.363 1224.36 378.53C1223.1 380.877 1222.01 383.044 1220.93 385.392C1218.76 390.087 1216.78 394.782 1214.97 399.477C1211.36 409.047 1208.47 418.798 1206.3 428.911C1206.12 429.814 1205.22 430.536 1204.32 430.175C1203.77 429.994 1203.41 429.813 1203.23 429.452C1201.79 427.105 1200.88 424.396 1200.34 421.868C1199.8 419.34 1199.26 416.993 1198.36 414.645C1197.63 412.478 1196.37 410.492 1194.74 408.867C1193.12 407.422 1191.13 406.519 1189.15 406.7L1190.23 405.977C1184.63 413.742 1182.1 423.854 1183.55 433.425C1183.73 434.328 1183.19 435.05 1182.28 435.231C1181.56 435.411 1180.66 434.87 1180.48 434.147C1179.39 430.716 1178.49 427.466 1176.69 424.577C1175.78 423.132 1174.88 421.868 1173.62 420.785C1172.53 419.701 1171.09 418.979 1169.64 418.618C1166.75 417.715 1163.14 418.257 1161.52 420.604C1159.71 422.771 1159.89 426.383 1160.07 429.814C1160.79 436.495 1164.41 442.634 1169.1 447.691C1173.8 452.927 1179.21 457.261 1184.81 461.595C1185.35 461.956 1185.35 462.679 1184.99 463.22C1184.63 463.762 1183.91 463.762 1183.37 463.401C1177.59 459.248 1171.99 454.733 1167.11 449.496C1162.24 444.26 1158.09 437.759 1157.18 430.175C1157 429.272 1157 428.369 1157 427.466C1157 426.563 1157 425.66 1157 424.577C1157.18 422.59 1157.72 420.604 1158.99 418.798C1160.25 416.993 1162.24 415.909 1164.23 415.548C1166.21 415.187 1168.38 415.187 1170.18 415.728C1172.17 416.27 1173.98 417.173 1175.42 418.618C1176.87 419.882 1178.13 421.507 1179.03 423.132C1181.02 426.383 1182.1 429.994 1183.01 433.244L1179.94 433.967C1178.31 423.674 1180.84 412.659 1186.98 404.172C1187.16 403.81 1187.7 403.63 1188.06 403.449C1189.69 403.269 1191.31 403.449 1192.58 403.991C1194.02 404.533 1195.29 405.436 1196.37 406.339C1198.54 408.325 1199.98 410.672 1200.88 413.381C1201.79 415.909 1202.33 418.437 1202.87 420.965C1203.41 423.313 1204.14 425.66 1205.4 427.466L1202.15 428.008C1204.32 417.715 1207.21 407.783 1210.82 398.032C1212.62 393.156 1214.79 388.461 1216.96 383.766C1218.04 381.419 1219.3 379.071 1220.39 376.724C1221.65 374.376 1222.74 372.029 1224.36 369.862C1225.99 367.695 1227.79 365.528 1230.5 364.083C1231.76 363.361 1233.39 363 1235.02 363C1236.64 363.181 1238.27 363.722 1239.53 364.625C1242.24 366.612 1243.32 369.501 1243.86 372.209C1244.41 374.918 1244.59 377.807 1244.41 380.335C1244.23 390.809 1242.96 401.102 1240.61 411.395L1238.09 409.769C1240.97 407.603 1242.78 403.81 1245.13 400.379C1247.48 396.768 1250.91 393.337 1255.96 392.795C1258.49 392.615 1261.02 393.518 1262.65 395.323C1264.27 397.129 1265.17 399.477 1265.53 401.643C1265.9 403.81 1265.9 405.977 1265.72 408.144C1265.53 410.131 1265.17 412.298 1264.81 414.284C1262.1 430.716 1254.88 446.246 1244.41 458.886C1244.04 459.248 1243.32 459.428 1242.96 459.067C1243.32 458.525 1243.32 457.803 1243.68 457.442Z" fill="#BACC81"/>
<path d="M61.7047 437.973C64.4135 436.709 66.9416 435.986 69.6504 435.264C70.9145 434.903 72.3592 434.542 73.8039 434.361C75.2486 434.181 76.5128 434 77.9575 434C78.8604 434 79.7634 434.722 79.7634 435.806C79.7634 436.348 79.4022 436.889 79.041 437.25C77.7769 438.153 76.5127 438.876 75.068 439.417C73.6234 439.959 72.3593 440.32 70.9146 440.681C68.0252 441.223 65.1357 441.584 62.0658 441.223C61.1628 441.043 60.6211 440.32 60.6211 439.417C60.9823 438.695 61.3435 438.334 61.7047 437.973Z" fill="#478C5C"/>
<path d="M37.1421 462.351C39.8509 460.545 42.9208 459.461 45.8102 458.558C47.2549 458.017 48.8802 457.656 50.3249 457.475C51.9502 457.114 53.3949 456.933 55.0202 456.933C55.9232 456.933 56.8261 457.656 56.8261 458.739C56.8261 459.281 56.4649 460.003 55.9232 460.184C54.4785 461.086 53.0337 461.809 51.589 462.351C50.1443 462.892 48.6996 463.434 47.0743 463.795C44.0044 464.698 40.9344 465.24 37.6838 465.42C36.7809 465.42 36.0586 464.698 36.0586 463.795C36.4198 463.073 36.6003 462.531 37.1421 462.351Z" fill="#478C5C"/>
<path d="M9.08353 450.794C11.7923 449.169 14.8623 448.266 17.7517 447.543C19.1964 447.182 20.8217 446.821 22.2664 446.641C23.8917 446.46 25.3363 446.279 26.9616 446.46C27.8646 446.46 28.7675 447.363 28.587 448.266C28.587 448.808 28.2258 449.349 27.684 449.71C26.2393 450.433 24.7946 451.155 23.3499 451.697C21.9052 452.239 20.4605 452.6 18.8352 452.961C15.7652 453.683 12.6953 454.044 9.62533 454.044C8.72239 454.044 8 453.322 8 452.419C8.36117 451.516 8.54177 450.974 9.08353 450.794Z" fill="#478C5C"/>
<path d="M1117.04 443.264C1119.03 442.361 1121.19 442.181 1123.18 442C1124.26 442 1125.17 442 1126.25 442.181C1127.33 442.361 1128.24 442.542 1129.32 443.083C1130.22 443.445 1130.77 444.709 1130.22 445.612C1130.04 445.973 1129.68 446.334 1129.32 446.514C1128.24 447.056 1127.33 447.237 1126.25 447.417C1125.17 447.598 1124.26 447.598 1123.18 447.598C1121.19 447.598 1119.03 447.237 1117.04 446.334C1116.14 445.973 1115.78 444.889 1116.14 444.167C1116.5 443.806 1116.68 443.445 1117.04 443.264Z" fill="#BACC81"/>
<path d="M1073.4 446.445C1076.47 445.903 1079.36 445.722 1082.25 445.542C1083.7 445.361 1085.14 445.361 1086.59 445.181C1088.03 445 1089.47 445 1091.1 445C1092 445 1092.91 445.903 1092.91 446.806C1092.91 447.348 1092.54 447.889 1092 448.25C1090.56 449.153 1089.11 449.695 1087.49 450.056C1085.86 450.417 1084.24 450.778 1082.61 450.778C1079.36 450.959 1076.11 450.598 1073.04 449.334C1072.14 448.973 1071.78 448.07 1072.14 447.167C1072.32 446.806 1072.86 446.445 1073.4 446.445Z" fill="#BACC81"/>
<path d="M426.164 475.879C427.97 475.156 429.414 474.976 431.04 474.615C431.762 474.434 432.665 474.434 433.387 474.253C434.11 474.253 435.013 474.073 435.916 474.253H436.096C437.18 474.253 437.902 475.337 437.902 476.24C437.902 476.601 437.721 476.962 437.36 477.323C436.638 478.226 435.735 478.768 434.832 479.129C433.929 479.49 432.845 479.851 431.762 480.032C429.776 480.213 427.609 480.032 425.803 478.948C425.08 478.407 424.719 477.323 425.261 476.601C425.441 476.24 425.803 476.059 426.164 475.879Z" fill="#BACC81"/>
<path d="M473.114 476.42C474.92 474.975 476.907 474.253 478.893 473.531C479.977 473.17 480.88 472.989 481.963 472.808C483.047 472.628 484.13 472.628 485.214 472.808C486.297 472.989 487.019 473.892 486.839 474.975C486.839 475.517 486.478 475.878 486.117 476.239C485.214 476.962 484.311 477.503 483.408 477.865C482.505 478.226 481.421 478.587 480.518 478.948C478.532 479.49 476.365 479.851 474.198 479.67C473.295 479.49 472.573 478.767 472.753 477.865C472.392 477.142 472.753 476.601 473.114 476.42Z" fill="#BACC81"/>
<path d="M479.072 450.598C480.878 448.792 483.045 447.709 485.212 446.806C486.295 446.264 487.379 445.903 488.643 445.542C489.727 445.181 490.991 445 492.255 445C493.338 445 494.061 445.722 494.061 446.806C494.061 447.348 493.88 447.889 493.519 448.25C492.616 449.153 491.532 449.876 490.449 450.417C489.365 450.959 488.282 451.501 487.198 452.042C485.031 452.945 482.684 453.668 480.155 453.668C479.253 453.668 478.53 452.945 478.35 452.042C478.53 451.32 478.711 450.959 479.072 450.598Z" fill="#BACC81"/>
<g filter="url(#filter0_f_811_1503)">
<path d="M1718 459.5C1718 629.88 1579.88 768 1409.5 768C1239.12 768 1101 629.88 1101 459.5C1101 289.12 1239.12 151 1409.5 151C1579.88 151 1718 289.12 1718 459.5Z" fill="#BACC81"/>
</g>
<path d="M1094.3 422.705C1097.01 421.622 1099.9 421.261 1102.61 421.08C1104.05 421.08 1105.31 420.9 1106.76 421.08C1108.2 421.08 1109.65 421.261 1110.91 421.622C1111.82 421.803 1112.36 422.886 1112.18 423.789C1112 424.331 1111.64 424.872 1111.09 425.053C1109.65 425.595 1108.38 425.956 1106.94 426.136C1105.5 426.317 1104.23 426.498 1102.79 426.498C1100.08 426.498 1097.19 426.498 1094.3 425.775C1093.4 425.595 1092.85 424.692 1093.03 423.789C1093.4 423.428 1093.94 422.886 1094.3 422.705Z" fill="#BACC81"/>
<path d="M336.786 266.08C338.866 267.12 340.066 268.76 340.386 271C340.786 273.24 340.226 275.28 338.706 277.12C337.666 278.56 336.306 279.36 334.626 279.52C333.026 279.68 331.386 279.36 329.706 278.56C327.786 277.68 325.746 277 323.586 276.52C321.506 276.04 319.306 275.8 316.986 275.8C312.666 275.8 308.786 276.48 305.346 277.84C301.986 279.2 299.106 281.16 296.706 283.72C294.306 286.2 292.466 289.16 291.186 292.6C289.986 296.04 289.386 299.84 289.386 304C289.386 308.88 290.066 313.12 291.426 316.72C292.866 320.32 294.826 323.32 297.306 325.72C299.786 328.12 302.706 329.92 306.066 331.12C309.426 332.24 313.066 332.8 316.986 332.8C319.146 332.8 321.306 332.6 323.466 332.2C325.626 331.8 327.706 331.08 329.706 330.04C331.386 329.24 333.026 328.96 334.626 329.2C336.306 329.44 337.706 330.28 338.826 331.72C340.426 333.72 340.986 335.8 340.506 337.96C340.106 340.04 338.906 341.56 336.906 342.52C334.826 343.56 332.666 344.44 330.426 345.16C328.266 345.8 326.066 346.28 323.826 346.6C321.586 347 319.306 347.2 316.986 347.2C311.226 347.2 305.746 346.28 300.546 344.44C295.426 342.6 290.826 339.88 286.746 336.28C282.746 332.68 279.586 328.2 277.266 322.84C274.946 317.4 273.786 311.12 273.786 304C273.786 297.84 274.826 292.16 276.906 286.96C279.066 281.76 282.066 277.28 285.906 273.52C289.826 269.68 294.426 266.72 299.706 264.64C304.986 262.48 310.746 261.4 316.986 261.4C320.506 261.4 323.946 261.8 327.306 262.6C330.666 263.4 333.826 264.56 336.786 266.08ZM352.02 346C349.94 346 348.22 345.32 346.86 343.96C345.5 342.52 344.82 340.76 344.82 338.68V289.12C344.82 287.04 345.5 285.32 346.86 283.96C348.22 282.52 349.94 281.8 352.02 281.8C354.1 281.8 355.82 282.52 357.18 283.96C358.54 285.32 359.22 287.04 359.22 289.12V300.4L358.38 292.36C359.26 290.44 360.38 288.76 361.74 287.32C363.18 285.8 364.78 284.56 366.54 283.6C368.3 282.56 370.18 281.8 372.18 281.32C374.18 280.84 376.18 280.6 378.18 280.6C380.58 280.6 382.58 281.28 384.18 282.64C385.86 284 386.7 285.6 386.7 287.44C386.7 290.08 386.02 292 384.66 293.2C383.3 294.32 381.82 294.88 380.22 294.88C378.7 294.88 377.3 294.6 376.02 294.04C374.82 293.48 373.42 293.2 371.82 293.2C370.38 293.2 368.9 293.56 367.38 294.28C365.94 294.92 364.58 295.96 363.3 297.4C362.1 298.84 361.1 300.64 360.3 302.8C359.58 304.88 359.22 307.36 359.22 310.24V338.68C359.22 340.76 358.54 342.52 357.18 343.96C355.82 345.32 354.1 346 352.02 346ZM417.196 347.2C410.396 347.2 404.476 345.8 399.436 343C394.476 340.12 390.636 336.24 387.916 331.36C385.276 326.48 383.956 320.96 383.956 314.8C383.956 307.6 385.396 301.48 388.276 296.44C391.236 291.32 395.076 287.4 399.796 284.68C404.516 281.96 409.516 280.6 414.796 280.6C418.876 280.6 422.716 281.44 426.316 283.12C429.996 284.8 433.236 287.12 436.036 290.08C438.836 292.96 441.036 296.32 442.636 300.16C444.316 304 445.156 308.08 445.156 312.4C445.076 314.32 444.316 315.88 442.876 317.08C441.436 318.28 439.756 318.88 437.836 318.88H391.996L388.396 306.88H432.436L429.796 309.28V306.04C429.636 303.72 428.796 301.64 427.276 299.8C425.836 297.96 423.996 296.52 421.756 295.48C419.596 294.36 417.276 293.8 414.796 293.8C412.396 293.8 410.156 294.12 408.076 294.76C405.996 295.4 404.196 296.48 402.676 298C401.156 299.52 399.956 301.56 399.076 304.12C398.196 306.68 397.756 309.92 397.756 313.84C397.756 318.16 398.636 321.84 400.396 324.88C402.236 327.84 404.556 330.12 407.356 331.72C410.236 333.24 413.276 334 416.476 334C419.436 334 421.796 333.76 423.556 333.28C425.316 332.8 426.716 332.24 427.756 331.6C428.876 330.88 429.876 330.28 430.756 329.8C432.196 329.08 433.556 328.72 434.836 328.72C436.596 328.72 438.036 329.32 439.156 330.52C440.356 331.72 440.956 333.12 440.956 334.72C440.956 336.88 439.836 338.84 437.596 340.6C435.516 342.36 432.596 343.92 428.836 345.28C425.076 346.56 421.196 347.2 417.196 347.2ZM503.566 280.6C505.646 280.6 507.366 281.28 508.726 282.64C510.086 284 510.766 285.76 510.766 287.92V338.68C510.766 340.76 510.086 342.52 508.726 343.96C507.366 345.32 505.646 346 503.566 346C501.486 346 499.766 345.32 498.406 343.96C497.046 342.52 496.366 340.76 496.366 338.68V332.8L499.006 333.88C499.006 334.92 498.446 336.2 497.326 337.72C496.206 339.16 494.686 340.6 492.766 342.04C490.846 343.48 488.566 344.72 485.926 345.76C483.366 346.72 480.566 347.2 477.526 347.2C472.006 347.2 467.006 345.8 462.526 343C458.046 340.12 454.486 336.2 451.846 331.24C449.286 326.2 448.006 320.44 448.006 313.96C448.006 307.4 449.286 301.64 451.846 296.68C454.486 291.64 458.006 287.72 462.406 284.92C466.806 282.04 471.686 280.6 477.046 280.6C480.486 280.6 483.646 281.12 486.526 282.16C489.406 283.2 491.886 284.52 493.966 286.12C496.126 287.72 497.766 289.36 498.886 291.04C500.086 292.64 500.686 294 500.686 295.12L496.366 296.68V287.92C496.366 285.84 497.046 284.12 498.406 282.76C499.766 281.32 501.486 280.6 503.566 280.6ZM479.326 334C482.846 334 485.926 333.12 488.566 331.36C491.206 329.6 493.246 327.2 494.686 324.16C496.206 321.12 496.966 317.72 496.966 313.96C496.966 310.12 496.206 306.68 494.686 303.64C493.246 300.6 491.206 298.2 488.566 296.44C485.926 294.68 482.846 293.8 479.326 293.8C475.886 293.8 472.846 294.68 470.206 296.44C467.566 298.2 465.486 300.6 463.966 303.64C462.526 306.68 461.806 310.12 461.806 313.96C461.806 317.72 462.526 321.12 463.966 324.16C465.486 327.2 467.566 329.6 470.206 331.36C472.846 333.12 475.886 334 479.326 334ZM546.311 283H574.751C576.671 283 578.271 283.64 579.551 284.92C580.831 286.2 581.471 287.8 581.471 289.72C581.471 291.56 580.831 293.12 579.551 294.4C578.271 295.6 576.671 296.2 574.751 296.2H546.311C544.391 296.2 542.791 295.56 541.511 294.28C540.231 293 539.591 291.4 539.591 289.48C539.591 287.64 540.231 286.12 541.511 284.92C542.791 283.64 544.391 283 546.311 283ZM559.151 268C561.231 268 562.911 268.72 564.191 270.16C565.551 271.52 566.231 273.24 566.231 275.32V328.72C566.231 329.84 566.431 330.76 566.831 331.48C567.311 332.2 567.911 332.72 568.631 333.04C569.431 333.36 570.271 333.52 571.151 333.52C572.111 333.52 572.991 333.36 573.791 333.04C574.591 332.64 575.511 332.44 576.551 332.44C577.671 332.44 578.671 332.96 579.551 334C580.511 335.04 580.991 336.48 580.991 338.32C580.991 340.56 579.751 342.4 577.271 343.84C574.871 345.28 572.271 346 569.471 346C567.791 346 565.911 345.88 563.831 345.64C561.831 345.32 559.911 344.64 558.071 343.6C556.311 342.48 554.831 340.8 553.631 338.56C552.431 336.32 551.831 333.24 551.831 329.32V275.32C551.831 273.24 552.511 271.52 553.871 270.16C555.311 268.72 557.071 268 559.151 268ZM635.132 281.8C637.212 281.8 638.932 282.52 640.292 283.96C641.652 285.32 642.332 287.04 642.332 289.12V319.6C642.332 328.08 639.972 334.8 635.252 339.76C630.532 344.72 623.732 347.2 614.852 347.2C605.972 347.2 599.172 344.72 594.452 339.76C589.812 334.8 587.492 328.08 587.492 319.6V289.12C587.492 287.04 588.172 285.32 589.532 283.96C590.892 282.52 592.612 281.8 594.692 281.8C596.772 281.8 598.492 282.52 599.852 283.96C601.212 285.32 601.892 287.04 601.892 289.12V319.6C601.892 324.48 602.972 328.12 605.132 330.52C607.292 332.84 610.532 334 614.852 334C619.252 334 622.532 332.84 624.692 330.52C626.852 328.12 627.932 324.48 627.932 319.6V289.12C627.932 287.04 628.612 285.32 629.972 283.96C631.332 282.52 633.052 281.8 635.132 281.8ZM705.715 280.6C710.275 280.6 714.235 281.08 717.595 282.04C721.035 283 723.675 284.36 725.515 286.12C727.435 287.8 728.395 289.84 728.395 292.24C728.395 293.84 727.915 295.36 726.955 296.8C725.995 298.16 724.595 298.84 722.755 298.84C721.475 298.84 720.395 298.68 719.515 298.36C718.715 297.96 717.995 297.48 717.355 296.92C716.715 296.36 715.955 295.84 715.075 295.36C714.275 294.88 713.035 294.52 711.355 294.28C709.755 293.96 708.555 293.8 707.755 293.8C703.675 293.8 700.195 294.68 697.315 296.44C694.515 298.2 692.355 300.6 690.835 303.64C689.315 306.6 688.555 310.04 688.555 313.96C688.555 317.8 689.315 321.24 690.835 324.28C692.435 327.24 694.595 329.6 697.315 331.36C700.115 333.12 703.315 334 706.915 334C708.915 334 710.635 333.88 712.075 333.64C713.515 333.4 714.715 333.04 715.675 332.56C716.795 331.92 717.795 331.24 718.675 330.52C719.555 329.8 720.875 329.44 722.635 329.44C724.715 329.44 726.315 330.12 727.435 331.48C728.555 332.76 729.115 334.36 729.115 336.28C729.115 338.28 727.995 340.12 725.755 341.8C723.515 343.4 720.555 344.72 716.875 345.76C713.275 346.72 709.355 347.2 705.115 347.2C698.795 347.2 693.315 345.76 688.675 342.88C684.035 339.92 680.435 335.92 677.875 330.88C675.395 325.84 674.155 320.2 674.155 313.96C674.155 307.4 675.475 301.64 678.115 296.68C680.835 291.64 684.555 287.72 689.275 284.92C694.075 282.04 699.555 280.6 705.715 280.6ZM784.858 280.6C786.938 280.6 788.658 281.28 790.018 282.64C791.378 284 792.058 285.76 792.058 287.92V338.68C792.058 340.76 791.378 342.52 790.018 343.96C788.658 345.32 786.938 346 784.858 346C782.778 346 781.058 345.32 779.698 343.96C778.338 342.52 777.658 340.76 777.658 338.68V332.8L780.298 333.88C780.298 334.92 779.738 336.2 778.618 337.72C777.498 339.16 775.978 340.6 774.058 342.04C772.138 343.48 769.858 344.72 767.218 345.76C764.658 346.72 761.858 347.2 758.818 347.2C753.298 347.2 748.298 345.8 743.818 343C739.338 340.12 735.778 336.2 733.138 331.24C730.578 326.2 729.298 320.44 729.298 313.96C729.298 307.4 730.578 301.64 733.138 296.68C735.778 291.64 739.298 287.72 743.698 284.92C748.098 282.04 752.978 280.6 758.338 280.6C761.778 280.6 764.938 281.12 767.818 282.16C770.698 283.2 773.178 284.52 775.258 286.12C777.418 287.72 779.058 289.36 780.178 291.04C781.378 292.64 781.978 294 781.978 295.12L777.658 296.68V287.92C777.658 285.84 778.338 284.12 779.698 282.76C781.058 281.32 782.778 280.6 784.858 280.6ZM760.618 334C764.138 334 767.218 333.12 769.858 331.36C772.498 329.6 774.538 327.2 775.978 324.16C777.498 321.12 778.258 317.72 778.258 313.96C778.258 310.12 777.498 306.68 775.978 303.64C774.538 300.6 772.498 298.2 769.858 296.44C767.218 294.68 764.138 293.8 760.618 293.8C757.178 293.8 754.138 294.68 751.498 296.44C748.858 298.2 746.778 300.6 745.258 303.64C743.818 306.68 743.098 310.12 743.098 313.96C743.098 317.72 743.818 321.12 745.258 324.16C746.778 327.2 748.858 329.6 751.498 331.36C754.138 333.12 757.178 334 760.618 334ZM834.17 280.6C840.57 280.6 845.29 282.16 848.33 285.28C851.37 288.32 853.37 292.28 854.33 297.16L852.29 296.08L853.25 294.16C854.21 292.32 855.69 290.36 857.69 288.28C859.69 286.12 862.09 284.32 864.89 282.88C867.77 281.36 870.97 280.6 874.49 280.6C880.25 280.6 884.61 281.84 887.57 284.32C890.61 286.8 892.69 290.12 893.81 294.28C894.93 298.36 895.49 302.92 895.49 307.96V338.68C895.49 340.76 894.81 342.52 893.45 343.96C892.09 345.32 890.37 346 888.29 346C886.21 346 884.49 345.32 883.13 343.96C881.77 342.52 881.09 340.76 881.09 338.68V307.96C881.09 305.32 880.77 302.96 880.13 300.88C879.49 298.72 878.33 297 876.65 295.72C874.97 294.44 872.57 293.8 869.45 293.8C866.41 293.8 863.81 294.44 861.65 295.72C859.49 297 857.85 298.72 856.73 300.88C855.69 302.96 855.17 305.32 855.17 307.96V338.68C855.17 340.76 854.49 342.52 853.13 343.96C851.77 345.32 850.05 346 847.97 346C845.89 346 844.17 345.32 842.81 343.96C841.45 342.52 840.77 340.76 840.77 338.68V307.96C840.77 305.32 840.45 302.96 839.81 300.88C839.17 298.72 838.01 297 836.33 295.72C834.65 294.44 832.25 293.8 829.13 293.8C826.09 293.8 823.49 294.44 821.33 295.72C819.17 297 817.53 298.72 816.41 300.88C815.37 302.96 814.85 305.32 814.85 307.96V338.68C814.85 340.76 814.17 342.52 812.81 343.96C811.45 345.32 809.73 346 807.65 346C805.57 346 803.85 345.32 802.49 343.96C801.13 342.52 800.45 340.76 800.45 338.68V289.12C800.45 287.04 801.13 285.32 802.49 283.96C803.85 282.52 805.57 281.8 807.65 281.8C809.73 281.8 811.45 282.52 812.81 283.96C814.17 285.32 814.85 287.04 814.85 289.12V294.28L813.05 293.92C813.77 292.56 814.77 291.12 816.05 289.6C817.33 288 818.89 286.52 820.73 285.16C822.57 283.8 824.61 282.72 826.85 281.92C829.09 281.04 831.53 280.6 834.17 280.6ZM937.115 280.6C942.715 280.6 947.715 282.04 952.115 284.92C956.595 287.72 960.115 291.6 962.675 296.56C965.315 301.52 966.635 307.28 966.635 313.84C966.635 320.4 965.315 326.2 962.675 331.24C960.115 336.2 956.635 340.12 952.235 343C947.915 345.8 943.035 347.2 937.595 347.2C934.395 347.2 931.395 346.68 928.595 345.64C925.795 344.6 923.315 343.28 921.155 341.68C919.075 340.08 917.435 338.48 916.235 336.88C915.115 335.2 914.555 333.8 914.555 332.68L918.275 331.12V362.68C918.275 364.76 917.595 366.48 916.235 367.84C914.875 369.28 913.155 370 911.075 370C908.995 370 907.275 369.32 905.915 367.96C904.555 366.6 903.875 364.84 903.875 362.68V289.12C903.875 287.04 904.555 285.32 905.915 283.96C907.275 282.52 908.995 281.8 911.075 281.8C913.155 281.8 914.875 282.52 916.235 283.96C917.595 285.32 918.275 287.04 918.275 289.12V295L916.235 293.92C916.235 292.88 916.795 291.64 917.915 290.2C919.035 288.68 920.555 287.2 922.475 285.76C924.395 284.24 926.595 283 929.075 282.04C931.635 281.08 934.315 280.6 937.115 280.6ZM935.315 293.8C931.795 293.8 928.715 294.68 926.075 296.44C923.435 298.2 921.355 300.6 919.835 303.64C918.395 306.6 917.675 310 917.675 313.84C917.675 317.6 918.395 321.04 919.835 324.16C921.355 327.2 923.435 329.6 926.075 331.36C928.715 333.12 931.795 334 935.315 334C938.835 334 941.875 333.12 944.435 331.36C947.075 329.6 949.115 327.2 950.555 324.16C952.075 321.04 952.835 317.6 952.835 313.84C952.835 310 952.075 306.6 950.555 303.64C949.115 300.6 947.075 298.2 944.435 296.44C941.875 294.68 938.835 293.8 935.315 293.8ZM1024.59 280.6C1026.67 280.6 1028.39 281.28 1029.75 282.64C1031.11 284 1031.79 285.76 1031.79 287.92V338.68C1031.79 340.76 1031.11 342.52 1029.75 343.96C1028.39 345.32 1026.67 346 1024.59 346C1022.51 346 1020.79 345.32 1019.43 343.96C1018.07 342.52 1017.39 340.76 1017.39 338.68V332.8L1020.03 333.88C1020.03 334.92 1019.47 336.2 1018.35 337.72C1017.23 339.16 1015.71 340.6 1013.79 342.04C1011.87 343.48 1009.59 344.72 1006.95 345.76C1004.39 346.72 1001.59 347.2 998.547 347.2C993.027 347.2 988.027 345.8 983.547 343C979.067 340.12 975.507 336.2 972.867 331.24C970.307 326.2 969.027 320.44 969.027 313.96C969.027 307.4 970.307 301.64 972.867 296.68C975.507 291.64 979.027 287.72 983.427 284.92C987.827 282.04 992.707 280.6 998.067 280.6C1001.51 280.6 1004.67 281.12 1007.55 282.16C1010.43 283.2 1012.91 284.52 1014.99 286.12C1017.15 287.72 1018.79 289.36 1019.91 291.04C1021.11 292.64 1021.71 294 1021.71 295.12L1017.39 296.68V287.92C1017.39 285.84 1018.07 284.12 1019.43 282.76C1020.79 281.32 1022.51 280.6 1024.59 280.6ZM1000.35 334C1003.87 334 1006.95 333.12 1009.59 331.36C1012.23 329.6 1014.27 327.2 1015.71 324.16C1017.23 321.12 1017.99 317.72 1017.99 313.96C1017.99 310.12 1017.23 306.68 1015.71 303.64C1014.27 300.6 1012.23 298.2 1009.59 296.44C1006.95 294.68 1003.87 293.8 1000.35 293.8C996.907 293.8 993.867 294.68 991.227 296.44C988.587 298.2 986.507 300.6 984.987 303.64C983.547 306.68 982.827 310.12 982.827 313.96C982.827 317.72 983.547 321.12 984.987 324.16C986.507 327.2 988.587 329.6 991.227 331.36C993.867 333.12 996.907 334 1000.35 334ZM1074.5 280.6C1080.42 280.6 1084.9 281.84 1087.94 284.32C1091.06 286.8 1093.18 290.12 1094.3 294.28C1095.5 298.36 1096.1 302.92 1096.1 307.96V338.68C1096.1 340.76 1095.42 342.52 1094.06 343.96C1092.7 345.32 1090.98 346 1088.9 346C1086.82 346 1085.1 345.32 1083.74 343.96C1082.38 342.52 1081.7 340.76 1081.7 338.68V307.96C1081.7 305.32 1081.34 302.96 1080.62 300.88C1079.98 298.72 1078.78 297 1077.02 295.72C1075.26 294.44 1072.74 293.8 1069.46 293.8C1066.26 293.8 1063.54 294.44 1061.3 295.72C1059.14 297 1057.46 298.72 1056.26 300.88C1055.14 302.96 1054.58 305.32 1054.58 307.96V338.68C1054.58 340.76 1053.9 342.52 1052.54 343.96C1051.18 345.32 1049.46 346 1047.38 346C1045.3 346 1043.58 345.32 1042.22 343.96C1040.86 342.52 1040.18 340.76 1040.18 338.68V289.12C1040.18 287.04 1040.86 285.32 1042.22 283.96C1043.58 282.52 1045.3 281.8 1047.38 281.8C1049.46 281.8 1051.18 282.52 1052.54 283.96C1053.9 285.32 1054.58 287.04 1054.58 289.12V294.28L1052.78 293.92C1053.5 292.56 1054.54 291.12 1055.9 289.6C1057.26 288 1058.86 286.52 1060.7 285.16C1062.54 283.8 1064.62 282.72 1066.94 281.92C1069.26 281.04 1071.78 280.6 1074.5 280.6ZM1053.86 275.2C1052.1 275.2 1050.54 274.48 1049.18 273.04C1047.9 271.6 1047.26 269.6 1047.26 267.04C1047.26 264.48 1048.46 262.08 1050.86 259.84C1053.26 257.6 1056.98 256.48 1062.02 256.48C1064.1 256.48 1065.98 256.88 1067.66 257.68C1069.34 258.48 1070.86 259.4 1072.22 260.44C1073.66 261.4 1074.98 262.28 1076.18 263.08C1077.46 263.88 1078.62 264.28 1079.66 264.28C1080.54 264.28 1081.22 264.08 1081.7 263.68C1082.18 263.2 1082.3 262.56 1082.06 261.76C1081.5 259.92 1081.7 258.48 1082.66 257.44C1083.62 256.4 1084.82 255.88 1086.26 255.88C1088.1 255.88 1089.66 256.6 1090.94 258.04C1092.22 259.4 1092.86 261.32 1092.86 263.8C1092.86 265.16 1092.42 266.68 1091.54 268.36C1090.66 270.04 1089.22 271.52 1087.22 272.8C1085.22 274 1082.54 274.6 1079.18 274.6C1077.5 274.6 1075.78 274.2 1074.02 273.4C1072.34 272.6 1070.66 271.72 1068.98 270.76C1067.3 269.72 1065.74 268.8 1064.3 268C1062.86 267.2 1061.58 266.8 1060.46 266.8C1059.66 266.8 1058.98 267.04 1058.42 267.52C1057.94 267.92 1057.82 268.52 1058.06 269.32C1058.62 271.08 1058.42 272.52 1057.46 273.64C1056.5 274.68 1055.3 275.2 1053.86 275.2ZM1157.02 280.6C1159.1 280.6 1160.82 281.28 1162.18 282.64C1163.54 284 1164.22 285.76 1164.22 287.92V338.68C1164.22 340.76 1163.54 342.52 1162.18 343.96C1160.82 345.32 1159.1 346 1157.02 346C1154.94 346 1153.22 345.32 1151.86 343.96C1150.5 342.52 1149.82 340.76 1149.82 338.68V332.8L1152.46 333.88C1152.46 334.92 1151.9 336.2 1150.78 337.72C1149.66 339.16 1148.14 340.6 1146.22 342.04C1144.3 343.48 1142.02 344.72 1139.38 345.76C1136.82 346.72 1134.02 347.2 1130.98 347.2C1125.46 347.2 1120.46 345.8 1115.98 343C1111.5 340.12 1107.94 336.2 1105.3 331.24C1102.74 326.2 1101.46 320.44 1101.46 313.96C1101.46 307.4 1102.74 301.64 1105.3 296.68C1107.94 291.64 1111.46 287.72 1115.86 284.92C1120.26 282.04 1125.14 280.6 1130.5 280.6C1133.94 280.6 1137.1 281.12 1139.98 282.16C1142.86 283.2 1145.34 284.52 1147.42 286.12C1149.58 287.72 1151.22 289.36 1152.34 291.04C1153.54 292.64 1154.14 294 1154.14 295.12L1149.82 296.68V287.92C1149.82 285.84 1150.5 284.12 1151.86 282.76C1153.22 281.32 1154.94 280.6 1157.02 280.6ZM1132.78 334C1136.3 334 1139.38 333.12 1142.02 331.36C1144.66 329.6 1146.7 327.2 1148.14 324.16C1149.66 321.12 1150.42 317.72 1150.42 313.96C1150.42 310.12 1149.66 306.68 1148.14 303.64C1146.7 300.6 1144.66 298.2 1142.02 296.44C1139.38 294.68 1136.3 293.8 1132.78 293.8C1129.34 293.8 1126.3 294.68 1123.66 296.44C1121.02 298.2 1118.94 300.6 1117.42 303.64C1115.98 306.68 1115.26 310.12 1115.26 313.96C1115.26 317.72 1115.98 321.12 1117.42 324.16C1118.94 327.2 1121.02 329.6 1123.66 331.36C1126.3 333.12 1129.34 334 1132.78 334Z" fill="white"/>
<path fill-rule="evenodd" clip-rule="evenodd" d="M1417.4 500H1297.81C1287.93 484.45 1281.39 466.674 1290 451.423C1291.62 448.534 1293.97 445.825 1297.58 444.742C1299.93 444.019 1302.64 444.38 1305.17 444.922C1315.82 447.089 1325.21 453.048 1330.99 460.994C1331.86 458.07 1332.69 455.146 1333.52 452.238C1334.59 448.5 1335.65 444.786 1336.77 441.13C1337.31 438.963 1338.21 436.616 1340.38 435.352C1345.08 432.462 1351.22 436.977 1353.92 441.311C1354.2 441.801 1354.47 442.302 1354.75 442.808C1357 446.953 1359.41 451.38 1364.4 452.506C1365.66 444.019 1366.93 435.532 1368.01 427.045C1369.09 419.1 1372.34 409.168 1381.73 408.084C1389.68 407.182 1396 413.682 1399.61 419.822C1406.11 431.198 1408.64 444.2 1406.48 456.66C1409.56 455.539 1411.44 453.006 1413.32 450.493C1413.86 449.766 1414.4 449.042 1414.96 448.353C1417.49 445.283 1422.37 442.755 1426.16 444.742C1429.59 446.547 1429.41 450.881 1428.87 454.312C1425.98 469.661 1422.19 484.83 1417.49 499.818C1417.49 499.818 1417.46 499.88 1417.4 500Z" fill="#BACC81"/>
<g filter="url(#filter1_f_811_1503)">
<path d="M165 310.5C165 385.887 103.887 447 28.5 447C-46.8869 447 -108 385.887 -108 310.5C-108 235.113 -46.8869 174 28.5 174C103.887 174 165 235.113 165 310.5Z" fill="#BACC81"/>
</g>
<defs>
<filter id="filter0_f_811_1503" x="101" y="-849" width="2617" height="2617" filterUnits="userSpaceOnUse" color-interpolation-filters="sRGB">
<feFlood flood-opacity="0" result="BackgroundImageFix"/>
<feBlend mode="normal" in="SourceGraphic" in2="BackgroundImageFix" result="shape"/>
<feGaussianBlur stdDeviation="500" result="effect1_foregroundBlur_811_1503"/>
</filter>
<filter id="filter1_f_811_1503" x="-1108" y="-826" width="2273" height="2273" filterUnits="userSpaceOnUse" color-interpolation-filters="sRGB">
<feFlood flood-opacity="0" result="BackgroundImageFix"/>
<feBlend mode="normal" in="SourceGraphic" in2="BackgroundImageFix" result="shape"/>
<feGaussianBlur stdDeviation="500" result="effect1_foregroundBlur_811_1503"/>
</filter>
</defs>
</svg>
