<svg width="560" height="506" viewBox="0 0 560 506" fill="none" xmlns="http://www.w3.org/2000/svg">
<g clip-path="url(#clip0_831_2475)">
<rect x="1" y="1" width="558" height="206" stroke="#478C5C" stroke-width="2"/>
<mask id="mask0_831_2475" style="mask-type:alpha" maskUnits="userSpaceOnUse" x="231" y="55" width="97" height="97">
<rect x="231" y="55" width="97" height="97" fill="#D9D9D9"/>
</mask>
<g mask="url(#mask0_831_2475)">
<path d="M252.453 137.854C250.411 137.854 248.683 137.147 247.268 135.732C245.854 134.318 245.146 132.59 245.146 130.548V76.4521C245.146 74.4104 245.854 72.6823 247.268 71.2677C248.683 69.8531 250.411 69.1458 252.453 69.1458H306.548C308.59 69.1458 310.318 69.8531 311.733 71.2677C313.148 72.6823 313.855 74.4104 313.855 76.4521V130.548C313.855 132.59 313.148 134.318 311.733 135.732C310.318 137.147 308.59 137.854 306.548 137.854H252.453ZM252.453 131.792H306.548C306.86 131.792 307.145 131.662 307.403 131.403C307.663 131.144 307.792 130.859 307.792 130.548V76.4521C307.792 76.1409 307.663 75.856 307.403 75.5973C307.145 75.338 306.86 75.2083 306.548 75.2083H252.453C252.142 75.2083 251.857 75.338 251.598 75.5973C251.339 75.856 251.209 76.1409 251.209 76.4521V130.548C251.209 130.859 251.339 131.144 251.598 131.403C251.857 131.662 252.142 131.792 252.453 131.792ZM261.936 122.698H297.377C298.108 122.698 298.649 122.366 299.002 121.703C299.354 121.04 299.299 120.398 298.838 119.776L289.201 106.866C288.822 106.379 288.335 106.135 287.74 106.135C287.143 106.135 286.656 106.379 286.279 106.866L276.392 119.744L269.769 111.257C269.391 110.796 268.911 110.565 268.327 110.565C267.745 110.565 267.264 110.809 266.886 111.296L260.513 119.776C260.026 120.398 259.959 121.04 260.311 121.703C260.663 122.366 261.205 122.698 261.936 122.698Z" fill="#C6DBCC"/>
</g>
<mask id="mask1_831_2475" style="mask-type:alpha" maskUnits="userSpaceOnUse" x="32" y="234" width="60" height="60">
<rect x="32" y="234" width="60" height="60" fill="#D9D9D9"/>
</mask>
<g mask="url(#mask1_831_2475)">
<path d="M59.3741 266.664L55.3166 262.644C54.9703 262.298 54.5416 262.121 54.0303 262.113C53.5191 262.105 53.0695 262.295 52.6816 262.682C52.3195 263.045 52.1384 263.484 52.1384 264C52.1384 264.516 52.3195 264.955 52.6816 265.317L57.7922 270.428C58.2443 270.88 58.7716 271.106 59.3741 271.106C59.9766 271.106 60.5039 270.88 60.9559 270.428L71.3166 260.067C71.6882 259.695 71.8716 259.26 71.8666 258.762C71.862 258.264 71.6786 257.82 71.3166 257.432C70.9286 257.045 70.483 256.845 69.9797 256.832C69.4768 256.819 69.0314 257.006 68.6434 257.394L59.3741 266.664ZM53.0234 286.957L49.5666 281.144L43.0278 279.74C42.467 279.631 42.0191 279.336 41.6841 278.856C41.3491 278.375 41.2153 277.854 41.2828 277.293L41.9222 270.567L37.4753 265.481C37.0907 265.071 36.8984 264.577 36.8984 264C36.8984 263.423 37.0907 262.929 37.4753 262.519L41.9222 257.432L41.2828 250.707C41.2153 250.146 41.3491 249.625 41.6841 249.144C42.0191 248.664 42.467 248.369 43.0278 248.26L49.5666 246.856L53.0234 241.043C53.3247 240.55 53.7349 240.213 54.2541 240.034C54.7732 239.854 55.3005 239.881 55.8359 240.116L61.9991 242.721L68.1622 240.116C68.6976 239.881 69.2249 239.854 69.7441 240.034C70.2632 240.213 70.6734 240.55 70.9747 241.043L74.4316 246.856L80.9703 248.26C81.5311 248.369 81.9791 248.664 82.3141 249.144C82.6491 249.625 82.7828 250.146 82.7153 250.707L82.0759 257.432L86.5228 262.519C86.9074 262.929 87.0997 263.423 87.0997 264C87.0997 264.577 86.9074 265.071 86.5228 265.481L82.0759 270.567L82.7153 277.293C82.7828 277.854 82.6491 278.375 82.3141 278.856C81.9791 279.336 81.5311 279.631 80.9703 279.74L74.4316 281.144L70.9747 286.957C70.6734 287.45 70.2632 287.787 69.7441 287.966C69.2249 288.146 68.6976 288.119 68.1622 287.884L61.9991 285.279L55.8359 287.884C55.3005 288.119 54.7732 288.146 54.2541 287.966C53.7349 287.787 53.3247 287.45 53.0234 286.957ZM55.6241 283.875L61.9991 281.173L68.4509 283.875L71.9991 277.875L78.8741 276.298L78.2491 269.25L82.8741 264L78.2491 258.673L78.8741 251.625L71.9991 250.125L68.3741 244.125L61.9991 246.827L55.5472 244.125L51.9991 250.125L45.1241 251.625L45.7491 258.673L41.1241 264L45.7491 269.25L45.1241 276.375L51.9991 277.875L55.6241 283.875Z" fill="#478C5C"/>
</g>
<rect x="32" y="314" width="496" height="20" rx="2" fill="#C6DBCC"/>
<rect x="32" y="358" width="150" height="20" rx="2" fill="#C6DBCC"/>
<rect x="202" y="358" width="150" height="20" rx="2" fill="#C6DBCC"/>
<rect x="32" y="402" width="406" height="10" rx="2" fill="#C6DBCC"/>
<rect x="458" y="402" width="70" height="10" rx="2" fill="#C6DBCC"/>
<rect x="32" y="432" width="250" height="48" rx="2" fill="#C6DBCC"/>
</g>
<path d="M1 7.99999C1 4.134 4.13401 1 8 1H552C555.866 1 559 4.13401 559 8V498C559 501.866 555.866 505 552 505H7.99998C4.13399 505 1 501.866 1 498V7.99999Z" stroke="#478C5C" stroke-width="2"/>
<defs>
<clipPath id="clip0_831_2475">
<path d="M0 7.99999C0 3.58171 3.58172 0 8 0H552C556.418 0 560 3.58172 560 8V498C560 502.418 556.418 506 552 506H7.99998C3.5817 506 0 502.418 0 498V7.99999Z" fill="white"/>
</clipPath>
</defs>
</svg>
