<svg width="621" height="552" viewBox="0 0 621 552" fill="none" xmlns="http://www.w3.org/2000/svg">
<path d="M26.8997 194.045C30.1767 176.591 45.6061 163.773 63.3568 163.773H127.942C145.829 163.773 161.122 176.455 164.399 194.045L177.78 264.273C180.784 280.364 194.439 292.636 210.687 294.136L340.677 306.136C344.636 306.545 348.187 308.318 350.644 311.455C353.102 314.455 354.331 318.409 353.921 322.227L349.415 365.591C348.596 373.091 342.315 378.818 334.805 378.818H229.53C222.02 378.818 215.739 373.091 214.92 365.591L210.005 318.136C208.639 304.364 197.443 293.318 183.652 292.091L35.9115 278.455C29.494 277.909 23.8957 274.773 20.0725 269.591C16.2493 264.409 14.7473 258.136 15.9762 251.864L26.8997 194.045Z" fill="white" stroke="#478C5C" stroke-width="1.5" stroke-miterlimit="10" stroke-linecap="round" stroke-linejoin="round"/>
<path d="M334.395 378.818H179.008C173.274 378.818 168.768 374.182 168.768 368.591V354.545C168.768 348.818 173.41 344.318 179.008 344.318H334.395C340.13 344.318 344.636 348.954 344.636 354.545V368.591C344.636 374.182 339.993 378.818 334.395 378.818Z" stroke="#478C5C" stroke-width="1.5" stroke-miterlimit="10" stroke-linecap="round" stroke-linejoin="round"/>
<path d="M229.667 378.818V393.273H334.942C349.962 393.273 362.387 381.954 364.026 367.091L368.531 323.727C369.351 315.954 367.03 308.318 362.114 302.182C357.062 296.182 350.098 292.364 342.179 291.682L212.189 279.682C202.221 278.727 194.029 271.227 192.117 261.545L178.736 191.318C174.094 167.045 152.793 149.318 127.942 149.318H63.3567C38.6423 149.318 17.205 166.909 12.5625 191.318L26.763 194.045C30.0401 176.591 45.4695 163.773 63.2201 163.773H127.805C145.692 163.773 160.985 176.454 164.262 194.045L177.644 264.273C180.648 280.364 194.302 292.636 210.551 294.136L340.54 306.136C344.5 306.545 348.05 308.318 350.508 311.454C352.966 314.454 354.194 318.409 353.785 322.227L349.279 365.591C348.46 373.091 342.179 378.818 334.669 378.818H229.667Z" fill="white"/>
<path d="M26.8996 194.045C30.1766 176.591 45.606 163.773 63.3567 163.773H127.942C145.829 163.773 161.122 176.454 164.399 194.045L177.78 264.273C180.784 280.364 194.438 292.636 210.687 294.136L340.677 306.136C344.636 306.545 348.186 308.318 350.644 311.454C353.102 314.454 354.331 318.409 353.921 322.227L349.415 365.591C348.596 373.091 342.315 378.818 334.805 378.818H229.53M229.667 393.273H334.942C349.962 393.273 362.387 381.954 364.026 367.091L368.531 323.727C369.351 315.954 367.03 308.318 362.114 302.182C357.062 296.182 350.098 292.364 342.179 291.682L212.189 279.682C202.221 278.727 194.029 271.227 192.117 261.545L178.736 191.318C174.093 167.045 152.793 149.318 127.942 149.318H63.3567C38.6423 149.318 17.205 166.909 12.5625 191.318" stroke="#478C5C" stroke-width="1.5" stroke-miterlimit="10" stroke-linecap="round" stroke-linejoin="round"/>
<path d="M49.8398 535.091L79.0602 404.863C81.5179 393.954 91.2125 386.182 102.409 386.182H180.239C193.484 386.182 204.271 396.954 204.271 410.182V535.227" stroke="#2D2D2D" stroke-width="1.5" stroke-miterlimit="10" stroke-linecap="round" stroke-linejoin="round"/>
<path d="M49.8398 535.091L79.0602 404.863C81.5179 393.954 91.2125 386.182 102.409 386.182H180.239C193.484 386.182 204.271 396.954 204.271 410.182V535.227" stroke="black" stroke-opacity="0.2" stroke-width="1.5" stroke-miterlimit="10" stroke-linecap="round" stroke-linejoin="round"/>
<path d="M61.8555 481.364H204.134" stroke="#2D2D2D" stroke-width="1.5" stroke-miterlimit="10" stroke-linecap="round" stroke-linejoin="round"/>
<path d="M61.8555 481.364H204.134" stroke="black" stroke-opacity="0.2" stroke-width="1.5" stroke-miterlimit="10" stroke-linecap="round" stroke-linejoin="round"/>
<path d="M162.623 533.591L191.843 404.591C194.301 393.818 203.996 386.045 215.192 386.045H293.022C306.267 386.045 317.054 396.682 317.054 409.773V533.591" stroke="#2D2D2D" stroke-width="1.5" stroke-miterlimit="10" stroke-linecap="round" stroke-linejoin="round"/>
<path d="M162.623 533.591L191.843 404.591C194.301 393.818 203.996 386.045 215.192 386.045H293.022C306.267 386.045 317.054 396.682 317.054 409.773V533.591" stroke="black" stroke-opacity="0.2" stroke-width="1.5" stroke-miterlimit="10" stroke-linecap="round" stroke-linejoin="round"/>
<path d="M174.639 481.364H316.917" stroke="#2D2D2D" stroke-width="1.5" stroke-miterlimit="10" stroke-linecap="round" stroke-linejoin="round"/>
<path d="M174.639 481.364H316.917" stroke="black" stroke-opacity="0.2" stroke-width="1.5" stroke-miterlimit="10" stroke-linecap="round" stroke-linejoin="round"/>
<path d="M354.602 215.591C354.329 214.909 353.919 214.227 353.646 213.545C352.008 210.409 350.506 207.136 347.638 204.955C343.132 201.545 326.747 193.773 323.334 193.909C320.057 193.909 314.322 195.136 309.543 195.955C304.764 196.773 301.623 196.909 297.663 197.455C285.784 198.955 274.724 199.5 262.845 199.5C262.845 199.5 248.781 162.136 244.002 152.045C235.946 135.273 230.347 121.091 208.501 121.636C197.44 127.364 210.685 169.636 210.685 169.636C210.685 169.636 221.609 196.091 227.344 208.364C232.259 218.727 236.902 235.5 254.106 232.636C277.455 228.955 295.888 222.682 303.262 221.455C309.816 220.364 316.506 220.227 323.197 219.955C325.518 219.818 327.84 219.136 330.161 220.091C332.619 221.045 334.667 222.818 336.715 224.318C338.626 225.818 340.675 227.182 342.996 228C345.181 228.818 347.638 228.545 349.687 227.455C349.823 227.455 349.96 227.318 350.096 227.318C350.233 227.318 350.369 227.318 350.506 227.455C351.735 228.136 352.827 228.682 354.192 229.091C356.514 229.636 359.791 228.545 359.108 225.818C358.425 223.364 357.333 221.045 356.241 218.727C355.558 217.636 355.012 216.545 354.602 215.591Z" fill="#FFC4B0"/>
<path d="M262.708 199.364C257.11 199.909 251.375 202.364 247.006 205.091" stroke="#2D2D2D" stroke-width="1.5" stroke-miterlimit="10" stroke-linecap="round" stroke-linejoin="round"/>
<path d="M262.708 199.364C257.11 199.909 251.375 202.364 247.006 205.091" stroke="black" stroke-opacity="0.2" stroke-width="1.5" stroke-miterlimit="10" stroke-linecap="round" stroke-linejoin="round"/>
<path d="M212.051 105.136C227.344 109.364 232.669 113.454 240.725 134.318C247.962 153.273 255.609 174.136 255.609 174.136C255.609 174.136 228.573 195.954 197.168 187.636V122.864L212.051 105.136Z" fill="#478C5C"/>
<path d="M312.686 518.727C313.233 520.091 314.325 521.318 315.69 522C316.51 522.409 317.465 522.545 318.421 522.545C324.293 523.091 330.164 523.227 336.035 523.227C338.63 523.227 341.224 523.227 343.818 523.364C346.686 523.5 349.553 523.636 352.557 523.773C365.938 524.454 379.32 524.864 392.701 524.591C399.392 524.454 405.946 524.182 412.636 523.636C415.913 523.364 419.19 523.091 422.604 522.545C425.062 522.273 427.793 521.454 429.431 519.545C432.299 516.273 431.479 510.954 428.885 507.682C426.154 504.273 421.512 503.045 417.552 501.954C412.773 500.591 407.857 499.636 403.215 497.727C395.432 494.727 388.878 489.954 382.051 485.045C372.629 478.364 360.886 473.045 361.979 465.409C361.979 465.409 374.814 397.091 379.183 366.682C384.235 330.545 384.645 319.5 382.051 304.909C380.002 293.591 367.987 278.045 358.155 272.045C335.626 258.409 296.984 248.591 222.158 239.864H182.287C165.902 282.136 173.139 307.773 203.588 326.045C231.306 342.545 277.595 340.636 290.293 340.909C290.293 340.909 309.546 340.909 317.192 340.909C313.779 350.182 310.092 362.182 310.092 395.454C310.092 407.591 310.638 419.727 311.048 432C311.594 448.636 311.594 516 312.686 518.727Z" fill="#FFC4B0"/>
<path d="M309.818 417.682V430.5C309.818 430.5 320.332 437.182 339.312 437.318C358.291 437.455 369.351 432.273 369.351 432.273L371.946 417.545H309.818V417.682Z" fill="#2D2D2D"/>
<path d="M309.818 417.682V430.5C309.818 430.5 320.332 437.182 339.312 437.318C358.291 437.455 369.351 432.273 369.351 432.273L371.946 417.545H309.818V417.682Z" fill="black" fill-opacity="0.2"/>
<path d="M333.032 335.454C328.39 338.591 323.611 340.773 317.057 341.045" stroke="#2D2D2D" stroke-width="1.5" stroke-miterlimit="10" stroke-linecap="round" stroke-linejoin="round"/>
<path d="M333.032 335.454C328.39 338.591 323.611 340.773 317.057 341.045" stroke="black" stroke-opacity="0.2" stroke-width="1.5" stroke-miterlimit="10" stroke-linecap="round" stroke-linejoin="round"/>
<path d="M310.775 438.818C306.542 439.636 306.952 442.773 307.089 445.636C307.362 453.682 306.952 463.5 306.816 472.773C306.679 482.045 302.31 488.864 301.627 502.773C301.081 513.136 302.037 520.364 316.374 521.045C330.711 521.727 373.585 521.454 396.934 521.591C419.737 521.727 427.11 521.727 431.48 519.136C431.07 507.682 427.11 504.136 417.416 500.045C404.444 494.591 395.432 490.773 384.372 486.545C373.995 482.591 370.854 478.909 369.216 474.682C367.441 470.591 368.124 462.682 368.806 456.818C369.899 446.182 371.264 442.227 366.895 441.545L365.802 447C365.802 447 358.566 453.818 338.767 453C317.739 452.182 311.048 444.954 311.048 444.954L310.775 438.818Z" fill="white"/>
<path d="M310.775 438.818C306.542 439.636 306.952 442.773 307.089 445.636C307.362 453.682 306.952 463.5 306.816 472.773C306.679 482.045 302.31 488.864 301.627 502.773C301.081 513.136 302.037 520.364 316.374 521.045C330.711 521.727 373.585 521.454 396.934 521.591C419.737 521.727 427.11 521.727 431.48 519.136C431.07 507.682 427.11 504.136 417.416 500.045C404.444 494.591 395.432 490.773 384.372 486.545C373.995 482.591 370.854 478.909 369.216 474.682C367.441 470.591 368.124 462.682 368.806 456.818C369.899 446.182 371.264 442.227 366.895 441.545L365.802 447C365.802 447 358.566 453.818 338.767 453C317.739 452.182 311.048 444.954 311.048 444.954L310.775 438.818Z" stroke="#2D2D2D" stroke-width="1.5" stroke-miterlimit="10" stroke-linecap="round" stroke-linejoin="round"/>
<path d="M310.775 438.818C306.542 439.636 306.952 442.773 307.089 445.636C307.362 453.682 306.952 463.5 306.816 472.773C306.679 482.045 302.31 488.864 301.627 502.773C301.081 513.136 302.037 520.364 316.374 521.045C330.711 521.727 373.585 521.454 396.934 521.591C419.737 521.727 427.11 521.727 431.48 519.136C431.07 507.682 427.11 504.136 417.416 500.045C404.444 494.591 395.432 490.773 384.372 486.545C373.995 482.591 370.854 478.909 369.216 474.682C367.441 470.591 368.124 462.682 368.806 456.818C369.899 446.182 371.264 442.227 366.895 441.545L365.802 447C365.802 447 358.566 453.818 338.767 453C317.739 452.182 311.048 444.954 311.048 444.954L310.775 438.818Z" stroke="black" stroke-opacity="0.2" stroke-width="1.5" stroke-miterlimit="10" stroke-linecap="round" stroke-linejoin="round"/>
<path d="M428.885 533.591C422.604 535.364 388.605 534.955 388.605 534.955C388.605 534.955 331.939 534.818 318.968 534.682C305.996 534.682 299.169 534.136 296.029 529.364C294.253 526.5 293.434 522 294.39 514.773C297.804 519.955 300.671 521.182 320.197 521.182C342.317 521.182 396.388 521.591 408.131 521.455C416.323 521.318 429.022 522.545 434.62 516.682C436.395 519.545 438.443 531 428.885 533.591Z" fill="#2D2D2D"/>
<path d="M428.885 533.591C422.604 535.364 388.605 534.955 388.605 534.955C388.605 534.955 331.939 534.818 318.968 534.682C305.996 534.682 299.169 534.136 296.029 529.364C294.253 526.5 293.434 522 294.39 514.773C297.804 519.955 300.671 521.182 320.197 521.182C342.317 521.182 396.388 521.591 408.131 521.455C416.323 521.318 429.022 522.545 434.62 516.682C436.395 519.545 438.443 531 428.885 533.591Z" fill="black" fill-opacity="0.2"/>
<path d="M428.885 533.591C422.604 535.364 388.605 534.955 388.605 534.955C388.605 534.955 331.939 534.818 318.968 534.682C305.996 534.682 299.169 534.136 296.029 529.364C294.253 526.5 293.434 522 294.39 514.773C297.804 519.955 300.671 521.182 320.197 521.182C342.317 521.182 396.388 521.591 408.131 521.455C416.323 521.318 429.022 522.545 434.62 516.682C436.395 519.545 438.443 531 428.885 533.591Z" stroke="#2D2D2D" stroke-width="1.5" stroke-miterlimit="10" stroke-linecap="round" stroke-linejoin="round"/>
<path d="M428.885 533.591C422.604 535.364 388.605 534.955 388.605 534.955C388.605 534.955 331.939 534.818 318.968 534.682C305.996 534.682 299.169 534.136 296.029 529.364C294.253 526.5 293.434 522 294.39 514.773C297.804 519.955 300.671 521.182 320.197 521.182C342.317 521.182 396.388 521.591 408.131 521.455C416.323 521.318 429.022 522.545 434.62 516.682C436.395 519.545 438.443 531 428.885 533.591Z" stroke="black" stroke-opacity="0.2" stroke-width="1.5" stroke-miterlimit="10" stroke-linecap="round" stroke-linejoin="round"/>
<path d="M236.084 518.727C236.63 520.091 237.723 521.318 239.088 522C239.908 522.409 240.863 522.545 241.819 522.545C247.691 523.091 253.562 523.227 259.433 523.227C262.028 523.227 264.622 523.227 267.216 523.364C270.084 523.5 272.951 523.636 275.955 523.773C289.336 524.454 302.718 524.864 316.099 524.591C322.789 524.454 329.344 524.182 336.034 523.636C339.311 523.364 342.588 523.091 346.002 522.545C348.46 522.273 351.191 521.454 352.829 519.545C355.696 516.273 354.877 510.954 352.283 507.682C349.552 504.273 344.91 503.045 340.95 501.954C336.171 500.591 331.255 499.636 326.613 497.727C318.83 494.727 312.276 489.954 305.448 485.045C296.027 478.364 284.284 473.045 285.377 465.409C285.377 465.409 300.943 394.5 305.722 364.227C311.047 331.227 314.46 315.818 311.866 301.091C309.818 289.773 301.079 276.136 290.838 271.091C265.441 258.409 259.16 249.409 190.069 233.318H110.328C93.9425 275.591 96.2637 307.909 126.849 326.045C154.568 342.545 200.856 340.636 213.555 340.909C213.555 340.909 232.807 340.909 240.454 340.909C237.04 350.182 233.353 362.182 233.353 395.454C233.353 407.591 233.9 419.727 234.309 432C234.992 448.636 234.992 516 236.084 518.727Z" fill="#FFC4B0"/>
<path d="M232.398 414.545V426.682C232.398 426.682 245.097 435 264.077 435.136C283.056 435.273 294.116 430.091 294.116 430.091L296.71 415.364L232.398 414.545Z" fill="#2D2D2D"/>
<path d="M232.398 414.545V426.682C232.398 426.682 245.097 435 264.077 435.136C283.056 435.273 294.116 430.091 294.116 430.091L296.71 415.364L232.398 414.545Z" fill="black" fill-opacity="0.2"/>
<path d="M218.197 514.909C218.197 513.273 222.84 510.682 229.94 510.682V520.909C229.94 520.909 218.197 521.045 218.197 514.909Z" fill="#2D2D2D"/>
<path d="M218.197 514.909C218.197 513.273 222.84 510.682 229.94 510.682V520.909C229.94 520.909 218.197 521.045 218.197 514.909Z" fill="black" fill-opacity="0.2"/>
<path d="M218.197 514.909C218.197 513.273 222.84 510.682 229.94 510.682V520.909C229.94 520.909 218.197 521.045 218.197 514.909Z" stroke="#2D2D2D" stroke-width="1.5" stroke-miterlimit="10" stroke-linecap="round" stroke-linejoin="round"/>
<path d="M218.197 514.909C218.197 513.273 222.84 510.682 229.94 510.682V520.909C229.94 520.909 218.197 521.045 218.197 514.909Z" stroke="black" stroke-opacity="0.2" stroke-width="1.5" stroke-miterlimit="10" stroke-linecap="round" stroke-linejoin="round"/>
<path d="M234.445 438.818C230.212 439.636 230.622 442.773 230.759 445.636C231.032 453.682 230.622 463.5 230.485 472.773C230.349 482.045 225.98 488.864 225.297 502.773C224.751 513.136 225.706 520.364 240.044 521.045C254.381 521.727 297.255 521.454 320.604 521.591C343.407 521.727 350.78 521.727 355.15 519.136C354.74 507.682 350.78 504.136 341.086 500.045C328.114 494.591 319.102 490.773 308.042 486.545C297.665 482.591 294.524 478.909 292.886 474.682C291.111 470.591 291.794 462.682 292.476 456.818C293.569 446.182 294.934 442.227 290.565 441.545L289.472 447C289.472 447 282.235 453.818 262.437 453C241.409 452.182 234.718 444.954 234.718 444.954L234.445 438.818Z" fill="white"/>
<path d="M234.445 438.818C230.212 439.636 230.622 442.773 230.759 445.636C231.032 453.682 230.622 463.5 230.485 472.773C230.349 482.045 225.98 488.864 225.297 502.773C224.751 513.136 225.706 520.364 240.044 521.045C254.381 521.727 297.255 521.454 320.604 521.591C343.407 521.727 350.78 521.727 355.15 519.136C354.74 507.682 350.78 504.136 341.086 500.045C328.114 494.591 319.102 490.773 308.042 486.545C297.665 482.591 294.524 478.909 292.886 474.682C291.111 470.591 291.794 462.682 292.476 456.818C293.569 446.182 294.934 442.227 290.565 441.545L289.472 447C289.472 447 282.235 453.818 262.437 453C241.409 452.182 234.718 444.954 234.718 444.954L234.445 438.818Z" stroke="#2D2D2D" stroke-width="1.5" stroke-miterlimit="10" stroke-linecap="round" stroke-linejoin="round"/>
<path d="M234.445 438.818C230.212 439.636 230.622 442.773 230.759 445.636C231.032 453.682 230.622 463.5 230.485 472.773C230.349 482.045 225.98 488.864 225.297 502.773C224.751 513.136 225.706 520.364 240.044 521.045C254.381 521.727 297.255 521.454 320.604 521.591C343.407 521.727 350.78 521.727 355.15 519.136C354.74 507.682 350.78 504.136 341.086 500.045C328.114 494.591 319.102 490.773 308.042 486.545C297.665 482.591 294.524 478.909 292.886 474.682C291.111 470.591 291.794 462.682 292.476 456.818C293.569 446.182 294.934 442.227 290.565 441.545L289.472 447C289.472 447 282.235 453.818 262.437 453C241.409 452.182 234.718 444.954 234.718 444.954L234.445 438.818Z" stroke="black" stroke-opacity="0.2" stroke-width="1.5" stroke-miterlimit="10" stroke-linecap="round" stroke-linejoin="round"/>
<path d="M352.692 533.591C346.411 535.364 312.412 534.955 312.412 534.955C312.412 534.955 255.746 534.818 242.774 534.682C229.803 534.682 222.976 534.136 219.835 529.364C218.06 526.5 217.241 522 218.197 514.773C221.61 519.955 224.478 521.182 244.003 521.182C266.123 521.182 320.195 521.591 331.937 521.455C340.13 521.318 352.829 522.545 358.427 516.682C360.202 519.545 362.25 531 352.692 533.591Z" fill="#2D2D2D"/>
<path d="M352.692 533.591C346.411 535.364 312.412 534.955 312.412 534.955C312.412 534.955 255.746 534.818 242.774 534.682C229.803 534.682 222.976 534.136 219.835 529.364C218.06 526.5 217.241 522 218.197 514.773C221.61 519.955 224.478 521.182 244.003 521.182C266.123 521.182 320.195 521.591 331.937 521.455C340.13 521.318 352.829 522.545 358.427 516.682C360.202 519.545 362.25 531 352.692 533.591Z" fill="black" fill-opacity="0.2"/>
<path d="M352.692 533.591C346.411 535.364 312.412 534.955 312.412 534.955C312.412 534.955 255.746 534.818 242.774 534.682C229.803 534.682 222.976 534.136 219.835 529.364C218.06 526.5 217.241 522 218.197 514.773C221.61 519.955 224.478 521.182 244.003 521.182C266.123 521.182 320.195 521.591 331.937 521.455C340.13 521.318 352.829 522.545 358.427 516.682C360.202 519.545 362.25 531 352.692 533.591Z" stroke="#2D2D2D" stroke-width="1.5" stroke-miterlimit="10" stroke-linecap="round" stroke-linejoin="round"/>
<path d="M352.692 533.591C346.411 535.364 312.412 534.955 312.412 534.955C312.412 534.955 255.746 534.818 242.774 534.682C229.803 534.682 222.976 534.136 219.835 529.364C218.06 526.5 217.241 522 218.197 514.773C221.61 519.955 224.478 521.182 244.003 521.182C266.123 521.182 320.195 521.591 331.937 521.455C340.13 521.318 352.829 522.545 358.427 516.682C360.202 519.545 362.25 531 352.692 533.591Z" stroke="black" stroke-opacity="0.2" stroke-width="1.5" stroke-miterlimit="10" stroke-linecap="round" stroke-linejoin="round"/>
<path d="M382.869 286.364C374.267 272.182 367.303 267.954 324.975 254.864C296.027 245.864 221.201 237.136 221.201 237.136L110.328 233.318C96.6737 256.773 87.1157 299.182 105.822 327.682C112.24 337.5 123.3 343.227 135.042 343.227C155.661 343.227 190.479 343.091 202.085 343.227C218.334 343.5 234.037 343.227 234.037 343.227C234.037 343.227 234.719 350.454 230.623 377.182C229.121 386.591 223.659 411 231.442 416.182C243.458 425.591 277.184 428.727 296.983 420.954C302.581 418.091 302.854 410.318 304.083 401.727C302.445 415.773 305.312 417.409 308.589 419.727C323.199 428.727 358.701 427.636 374.949 420.273C384.917 415.636 383.825 395.864 388.058 342.136C390.242 315.273 389.969 297.954 382.869 286.364Z" fill="#BACC81"/>
<path d="M244.551 252.818C263.803 256.909 270.767 259.773 290.293 266.591C300.397 270.136 309.546 278.454 313.505 288.954C316.236 296.045 316.509 303.818 316.236 311.454C315.417 332.727 307.361 380.182 304.084 401.727C302.445 412.364 301.353 420.273 295.345 422.591" stroke="#2D2D2D" stroke-width="1.5" stroke-miterlimit="10" stroke-linecap="round" stroke-linejoin="round"/>
<path d="M244.551 252.818C263.803 256.909 270.767 259.773 290.293 266.591C300.397 270.136 309.546 278.454 313.505 288.954C316.236 296.045 316.509 303.818 316.236 311.454C315.417 332.727 307.361 380.182 304.084 401.727C302.445 412.364 301.353 420.273 295.345 422.591" stroke="black" stroke-opacity="0.2" stroke-width="1.5" stroke-miterlimit="10" stroke-linecap="round" stroke-linejoin="round"/>
<path d="M241.274 326.182C238.27 331.363 237.041 335.454 234.037 343.363" stroke="#2D2D2D" stroke-width="1.5" stroke-miterlimit="10" stroke-linecap="round" stroke-linejoin="round"/>
<path d="M241.274 326.182C238.27 331.363 237.041 335.454 234.037 343.363" stroke="black" stroke-opacity="0.2" stroke-width="1.5" stroke-miterlimit="10" stroke-linecap="round" stroke-linejoin="round"/>
<path d="M109.234 122.455L162.896 121.364L159.892 25.0909L137.499 24.5454C123.298 24.1363 111.419 35.4545 111.146 49.6363L109.234 122.455Z" fill="#2D2D2D"/>
<path d="M109.234 122.455L162.896 121.364L159.892 25.0909L137.499 24.5454C123.298 24.1363 111.419 35.4545 111.146 49.6363L109.234 122.455Z" fill="black" fill-opacity="0.2"/>
<path d="M109.234 122.455L162.896 121.364L159.892 25.0909L137.499 24.5454C123.298 24.1363 111.419 35.4545 111.146 49.6363L109.234 122.455Z" stroke="#2D2D2D" stroke-width="1.5" stroke-miterlimit="10" stroke-linecap="round" stroke-linejoin="round"/>
<path d="M109.234 122.455L162.896 121.364L159.892 25.0909L137.499 24.5454C123.298 24.1363 111.419 35.4545 111.146 49.6363L109.234 122.455Z" stroke="black" stroke-opacity="0.2" stroke-width="1.5" stroke-miterlimit="10" stroke-linecap="round" stroke-linejoin="round"/>
<path d="M208.228 41.4545C206.862 62.3181 188.156 78.1363 166.172 76.7727C144.325 75.409 127.531 57.409 128.896 36.5454C130.262 15.6818 148.968 -0.136429 170.951 1.22721C192.935 2.45448 209.593 20.4545 208.228 41.4545Z" fill="#2D2D2D"/>
<path d="M208.228 41.4545C206.862 62.3181 188.156 78.1363 166.172 76.7727C144.325 75.409 127.531 57.409 128.896 36.5454C130.262 15.6818 148.968 -0.136429 170.951 1.22721C192.935 2.45448 209.593 20.4545 208.228 41.4545Z" fill="black" fill-opacity="0.2"/>
<path d="M208.228 41.4545C206.862 62.3181 188.156 78.1363 166.172 76.7727C144.325 75.409 127.531 57.409 128.896 36.5454C130.262 15.6818 148.968 -0.136429 170.951 1.22721C192.935 2.45448 209.593 20.4545 208.228 41.4545Z" stroke="#2D2D2D" stroke-width="1.5" stroke-miterlimit="10" stroke-linecap="round" stroke-linejoin="round"/>
<path d="M208.228 41.4545C206.862 62.3181 188.156 78.1363 166.172 76.7727C144.325 75.409 127.531 57.409 128.896 36.5454C130.262 15.6818 148.968 -0.136429 170.951 1.22721C192.935 2.45448 209.593 20.4545 208.228 41.4545Z" stroke="black" stroke-opacity="0.2" stroke-width="1.5" stroke-miterlimit="10" stroke-linecap="round" stroke-linejoin="round"/>
<path d="M153.474 11.8636C152.245 38.0454 138.454 42.8182 138.454 42.8182C139.956 46.3636 141.048 49.9091 141.731 53.7273C139.137 49.7727 134.904 46.3636 130.125 45.6818C125.209 45 119.747 47.4545 118.246 51.9545C116.744 56.3182 119.474 61.5 123.571 63.8182C127.804 66.1363 133.675 66.6818 139.273 64.3636C141.048 69 145.008 73.7727 150.879 77.0454L147.739 95.3182L135.996 99.1363C135.996 99.1363 136.952 123.136 180.373 128.591C212.734 132.545 189.794 99.9545 189.794 99.9545L178.325 96.6818L177.778 83.4545C186.108 83.1818 210.412 77.1818 208.364 45.8182C207.955 39.5454 206.18 33.6818 203.722 28.5C192.525 7.36361 169.176 5.86361 153.474 11.8636Z" fill="#FFC4B0"/>
<path d="M165.49 57.4092C168.358 61.091 175.185 62.591 180.373 60.8183" stroke="#2D2D2D" stroke-width="1.5" stroke-miterlimit="10" stroke-linecap="round" stroke-linejoin="round"/>
<path d="M165.49 57.4092C168.358 61.091 175.185 62.591 180.373 60.8183" stroke="black" stroke-opacity="0.2" stroke-width="1.5" stroke-miterlimit="10" stroke-linecap="round" stroke-linejoin="round"/>
<path d="M150.744 9.27272C144.327 11.5909 154.021 22.3636 154.021 22.3636L169.178 20.5909V11.4545L172.864 19.7727C172.864 19.7727 194.848 18.8182 202.494 24.6818C197.852 11.7273 177.507 -0.545459 150.744 9.27272Z" fill="#2D2D2D"/>
<path d="M150.744 9.27272C144.327 11.5909 154.021 22.3636 154.021 22.3636L169.178 20.5909V11.4545L172.864 19.7727C172.864 19.7727 194.848 18.8182 202.494 24.6818C197.852 11.7273 177.507 -0.545459 150.744 9.27272Z" fill="black" fill-opacity="0.2"/>
<path d="M141.186 65.3182C140.913 67.091 139.411 68.3182 137.636 68.1819C135.861 67.9091 134.632 66.4091 134.768 64.6364C135.041 62.8637 136.543 61.6364 138.318 61.7728C140.093 62.0455 141.459 63.5455 141.186 65.3182Z" fill="#BACC81"/>
<path d="M125.074 51.9547C126.303 51.2728 129.034 50.8637 131.765 51.9547C134.496 52.9092 136.544 55.3637 137.227 58.091" stroke="#2D2D2D" stroke-width="1.5" stroke-miterlimit="10" stroke-linecap="round" stroke-linejoin="round"/>
<path d="M125.074 51.9547C126.303 51.2728 129.034 50.8637 131.765 51.9547C134.496 52.9092 136.544 55.3637 137.227 58.091" stroke="black" stroke-opacity="0.2" stroke-width="1.5" stroke-miterlimit="10" stroke-linecap="round" stroke-linejoin="round"/>
<path d="M129.443 55.5002C130.263 54.9547 133.403 53.8638 136.134 55.6366" stroke="#2D2D2D" stroke-width="1.5" stroke-miterlimit="10" stroke-linecap="round" stroke-linejoin="round"/>
<path d="M129.443 55.5002C130.263 54.9547 133.403 53.8638 136.134 55.6366" stroke="black" stroke-opacity="0.2" stroke-width="1.5" stroke-miterlimit="10" stroke-linecap="round" stroke-linejoin="round"/>
<path d="M160.574 80.4543C160.574 80.4543 168.63 83.8634 177.642 83.1816L177.915 87.818C177.915 87.818 167.401 87.818 160.574 80.4543Z" fill="#2D2D2D"/>
<path d="M160.574 80.4543C160.574 80.4543 168.63 83.8634 177.642 83.1816L177.915 87.818C177.915 87.818 167.401 87.818 160.574 80.4543Z" fill="black" fill-opacity="0.2"/>
<path d="M175.73 31.6362C176.823 34.2271 180.373 43.0908 181.056 45.1362C182.421 48.818 181.329 52.2271 176.004 52.6362" stroke="#2D2D2D" stroke-width="1.5" stroke-miterlimit="10" stroke-linecap="round" stroke-linejoin="round"/>
<path d="M175.73 31.6362C176.823 34.2271 180.373 43.0908 181.056 45.1362C182.421 48.818 181.329 52.2271 176.004 52.6362" stroke="black" stroke-opacity="0.2" stroke-width="1.5" stroke-miterlimit="10" stroke-linecap="round" stroke-linejoin="round"/>
<path d="M168.357 29.0453C164.807 27.4089 158.253 27.4089 153.064 30.6817" stroke="#2D2D2D" stroke-width="1.5" stroke-miterlimit="10" stroke-linecap="round" stroke-linejoin="round"/>
<path d="M168.357 29.0453C164.807 27.4089 158.253 27.4089 153.064 30.6817" stroke="black" stroke-opacity="0.2" stroke-width="1.5" stroke-miterlimit="10" stroke-linecap="round" stroke-linejoin="round"/>
<path d="M202.22 42.5452C201.947 40.7724 199.08 38.0452 195.666 37.6361C192.116 37.0906 186.108 39.6815 185.016 41.9997C185.971 46.9088 197.031 49.0906 202.22 42.5452Z" fill="white"/>
<path d="M184.879 41.4544C185.015 38.4544 188.566 33.9544 194.983 33.6816C200.308 33.4089 205.224 37.4998 202.903 41.318C202.903 41.318 201.537 39.1362 198.26 38.1816C193.891 36.818 188.975 36.9544 184.879 41.4544Z" fill="#D48983"/>
<path d="M199.762 44.1815C198.533 46.227 195.802 46.9088 193.618 45.6815C191.433 44.4543 190.614 41.727 191.843 39.6815C193.071 37.6361 195.802 36.9543 197.987 38.1815C200.035 39.4088 200.854 42.1361 199.762 44.1815Z" fill="#2D2D2D"/>
<path d="M199.762 44.1815C198.533 46.227 195.802 46.9088 193.618 45.6815C191.433 44.4543 190.614 41.727 191.843 39.6815C193.071 37.6361 195.802 36.9543 197.987 38.1815C200.035 39.4088 200.854 42.1361 199.762 44.1815Z" fill="black" fill-opacity="0.2"/>
<path d="M191.433 39.5452L195.665 41.8633H190.613L191.433 39.5452Z" fill="white"/>
<path d="M184.879 41.8636C191.16 35.1817 199.353 37.0908 202.493 41.3181" stroke="#2D2D2D" stroke-width="1.5" stroke-miterlimit="10" stroke-linecap="round" stroke-linejoin="round"/>
<path d="M184.879 41.8636C191.16 35.1817 199.353 37.0908 202.493 41.3181" stroke="black" stroke-opacity="0.2" stroke-width="1.5" stroke-miterlimit="10" stroke-linecap="round" stroke-linejoin="round"/>
<path d="M205.908 39.4089C205.225 40.6362 203.723 41.318 202.357 41.1817" stroke="#2D2D2D" stroke-width="1.5" stroke-miterlimit="10" stroke-linecap="round" stroke-linejoin="round"/>
<path d="M205.908 39.4089C205.225 40.6362 203.723 41.318 202.357 41.1817" stroke="black" stroke-opacity="0.2" stroke-width="1.5" stroke-miterlimit="10" stroke-linecap="round" stroke-linejoin="round"/>
<path d="M154.432 42.5452C154.705 40.7724 157.572 38.0452 160.986 37.6361C164.536 37.0906 170.544 39.6815 171.636 41.9997C170.68 46.9088 159.484 49.0906 154.432 42.5452Z" fill="white"/>
<path d="M169.315 44.318C168.086 46.3635 165.355 47.0453 163.17 45.818C160.986 44.5907 160.166 41.8635 161.395 39.818C162.624 37.7725 165.355 37.0907 167.54 38.318C169.724 39.5453 170.544 42.1362 169.315 44.318Z" fill="#2D2D2D"/>
<path d="M169.315 44.318C168.086 46.3635 165.355 47.0453 163.17 45.818C160.986 44.5907 160.166 41.8635 161.395 39.818C162.624 37.7725 165.355 37.0907 167.54 38.318C169.724 39.5453 170.544 42.1362 169.315 44.318Z" fill="black" fill-opacity="0.2"/>
<path d="M160.985 39.6816L165.355 41.9998H160.303L160.985 39.6816Z" fill="white"/>
<path d="M171.772 41.4544C171.636 38.4544 168.086 33.9544 161.668 33.6816C156.343 33.4089 151.427 37.4998 153.749 41.318C153.749 41.318 155.114 39.1362 158.391 38.1816C162.76 36.818 167.676 36.9544 171.772 41.4544Z" fill="#D48983"/>
<path d="M171.772 41.8636C165.491 35.1817 157.299 37.0908 154.158 41.3181" stroke="#2D2D2D" stroke-width="1.5" stroke-miterlimit="10" stroke-linecap="round" stroke-linejoin="round"/>
<path d="M171.772 41.8636C165.491 35.1817 157.299 37.0908 154.158 41.3181" stroke="black" stroke-opacity="0.2" stroke-width="1.5" stroke-miterlimit="10" stroke-linecap="round" stroke-linejoin="round"/>
<path d="M150.607 39.4089C151.29 40.6362 152.792 41.318 154.158 41.1817" stroke="#2D2D2D" stroke-width="1.5" stroke-miterlimit="10" stroke-linecap="round" stroke-linejoin="round"/>
<path d="M150.607 39.4089C151.29 40.6362 152.792 41.318 154.158 41.1817" stroke="black" stroke-opacity="0.2" stroke-width="1.5" stroke-miterlimit="10" stroke-linecap="round" stroke-linejoin="round"/>
<path d="M186.928 28.2272C190.614 26.8635 198.124 27.2726 201.948 31.2272" stroke="#2D2D2D" stroke-width="1.5" stroke-miterlimit="10" stroke-linecap="round" stroke-linejoin="round"/>
<path d="M186.928 28.2272C190.614 26.8635 198.124 27.2726 201.948 31.2272" stroke="black" stroke-opacity="0.2" stroke-width="1.5" stroke-miterlimit="10" stroke-linecap="round" stroke-linejoin="round"/>
<path d="M119.338 195.545C119.474 202.909 120.43 211.636 119.611 215.455C118.928 218.318 113.057 229.636 113.057 229.636C113.057 229.636 131.49 240.273 176.14 239.318C215.464 238.5 227.071 231.273 227.071 231.273L223.793 221.864C222.701 218.864 222.291 215.591 222.291 212.455L222.701 195.545H119.338Z" fill="#FFC4B0"/>
<path d="M117.017 221.727L110.463 233.454C110.463 233.454 124.8 241.773 170.952 241.773C217.24 241.773 227.754 233.182 227.754 233.182L224.204 223.091C224.204 223.091 207.136 229.227 172.59 229.909C134.221 230.727 117.017 221.727 117.017 221.727Z" fill="#2D2D2D"/>
<path d="M117.017 221.727L110.463 233.454C110.463 233.454 124.8 241.773 170.952 241.773C217.24 241.773 227.754 233.182 227.754 233.182L224.204 223.091C224.204 223.091 207.136 229.227 172.59 229.909C134.221 230.727 117.017 221.727 117.017 221.727Z" fill="black" fill-opacity="0.2"/>
<path d="M108.688 172.091C108.688 172.091 101.451 131.727 111.555 105.136C127.121 99.9544 141.185 96.4089 141.185 96.4089C156.615 112.909 184.743 110.454 184.06 97.3635L212.188 105.136C218.332 116.045 234.171 141.682 230.075 171.954C228.437 189 225.979 205.909 225.979 205.909L227.89 224.727C227.89 224.727 236.22 230.727 237.039 238.5C227.481 248.863 211.369 256.363 170.133 257.863C128.76 259.363 102.953 248.727 102.953 248.727C106.64 235.909 113.194 225.818 114.696 219.409L108.688 172.091Z" fill="#478C5C"/>
<path d="M216.693 120C227.753 142.5 231.03 149.318 228.709 177.272C227.071 194.318 225.978 205.909 225.978 205.909L227.89 224.727C227.89 224.727 236.219 230.727 237.038 238.5" stroke="#2D2D2D" stroke-width="1.5" stroke-miterlimit="10" stroke-linecap="round" stroke-linejoin="round"/>
<path d="M216.693 120C227.753 142.5 231.03 149.318 228.709 177.272C227.071 194.318 225.978 205.909 225.978 205.909L227.89 224.727C227.89 224.727 236.219 230.727 237.038 238.5" stroke="black" stroke-opacity="0.2" stroke-width="1.5" stroke-miterlimit="10" stroke-linecap="round" stroke-linejoin="round"/>
<path d="M227.754 224.727C216.421 230.591 202.493 234.545 189.795 234.273" stroke="#2D2D2D" stroke-width="1.5" stroke-miterlimit="10" stroke-linecap="round" stroke-linejoin="round"/>
<path d="M227.754 224.727C216.421 230.591 202.493 234.545 189.795 234.273" stroke="black" stroke-opacity="0.2" stroke-width="1.5" stroke-miterlimit="10" stroke-linecap="round" stroke-linejoin="round"/>
<path d="M176.414 237.955C176.414 237.955 186.382 237.409 192.116 237.409C197.851 237.409 198.807 237.273 205.088 238.091C212.871 239.046 216.831 235.091 216.831 235.091C216.831 235.091 216.831 238.909 225.57 236.727C228.164 236.046 230.758 235.909 231.304 232.773C235.674 231.546 237.039 227.727 236.63 225.545C236.63 225.545 241.545 228.409 244.686 230.727C247.007 232.364 250.557 234.955 253.834 232.364C256.019 230.591 248.509 222.682 248.509 222.682C248.509 222.682 251.922 225.682 255.2 226.364C257.93 227.046 260.934 225.955 260.525 224.046C260.252 222.682 254.244 216.818 251.649 214.773C241.955 207.136 238.132 204.136 231.851 204.955C223.658 206.046 209.457 208.909 204.678 209.182C199.899 209.455 144.19 199.636 144.19 199.636L134.085 143.046C134.085 143.046 127.531 115.773 111.419 107.455C93.8051 114.955 88.3433 125.455 92.1666 154.773C95.8532 182.455 97.3552 198.136 100.905 214.909C104.592 231.818 109.508 237.136 131.764 237.682C147.194 237.682 176.414 237.955 176.414 237.955Z" fill="#FFC4B0"/>
<path d="M248.645 222.409C248.645 222.409 252.058 225.409 255.335 226.091C258.066 226.773 261.07 225.682 260.66 223.773C260.387 222.409 254.379 216.545 251.785 214.5C242.091 206.864 238.267 203.864 231.986 204.682" stroke="#2D2D2D" stroke-width="1.5" stroke-miterlimit="10" stroke-linecap="round" stroke-linejoin="round"/>
<path d="M248.645 222.409C248.645 222.409 252.058 225.409 255.335 226.091C258.066 226.773 261.07 225.682 260.66 223.773C260.387 222.409 254.379 216.545 251.785 214.5C242.091 206.864 238.267 203.864 231.986 204.682" stroke="black" stroke-opacity="0.2" stroke-width="1.5" stroke-miterlimit="10" stroke-linecap="round" stroke-linejoin="round"/>
<path d="M223.795 222.273C226.116 222.545 228.028 222.955 229.257 225.136C230.349 227.318 231.305 230.591 230.759 233.045C230.349 234.955 228.711 235.773 226.936 236.182C224.751 236.864 222.43 237.136 220.108 237.273C219.562 237.273 218.88 237.273 218.333 237C217.378 236.318 217.378 234.545 218.06 233.727C218.743 232.773 220.245 232.091 221.337 231.955" stroke="#2D2D2D" stroke-width="1.5" stroke-miterlimit="10" stroke-linecap="round" stroke-linejoin="round"/>
<path d="M223.795 222.273C226.116 222.545 228.028 222.955 229.257 225.136C230.349 227.318 231.305 230.591 230.759 233.045C230.349 234.955 228.711 235.773 226.936 236.182C224.751 236.864 222.43 237.136 220.108 237.273C219.562 237.273 218.88 237.273 218.333 237C217.378 236.318 217.378 234.545 218.06 233.727C218.743 232.773 220.245 232.091 221.337 231.955" stroke="black" stroke-opacity="0.2" stroke-width="1.5" stroke-miterlimit="10" stroke-linecap="round" stroke-linejoin="round"/>
<path d="M230.621 216.818C233.898 219.136 236.219 222.818 236.902 226.636C237.039 227.318 237.039 227.864 236.902 228.545C236.766 229.091 236.492 229.5 236.083 230.045C234.99 231.545 233.352 232.636 231.577 233.318" stroke="#2D2D2D" stroke-width="1.5" stroke-miterlimit="10" stroke-linecap="round" stroke-linejoin="round"/>
<path d="M230.621 216.818C233.898 219.136 236.219 222.818 236.902 226.636C237.039 227.318 237.039 227.864 236.902 228.545C236.766 229.091 236.492 229.5 236.083 230.045C234.99 231.545 233.352 232.636 231.577 233.318" stroke="black" stroke-opacity="0.2" stroke-width="1.5" stroke-miterlimit="10" stroke-linecap="round" stroke-linejoin="round"/>
<path d="M237.586 213.409C241.273 215.864 252.06 224.727 254.108 228.409C254.927 229.909 253.835 231.546 252.469 232.227C251.24 232.909 249.602 232.909 248.236 232.5" stroke="#2D2D2D" stroke-width="1.5" stroke-miterlimit="10" stroke-linecap="round" stroke-linejoin="round"/>
<path d="M237.586 213.409C241.273 215.864 252.06 224.727 254.108 228.409C254.927 229.909 253.835 231.546 252.469 232.227C251.24 232.909 249.602 232.909 248.236 232.5" stroke="black" stroke-opacity="0.2" stroke-width="1.5" stroke-miterlimit="10" stroke-linecap="round" stroke-linejoin="round"/>
<path d="M218.197 233.727C216.285 236.318 212.325 237.955 209.185 238.227C204.952 238.636 200.173 237.273 196.077 237.136C190.478 236.864 176.688 237 176.688 237" stroke="#2D2D2D" stroke-width="1.5" stroke-miterlimit="10" stroke-linecap="round" stroke-linejoin="round"/>
<path d="M218.197 233.727C216.285 236.318 212.325 237.955 209.185 238.227C204.952 238.636 200.173 237.273 196.077 237.136C190.478 236.864 176.688 237 176.688 237" stroke="black" stroke-opacity="0.2" stroke-width="1.5" stroke-miterlimit="10" stroke-linecap="round" stroke-linejoin="round"/>
<path d="M94.4881 189.545C94.4881 189.545 91.3476 165.545 89.436 147.273C86.5686 118.5 97.7651 110.182 111.419 105C131.764 110.864 135.315 140.591 135.315 140.591L142.415 179.045C134.222 186.273 112.375 191.318 94.4881 189.545Z" fill="#478C5C"/>
<path d="M126.986 120.955C133.13 130.364 135.315 140.727 135.315 140.727L142.415 179.182C134.222 186.273 112.375 191.318 94.4883 189.546" stroke="#2D2D2D" stroke-width="1.5" stroke-miterlimit="10" stroke-linecap="round" stroke-linejoin="round"/>
<path d="M126.986 120.955C133.13 130.364 135.315 140.727 135.315 140.727L142.415 179.182C134.222 186.273 112.375 191.318 94.4883 189.546" stroke="black" stroke-opacity="0.2" stroke-width="1.5" stroke-miterlimit="10" stroke-linecap="round" stroke-linejoin="round"/>
<path d="M122.752 208.091C126.029 203.864 134.904 199.091 145.555 199.636" stroke="#2D2D2D" stroke-width="1.5" stroke-miterlimit="10" stroke-linecap="round" stroke-linejoin="round"/>
<path d="M122.752 208.091C126.029 203.864 134.904 199.091 145.555 199.636" stroke="black" stroke-opacity="0.2" stroke-width="1.5" stroke-miterlimit="10" stroke-linecap="round" stroke-linejoin="round"/>
<path d="M305.174 209.727C306.539 210.954 308.451 211.636 310.089 212.454C314.322 214.363 317.326 217.636 321.013 220.227C323.607 222.136 327.294 223.363 329.615 220.363C333.165 216 325.655 210.954 323.607 207.682C323.198 207 322.651 206.182 322.515 205.363C322.378 204.545 322.515 203.591 323.061 202.909" fill="#FFC4B0"/>
<path d="M305.174 209.727C306.539 210.954 308.451 211.636 310.089 212.454C314.322 214.363 317.326 217.636 321.013 220.227C323.607 222.136 327.294 223.363 329.615 220.363C333.165 216 325.655 210.954 323.607 207.682C323.198 207 322.651 206.182 322.515 205.363C322.378 204.545 322.515 203.591 323.061 202.909" stroke="#2D2D2D" stroke-width="1.5" stroke-miterlimit="10" stroke-linecap="round" stroke-linejoin="round"/>
<path d="M305.174 209.727C306.539 210.954 308.451 211.636 310.089 212.454C314.322 214.363 317.326 217.636 321.013 220.227C323.607 222.136 327.294 223.363 329.615 220.363C333.165 216 325.655 210.954 323.607 207.682C323.198 207 322.651 206.182 322.515 205.363C322.378 204.545 322.515 203.591 323.061 202.909" stroke="black" stroke-opacity="0.2" stroke-width="1.5" stroke-miterlimit="10" stroke-linecap="round" stroke-linejoin="round"/>
<path d="M333.984 207.954C337.398 209.727 339.856 212.727 341.767 215.863C343.816 219 349.823 227.182 355.285 225.682C358.289 224.863 359.245 224.318 354.466 215.591" fill="#FFC4B0"/>
<path d="M333.984 207.954C337.398 209.727 339.856 212.727 341.767 215.863C343.816 219 349.823 227.182 355.285 225.682C358.289 224.863 359.245 224.318 354.466 215.591" stroke="#2D2D2D" stroke-width="1.5" stroke-miterlimit="10" stroke-linecap="round" stroke-linejoin="round"/>
<path d="M333.984 207.954C337.398 209.727 339.856 212.727 341.767 215.863C343.816 219 349.823 227.182 355.285 225.682C358.289 224.863 359.245 224.318 354.466 215.591" stroke="black" stroke-opacity="0.2" stroke-width="1.5" stroke-miterlimit="10" stroke-linecap="round" stroke-linejoin="round"/>
<path d="M34.6816 285.545L59.1229 362.864C63.4923 376.636 76.3274 386.045 90.801 386.045H229.12C217.923 386.045 208.911 377.591 207.819 366.409L202.903 318.955C201.811 308.591 193.482 300.273 183.104 299.318L34.6816 285.545Z" fill="#D4BCDE"/>
<path d="M207.819 366.409L202.903 318.955C201.811 308.591 193.482 300.273 183.104 299.318L34.6816 285.545L38.9145 299.045C73.7331 303.682 145.282 312.682 173.273 316.091C179.964 316.909 185.289 322.227 186.108 329.045L191.297 373.364C192.116 380.591 198.261 386.045 205.634 386.045H229.12C217.787 386.045 208.911 377.591 207.819 366.409Z" fill="#2D2D2D"/>
<path d="M207.819 366.409L202.903 318.955C201.811 308.591 193.482 300.273 183.104 299.318L34.6816 285.545L38.9145 299.045C73.7331 303.682 145.282 312.682 173.273 316.091C179.964 316.909 185.289 322.227 186.108 329.045L191.297 373.364C192.116 380.591 198.261 386.045 205.634 386.045H229.12C217.787 386.045 208.911 377.591 207.819 366.409Z" fill="black" fill-opacity="0.2"/>
<path d="M214.92 365.591L210.005 318.136C208.639 304.364 197.443 293.318 183.652 292.091L35.9115 278.454C29.494 277.909 23.8957 274.773 20.0725 269.591C16.2493 264.409 14.7473 258.136 15.9762 251.864L27.0362 194.045L12.8357 191.318L1.77566 249.136C-0.135947 259.364 2.32184 270 8.60284 278.182C14.8838 286.5 24.4419 291.818 34.6827 292.773L182.423 306.409C189.386 307.091 194.985 312.545 195.667 319.5L200.583 366.954C202.085 381.409 213.691 392.318 228.028 393.136L230.35 378.682H229.667C222.02 378.818 215.739 373.091 214.92 365.591Z" fill="white"/>
<path d="M229.667 378.818C222.157 378.818 215.876 373.091 215.057 365.591L210.141 318.136C208.776 304.364 197.579 293.318 183.788 292.091L36.0483 278.455C29.6307 277.909 24.0324 274.773 20.2092 269.591C16.386 264.409 14.884 258.136 16.1129 251.864L27.1729 194.045" stroke="#478C5C" stroke-width="1.5" stroke-miterlimit="10" stroke-linecap="round" stroke-linejoin="round"/>
<path d="M12.699 191.318L1.63894 249.136C-0.272666 259.364 2.18512 270 8.46612 278.182C14.7471 286.5 24.3052 291.818 34.5459 292.773L182.286 306.409C189.25 307.091 194.848 312.545 195.531 319.5L200.446 366.954C201.948 381.409 213.555 392.318 227.892 393.136" stroke="#478C5C" stroke-width="1.5" stroke-miterlimit="10" stroke-linecap="round" stroke-linejoin="round"/>
<path d="M220.928 260.727H618.406V258.818C618.406 254.182 614.583 250.364 609.94 250.364H229.393C224.751 250.364 220.928 254.182 220.928 258.818V260.727Z" fill="#D4BCDE"/>
<path d="M381.641 250.364C387.375 250.364 392.018 255 392.018 260.727" stroke="#2D2D2D" stroke-width="1.5" stroke-miterlimit="10" stroke-linecap="round" stroke-linejoin="round"/>
<path d="M381.641 250.364C387.375 250.364 392.018 255 392.018 260.727" stroke="black" stroke-opacity="0.2" stroke-width="1.5" stroke-miterlimit="10" stroke-linecap="round" stroke-linejoin="round"/>
<path d="M220.842 265.975L618.32 265.975V260.793L220.842 260.793V265.975Z" fill="#2D2D2D"/>
<path d="M220.842 265.975L618.32 265.975V260.793L220.842 260.793V265.975Z" fill="black" fill-opacity="0.2"/>
<path d="M252.742 533.591L266.67 280.773C267.216 271.091 275.272 263.455 284.966 263.455H320.877C330.572 263.455 338.765 271.091 339.174 280.773L353.102 533.591" stroke="#2D2D2D" stroke-width="1.5" stroke-miterlimit="10" stroke-linecap="round" stroke-linejoin="round"/>
<path d="M252.742 533.591L266.67 280.773C267.216 271.091 275.272 263.455 284.966 263.455H320.877C330.572 263.455 338.765 271.091 339.174 280.773L353.102 533.591" stroke="black" stroke-opacity="0.2" stroke-width="1.5" stroke-miterlimit="10" stroke-linecap="round" stroke-linejoin="round"/>
<path d="M254.791 501.409H351.327" stroke="#2D2D2D" stroke-width="1.5" stroke-miterlimit="10" stroke-linecap="round" stroke-linejoin="round"/>
<path d="M254.791 501.409H351.327" stroke="black" stroke-opacity="0.2" stroke-width="1.5" stroke-miterlimit="10" stroke-linecap="round" stroke-linejoin="round"/>
<path d="M490.738 533.591L504.666 280.773C505.212 271.091 513.268 263.455 522.963 263.455H558.874C568.568 263.455 576.761 271.091 577.17 280.773L591.098 533.591" stroke="#2D2D2D" stroke-width="1.5" stroke-miterlimit="10" stroke-linecap="round" stroke-linejoin="round"/>
<path d="M490.738 533.591L504.666 280.773C505.212 271.091 513.268 263.455 522.963 263.455H558.874C568.568 263.455 576.761 271.091 577.17 280.773L591.098 533.591" stroke="black" stroke-opacity="0.2" stroke-width="1.5" stroke-miterlimit="10" stroke-linecap="round" stroke-linejoin="round"/>
<path d="M492.787 501.409H589.323" stroke="#2D2D2D" stroke-width="1.5" stroke-miterlimit="10" stroke-linecap="round" stroke-linejoin="round"/>
<path d="M492.787 501.409H589.323" stroke="black" stroke-opacity="0.2" stroke-width="1.5" stroke-miterlimit="10" stroke-linecap="round" stroke-linejoin="round"/>
<path d="M244.959 240.682H299.303V250.364H241.136C239.907 250.364 238.951 249.409 238.951 248.182V246.546C239.088 243.273 241.682 240.682 244.959 240.682Z" fill="#2D2D2D"/>
<path d="M244.959 240.682H299.303V250.364H241.136C239.907 250.364 238.951 249.409 238.951 248.182V246.546C239.088 243.273 241.682 240.682 244.959 240.682Z" fill="black" fill-opacity="0.2"/>
<path d="M299.576 250.5H430.521C433.661 250.5 436.665 247.909 437.075 244.773L447.998 157.364C448.408 154.227 446.087 151.636 442.946 151.636H312.001C308.861 151.636 305.857 154.227 305.447 157.364L294.523 244.773C294.114 247.909 296.435 250.5 299.576 250.5Z" fill="#535353"/>
<path d="M556.551 240.682H503.299C500.978 240.682 499.066 242.591 499.066 244.909V250.363H560.921V244.909C560.784 242.591 558.872 240.682 556.551 240.682Z" fill="#BACC81"/>
<path d="M513.131 241.091H507.26V236.455C507.26 235.091 508.352 234 509.718 234H510.673C512.039 234 513.131 235.091 513.131 236.455V241.091Z" fill="#2D2D2D"/>
<path d="M513.131 241.091H507.26V236.455C507.26 235.091 508.352 234 509.718 234H510.673C512.039 234 513.131 235.091 513.131 236.455V241.091Z" fill="black" fill-opacity="0.2"/>
<path d="M540.85 244.091L569.798 162.818L562.288 160.227L532.385 244.091H540.85ZM551.091 198.136L561.332 169.364C561.742 168.136 562.834 167.455 563.79 167.864C564.746 168.136 565.155 169.364 564.746 170.591L554.505 199.364C554.095 200.591 553.003 201.273 552.047 201C551.091 200.591 550.545 199.364 551.091 198.136ZM548.36 205.636C548.77 204.409 549.862 203.727 550.818 204.136C551.774 204.409 552.184 205.636 551.774 206.864L541.533 235.636C541.124 236.864 540.031 237.545 539.075 237.273C538.12 237 537.71 235.636 538.12 234.545L548.36 205.636Z" fill="#BACC81"/>
<path d="M495.381 96.8181L561.604 158.591L567.066 152.864L501.389 91.6362L495.381 96.8181ZM536.617 127.364L559.01 148.227C559.966 149.045 560.103 150.409 559.42 151.091C558.737 151.773 557.508 151.636 556.552 150.818L534.159 129.954C533.203 129.136 533.067 127.773 533.75 127.091C534.296 126.409 535.661 126.409 536.617 127.364ZM530.882 121.909C531.838 122.727 531.975 124.091 531.292 124.773C530.609 125.454 529.38 125.318 528.424 124.5L506.031 103.636C505.075 102.818 504.939 101.454 505.622 100.773C506.304 100.091 507.533 100.227 508.489 101.045L530.882 121.909Z" fill="#BACC81"/>
<path d="M574.986 158.318C574.986 162.682 571.435 166.227 567.066 166.227C562.697 166.227 559.146 162.682 559.146 158.318C559.146 153.954 562.697 150.409 567.066 150.409C571.435 150.409 574.986 153.954 574.986 158.318Z" fill="#D4BCDE"/>
<path d="M567.067 162.682C569.48 162.682 571.436 160.728 571.436 158.318C571.436 155.908 569.48 153.955 567.067 153.955C564.653 153.955 562.697 155.908 562.697 158.318C562.697 160.728 564.653 162.682 567.067 162.682Z" fill="#2D2D2D"/>
<path d="M567.067 162.682C569.48 162.682 571.436 160.728 571.436 158.318C571.436 155.908 569.48 153.955 567.067 153.955C564.653 153.955 562.697 155.908 562.697 158.318C562.697 160.728 564.653 162.682 567.067 162.682Z" fill="black" fill-opacity="0.2"/>
<path d="M472.169 117.682C467.663 121.636 460.836 121.363 456.876 116.863C452.916 112.363 453.189 105.545 457.695 101.591C462.201 97.6362 469.028 97.9089 472.988 102.409C476.948 106.773 476.675 113.727 472.169 117.682Z" fill="white"/>
<path d="M472.169 117.682C467.663 121.636 460.836 121.363 456.876 116.863C452.916 112.363 453.189 105.545 457.695 101.591C462.201 97.6362 469.028 97.9089 472.988 102.409C476.948 106.773 476.675 113.727 472.169 117.682Z" stroke="#2D2D2D" stroke-width="1.5" stroke-miterlimit="10" stroke-linecap="round" stroke-linejoin="round"/>
<path d="M472.169 117.682C467.663 121.636 460.836 121.363 456.876 116.863C452.916 112.363 453.189 105.545 457.695 101.591C462.201 97.6362 469.028 97.9089 472.988 102.409C476.948 106.773 476.675 113.727 472.169 117.682Z" stroke="black" stroke-opacity="0.2" stroke-width="1.5" stroke-miterlimit="10" stroke-linecap="round" stroke-linejoin="round"/>
<path d="M504.392 74.0454C500.432 69.5454 493.468 69.2727 489.099 73.2272L477.766 83.4545L492.376 99.5454L503.709 89.3181C508.078 85.3636 508.351 78.5454 504.392 74.0454Z" fill="#BACC81"/>
<path d="M497.293 80.5908C496.883 80.0454 496.064 80.0454 495.654 80.4544L487.462 87.8181C486.916 88.2272 486.916 89.0454 487.325 89.4544C487.735 89.9999 488.554 89.9999 488.964 89.5908L497.156 82.2272C497.703 81.8181 497.703 80.9999 497.293 80.5908Z" fill="#2D2D2D"/>
<path d="M497.293 80.5908C496.883 80.0454 496.064 80.0454 495.654 80.4544L487.462 87.8181C486.916 88.2272 486.916 89.0454 487.325 89.4544C487.735 89.9999 488.554 89.9999 488.964 89.5908L497.156 82.2272C497.703 81.8181 497.703 80.9999 497.293 80.5908Z" fill="black" fill-opacity="0.2"/>
<path d="M493.332 76.2273C492.922 75.6818 492.103 75.6818 491.693 76.0909L483.501 83.4546C482.955 83.8636 482.955 84.6818 483.364 85.0909C483.774 85.5 484.593 85.6364 485.003 85.2273L493.195 77.8636C493.742 77.4546 493.742 76.7727 493.332 76.2273Z" fill="#2D2D2D"/>
<path d="M493.332 76.2273C492.922 75.6818 492.103 75.6818 491.693 76.0909L483.501 83.4546C482.955 83.8636 482.955 84.6818 483.364 85.0909C483.774 85.5 484.593 85.6364 485.003 85.2273L493.195 77.8636C493.742 77.4546 493.742 76.7727 493.332 76.2273Z" fill="black" fill-opacity="0.2"/>
<path d="M501.115 84.8181C501.525 85.3636 501.525 86.0454 500.979 86.4545L492.786 93.8181C492.24 94.2272 491.557 94.2272 491.147 93.6818C490.738 93.1363 490.738 92.4545 491.284 92.0454L499.477 84.6818C500.023 84.409 500.706 84.409 501.115 84.8181Z" fill="#2D2D2D"/>
<path d="M501.115 84.8181C501.525 85.3636 501.525 86.0454 500.979 86.4545L492.786 93.8181C492.24 94.2272 491.557 94.2272 491.147 93.6818C490.738 93.1363 490.738 92.4545 491.284 92.0454L499.477 84.6818C500.023 84.409 500.706 84.409 501.115 84.8181Z" fill="black" fill-opacity="0.2"/>
<path d="M482.409 134.455L441.992 89.7273L477.767 83.4546L492.377 99.5455L482.409 134.455Z" fill="#BACC81"/>
</svg>
