<svg width="20" height="20" viewBox="0 0 20 20" fill="none" xmlns="http://www.w3.org/2000/svg">
<mask id="mask0_2281_1079" style="mask-type:alpha" maskUnits="userSpaceOnUse" x="0" y="0" width="20" height="20">
<rect width="20" height="20" fill="#D9D9D9"/>
</mask>
<g mask="url(#mask0_2281_1079)">
<path d="M14.1994 13.7822H12.3357C12.1636 13.7822 12.0198 13.7223 11.9044 13.6024C11.7891 13.4827 11.7315 13.3343 11.7315 13.1572C11.7315 12.9851 11.7913 12.8379 11.9111 12.7157C12.0309 12.5934 12.1794 12.5322 12.3565 12.5322H14.1994V10.6893C14.1994 10.5122 14.2593 10.3637 14.3792 10.2439C14.4991 10.1241 14.6475 10.0643 14.8246 10.0643C15.0018 10.0643 15.1502 10.1241 15.2698 10.2439C15.3895 10.3637 15.4494 10.5122 15.4494 10.6893V12.5322H17.2923C17.4694 12.5322 17.6178 12.5921 17.7375 12.712C17.8574 12.8318 17.9173 12.9803 17.9173 13.1574C17.9173 13.3346 17.8574 13.483 17.7375 13.6026C17.6178 13.7223 17.4694 13.7822 17.2923 13.7822H15.4494V15.6251C15.4494 15.8022 15.3895 15.9506 15.2696 16.0703C15.1497 16.1902 15.0012 16.2501 14.824 16.2501C14.6469 16.2501 14.4985 16.1902 14.3788 16.0703C14.2592 15.9506 14.1994 15.8022 14.1994 15.6251V13.7822ZM8.38211 13.7822H5.86607C4.81968 13.7822 3.92773 13.4134 3.19023 12.6759C2.45273 11.9386 2.08398 11.0468 2.08398 10.0005C2.08398 8.95427 2.45273 8.06232 3.19023 7.32468C3.92773 6.58691 4.81968 6.21802 5.86607 6.21802H8.38211C8.55405 6.21802 8.70121 6.2792 8.82357 6.40156C8.94593 6.52392 9.00711 6.67239 9.00711 6.84698C9.00711 7.0217 8.94593 7.16892 8.82357 7.28864C8.70121 7.40822 8.55405 7.46802 8.38211 7.46802H5.86503C5.16586 7.46802 4.56926 7.7151 4.07523 8.20927C3.58107 8.70343 3.33398 9.30038 3.33398 10.0001C3.33398 10.6998 3.58107 11.2968 4.07523 11.7909C4.56926 12.2851 5.16586 12.5322 5.86503 12.5322H8.38211C8.55405 12.5322 8.70121 12.5934 8.82357 12.7157C8.94593 12.8379 9.00711 12.9864 9.00711 13.1611C9.00711 13.3359 8.94593 13.483 8.82357 13.6026C8.70121 13.7223 8.55405 13.7822 8.38211 13.7822ZM7.50065 10.6251C7.32357 10.6251 7.17517 10.5652 7.05544 10.4453C6.93558 10.3254 6.87565 10.177 6.87565 9.99989C6.87565 9.82267 6.93558 9.67427 7.05544 9.55468C7.17517 9.43496 7.32357 9.3751 7.50065 9.3751H12.5007C12.6777 9.3751 12.8261 9.43503 12.9459 9.55489C13.0657 9.67475 13.1257 9.82323 13.1257 10.0003C13.1257 10.1775 13.0657 10.3259 12.9459 10.4455C12.8261 10.5652 12.6777 10.6251 12.5007 10.6251H7.50065ZM17.9173 10.0001H16.6673C16.6673 9.30038 16.4202 8.70343 15.9261 8.20927C15.432 7.7151 14.8354 7.46802 14.1363 7.46802H11.5984C11.4264 7.46802 11.2827 7.40816 11.1673 7.28843C11.0519 7.16857 10.9942 7.0201 10.9942 6.84302C10.9942 6.67107 11.0541 6.52392 11.174 6.40156C11.2937 6.2792 11.4421 6.21802 11.6192 6.21802H14.1352C15.1816 6.21802 16.0736 6.58677 16.8111 7.32427C17.5486 8.06177 17.9173 8.95371 17.9173 10.0001Z" fill="#1C1B1F"/>
</g>
</svg>
