<svg width="502" height="350" viewBox="0 0 502 350" fill="none" xmlns="http://www.w3.org/2000/svg">
<g clip-path="url(#clip0_1_41)">
<mask id="path-1-inside-1_1_41" fill="white">
<path d="M0 8C0 3.58172 3.58172 0 8 0H494C498.418 0 502 3.58172 502 8V350H0V8Z"/>
</mask>
<path d="M0 8C0 3.58172 3.58172 0 8 0H494C498.418 0 502 3.58172 502 8V350H0V8Z" fill="#478C5C"/>
<rect x="2" y="2" width="498" height="196" fill="#407E53"/>
<rect x="2" y="2" width="498" height="196" stroke="white" stroke-width="4"/>
<mask id="mask0_1_41" style="mask-type:alpha" maskUnits="userSpaceOnUse" x="227" y="82" width="48" height="48">
<rect x="227" y="82" width="48" height="48" fill="#D9D9D9"/>
</mask>
<g mask="url(#mask0_1_41)">
<path d="M237.615 123C236.605 123 235.75 122.65 235.05 121.95C234.35 121.25 234 120.395 234 119.385V92.6155C234 91.6052 234.35 90.75 235.05 90.05C235.75 89.35 236.605 89 237.615 89H264.385C265.395 89 266.25 89.35 266.95 90.05C267.65 90.75 268 91.6052 268 92.6155V119.385C268 120.395 267.65 121.25 266.95 121.95C266.25 122.65 265.395 123 264.385 123H237.615ZM237.615 120H264.385C264.539 120 264.68 119.936 264.808 119.808C264.936 119.68 265 119.539 265 119.385V92.6155C265 92.4615 264.936 92.3205 264.808 92.1925C264.68 92.0642 264.539 92 264.385 92H237.615C237.461 92 237.321 92.0642 237.193 92.1925C237.064 92.3205 237 92.4615 237 92.6155V119.385C237 119.539 237.064 119.68 237.193 119.808C237.321 119.936 237.461 120 237.615 120ZM242.308 115.5H259.846C260.208 115.5 260.476 115.336 260.65 115.008C260.824 114.68 260.797 114.362 260.569 114.054L255.8 107.666C255.613 107.425 255.372 107.304 255.077 107.304C254.782 107.304 254.541 107.425 254.354 107.666L249.462 114.038L246.185 109.838C245.998 109.61 245.76 109.496 245.471 109.496C245.183 109.496 244.945 109.617 244.757 109.858L241.604 114.054C241.363 114.362 241.33 114.68 241.504 115.008C241.678 115.336 241.946 115.5 242.308 115.5Z" fill="#2B5437"/>
</g>
<rect x="32" y="232" width="220" height="20" rx="2" fill="#356945"/>
<rect x="32" y="272" width="440" height="10" rx="2" fill="#407E53"/>
<rect x="32" y="290" width="440" height="10" rx="2" fill="#407E53"/>
<rect x="32" y="308" width="220" height="10" rx="2" fill="#407E53"/>
</g>
<path d="M-4 8C-4 1.37258 1.37258 -4 8 -4H494C500.627 -4 506 1.37258 506 8H498C498 5.79086 496.209 4 494 4H8C5.79086 4 4 5.79086 4 8H-4ZM502 350H0H502ZM-4 350V8C-4 1.37258 1.37258 -4 8 -4V4C5.79086 4 4 5.79086 4 8V350H-4ZM494 -4C500.627 -4 506 1.37258 506 8V350H498V8C498 5.79086 496.209 4 494 4V-4Z" fill="white" mask="url(#path-1-inside-1_1_41)"/>
<defs>
<clipPath id="clip0_1_41">
<path d="M0 8C0 3.58172 3.58172 0 8 0H494C498.418 0 502 3.58172 502 8V350H0V8Z" fill="white"/>
</clipPath>
</defs>
</svg>
