<svg width="32" height="32" viewBox="0 0 32 32" fill="none" xmlns="http://www.w3.org/2000/svg">
<mask id="mask0_832_2822" style="mask-type:alpha" maskUnits="userSpaceOnUse" x="0" y="0" width="32" height="32">
<rect width="32" height="32" fill="#D9D9D9"/>
</mask>
<g mask="url(#mask0_832_2822)">
<path d="M23.0967 24.4744L22.3764 23.754C22.219 23.5967 22.0313 23.518 21.8133 23.518C21.5956 23.518 21.408 23.5967 21.2507 23.754C21.0933 23.9111 21.0147 24.0952 21.0147 24.3064C21.0147 24.5175 21.0933 24.7017 21.2507 24.859L22.4737 26.082C22.6566 26.2649 22.8665 26.3564 23.1033 26.3564C23.34 26.3564 23.5498 26.2649 23.7327 26.082L26.748 23.1207C26.9053 22.9634 26.9861 22.7778 26.9903 22.564C26.9946 22.3505 26.9138 22.1608 26.748 21.995C26.5907 21.8377 26.4009 21.759 26.1787 21.759C25.9565 21.759 25.7668 21.8377 25.6097 21.995L23.0967 24.4744ZM9.51235 11.8204H22.4863C22.7701 11.8204 23.0078 11.7247 23.1994 11.5334C23.3907 11.3418 23.4863 11.1042 23.4863 10.8207C23.4863 10.5282 23.3907 10.2885 23.1994 10.1014C23.0078 9.91424 22.7701 9.82069 22.4863 9.82069H9.51235C9.22857 9.82069 8.9909 9.91635 8.79935 10.1077C8.60802 10.2992 8.51235 10.5369 8.51235 10.8207C8.51235 11.1042 8.60802 11.3418 8.79935 11.5334C8.9909 11.7247 9.22857 11.8204 9.51235 11.8204ZM23.9993 30.077C22.3345 30.077 20.9182 29.4932 19.7507 28.3257C18.5831 27.1581 17.9993 25.7419 17.9993 24.077C17.9993 22.4121 18.5831 20.9959 19.7507 19.8284C20.9182 18.6608 22.3345 18.077 23.9993 18.077C25.6642 18.077 27.0805 18.6608 28.248 19.8284C29.4156 20.9959 29.9993 22.4121 29.9993 24.077C29.9993 25.7419 29.4156 27.1581 28.248 28.3257C27.0805 29.4932 25.6642 30.077 23.9993 30.077ZM4.66602 7.07702C4.66602 6.41213 4.90146 5.84413 5.37235 5.37302C5.84346 4.90213 6.41146 4.66669 7.07635 4.66669H24.9223C25.5872 4.66669 26.1552 4.90213 26.6264 5.37302C27.0972 5.84413 27.3327 6.41213 27.3327 7.07702V14.205C27.3327 14.4888 27.2369 14.7265 27.0453 14.918C26.854 15.1094 26.6165 15.205 26.3327 15.205C26.0489 15.205 25.8113 15.1094 25.62 14.918C25.4285 14.7265 25.3327 14.4888 25.3327 14.205V7.07702C25.3327 6.97435 25.2899 6.88035 25.2043 6.79502C25.119 6.70946 25.025 6.66669 24.9223 6.66669H7.07635C6.97368 6.66669 6.87968 6.70946 6.79435 6.79502C6.70879 6.88035 6.66602 6.97435 6.66602 7.07702V25.4H14.9457C14.9815 25.6565 15.031 25.9129 15.0943 26.1694C15.1575 26.4256 15.2318 26.6751 15.3173 26.918C15.4027 27.1196 15.3603 27.2819 15.1903 27.405C15.0203 27.5281 14.8592 27.5221 14.707 27.387L14.4917 27.223C14.3755 27.1239 14.2456 27.0744 14.102 27.0744C13.9585 27.0744 13.8286 27.1239 13.7123 27.223L12.5943 28.1614C12.4781 28.2607 12.3481 28.3104 12.2043 28.3104C12.0608 28.3104 11.9309 28.2607 11.8147 28.1614L10.6967 27.223C10.5805 27.1239 10.4506 27.0744 10.307 27.0744C10.1635 27.0744 10.0336 27.1239 9.91735 27.223L8.79935 28.1614C8.68313 28.2607 8.55324 28.3104 8.40968 28.3104C8.26613 28.3104 8.13624 28.2607 8.02002 28.1614L6.90202 27.223C6.78579 27.1239 6.6559 27.0744 6.51235 27.0744C6.36857 27.0744 6.23857 27.1239 6.12235 27.223L4.66602 28.5257V7.07702ZM9.51235 22.1794H14.3457C14.6292 22.1794 14.8668 22.0837 15.0583 21.8924C15.2499 21.7008 15.3457 21.4631 15.3457 21.1794C15.3457 20.8958 15.2499 20.6582 15.0583 20.4667C14.8668 20.2754 14.6292 20.1797 14.3457 20.1797H9.51235C9.22857 20.1797 8.9909 20.2754 8.79935 20.4667C8.60802 20.6582 8.51235 20.8958 8.51235 21.1794C8.51235 21.4631 8.60802 21.7008 8.79935 21.8924C8.9909 22.0837 9.22857 22.1794 9.51235 22.1794ZM9.51235 17H18.6813C18.9651 17 19.2028 16.9042 19.3943 16.7127C19.5857 16.5214 19.6813 16.2838 19.6813 16C19.6813 15.7162 19.5857 15.4787 19.3943 15.2874C19.2028 15.0958 18.9651 15 18.6813 15H9.51235C9.22857 15 8.9909 15.0958 8.79935 15.2874C8.60802 15.4787 8.51235 15.7162 8.51235 16C8.51235 16.2838 8.60802 16.5214 8.79935 16.7127C8.9909 16.9042 9.22857 17 9.51235 17Z" fill="#478C5C"/>
</g>
</svg>
