<svg width="32" height="32" viewBox="0 0 32 32" fill="none" xmlns="http://www.w3.org/2000/svg">
<mask id="mask0_832_2837" style="mask-type:alpha" maskUnits="userSpaceOnUse" x="0" y="0" width="32" height="32">
<rect width="32" height="32" fill="#D9D9D9"/>
</mask>
<g mask="url(#mask0_832_2837)">
<path d="M16 11.923C14.8478 11.923 13.8675 11.5188 13.059 10.7104C12.2506 9.90169 11.8464 8.92136 11.8464 7.76936C11.8464 6.61713 12.2506 5.6368 13.059 4.82836C13.8675 4.01969 14.8478 3.61536 16 3.61536C17.1522 3.61536 18.1326 4.01969 18.941 4.82836C19.7495 5.6368 20.1537 6.61713 20.1537 7.76936C20.1537 8.92136 19.7495 9.90169 18.941 10.7104C18.1326 11.5188 17.1522 11.923 16 11.923ZM16 9.92302C16.5982 9.92302 17.1068 9.71369 17.5257 9.29502C17.9446 8.87613 18.154 8.36758 18.154 7.76936C18.154 7.17091 17.9446 6.66236 17.5257 6.24369C17.1068 5.8248 16.5982 5.61536 16 5.61536C15.4018 5.61536 14.8932 5.8248 14.4744 6.24369C14.0555 6.66236 13.846 7.17091 13.846 7.76936C13.846 8.36758 14.0555 8.87613 14.4744 9.29502C14.8932 9.71369 15.4018 9.92302 16 9.92302ZM14.5617 26.741L8.35902 20.5384C7.96591 20.1452 7.67102 19.6987 7.47435 19.1987C7.27791 18.6987 7.17969 18.1524 7.17969 17.5597C7.17969 16.3939 7.58013 15.4109 8.38102 14.6107C9.18213 13.8105 10.1662 13.4104 11.3334 13.4104C11.9047 13.4104 12.4317 13.5176 12.9144 13.732C13.397 13.9467 13.8392 14.2548 14.241 14.6564L16 16.4154L17.759 14.6564C18.1521 14.2632 18.5931 13.9572 19.082 13.7384C19.5709 13.5197 20.101 13.4104 20.6724 13.4104C21.8344 13.4104 22.8162 13.8105 23.618 14.6107C24.4196 15.4109 24.8204 16.3939 24.8204 17.5597C24.8204 18.1524 24.7221 18.6987 24.5257 19.1987C24.329 19.6987 24.0341 20.1452 23.641 20.5384L17.4384 26.741C17.2317 26.9479 17.0044 27.1009 16.7564 27.2C16.5086 27.2991 16.2565 27.3487 16 27.3487C15.7436 27.3487 15.4915 27.2991 15.2437 27.2C14.9957 27.1009 14.7684 26.9479 14.5617 26.741ZM16 25.3284L22.195 19.1334C22.4121 18.9162 22.5707 18.6735 22.6707 18.405C22.7707 18.1368 22.8207 17.8586 22.8207 17.5704C22.8207 16.9944 22.6147 16.4904 22.2027 16.0584C21.7907 15.6264 21.2782 15.4104 20.6654 15.4104C20.3825 15.4104 20.1268 15.4529 19.8984 15.538C19.6697 15.6234 19.4471 15.7756 19.2307 15.9947L16 19.2257L12.795 16.0204C12.6472 15.8679 12.4565 15.7281 12.2227 15.601C11.9887 15.4739 11.6941 15.4104 11.339 15.4104C10.7232 15.4104 10.2094 15.6252 9.79735 16.055C9.38535 16.485 9.17935 16.9866 9.17935 17.5597C9.17935 17.8464 9.2328 18.1192 9.33969 18.3784C9.44658 18.6372 9.60169 18.8752 9.80502 19.0924L16 25.3284Z" fill="#478C5C"/>
</g>
</svg>
