<svg width="100" height="100" viewBox="0 0 100 100" fill="none" xmlns="http://www.w3.org/2000/svg">
<rect width="100" height="100" rx="8" fill="white"/>
<g clip-path="url(#clip0_2281_5026)">
<path d="M26 69.0994C26 64.2504 26 59.4272 26 54.5782C26.0258 54.5524 26.0516 54.5266 26.0516 54.5008C26.3611 52.6437 27.2896 51.1994 28.8372 50.1419C29.2241 49.8839 29.3788 49.4713 29.3788 49.007C29.3788 46.6083 29.3788 44.2096 29.3788 41.8109C29.3788 41.5529 29.3272 41.424 29.0693 41.3208C28.244 40.9855 27.6765 40.3407 27.5733 39.4379C27.5218 38.9479 27.6249 38.4062 27.6765 37.8388C26.8254 37.5809 26.3353 36.8587 26.0258 36.0075C26.0258 35.6722 26.0258 35.3111 26.0258 34.9758C26.2837 34.5373 26.5159 34.0731 26.8254 33.712C27.0575 33.4283 27.4444 33.2735 27.7797 33.0672C27.4702 32.3966 27.4444 31.726 27.7281 31.0296C28.0118 30.3332 28.5793 29.8947 29.2499 29.611C28.6824 27.8571 29.1725 26.7996 30.8748 26.0516C30.8748 26.0516 30.9006 26.0258 30.9006 26C35.7496 26 40.5728 26 45.4218 26C45.4476 26.0258 45.4734 26.0516 45.4992 26.0516C47.3047 26.3611 48.7491 27.2896 49.8066 28.8114C50.0903 29.1983 50.4772 29.3788 50.9672 29.3788C53.3659 29.3788 55.7646 29.3788 58.1634 29.3788C58.4213 29.3788 58.5502 29.3272 58.6534 29.0693C58.9887 28.244 59.6077 27.7023 60.4847 27.5733C61.0005 27.496 61.5422 27.6249 62.1354 27.6507C62.3675 26.7996 63.0897 26.3353 63.9667 26C64.302 26 64.6631 26 64.9984 26C65.4369 26.2579 65.9011 26.4901 66.2622 26.7996C66.5459 27.0317 66.7007 27.4186 66.907 27.7539C67.5776 27.4444 68.2483 27.4186 68.9447 27.7023C69.6411 27.986 70.0795 28.5535 70.3632 29.2241C72.4524 28.3729 74.0516 29.9721 74 31.8549C73.8968 36.0333 73.9484 40.2117 73.9742 44.4159C73.9742 46.6341 73.0973 48.388 71.3176 49.7034C70.8275 50.0645 70.5954 50.503 70.5954 51.122C70.6212 53.4175 70.6212 55.7131 70.5954 58.0086C70.5954 58.3697 70.6728 58.6018 71.0596 58.7308C71.3434 58.834 71.6271 59.0661 71.8334 59.2982C72.5556 60.1236 72.6588 61.0521 72.2203 62.058C73.3294 62.4965 73.9742 63.2703 73.9742 64.4567C73.9742 65.6432 73.2778 66.417 72.2203 66.8554C72.7877 68.4546 72.4009 69.3831 70.7759 70.389C71.6271 72.4524 70.0279 74.0516 68.1451 74C63.9667 73.8968 59.7883 73.9484 55.5841 73.9742C53.3659 73.9742 51.612 73.0973 50.2966 71.3176C49.9355 70.8275 49.497 70.5954 48.878 70.5954C46.5825 70.6212 44.2869 70.6212 41.9914 70.5954C41.6303 70.5954 41.424 70.6728 41.2692 71.0596C41.1402 71.3692 40.8823 71.6787 40.6244 71.885C39.8248 72.5556 38.9221 72.633 37.942 72.1945C37.5035 73.3036 36.7297 73.9742 35.5433 73.9484C34.3568 73.9484 33.583 73.252 33.1445 72.1945C31.5454 72.762 30.6169 72.3751 29.611 70.7501C27.8571 71.3176 26.8254 70.8275 26.0774 69.1252C26.0258 69.0994 26.0258 69.0994 26 69.0994ZM69.1768 58.4213C69.1768 58.2407 69.1768 58.0602 69.1768 57.9054C69.1768 55.6357 69.1768 53.3401 69.1768 51.0704C69.1768 50.0645 69.5379 49.2391 70.3632 48.6459C71.9108 47.5626 72.5814 46.0666 72.5814 44.2096C72.5556 41.295 72.5814 38.4062 72.5814 35.4917C72.5814 34.202 72.6072 32.9382 72.5556 31.6486C72.5556 31.3133 72.4009 30.9522 72.1687 30.6943C71.9108 30.3847 71.4981 30.3332 71.0854 30.5137C70.647 30.72 70.4664 31.0553 70.4664 31.5196C70.4664 33.1188 70.4664 34.7437 70.4664 36.3428C70.4664 36.5234 70.4922 36.7555 70.4148 36.8845C70.2601 37.0908 70.0279 37.3487 69.7958 37.4003C69.4605 37.5035 69.2026 37.2714 69.0994 36.9361C69.0478 36.7555 69.0478 36.575 69.0478 36.3944C69.0478 34.3568 69.0478 32.2934 69.0478 30.2558C69.0478 30.0494 69.0478 29.8431 68.9962 29.6625C68.8415 29.1725 68.3772 28.9146 67.8614 28.9919C67.3455 29.0693 66.9844 29.482 66.9844 30.0494C66.9844 32.1644 66.9844 34.3052 66.9844 36.4202C66.9844 36.575 67.0102 36.7297 66.9586 36.8845C66.8555 37.2456 66.5975 37.4777 66.2106 37.4519C65.8495 37.4261 65.6174 37.194 65.5658 36.8071C65.54 36.6523 65.54 36.4976 65.54 36.3428C65.54 33.8667 65.54 31.3649 65.54 28.8888C65.54 28.6824 65.54 28.4503 65.4884 28.244C65.3337 27.5476 64.5341 27.238 63.9409 27.6249C63.5282 27.9087 63.4508 28.3213 63.4508 28.7598C63.4508 31.3649 63.4508 33.9699 63.4508 36.575C63.4508 37.1166 63.1671 37.4261 62.7286 37.4261C62.2902 37.4261 62.0322 37.0908 62.0322 36.5492C62.0322 35.569 62.0322 34.6147 62.0322 33.6346C62.0322 32.4224 62.0322 31.2101 62.0322 29.9721C62.0322 29.4304 61.6711 29.0435 61.1811 28.9404C60.6652 28.863 60.1752 29.0951 60.0204 29.5852C59.943 29.7915 59.943 30.0494 59.943 30.2816C59.943 34.4084 59.943 38.5352 59.943 42.6362C59.943 43.2552 59.6851 43.5905 59.2466 43.6163C58.7566 43.6421 58.4987 43.281 58.4987 42.6362C58.4987 42.3009 58.4987 41.9656 58.4987 41.6303C57.338 41.6303 56.2805 41.6303 55.1972 41.6303C55.1972 41.7077 55.1714 41.7593 55.1972 41.7851C55.7904 43.6421 56.4095 45.4992 57.4154 47.1757C57.6991 47.6658 58.086 48.13 58.5244 48.4911C59.4014 49.1875 59.8141 50.0387 59.8141 51.1478C59.7883 53.3917 59.8141 55.6099 59.8141 57.8538C59.8141 58.0344 59.8141 58.1891 59.8141 58.3955C62.9092 58.4213 66.0043 58.4213 69.1768 58.4213ZM30.7974 41.5529C30.7974 41.7851 30.7974 41.9398 30.7974 42.1204C30.7974 44.3901 30.7974 46.6599 30.7974 48.9038C30.7974 49.9613 30.4105 50.7867 29.5594 51.3799C28.0892 52.4374 27.4186 53.8818 27.4186 55.6615C27.4186 59.8399 27.4186 63.9925 27.4186 68.1709C27.4186 68.4288 27.4444 68.6867 27.5218 68.8931C27.6765 69.3057 28.0118 69.5379 28.4503 69.5379C28.8888 69.5379 29.2499 69.3315 29.4046 68.9189C29.482 68.7125 29.5078 68.4546 29.5078 68.2225C29.5078 66.6749 29.5078 65.1273 29.5078 63.5798C29.5078 63.3992 29.5078 63.2445 29.5594 63.0639C29.6368 62.7286 29.8947 62.4707 30.23 62.5223C30.4879 62.5739 30.72 62.7802 30.9006 62.9866C31.0038 63.1155 30.978 63.3477 30.978 63.5282C30.978 65.5658 30.978 67.6292 30.978 69.6668C30.978 70.518 31.3649 70.9823 32.0355 70.9823C32.5771 70.9823 33.093 70.5696 33.0672 69.6411C33.0156 67.655 33.0672 65.6432 33.0672 63.6572C33.0672 63.554 33.0672 63.4508 33.0672 63.3219C33.093 62.8318 33.3509 62.4965 33.7894 62.4965C34.202 62.4965 34.4858 62.806 34.4858 63.3219C34.4858 63.4508 34.4858 63.5798 34.4858 63.7088C34.4858 66.1591 34.4858 68.6093 34.4858 71.0596C34.4858 71.266 34.4858 71.4981 34.5373 71.7045C34.6663 72.2719 35.208 72.6072 35.7754 72.4524C36.317 72.3235 36.575 71.9108 36.575 71.1886C36.575 68.6867 36.575 66.1591 36.575 63.6572C36.575 63.4766 36.575 63.3219 36.575 63.1413C36.6008 62.7544 36.8587 62.5481 37.2198 62.5223C37.6067 62.4965 37.8646 62.7286 37.9678 63.0897C37.9936 63.2187 37.9936 63.3735 37.9936 63.5024C37.9936 65.6174 37.9936 67.7066 37.9936 69.8216C37.9936 70.647 38.6126 71.137 39.3348 70.9307C39.8248 70.8017 40.057 70.4148 40.057 69.77C40.057 65.6432 40.057 61.4906 40.057 57.3638C40.057 56.6416 40.2891 56.2805 40.8049 56.2805C41.295 56.2805 41.5271 56.6416 41.5271 57.3896C41.5271 57.6733 41.5271 57.9828 41.5271 58.2665C42.662 58.2665 43.7453 58.2665 44.8802 58.2665C44.1322 56.0999 43.4874 53.9592 42.1719 52.1021C41.9914 51.8442 41.7335 51.5862 41.4756 51.4057C40.5986 50.7609 40.1859 49.9355 40.2117 48.8264C40.2375 46.5567 40.2117 44.2869 40.2117 42.043C40.2117 41.8882 40.2117 41.7077 40.2117 41.5271C37.065 41.5529 33.9699 41.5529 30.7974 41.5529ZM41.5529 69.1768C41.7851 69.1768 41.9398 69.1768 42.1204 69.1768C44.3901 69.1768 46.6857 69.1768 48.9554 69.1768C50.0129 69.1768 50.8125 69.5895 51.4315 70.4406C52.4632 71.885 53.8818 72.5556 55.6357 72.5556C57.338 72.5556 59.0403 72.5556 60.7426 72.5556C63.2187 72.5556 65.669 72.5556 68.1451 72.5556C68.274 72.5556 68.4288 72.5556 68.5578 72.5556C69.1768 72.504 69.5895 72.0398 69.5895 71.4723C69.5637 70.9049 69.151 70.4664 68.5062 70.4664C66.8812 70.4406 65.2563 70.4664 63.6314 70.4664C63.4508 70.4664 63.2187 70.4922 63.0897 70.4148C62.8834 70.2601 62.5997 70.0021 62.5997 69.77C62.5997 69.5379 62.8318 69.28 63.0382 69.0994C63.1413 68.9962 63.3992 69.022 63.5798 69.022C65.6432 69.022 67.7066 69.022 69.77 69.022C69.9764 69.022 70.1827 69.022 70.3632 68.9447C70.8533 68.7899 71.1112 68.2998 71.0081 67.784C70.9307 67.2681 70.518 66.9328 69.9506 66.9328C67.8356 66.9328 65.7464 66.9328 63.6314 66.9328C63.4766 66.9328 63.3219 66.9586 63.1671 66.907C62.7802 66.8297 62.5481 66.5717 62.5739 66.1848C62.5997 65.798 62.8318 65.5658 63.2187 65.5142C63.3735 65.4884 63.5282 65.5142 63.683 65.5142C66.1591 65.5142 68.6093 65.5142 71.0854 65.5142C71.2918 65.5142 71.5239 65.5142 71.7303 65.4627C72.2203 65.3595 72.5556 64.9468 72.5556 64.4567C72.5556 63.9667 72.2203 63.554 71.7303 63.4508C71.5239 63.3992 71.3176 63.3992 71.137 63.3992C68.5836 63.3992 66.0043 63.3992 63.4508 63.3992C62.8834 63.3992 62.5481 63.1155 62.5739 62.6771C62.5997 62.2386 62.9092 61.9807 63.4508 61.9807C65.1531 61.9807 66.8555 61.9807 68.5578 61.9807C69.0478 61.9807 69.5379 61.9807 70.0021 61.9807C70.5954 61.9549 71.0339 61.4906 71.0339 60.9232C71.0339 60.3815 70.5696 59.943 70.0021 59.8915C69.8216 59.8915 69.6153 59.8915 69.4347 59.8915C65.3337 59.8915 61.2585 59.8915 57.1574 59.8915C56.461 59.8915 56.1257 59.6335 56.1257 59.1693C56.1257 58.6792 56.4868 58.4471 57.1832 58.4471C57.5443 58.4471 57.9312 58.4471 58.2923 58.4471C58.2923 57.3122 58.2923 56.2289 58.2923 55.094C56.1257 55.842 53.9592 56.4868 52.1279 57.8023C51.8442 58.0086 51.612 58.2665 51.4057 58.5244C50.7867 59.3498 49.9613 59.7625 48.9038 59.7625C46.6341 59.7367 44.3385 59.7625 42.0688 59.7625C41.914 59.7625 41.7335 59.7625 41.5529 59.7625C41.5529 62.9092 41.5529 66.0043 41.5529 69.1768ZM58.4213 30.7974C58.2149 30.7974 58.0344 30.7974 57.8796 30.7974C55.6099 30.7974 53.3401 30.7974 51.0962 30.7974C50.4514 30.7974 49.8323 30.6943 49.3423 30.2816C49.0328 30.0494 48.7749 29.7399 48.5427 29.4562C47.6916 28.3471 46.6083 27.6507 45.2155 27.4702C44.9318 27.4444 44.6222 27.3928 44.3385 27.3928C40.1601 27.3928 36.0075 27.3928 31.8291 27.3928C31.6486 27.3928 31.4422 27.3928 31.2617 27.4186C30.72 27.5476 30.3847 27.986 30.4105 28.5019C30.4363 29.0435 30.849 29.4562 31.4164 29.4562C33.0672 29.482 34.6921 29.4562 36.3428 29.482C36.5234 29.482 36.7555 29.4562 36.8845 29.5336C37.0908 29.6883 37.3745 29.9463 37.4003 30.1526C37.4003 30.3847 37.1682 30.6427 36.9618 30.8232C36.8587 30.9264 36.6008 30.9006 36.4202 30.9006C34.3568 30.9006 32.2934 30.9006 30.23 30.9006C30.0236 30.9006 29.8173 30.9006 29.6368 30.9522C29.1467 31.1069 28.8888 31.597 28.9661 32.1128C29.0435 32.6287 29.4562 32.964 30.0236 32.964C32.1128 32.964 34.202 32.964 36.2912 32.964C36.4202 32.964 36.575 32.964 36.7039 32.964C37.1166 32.9898 37.4003 33.2993 37.4003 33.6862C37.4003 34.0473 37.1166 34.331 36.7039 34.3568C36.575 34.3568 36.4202 34.3568 36.2912 34.3568C33.8152 34.3568 31.3649 34.3568 28.8888 34.3568C28.6566 34.3568 28.4245 34.3568 28.1924 34.4084C27.7281 34.5116 27.4186 34.95 27.4186 35.3885C27.4186 35.8528 27.7281 36.2654 28.1924 36.3944C28.3987 36.446 28.6308 36.446 28.8372 36.446C31.3649 36.446 33.8925 36.446 36.4202 36.446C37.065 36.446 37.4261 36.7039 37.4003 37.1682C37.4003 37.6325 37.065 37.8646 36.4202 37.8646C34.5373 37.8646 32.6545 37.8646 30.7458 37.8646C30.4621 37.8646 30.1784 37.8646 29.8947 37.8646C29.3788 37.8904 28.9919 38.2515 28.9146 38.7673C28.8372 39.2574 29.1467 39.7474 29.6368 39.9022C29.8689 39.9538 30.101 39.9538 30.3332 39.9538C34.5631 39.9538 38.7931 39.9538 43.0231 39.9538C43.6421 39.9538 43.9774 40.2117 44.0032 40.6502C44.029 41.1145 43.6421 41.3982 43.0231 41.3982C42.5588 41.3982 42.0946 41.3982 41.6303 41.3982C41.6303 42.533 41.6303 43.6163 41.6303 44.7512C43.7969 44.029 45.9119 43.3842 47.7689 42.0688C48.0527 41.8624 48.3106 41.6045 48.5427 41.3208C49.1875 40.4954 49.9871 40.0828 51.0446 40.0828C53.3143 40.1085 55.6099 40.0828 57.8796 40.0828C58.0344 40.0828 58.2149 40.0828 58.3955 40.0828C58.4213 37.065 58.4213 33.9699 58.4213 30.7974ZM52.1021 41.6819V41.6561C51.7668 41.6561 51.4573 41.6561 51.122 41.6561C50.6319 41.6303 50.1677 41.7593 49.8839 42.1719C49.1359 43.2037 48.1042 43.9001 46.9694 44.3901C45.3444 45.0865 43.6937 45.6797 42.043 46.273C41.7593 46.3761 41.6303 46.5051 41.6303 46.8404C41.6561 47.5626 41.6303 48.3106 41.6303 49.0328C41.6303 49.4713 41.7851 49.8839 42.1462 50.1419C43.1005 50.8383 43.7711 51.7668 44.2354 52.7985C44.9575 54.475 45.5766 56.2031 46.2214 57.9312C46.3246 58.2407 46.4535 58.3955 46.7888 58.3697C47.511 58.3439 48.2332 58.3697 48.9554 58.3697C49.4197 58.3697 49.8323 58.2149 50.0903 57.8538C50.7609 56.9511 51.612 56.2805 52.6437 55.842C54.3718 55.094 56.1257 54.4492 57.9054 53.7786C58.2149 53.6496 58.3439 53.5207 58.3181 53.1854C58.2923 52.4632 58.3181 51.741 58.3181 51.0188C58.3181 50.5287 58.1376 50.1161 57.7507 49.8581C57.0027 49.3165 56.4095 48.6201 56.0226 47.7947C55.3004 46.2472 54.6814 44.648 54.0107 43.0747C53.8302 42.6362 53.8044 41.9914 53.4949 41.7851C53.1854 41.5013 52.5922 41.6819 52.1021 41.6819Z" fill="#6E6E6E"/>
</g>
<defs>
<clipPath id="clip0_2281_5026">
<rect width="48" height="48" fill="white" transform="translate(26 26)"/>
</clipPath>
</defs>
</svg>
