<svg width="100" height="100" viewBox="0 0 100 100" fill="none" xmlns="http://www.w3.org/2000/svg">
<rect width="100" height="100" rx="8" fill="white"/>
<g clip-path="url(#clip0_2281_1434)">
<path d="M26 58.8961C26.128 58.3628 26.2347 57.8294 26.384 57.3174C27.408 53.7761 30.5653 51.0881 34.2133 50.6401C36.368 50.3628 38.3733 50.7468 40.2507 51.8348C40.528 52.0054 40.6773 51.9201 40.8693 51.7281C42.9173 49.7228 45.392 48.5068 48.2293 48.1654C52.24 47.6534 55.7813 48.7841 58.8107 51.4721C58.8747 51.5148 58.9173 51.5788 59.024 51.6428C59.152 51.5788 59.28 51.4934 59.408 51.4081C65.168 47.8454 72.6133 51.1094 73.808 57.7441C74.064 59.1948 73.9787 60.7308 73.936 62.2241C73.8933 63.2268 72.9333 63.9094 71.8027 63.9094C69.072 63.9094 66.3413 63.9094 63.6107 63.9094C63.44 63.9094 63.2693 63.9094 63.0347 63.9094C63.0347 64.0801 63.0347 64.2294 63.0347 64.3788C63.0133 65.9574 61.9467 67.0028 60.368 67.0028C57.8293 67.0028 55.312 67.0028 52.7733 67.0028C48.4213 67.0028 44.0907 67.0028 39.7387 67.0028C38.1173 67.0028 37.136 66.1281 36.9227 64.4854C36.7733 64.4854 36.6027 64.4854 36.432 64.4854C33.8293 64.4854 31.248 64.4428 28.6453 64.5068C27.408 64.5281 26.4907 64.1654 26 62.9921C26 61.6481 26 60.2828 26 58.8961ZM50 65.4668C53.456 65.4668 56.912 65.4668 60.3467 65.4668C61.0933 65.4668 61.4347 65.1254 61.456 64.3788C61.456 63.8881 61.456 63.3761 61.456 62.8854C61.456 61.2854 61.5413 59.6641 61.0933 58.1068C59.2373 51.3441 51.8773 47.7388 45.4773 50.5761C41.104 52.4961 38.7573 55.9521 38.544 60.7521C38.5013 61.9254 38.5227 63.0988 38.5227 64.2721C38.5227 65.1681 38.8427 65.4881 39.7387 65.4881C43.152 65.4668 46.5653 65.4668 50 65.4668ZM62.992 62.2881C63.0987 62.3308 63.12 62.3521 63.1627 62.3521C66.064 62.3521 68.9653 62.3521 71.8667 62.3521C72.2293 62.3521 72.4 62.1601 72.4 61.7974C72.4 61.2428 72.4 60.6668 72.4 60.1121C72.4213 59.0668 72.3787 58.0214 72.0373 57.0188C70.864 53.3921 67.216 51.0668 63.44 51.6001C62.2667 51.7708 61.136 52.1334 60.1333 52.8374C62.3733 55.6108 63.248 58.7894 62.992 62.2881ZM39.5467 53.2214C37.8613 52.2614 36.0907 51.9628 34.2347 52.2188C31.1413 52.6668 28.4107 55.0988 27.8133 58.1494C27.5573 59.4721 27.6427 60.8374 27.5787 62.2028C27.5573 62.8641 27.6427 62.9281 28.304 62.9281C31.0133 62.9281 33.744 62.9281 36.4533 62.9281C36.624 62.9281 36.7733 62.9068 37.008 62.9068C36.7093 59.3654 37.3493 56.1228 39.5467 53.2214Z" fill="#6E6E6E"/>
<path d="M42.5763 40.0586C42.5763 36.1333 45.7976 32.9546 49.7656 32.9546C53.6909 32.9759 56.9123 36.1973 56.9123 40.0586C56.9123 43.9626 53.6269 47.1839 49.7016 47.1626C45.7549 47.1413 42.5549 43.9626 42.5763 40.0586ZM49.7016 34.5333C46.6509 34.5333 44.1549 37.0079 44.1336 40.0373C44.1123 43.0666 46.6509 45.5839 49.7229 45.5839C52.7736 45.5839 55.3336 43.0666 55.3336 40.0373C55.3123 37.0079 52.7736 34.5333 49.7016 34.5333Z" fill="#6E6E6E"/>
<path d="M29.9258 43.728C29.9258 40.6773 32.4004 38.2026 35.4511 38.2026C38.5231 38.2026 41.0618 40.6773 41.0618 43.728C41.0618 46.736 38.5444 49.2533 35.5151 49.2533C32.4218 49.2533 29.9258 46.8 29.9258 43.728ZM31.5044 43.6853C31.4831 45.84 33.2324 47.632 35.3871 47.6746C37.6698 47.696 39.4831 45.9893 39.5044 43.792C39.5258 41.616 37.7551 39.8026 35.6004 39.8026C33.2964 39.76 31.5258 41.4666 31.5044 43.6853Z" fill="#6E6E6E"/>
<path d="M70.054 43.3437C70.054 46.3944 67.5793 48.869 64.5286 48.869C61.4566 48.869 58.918 46.373 58.918 43.3437C58.918 40.3144 61.4353 37.8184 64.4646 37.8184C67.558 37.8184 70.054 40.2717 70.054 43.3437ZM68.4753 43.365C68.4966 41.189 66.7473 39.4184 64.55 39.397C62.31 39.3757 60.4966 41.125 60.4966 43.301C60.4753 45.477 62.246 47.269 64.422 47.2904C66.6833 47.3117 68.4753 45.5837 68.4753 43.365Z" fill="#6E6E6E"/>
</g>
<defs>
<clipPath id="clip0_2281_1434">
<rect width="48" height="34.0907" fill="white" transform="translate(26 32.9546)"/>
</clipPath>
</defs>
</svg>
