<svg width="100" height="100" viewBox="0 0 100 100" fill="none" xmlns="http://www.w3.org/2000/svg">
<rect width="100" height="100" rx="8" fill="white"/>
<g clip-path="url(#clip0_2281_2447)">
<path d="M42.8153 64.7339C42.8153 62.1969 42.8153 59.7156 42.8153 57.1786C42.028 57.1786 41.2406 57.1786 40.4814 57.1786C38.6536 57.1786 37.81 56.3422 37.81 54.53C37.81 49.5117 37.81 44.5212 37.81 39.5029C37.81 36.7149 39.6378 34.5124 42.3373 33.927C42.5622 33.8712 42.7591 33.8433 42.984 33.8433C47.6237 33.8433 52.2353 33.7597 56.8751 33.8433C59.8557 33.8991 62.1615 36.3246 62.1896 39.2799C62.2459 44.4933 62.2178 49.679 62.1896 54.8924C62.1896 56.2028 61.2898 57.0949 59.9963 57.1507C59.0965 57.1786 58.1685 57.1507 57.2125 57.1507C57.2125 59.6877 57.2125 62.169 57.2125 64.7061C58.3935 64.8733 59.6026 65.0127 60.7837 65.2079C64.2705 65.7934 67.7292 66.4625 70.8786 68.1353C71.6659 68.5535 72.4251 69.111 73.0438 69.7802C74.3654 71.1741 74.3091 72.8748 72.9875 74.2967C72.0315 75.3003 70.8223 75.9416 69.5288 76.4992C66.4919 77.7816 63.3144 78.4228 60.0526 78.8689C55.6378 79.4823 51.1949 79.6774 46.752 79.4544C41.4093 79.2035 36.1229 78.618 31.0613 76.7222C29.7397 76.2204 28.4743 75.607 27.4058 74.6591C26.4779 73.8506 25.8874 72.8748 26.0561 71.5923C26.1967 70.5329 26.8153 69.7802 27.6026 69.1389C28.7837 68.1631 30.1615 67.5498 31.5956 67.0201C34.5763 65.9607 37.6975 65.3473 40.8469 64.9849C41.4656 64.9012 42.1123 64.8176 42.8153 64.7339ZM42.9278 55.3385C42.9278 55.0597 42.9278 54.8367 42.9278 54.6136C42.9278 52.2439 42.9278 49.8741 42.9278 47.4765C42.9278 47.2813 42.9278 47.0861 42.9559 46.891C43.0684 46.417 43.4058 46.194 43.8838 46.194C44.3337 46.2219 44.6712 46.4449 44.7555 46.9467C44.7837 47.1977 44.7837 47.4486 44.7837 47.7274C44.7837 54.7809 44.7837 61.8066 44.7837 68.8601C44.7837 69.3341 44.7837 69.808 44.868 70.282C44.9524 70.8675 45.1492 71.5087 45.8241 71.5645C46.8926 71.6481 47.9612 71.5923 49.0859 71.5923C49.0859 71.2857 49.0859 71.0626 49.0859 70.8396C49.0859 67.5498 49.0859 64.26 49.0859 60.9702C49.0859 60.7472 49.0859 60.5241 49.1422 60.329C49.2547 59.855 49.5921 59.632 50.042 59.632C50.4919 59.632 50.8012 59.855 50.8856 60.329C50.9418 60.552 50.9418 60.8029 50.9418 61.026C50.9418 64.3158 50.9418 67.6055 50.9418 70.8953C50.9418 71.1184 50.9418 71.3414 50.9418 71.6202C51.9823 71.6202 52.9383 71.6202 53.8944 71.6202C54.5974 71.6202 54.991 71.3693 55.1598 70.6723C55.2722 70.1705 55.3004 69.6129 55.3004 69.0832C55.3004 61.8902 55.3004 54.7252 55.3004 47.5322C55.3004 47.3092 55.3004 47.0861 55.3285 46.891C55.441 46.3334 55.8627 46.0546 56.4251 46.1661C57.0438 46.3055 57.1562 46.7516 57.1562 47.2813C57.1562 49.7347 57.1562 52.1881 57.1562 54.6415C57.1562 54.8646 57.1562 55.0597 57.1562 55.3385C58.0561 55.3385 58.8997 55.3106 59.7151 55.3385C60.1932 55.3385 60.3338 55.1155 60.3338 54.6973C60.3338 49.5674 60.3619 44.4376 60.3056 39.3077C60.2775 37.1331 58.6466 35.5997 56.4814 35.5997C52.151 35.5997 47.8206 35.5997 43.4902 35.5997C43.2652 35.5997 43.0121 35.5997 42.7872 35.6555C40.8469 36.0458 39.6659 37.4956 39.6659 39.5586C39.6659 44.5212 39.6659 49.4838 39.6659 54.4742C39.6659 54.5858 39.6659 54.7252 39.6659 54.8367C39.6659 55.1712 39.8065 55.3664 40.1721 55.3664C41.0438 55.3385 41.9436 55.3385 42.9278 55.3385ZM42.8434 66.6298C42.5903 66.6298 42.3935 66.6019 42.1967 66.6298C38.9629 66.9922 35.7573 67.5219 32.6923 68.5535C31.2301 69.0553 29.796 69.585 28.6431 70.6444C27.5745 71.5923 27.5464 72.5124 28.6993 73.3766C29.5429 74.0179 30.499 74.5476 31.4831 74.9658C35.7854 76.6943 40.3127 77.2798 44.8961 77.5865C48.6642 77.8374 52.4322 77.8095 56.2002 77.5028C59.5745 77.224 62.8926 76.7501 66.1264 75.8022C67.7292 75.3282 69.3039 74.7706 70.7099 73.8506C72.5376 72.6239 72.5657 71.4251 70.7099 70.1984C70.035 69.7523 69.3039 69.3898 68.5446 69.0832C66.2107 68.1074 63.7362 67.5498 61.2336 67.1595C59.8838 66.9364 58.5341 66.797 57.0719 66.6019C57.0719 66.9364 57.0719 67.1595 57.0719 67.4104C57.0438 68.4977 57.0719 69.585 56.9313 70.6723C56.7345 72.4008 55.5816 73.4882 53.9506 73.516C51.3074 73.5439 48.636 73.5439 45.9928 73.516C44.6712 73.516 43.7151 72.8469 43.2933 71.6481C43.0121 70.8953 42.9278 70.0311 42.8715 69.2226C42.7872 68.3025 42.8434 67.494 42.8434 66.6298Z" fill="#6E6E6E"/>
<path d="M44.2209 26.1766C44.249 23.0262 46.8923 20.4056 50.0417 20.4613C53.2473 20.5171 55.8062 23.1099 55.778 26.2603C55.7499 29.4107 53.1348 31.9477 49.9292 31.9477C46.7798 31.9198 44.1928 29.2992 44.2209 26.1766ZM50.0417 22.3014C47.8483 22.3014 46.0487 24.0299 46.0487 26.1766C46.0487 28.3234 47.8202 30.1077 49.9854 30.1356C52.0944 30.1634 53.9222 28.3513 53.9503 26.2603C53.9784 24.1136 52.2069 22.3293 50.0417 22.3014Z" fill="#6E6E6E"/>
</g>
<defs>
<clipPath id="clip0_2281_2447">
<rect width="48" height="59.0769" fill="white" transform="translate(26 20.4614)"/>
</clipPath>
</defs>
</svg>
