<svg width="16" height="17" viewBox="0 0 16 17" fill="none" xmlns="http://www.w3.org/2000/svg">
<mask id="mask0_2281_1508" style="mask-type:alpha" maskUnits="userSpaceOnUse" x="0" y="0" width="16" height="17">
<rect y="0.5" width="16" height="16" fill="#D9D9D9"/>
</mask>
<g mask="url(#mask0_2281_1508)">
<path d="M7.99952 11.6667C8.14129 11.6667 8.26002 11.6188 8.35568 11.5229C8.45146 11.4271 8.49935 11.3084 8.49935 11.1667V8.33341C8.49935 8.19175 8.4514 8.07297 8.35552 7.97708C8.25963 7.8813 8.14085 7.83341 7.99918 7.83341C7.8574 7.83341 7.73868 7.8813 7.64302 7.97708C7.54724 8.07297 7.49935 8.19175 7.49935 8.33341V11.1667C7.49935 11.3084 7.54729 11.4271 7.64318 11.5229C7.73907 11.6188 7.85785 11.6667 7.99952 11.6667ZM7.99935 6.69241C8.1519 6.69241 8.27979 6.6408 8.38301 6.53758C8.48624 6.43436 8.53785 6.30647 8.53785 6.15391C8.53785 6.00136 8.48624 5.87347 8.38301 5.77025C8.27979 5.66714 8.1519 5.61558 7.99935 5.61558C7.84679 5.61558 7.7189 5.66714 7.61568 5.77025C7.51246 5.87347 7.46085 6.00136 7.46085 6.15391C7.46085 6.30647 7.51246 6.43436 7.61568 6.53758C7.7189 6.6408 7.84679 6.69241 7.99935 6.69241ZM8.00052 14.8334C7.12452 14.8334 6.30113 14.6672 5.53035 14.3347C4.75957 14.0023 4.08913 13.5511 3.51902 12.9812C2.9489 12.4114 2.49752 11.7412 2.16485 10.9707C1.83229 10.2003 1.66602 9.37714 1.66602 8.50125C1.66602 7.62525 1.83224 6.80186 2.16468 6.03108C2.49713 5.2603 2.94829 4.58986 3.51818 4.01975C4.08807 3.44964 4.75824 2.99825 5.52868 2.66558C6.29913 2.33303 7.12229 2.16675 7.99818 2.16675C8.87418 2.16675 9.69757 2.33297 10.4683 2.66541C11.2391 2.99786 11.9096 3.44903 12.4797 4.01891C13.0498 4.5888 13.5012 5.25897 13.8338 6.02941C14.1664 6.79986 14.3327 7.62303 14.3327 8.49891C14.3327 9.37491 14.1665 10.1983 13.834 10.9691C13.5016 11.7399 13.0504 12.4103 12.4805 12.9804C11.9106 13.5505 11.2405 14.0019 10.47 14.3346C9.69957 14.6671 8.8764 14.8334 8.00052 14.8334ZM7.99935 13.8334C9.48824 13.8334 10.7493 13.3167 11.7827 12.2834C12.816 11.2501 13.3327 9.98897 13.3327 8.50008C13.3327 7.01119 12.816 5.75008 11.7827 4.71675C10.7493 3.68341 9.48824 3.16675 7.99935 3.16675C6.51046 3.16675 5.24935 3.68341 4.21602 4.71675C3.18268 5.75008 2.66602 7.01119 2.66602 8.50008C2.66602 9.98897 3.18268 11.2501 4.21602 12.2834C5.24935 13.3167 6.51046 13.8334 7.99935 13.8334Z" fill="#2D2D2D"/>
<path d="M7.99952 11.6667C8.14129 11.6667 8.26002 11.6188 8.35568 11.5229C8.45146 11.4271 8.49935 11.3084 8.49935 11.1667V8.33341C8.49935 8.19175 8.4514 8.07297 8.35552 7.97708C8.25963 7.8813 8.14085 7.83341 7.99918 7.83341C7.8574 7.83341 7.73868 7.8813 7.64302 7.97708C7.54724 8.07297 7.49935 8.19175 7.49935 8.33341V11.1667C7.49935 11.3084 7.54729 11.4271 7.64318 11.5229C7.73907 11.6188 7.85785 11.6667 7.99952 11.6667ZM7.99935 6.69241C8.1519 6.69241 8.27979 6.6408 8.38301 6.53758C8.48624 6.43436 8.53785 6.30647 8.53785 6.15391C8.53785 6.00136 8.48624 5.87347 8.38301 5.77025C8.27979 5.66714 8.1519 5.61558 7.99935 5.61558C7.84679 5.61558 7.7189 5.66714 7.61568 5.77025C7.51246 5.87347 7.46085 6.00136 7.46085 6.15391C7.46085 6.30647 7.51246 6.43436 7.61568 6.53758C7.7189 6.6408 7.84679 6.69241 7.99935 6.69241ZM8.00052 14.8334C7.12452 14.8334 6.30113 14.6672 5.53035 14.3347C4.75957 14.0023 4.08913 13.5511 3.51902 12.9812C2.9489 12.4114 2.49752 11.7412 2.16485 10.9707C1.83229 10.2003 1.66602 9.37714 1.66602 8.50125C1.66602 7.62525 1.83224 6.80186 2.16468 6.03108C2.49713 5.2603 2.94829 4.58986 3.51818 4.01975C4.08807 3.44964 4.75824 2.99825 5.52868 2.66558C6.29913 2.33303 7.12229 2.16675 7.99818 2.16675C8.87418 2.16675 9.69757 2.33297 10.4683 2.66541C11.2391 2.99786 11.9096 3.44903 12.4797 4.01891C13.0498 4.5888 13.5012 5.25897 13.8338 6.02941C14.1664 6.79986 14.3327 7.62303 14.3327 8.49891C14.3327 9.37491 14.1665 10.1983 13.834 10.9691C13.5016 11.7399 13.0504 12.4103 12.4805 12.9804C11.9106 13.5505 11.2405 14.0019 10.47 14.3346C9.69957 14.6671 8.8764 14.8334 8.00052 14.8334ZM7.99935 13.8334C9.48824 13.8334 10.7493 13.3167 11.7827 12.2834C12.816 11.2501 13.3327 9.98897 13.3327 8.50008C13.3327 7.01119 12.816 5.75008 11.7827 4.71675C10.7493 3.68341 9.48824 3.16675 7.99935 3.16675C6.51046 3.16675 5.24935 3.68341 4.21602 4.71675C3.18268 5.75008 2.66602 7.01119 2.66602 8.50008C2.66602 9.98897 3.18268 11.2501 4.21602 12.2834C5.24935 13.3167 6.51046 13.8334 7.99935 13.8334Z" fill="black" fill-opacity="0.2"/>
</g>
</svg>
