<svg width="120" height="120" viewBox="0 0 120 120" fill="none" xmlns="http://www.w3.org/2000/svg">
<mask id="mask0_723_3010" style="mask-type:alpha" maskUnits="userSpaceOnUse" x="0" y="0" width="120" height="120">
<rect width="120" height="120" fill="#D9D9D9"/>
</mask>
<g mask="url(#mask0_723_3010)">
<path d="M58.9423 99.8561C59.4356 99.8561 59.9373 99.7407 60.4473 99.5099C60.9565 99.2791 61.3586 99.0162 61.6536 98.7212L101.644 58.7311C102.772 57.6028 103.621 56.3974 104.192 55.1149C104.762 53.8332 105.047 52.4874 105.047 51.0774C105.047 49.6157 104.762 48.2086 104.192 46.8561C103.621 45.5028 102.772 44.2878 101.644 43.2111L81.6436 23.2111C80.5669 22.0828 79.4002 21.2574 78.1436 20.7349C76.8877 20.2132 75.529 19.9524 74.0673 19.9524C72.6573 19.9524 71.3032 20.2132 70.0048 20.7349C68.7065 21.2574 67.5094 22.0828 66.4136 23.2111L63.5473 26.0774L72.7973 35.4036C73.919 36.4745 74.7477 37.6957 75.2836 39.0674C75.8186 40.4391 76.0861 41.862 76.0861 43.3361C76.0861 46.3878 75.0669 48.9328 73.0286 50.9711C70.9902 53.0095 68.4452 54.0286 65.3936 54.0286C63.9194 54.0286 62.4915 53.7849 61.1098 53.2974C59.729 52.8107 58.5032 52.032 57.4323 50.9611L49.0673 42.6736C48.779 42.3845 48.4102 42.2399 47.9611 42.2399C47.5127 42.2399 47.1444 42.3845 46.8561 42.6736L26.2311 63.2974C25.8527 63.6757 25.569 64.0991 25.3798 64.5674C25.1906 65.0349 25.0961 65.5157 25.0961 66.0099C25.0961 66.9324 25.4102 67.7207 26.0386 68.3749C26.6669 69.0291 27.4423 69.3561 28.3648 69.3561C28.859 69.3561 29.3606 69.2407 29.8698 69.0099C30.3798 68.7791 30.7823 68.5161 31.0773 68.2211L44.8648 54.4324C45.5573 53.7399 46.4148 53.3728 47.4373 53.3311C48.4598 53.2895 49.359 53.6566 50.1348 54.4324C50.859 55.1566 51.2211 56.0349 51.2211 57.0674C51.2211 58.0991 50.859 58.977 50.1348 59.7011L36.4223 73.4899C36.0448 73.8682 35.7615 74.2916 35.5723 74.7599C35.3831 75.2274 35.2886 75.7082 35.2886 76.2024C35.2886 77.0932 35.6107 77.8607 36.2548 78.5049C36.899 79.1491 37.6665 79.4711 38.5573 79.4711C39.0515 79.4711 39.5532 79.3557 40.0623 79.1249C40.5723 78.8941 40.9744 78.6311 41.2686 78.3361L55.6348 64.0474C56.3273 63.3557 57.1844 62.9891 58.2061 62.9474C59.2286 62.9057 60.1277 63.2724 60.9036 64.0474C61.6277 64.7724 61.9898 65.6507 61.9898 66.6824C61.9898 67.7141 61.6277 68.5924 60.9036 69.3174L46.6148 83.6824C46.269 83.9774 45.9936 84.3795 45.7886 84.8886C45.5836 85.3986 45.4811 85.9003 45.4811 86.3936C45.4811 87.2853 45.8031 88.0532 46.4473 88.6974C47.0915 89.3416 47.859 89.6636 48.7498 89.6636C49.2432 89.6636 49.724 89.5691 50.1923 89.3799C50.6598 89.1907 51.0827 88.907 51.4611 88.5286L65.8273 74.2399C66.519 73.5474 67.3761 73.1803 68.3986 73.1386C69.4211 73.097 70.3202 73.4641 71.0961 74.2399C71.8202 74.9641 72.1823 75.8424 72.1823 76.8749C72.1823 77.9066 71.8202 78.7849 71.0961 79.5099L56.7311 93.8749C56.3527 94.2532 56.069 94.6924 55.8798 95.1924C55.6907 95.6924 55.5961 96.1732 55.5961 96.6349C55.5961 97.5574 55.939 98.3249 56.6248 98.9374C57.3106 99.5499 58.0831 99.8561 58.9423 99.8561ZM58.8648 107.355C56.0382 107.355 53.5736 106.374 51.4711 104.414C49.3686 102.452 48.2694 100.009 48.1736 97.0861C45.3402 96.8936 42.9731 95.8874 41.0723 94.0674C39.1715 92.2466 38.1411 89.8553 37.9811 86.8936C35.0194 86.702 32.6252 85.667 30.7986 83.7886C28.9711 81.9103 27.9931 79.5478 27.8648 76.7011C24.8906 76.5095 22.4356 75.4311 20.4998 73.4661C18.564 71.5011 17.5961 69.0157 17.5961 66.0099C17.5961 64.5357 17.8765 63.0916 18.4373 61.6774C18.9981 60.2641 19.814 59.0224 20.8848 57.9524L41.5573 37.2786C43.2815 35.5545 45.4032 34.6924 47.9223 34.6924C50.4423 34.6924 52.5644 35.5545 54.2886 37.2786L62.6061 45.5961C62.9002 45.942 63.2861 46.2178 63.7636 46.4236C64.2419 46.6286 64.7598 46.7311 65.3173 46.7311C66.2273 46.7311 67.0123 46.4299 67.6723 45.8274C68.3332 45.2249 68.6636 44.4361 68.6636 43.4611C68.6636 42.9036 68.5611 42.3861 68.3561 41.9086C68.1502 41.4311 67.8744 41.0449 67.5286 40.7499L49.9898 23.2111C48.9132 22.0828 47.7386 21.2574 46.4661 20.7349C45.1936 20.2132 43.8265 19.9524 42.3648 19.9524C40.9548 19.9524 39.6169 20.2132 38.3511 20.7349C37.0844 21.2574 35.8873 22.0828 34.7598 23.2111L18.3361 39.7111C16.8811 41.1661 15.9036 42.9178 15.4036 44.9661C14.9036 47.0145 14.9548 49.0066 15.5573 50.9424C15.7756 51.9741 15.5881 52.9116 14.9948 53.7549C14.4023 54.5974 13.5898 55.102 12.5573 55.2686C11.5256 55.4353 10.5802 55.2353 9.72106 54.6686C8.8619 54.1011 8.34898 53.3011 8.18231 52.2686C7.39398 49.0703 7.39106 45.8861 8.17356 42.7161C8.95523 39.5461 10.5606 36.7466 12.9898 34.3174L29.3648 17.9424C31.2373 16.1216 33.2744 14.7516 35.4761 13.8324C37.6777 12.9124 39.9902 12.4524 42.4136 12.4524C44.8361 12.4524 47.1402 12.9124 49.3261 13.8324C51.5127 14.7516 53.5161 16.1216 55.3361 17.9424L58.2023 20.8074L61.0673 17.9424C62.939 16.1216 64.9677 14.7516 67.1536 13.8324C69.3394 12.9124 71.644 12.4524 74.0673 12.4524C76.4906 12.4524 78.8031 12.9124 81.0048 13.8324C83.2065 14.7516 85.2177 16.1216 87.0386 17.9424L106.914 37.8174C108.734 39.6382 110.128 41.7103 111.096 44.0336C112.064 46.357 112.547 48.7303 112.547 51.1536C112.547 53.577 112.064 55.8816 111.096 58.0674C110.128 60.2532 108.734 62.2561 106.914 64.0761L66.9223 103.99C65.8198 105.092 64.5781 105.929 63.1973 106.5C61.8157 107.07 60.3715 107.355 58.8648 107.355Z" fill="#478C5C"/>
</g>
</svg>
