<svg width="120" height="120" viewBox="0 0 120 120" fill="none" xmlns="http://www.w3.org/2000/svg">
<mask id="mask0_723_3154" style="mask-type:alpha" maskUnits="userSpaceOnUse" x="0" y="0" width="120" height="120">
<rect width="120" height="120" fill="#D9D9D9"/>
</mask>
<g mask="url(#mask0_723_3154)">
<path d="M60.0001 44.7114C55.6792 44.7114 52.003 43.1955 48.9713 40.1639C45.9397 37.1314 44.4238 33.4551 44.4238 29.1351C44.4238 24.8143 45.9397 21.138 48.9713 18.1064C52.003 15.0739 55.6792 13.5576 60.0001 13.5576C64.3209 13.5576 67.9972 15.0739 71.0288 18.1064C74.0605 21.138 75.5763 24.8143 75.5763 29.1351C75.5763 33.4551 74.0605 37.1314 71.0288 40.1639C67.9972 43.1955 64.3209 44.7114 60.0001 44.7114ZM60.0001 37.2114C62.2434 37.2114 64.1505 36.4264 65.7213 34.8564C67.2922 33.2855 68.0776 31.3785 68.0776 29.1351C68.0776 26.891 67.2922 24.9839 65.7213 23.4139C64.1505 21.843 62.2434 21.0576 60.0001 21.0576C57.7567 21.0576 55.8497 21.843 54.2788 23.4139C52.708 24.9839 51.9226 26.891 51.9226 29.1351C51.9226 31.3785 52.708 33.2855 54.2788 34.8564C55.8497 36.4264 57.7567 37.2114 60.0001 37.2114ZM54.6063 100.279L31.3463 77.0189C29.8722 75.5447 28.7663 73.8701 28.0288 71.9951C27.2922 70.1201 26.9238 68.0714 26.9238 65.8489C26.9238 61.4772 28.4255 57.791 31.4288 54.7901C34.433 51.7893 38.1234 50.2889 42.5001 50.2889C44.6426 50.2889 46.6188 50.691 48.4288 51.4951C50.2388 52.3001 51.8972 53.4555 53.4038 54.9614L60.0001 61.5576L66.5963 54.9614C68.0705 53.4872 69.7242 52.3397 71.5576 51.5189C73.3909 50.6989 75.3788 50.2889 77.5213 50.2889C81.8788 50.2889 85.5609 51.7893 88.5676 54.7901C91.5734 57.791 93.0763 61.4772 93.0763 65.8489C93.0763 68.0714 92.708 70.1201 91.9713 71.9951C91.2338 73.8701 90.128 75.5447 88.6538 77.0189L65.3938 100.279C64.6188 101.055 63.7663 101.628 62.8363 102C61.9072 102.372 60.9617 102.558 60.0001 102.558C59.0384 102.558 58.093 102.372 57.1638 102C56.2338 101.628 55.3813 101.055 54.6063 100.279ZM60.0001 94.9814L83.2313 71.7501C84.0455 70.936 84.6401 70.0255 85.0151 69.0189C85.3901 68.013 85.5776 66.9697 85.5776 65.8889C85.5776 63.7289 84.8051 61.8389 83.2601 60.2189C81.7151 58.5989 79.7934 57.7889 77.4951 57.7889C76.4342 57.7889 75.4755 57.9485 74.6188 58.2676C73.7613 58.5876 72.9267 59.1585 72.1151 59.9801L60.0001 72.0964L47.9813 60.0764C47.4272 59.5047 46.7117 58.9805 45.8351 58.5039C44.9576 58.0272 43.853 57.7889 42.5213 57.7889C40.2122 57.7889 38.2851 58.5947 36.7401 60.2064C35.1951 61.8189 34.4226 63.6997 34.4226 65.8489C34.4226 66.9239 34.623 67.9472 35.0238 68.9189C35.4247 69.8897 36.0063 70.7822 36.7688 71.5964L60.0001 94.9814Z" fill="#478C5C"/>
</g>
</svg>
