<svg width="120" height="120" viewBox="0 0 120 120" fill="none" xmlns="http://www.w3.org/2000/svg">
<mask id="mask0_723_2432" style="mask-type:alpha" maskUnits="userSpaceOnUse" x="0" y="0" width="120" height="120">
<rect width="120" height="120" fill="#D9D9D9"/>
</mask>
<g mask="url(#mask0_723_2432)">
<path d="M86.615 91.7787L83.9137 89.0775C83.3238 88.4875 82.62 88.1925 81.8025 88.1925C80.9858 88.1925 80.2825 88.4875 79.6925 89.0775C79.1025 89.6667 78.8075 90.3571 78.8075 91.1488C78.8075 91.9404 79.1025 92.6313 79.6925 93.2213L84.2787 97.8075C84.9646 98.4933 85.7517 98.8363 86.64 98.8363C87.5275 98.8363 88.3142 98.4933 89 97.8075L100.308 86.7025C100.897 86.1125 101.2 85.4167 101.216 84.615C101.232 83.8142 100.929 83.1029 100.308 82.4812C99.7175 81.8912 99.0058 81.5963 98.1725 81.5963C97.3392 81.5963 96.6279 81.8912 96.0387 82.4812L86.615 91.7787ZM35.6738 44.3262H84.3262C85.3904 44.3262 86.2817 43.9675 87 43.25C87.7175 42.5317 88.0762 41.6408 88.0762 40.5775C88.0762 39.4808 87.7175 38.5817 87 37.88C86.2817 37.1783 85.3904 36.8275 84.3262 36.8275H35.6738C34.6096 36.8275 33.7183 37.1862 33 37.9037C32.2825 38.6221 31.9238 39.5133 31.9238 40.5775C31.9238 41.6408 32.2825 42.5317 33 43.25C33.7183 43.9675 34.6096 44.3262 35.6738 44.3262ZM90 112.789C83.7567 112.789 78.4458 110.6 74.0675 106.221C69.6892 101.843 67.5 96.5321 67.5 90.2887C67.5 84.0454 69.6892 78.7346 74.0675 74.3563C78.4458 69.9779 83.7567 67.7887 90 67.7887C96.2433 67.7887 101.554 69.9779 105.933 74.3563C110.311 78.7346 112.5 84.0454 112.5 90.2887C112.5 96.5321 110.311 101.843 105.933 106.221C101.554 110.6 96.2433 112.789 90 112.789ZM17.5 26.5387C17.5 24.0454 18.3829 21.9154 20.1488 20.1488C21.9154 18.3829 24.0454 17.5 26.5387 17.5H93.4613C95.9546 17.5 98.0846 18.3829 99.8513 20.1488C101.617 21.9154 102.5 24.0454 102.5 26.5387V53.2688C102.5 54.3329 102.141 55.2242 101.423 55.9425C100.705 56.66 99.8142 57.0187 98.75 57.0187C97.6858 57.0187 96.795 56.66 96.0775 55.9425C95.3592 55.2242 95 54.3329 95 53.2688V26.5387C95 26.1537 94.8396 25.8012 94.5188 25.4812C94.1988 25.1604 93.8463 25 93.4613 25H26.5387C26.1537 25 25.8013 25.1604 25.4813 25.4812C25.1604 25.8012 25 26.1537 25 26.5387V95.25H56.0488C56.1829 96.2117 56.3688 97.1733 56.6063 98.135C56.8429 99.0958 57.1217 100.032 57.4425 100.942C57.7625 101.698 57.6038 102.307 56.9663 102.769C56.3288 103.23 55.7246 103.208 55.1538 102.701L54.3462 102.086C53.9104 101.715 53.4233 101.529 52.885 101.529C52.3467 101.529 51.8596 101.715 51.4238 102.086L47.2313 105.605C46.7954 105.978 46.3079 106.164 45.7687 106.164C45.2304 106.164 44.7433 105.978 44.3075 105.605L40.115 102.086C39.6792 101.715 39.1921 101.529 38.6538 101.529C38.1154 101.529 37.6283 101.715 37.1925 102.086L33 105.605C32.5642 105.978 32.0771 106.164 31.5387 106.164C31.0004 106.164 30.5133 105.978 30.0775 105.605L25.885 102.086C25.4492 101.715 24.9621 101.529 24.4237 101.529C23.8846 101.529 23.3971 101.715 22.9613 102.086L17.5 106.971V26.5387ZM35.6738 83.1725H53.7988C54.8621 83.1725 55.7529 82.8138 56.4712 82.0963C57.1896 81.3779 57.5488 80.4867 57.5488 79.4225C57.5488 78.3592 57.1896 77.4683 56.4712 76.75C55.7529 76.0325 54.8621 75.6738 53.7988 75.6738H35.6738C34.6096 75.6738 33.7183 76.0325 33 76.75C32.2825 77.4683 31.9238 78.3592 31.9238 79.4225C31.9238 80.4867 32.2825 81.3779 33 82.0963C33.7183 82.8138 34.6096 83.1725 35.6738 83.1725ZM35.6738 63.75H70.0575C71.1217 63.75 72.0129 63.3908 72.7312 62.6725C73.4487 61.955 73.8075 61.0642 73.8075 60C73.8075 58.9358 73.4487 58.045 72.7312 57.3275C72.0129 56.6092 71.1217 56.25 70.0575 56.25H35.6738C34.6096 56.25 33.7183 56.6092 33 57.3275C32.2825 58.045 31.9238 58.9358 31.9238 60C31.9238 61.0642 32.2825 61.955 33 62.6725C33.7183 63.3908 34.6096 63.75 35.6738 63.75Z" fill="#478C5C"/>
</g>
</svg>
