<svg width="54" height="55" viewBox="0 0 54 55" fill="none" xmlns="http://www.w3.org/2000/svg">
<path d="M27 0.936279C12.0883 0.936279 0 13.0246 0 27.9363C0 42.848 12.0883 54.9363 27 54.9363C41.9117 54.9363 54 42.848 54 27.9363C54 13.0246 41.9117 0.936279 27 0.936279ZM12.9618 23.2989H19.0806V41.6833H12.9618V23.2989ZM19.4836 17.6118C19.4439 15.8092 18.1549 14.4363 16.0617 14.4363C13.9685 14.4363 12.6 15.8092 12.6 17.6118C12.6 19.3771 13.928 20.7895 15.9822 20.7895H16.0213C18.1549 20.7895 19.4836 19.3771 19.4836 17.6118ZM34.1023 22.8672C38.1287 22.8672 41.1473 25.4953 41.1473 31.1422L41.1471 41.6833H35.0285V31.8476C35.0285 29.3771 34.1431 27.6913 31.9281 27.6913C30.2376 27.6913 29.2307 28.8278 28.7885 29.9254C28.6267 30.3188 28.587 30.8669 28.587 31.4164V41.6838H22.4675C22.4675 41.6838 22.5481 25.0244 22.4675 23.2993H28.587V25.9033C29.3991 24.6516 30.8536 22.8672 34.1023 22.8672Z" fill="white"/>
</svg>
