<svg width="20" height="20" viewBox="0 0 20 20" fill="none" xmlns="http://www.w3.org/2000/svg">
<mask id="mask0_2281_584" style="mask-type:alpha" maskUnits="userSpaceOnUse" x="0" y="0" width="20" height="20">
<rect width="20" height="20" fill="#D9D9D9"/>
</mask>
<g mask="url(#mask0_2281_584)">
<path d="M5.86607 13.7819C4.81968 13.7819 3.92773 13.4132 3.19023 12.6757C2.45273 11.9383 2.08398 11.0465 2.08398 10.0003C2.08398 8.95402 2.45273 8.06208 3.19023 7.32444C3.92773 6.58666 4.81968 6.21777 5.86607 6.21777H8.38211C8.55919 6.21777 8.7076 6.2777 8.82732 6.39757C8.94718 6.51743 9.00711 6.66597 9.00711 6.84319C9.00711 7.02027 8.94718 7.16868 8.82732 7.2884C8.7076 7.40798 8.55919 7.46777 8.38211 7.46777H5.86503C5.16586 7.46777 4.56926 7.71486 4.07523 8.20902C3.58107 8.70319 3.33398 9.30013 3.33398 9.99986C3.33398 10.6996 3.58107 11.2965 4.07523 11.7907C4.56926 12.2849 5.16586 12.5319 5.86503 12.5319H8.38211C8.55919 12.5319 8.7076 12.5919 8.82732 12.7117C8.94718 12.8316 9.00711 12.9801 9.00711 13.1571C9.00711 13.3344 8.94718 13.4828 8.82732 13.6024C8.7076 13.7221 8.55919 13.7819 8.38211 13.7819H5.86607ZM7.50065 10.6249C7.32357 10.6249 7.17517 10.5649 7.05544 10.4451C6.93558 10.3252 6.87565 10.1767 6.87565 9.99965C6.87565 9.82243 6.93558 9.67402 7.05544 9.55444C7.17517 9.43472 7.32357 9.37486 7.50065 9.37486H12.5007C12.6777 9.37486 12.8261 9.43479 12.9459 9.55465C13.0657 9.67451 13.1257 9.82298 13.1257 10.0001C13.1257 10.1773 13.0657 10.3257 12.9459 10.4453C12.8261 10.565 12.6777 10.6249 12.5007 10.6249H7.50065ZM11.6192 13.7819C11.4421 13.7819 11.2937 13.722 11.174 13.6021C11.0541 13.4823 10.9942 13.3337 10.9942 13.1565C10.9942 12.9794 11.0541 12.831 11.174 12.7113C11.2937 12.5917 11.4421 12.5319 11.6192 12.5319H14.1363C14.8354 12.5319 15.432 12.2849 15.9261 11.7907C16.4202 11.2965 16.6673 10.6996 16.6673 9.99986C16.6673 9.30013 16.4202 8.70319 15.9261 8.20902C15.432 7.71486 14.8354 7.46777 14.1363 7.46777H11.6192C11.4421 7.46777 11.2937 7.40784 11.174 7.28798C11.0541 7.16812 10.9942 7.01965 10.9942 6.84256C10.9942 6.66534 11.0541 6.51694 11.174 6.39736C11.2937 6.27763 11.4421 6.21777 11.6192 6.21777H14.1352C15.1816 6.21777 16.0736 6.58652 16.8111 7.32402C17.5486 8.06138 17.9173 8.95319 17.9173 9.99944C17.9173 11.0457 17.5486 11.9376 16.8111 12.6753C16.0736 13.4131 15.1816 13.7819 14.1352 13.7819H11.6192Z" fill="#6E6E6E"/>
</g>
</svg>
