<svg width="21" height="20" viewBox="0 0 21 20" fill="none" xmlns="http://www.w3.org/2000/svg">
<path d="M13.4946 14.4967C9.56517 14.4967 6.36826 11.2937 6.36719 7.35819C6.36826 6.36056 7.17933 5.54932 8.17325 5.54932C8.27544 5.54932 8.37654 5.55793 8.47335 5.57517C8.68633 5.61072 8.88857 5.68291 9.07466 5.79172C9.10155 5.80788 9.11984 5.83375 9.12414 5.86392L9.53935 8.48509C9.54473 8.51633 9.53505 8.5465 9.51461 8.56912C9.28549 8.82338 8.99291 9.00654 8.66698 9.09812L8.50993 9.14228L8.56909 9.29418C9.10477 10.6603 10.1955 11.7516 11.5605 12.2903L11.7122 12.3506L11.7563 12.1933C11.8477 11.8669 12.0306 11.5738 12.2845 11.3444C12.3028 11.3271 12.3275 11.3185 12.3522 11.3185C12.3576 11.3185 12.363 11.3185 12.3694 11.3196L14.9866 11.7355C15.0178 11.7408 15.0436 11.7581 15.0597 11.785C15.1673 11.9714 15.2393 12.175 15.2759 12.3883C15.2931 12.4831 15.3007 12.5833 15.3007 12.6878C15.3007 13.6844 14.4907 14.4956 13.4946 14.4967Z" fill="#6E6E6E"/>
<path d="M20.4624 9.13597C20.2504 6.73779 19.1533 4.51308 17.373 2.87228C15.582 1.22178 13.2586 0.3125 10.8286 0.3125C5.49543 0.3125 1.15617 4.65851 1.15617 10C1.15617 11.7927 1.6499 13.5391 2.58466 15.0603L0.5 19.6821L7.17456 18.97C8.33521 19.4462 9.56362 19.6875 10.8275 19.6875C11.1599 19.6875 11.5009 19.6703 11.843 19.6347C12.1442 19.6024 12.4486 19.555 12.7476 19.4947C17.2138 18.5908 20.4742 14.6207 20.5 10.0517V10C20.5 9.70912 20.4871 9.41823 20.4613 9.13704L20.4624 9.13597ZM7.43165 16.9413L3.73886 17.3357L4.84143 14.889L4.62091 14.5927C4.60478 14.5712 4.58864 14.5496 4.57036 14.5249C3.61301 13.2008 3.10743 11.6365 3.10743 10.0011C3.10743 5.73694 6.5711 2.26788 10.8286 2.26788C14.8172 2.26788 18.1981 5.38465 18.524 9.3633C18.5412 9.57661 18.5509 9.791 18.5509 10.0022C18.5509 10.0625 18.5498 10.1217 18.5487 10.1853C18.467 13.7524 15.9789 16.7819 12.4981 17.5533C12.2324 17.6125 11.9602 17.6578 11.6892 17.6869C11.4073 17.7192 11.118 17.7354 10.8308 17.7354C9.80781 17.7354 8.81389 17.5371 7.87482 17.145C7.77048 17.103 7.66829 17.0577 7.57255 17.0114L7.43272 16.9435L7.43165 16.9413Z" fill="#6E6E6E"/>
</svg>
