<svg width="24" height="24" viewBox="0 0 24 24" fill="none" xmlns="http://www.w3.org/2000/svg">
<mask id="mask0_2851_3332" style="mask-type:alpha" maskUnits="userSpaceOnUse" x="0" y="0" width="24" height="24">
<rect width="24" height="24" fill="#D9D9D9"/>
</mask>
<g mask="url(#mask0_2851_3332)">
<path d="M12.0017 21.5C10.6877 21.5 9.45267 21.2507 8.2965 20.752C7.14033 20.2533 6.13467 19.5766 5.2795 18.7218C4.42433 17.8669 3.74725 16.8617 3.24825 15.706C2.74942 14.5503 2.5 13.3156 2.5 12.0017C2.5 10.6877 2.74942 9.45267 3.24825 8.2965C3.74692 7.14033 4.42375 6.13467 5.27875 5.2795C6.13375 4.42433 7.13917 3.74725 8.295 3.24825C9.45083 2.74942 10.6858 2.5 12 2.5C12.5692 2.5 13.1268 2.5465 13.673 2.6395C14.2192 2.7325 14.7455 2.87508 15.252 3.06725C15.5383 3.16908 15.7189 3.31858 15.7937 3.51575C15.8684 3.71292 15.8737 3.9045 15.8095 4.0905C15.7455 4.27633 15.6298 4.42083 15.4625 4.524C15.2952 4.62717 15.1083 4.6365 14.902 4.552C14.4493 4.36983 13.9836 4.23233 13.5048 4.1395C13.0258 4.0465 12.5242 4 12 4C9.78333 4 7.89583 4.77917 6.3375 6.3375C4.77917 7.89583 4 9.78333 4 12C4 14.2167 4.77917 16.1042 6.3375 17.6625C7.89583 19.2208 9.78333 20 12 20C14.2167 20 16.1042 19.2208 17.6625 17.6625C19.2208 16.1042 20 14.2167 20 12C20 11.668 19.9802 11.3378 19.9405 11.0095C19.9007 10.6812 19.841 10.362 19.7615 10.052C19.6975 9.81867 19.728 9.62758 19.853 9.47875C19.9778 9.33008 20.1332 9.234 20.3193 9.1905C20.5051 9.14683 20.6902 9.17217 20.8745 9.2665C21.0587 9.36067 21.1825 9.53975 21.246 9.80375C21.3358 10.1564 21.4006 10.5151 21.4403 10.8798C21.4801 11.2444 21.5 11.6178 21.5 12C21.5 13.3142 21.2507 14.5492 20.752 15.705C20.2533 16.8608 19.5766 17.8663 18.7218 18.7213C17.8669 19.5763 16.8617 20.2531 15.706 20.7518C14.5503 21.2506 13.3156 21.5 12.0017 21.5ZM20.25 4.75H19C18.7875 4.75 18.6094 4.67808 18.4658 4.53425C18.3219 4.39042 18.25 4.21225 18.25 3.99975C18.25 3.78708 18.3219 3.609 18.4658 3.4655C18.6094 3.32183 18.7875 3.25 19 3.25H20.25V2C20.25 1.7875 20.3219 1.60942 20.4657 1.46575C20.6096 1.32192 20.7878 1.25 21.0002 1.25C21.2129 1.25 21.391 1.32192 21.5345 1.46575C21.6782 1.60942 21.75 1.7875 21.75 2V3.25H23C23.2125 3.25 23.3906 3.32192 23.5343 3.46575C23.6781 3.60958 23.75 3.78775 23.75 4.00025C23.75 4.21292 23.6781 4.391 23.5343 4.5345C23.3906 4.67817 23.2125 4.75 23 4.75H21.75V6C21.75 6.2125 21.6781 6.39058 21.5343 6.53425C21.3904 6.67808 21.2122 6.75 20.9998 6.75C20.7871 6.75 20.609 6.67808 20.4655 6.53425C20.3218 6.39058 20.25 6.2125 20.25 6V4.75ZM15.406 10.8077C15.77 10.8077 16.0786 10.6803 16.3318 10.4255C16.5849 10.1708 16.7115 9.86158 16.7115 9.49775C16.7115 9.13392 16.5842 8.82542 16.3295 8.57225C16.0748 8.31892 15.7655 8.19225 15.4015 8.19225C15.0377 8.19225 14.7292 8.31967 14.476 8.5745C14.2228 8.82917 14.0962 9.13842 14.0962 9.50225C14.0962 9.86608 14.2236 10.1746 14.4783 10.4277C14.7329 10.6811 15.0422 10.8077 15.406 10.8077ZM8.5985 10.8077C8.96233 10.8077 9.27083 10.6803 9.524 10.4255C9.77717 10.1708 9.90375 9.86158 9.90375 9.49775C9.90375 9.13392 9.77642 8.82542 9.52175 8.57225C9.26708 8.31892 8.95783 8.19225 8.594 8.19225C8.23 8.19225 7.92142 8.31967 7.66825 8.5745C7.41508 8.82917 7.2885 9.13842 7.2885 9.50225C7.2885 9.86608 7.41583 10.1746 7.6705 10.4277C7.92517 10.6811 8.2345 10.8077 8.5985 10.8077ZM12 17.1923C12.8975 17.1923 13.7254 16.9798 14.4837 16.5548C15.2421 16.1298 15.8578 15.5532 16.331 14.825C16.4257 14.643 16.4227 14.46 16.322 14.276C16.2215 14.092 16.0642 14 15.85 14H8.15C7.93583 14 7.7785 14.092 7.678 14.276C7.57733 14.46 7.57433 14.643 7.669 14.825C8.14217 15.5532 8.76183 16.1298 9.528 16.5548C10.294 16.9798 11.118 17.1923 12 17.1923Z" fill="#478C5C"/>
</g>
</svg>
