<svg width="25" height="24" viewBox="0 0 25 24" fill="none" xmlns="http://www.w3.org/2000/svg">
<mask id="mask0_2851_5176" style="mask-type:alpha" maskUnits="userSpaceOnUse" x="0" y="0" width="25" height="24">
<rect x="0.75" width="24" height="24" fill="#D9D9D9"/>
</mask>
<g mask="url(#mask0_2851_5176)">
<path d="M12.7498 20.5C12.5371 20.5 12.359 20.4281 12.2155 20.2843C12.0718 20.1406 12 19.9625 12 19.75V12.75H5C4.7875 12.75 4.60942 12.6781 4.46575 12.5343C4.32192 12.3904 4.25 12.2122 4.25 11.9998C4.25 11.7871 4.32192 11.609 4.46575 11.4655C4.60942 11.3218 4.7875 11.25 5 11.25H12V4.25C12 4.0375 12.0719 3.85942 12.2158 3.71575C12.3596 3.57192 12.5378 3.5 12.7503 3.5C12.9629 3.5 13.141 3.57192 13.2845 3.71575C13.4282 3.85942 13.5 4.0375 13.5 4.25V11.25H20.5C20.7125 11.25 20.8906 11.3219 21.0343 11.4658C21.1781 11.6096 21.25 11.7878 21.25 12.0003C21.25 12.2129 21.1781 12.391 21.0343 12.5345C20.8906 12.6782 20.7125 12.75 20.5 12.75H13.5V19.75C13.5 19.9625 13.4281 20.1406 13.2843 20.2843C13.1404 20.4281 12.9622 20.5 12.7498 20.5Z" fill="#478C5C"/>
</g>
</svg>
