<svg width="20" height="20" viewBox="0 0 20 20" fill="none" xmlns="http://www.w3.org/2000/svg">
<mask id="mask0_2851_4774" style="mask-type:alpha" maskUnits="userSpaceOnUse" x="0" y="0" width="20" height="20">
<rect width="20" height="20" fill="#D9D9D9"/>
</mask>
<g mask="url(#mask0_2851_4774)">
<path d="M14.1974 13.7821H12.3337C12.1616 13.7821 12.0179 13.7221 11.9024 13.6023C11.7872 13.4825 11.7295 13.3341 11.7295 13.1571C11.7295 12.985 11.7894 12.8378 11.9091 12.7156C12.029 12.5932 12.1774 12.5321 12.3545 12.5321H14.1974V10.6891C14.1974 10.5121 14.2574 10.3636 14.3772 10.2437C14.4971 10.124 14.6456 10.0641 14.8227 10.0641C14.9999 10.0641 15.1483 10.124 15.2679 10.2437C15.3876 10.3636 15.4474 10.5121 15.4474 10.6891V12.5321H17.2904C17.4674 12.5321 17.6159 12.592 17.7356 12.7119C17.8554 12.8317 17.9154 12.9802 17.9154 13.1573C17.9154 13.3345 17.8554 13.4829 17.7356 13.6025C17.6159 13.7222 17.4674 13.7821 17.2904 13.7821H15.4474V15.625C15.4474 15.8021 15.3875 15.9505 15.2677 16.0702C15.1478 16.19 14.9993 16.25 14.822 16.25C14.6449 16.25 14.4965 16.19 14.3768 16.0702C14.2572 15.9505 14.1974 15.8021 14.1974 15.625V13.7821ZM8.38016 13.7821H5.86411C4.81773 13.7821 3.92578 13.4133 3.18828 12.6758C2.45078 11.9385 2.08203 11.0466 2.08203 10.0004C2.08203 8.95414 2.45078 8.0622 3.18828 7.32456C3.92578 6.58678 4.81773 6.2179 5.86411 6.2179H8.38016C8.5521 6.2179 8.69925 6.27908 8.82161 6.40144C8.94398 6.5238 9.00516 6.67227 9.00516 6.84685C9.00516 7.02158 8.94398 7.1688 8.82161 7.28852C8.69925 7.4081 8.5521 7.4679 8.38016 7.4679H5.86307C5.16391 7.4679 4.56731 7.71498 4.07328 8.20914C3.57911 8.70331 3.33203 9.30026 3.33203 9.99998C3.33203 10.6997 3.57911 11.2966 4.07328 11.7908C4.56731 12.285 5.16391 12.5321 5.86307 12.5321H8.38016C8.5521 12.5321 8.69925 12.5932 8.82161 12.7156C8.94398 12.8378 9.00516 12.9863 9.00516 13.161C9.00516 13.3357 8.94398 13.4829 8.82161 13.6025C8.69925 13.7222 8.5521 13.7821 8.38016 13.7821ZM7.4987 10.625C7.32161 10.625 7.17321 10.565 7.05349 10.4452C6.93363 10.3253 6.8737 10.1769 6.8737 9.99977C6.8737 9.82255 6.93363 9.67414 7.05349 9.55456C7.17321 9.43484 7.32161 9.37498 7.4987 9.37498H12.4987C12.6758 9.37498 12.8242 9.43491 12.9439 9.55477C13.0638 9.67463 13.1237 9.8231 13.1237 10.0002C13.1237 10.1774 13.0638 10.3258 12.9439 10.4454C12.8242 10.5651 12.6758 10.625 12.4987 10.625H7.4987ZM17.9154 9.99998H16.6654C16.6654 9.30026 16.4183 8.70331 15.9241 8.20914C15.4301 7.71498 14.8335 7.4679 14.1343 7.4679H11.5964C11.4245 7.4679 11.2808 7.40803 11.1654 7.28831C11.0499 7.16845 10.9922 7.01998 10.9922 6.8429C10.9922 6.67095 11.0522 6.5238 11.172 6.40144C11.2918 6.27908 11.4402 6.2179 11.6172 6.2179H14.1333C15.1797 6.2179 16.0716 6.58664 16.8091 7.32414C17.5466 8.06164 17.9154 8.95359 17.9154 9.99998Z" fill="#1C1B1F"/>
</g>
</svg>
