<svg width="42" height="42" viewBox="0 0 42 42" fill="none" xmlns="http://www.w3.org/2000/svg">
<mask id="mask0_2281_3737" style="mask-type:alpha" maskUnits="userSpaceOnUse" x="0" y="0" width="42" height="42">
<rect width="42" height="42" fill="#D9D9D9"/>
</mask>
<g mask="url(#mask0_2281_3737)">
<path d="M31.6685 29.2114H27.731C27.3591 29.2114 27.0473 29.0856 26.7956 28.8339C26.5442 28.5822 26.4185 28.2704 26.4185 27.8985C26.4185 27.5263 26.5442 27.2147 26.7956 26.9636C27.0473 26.7121 27.3591 26.5864 27.731 26.5864H31.6685V22.6489C31.6685 22.2771 31.7943 21.9654 32.046 21.714C32.2974 21.4623 32.6092 21.3364 32.9814 21.3364C33.3533 21.3364 33.6649 21.4623 33.9163 21.714C34.1675 21.9654 34.293 22.2771 34.293 22.6489V26.5864H38.231C38.6028 26.5864 38.9145 26.7123 39.1659 26.964C39.4173 27.2157 39.543 27.5276 39.543 27.8998C39.543 28.2717 39.4173 28.5833 39.1659 28.8347C38.9145 29.0859 38.6028 29.2114 38.231 29.2114H34.293V33.1489C34.293 33.5208 34.1673 33.8326 33.9159 34.0843C33.6642 34.3357 33.3523 34.4614 32.9801 34.4614C32.6082 34.4614 32.2966 34.3357 32.0452 34.0843C31.794 33.8326 31.6685 33.5208 31.6685 33.1489V29.2114ZM5.62016 35.875C4.73611 35.875 3.98784 35.5688 3.37534 34.9563C2.76314 34.3438 2.45703 33.5955 2.45703 32.7114V9.28856C2.45703 8.40452 2.76314 7.65625 3.37534 7.04375C3.98784 6.43125 4.73611 6.125 5.62016 6.125H29.043C29.9271 6.125 30.6753 6.43125 31.2878 7.04375C31.9003 7.65625 32.2066 8.40452 32.2066 9.28856V16.1875C32.2066 16.5594 32.0807 16.8712 31.829 17.1229C31.5773 17.3743 31.2655 17.5 30.8937 17.5C30.5215 17.5 30.2098 17.3743 29.9587 17.1229C29.7073 16.8712 29.5816 16.5594 29.5816 16.1875V13.4614H5.08159V32.7114C5.08159 32.8686 5.1322 32.9977 5.23341 33.0986C5.33432 33.1995 5.46324 33.25 5.62016 33.25H26.5191C26.891 33.25 27.2028 33.3759 27.4545 33.6276C27.7059 33.8793 27.8316 34.1911 27.8316 34.5629C27.8316 34.9351 27.7059 35.2467 27.4545 35.4979C27.2028 35.7493 26.891 35.875 26.5191 35.875H5.62016ZM5.08159 10.8364H29.5816V9.28856C29.5816 9.13135 29.5311 9.00229 29.4302 8.90138C29.3293 8.80046 29.2002 8.75 29.043 8.75H5.62016C5.46324 8.75 5.33432 8.80046 5.23341 8.90138C5.1322 9.00229 5.08159 9.13135 5.08159 9.28856V10.8364Z" fill="#6E6E6E"/>
</g>
</svg>
