<svg xmlns="http://www.w3.org/2000/svg" viewBox="0 0 24 24">
  <path d="M17.05 20.28c-.98 1.09-2.12.51-3.31.51-1.2 0-2.38.57-3.35-.51-2.37-2.76-.7-9.15 2.68-9.15 1.28 0 2.13.89 3.31.89 1.17 0 1.87-.87 3.33-.87 2.1 0 3.92 1.98 3.92 3.95 0 3.07-2.69 3.95-3.43 5.16h-.01c-.18.33-.48.02-.83.02h-2.31zm-2.33-10.54c-.19-2.15 1.76-3.16 1.86-3.2.48-.23 1.09-.36 1.71-.36.18 0 .36.01.53.04-1.17 1.19-1.56 2.82-.97 4.39-1.12.26-2.86-1.29-3.13-.87zM7.2 5.03c3.24 0 5.85 2.62 5.85 5.86 0 3.23-2.61 5.85-5.85 5.85-3.23 0-5.85-2.62-5.85-5.85 0-3.24 2.62-5.86 5.85-5.86zm0 1.71c2.28 0 4.14 1.86 4.14 4.15 0 2.28-1.86 4.14-4.14 4.14-2.29 0-4.15-1.86-4.15-4.14 0-2.29 1.86-4.15 4.15-4.15zm0 .57c-1.98 0-3.58 1.6-3.58 3.58s1.6 3.57 3.58 3.57 3.57-1.59 3.57-3.57-1.59-3.58-3.57-3.58zm0 .86c1.5 0 2.71 1.22 2.71 2.72 0 1.5-1.21 2.71-2.71 2.71-1.5 0-2.72-1.21-2.72-2.71 0-1.5 1.22-2.72 2.72-2.72z"/>
</svg> 