<svg width="25" height="24" viewBox="0 0 25 24" fill="none" xmlns="http://www.w3.org/2000/svg">
<mask id="mask0_2851_5255" style="mask-type:alpha" maskUnits="userSpaceOnUse" x="0" y="0" width="25" height="24">
<rect x="0.5" width="24" height="24" fill="#D9D9D9"/>
</mask>
<g mask="url(#mask0_2851_5255)">
<path d="M6.5385 17.5L4.5365 19.5018C4.252 19.7864 3.92475 19.8509 3.55475 19.6952C3.18492 19.5394 3 19.2589 3 18.8538V4.30775C3 3.80258 3.175 3.375 3.525 3.025C3.875 2.675 4.30258 2.5 4.80775 2.5H20.1923C20.6974 2.5 21.125 2.675 21.475 3.025C21.825 3.375 22 3.80258 22 4.30775V15.6923C22 16.1974 21.825 16.625 21.475 16.975C21.125 17.325 20.6974 17.5 20.1923 17.5H6.5385ZM5.9 16H20.1923C20.2693 16 20.3398 15.9679 20.4038 15.9038C20.4679 15.8398 20.5 15.7692 20.5 15.6923V4.30775C20.5 4.23075 20.4679 4.16025 20.4038 4.09625C20.3398 4.03208 20.2693 4 20.1923 4H4.80775C4.73075 4 4.66025 4.03208 4.59625 4.09625C4.53208 4.16025 4.5 4.23075 4.5 4.30775V17.3848L5.9 16ZM7.5 13.75H13.5C13.7128 13.75 13.891 13.6782 14.0345 13.5345C14.1782 13.391 14.25 13.2128 14.25 13C14.25 12.7872 14.1782 12.609 14.0345 12.4655C13.891 12.3218 13.7128 12.25 13.5 12.25H7.5C7.28717 12.25 7.109 12.3218 6.9655 12.4655C6.82183 12.609 6.75 12.7872 6.75 13C6.75 13.2128 6.82183 13.391 6.9655 13.5345C7.109 13.6782 7.28717 13.75 7.5 13.75ZM7.5 10.75H17.5C17.7128 10.75 17.891 10.6782 18.0345 10.5345C18.1782 10.391 18.25 10.2128 18.25 10C18.25 9.78717 18.1782 9.609 18.0345 9.4655C17.891 9.32183 17.7128 9.25 17.5 9.25H7.5C7.28717 9.25 7.109 9.32183 6.9655 9.4655C6.82183 9.609 6.75 9.78717 6.75 10C6.75 10.2128 6.82183 10.391 6.9655 10.5345C7.109 10.6782 7.28717 10.75 7.5 10.75ZM7.5 7.75H17.5C17.7128 7.75 17.891 7.67817 18.0345 7.5345C18.1782 7.391 18.25 7.21283 18.25 7C18.25 6.78717 18.1782 6.609 18.0345 6.4655C17.891 6.32183 17.7128 6.25 17.5 6.25H7.5C7.28717 6.25 7.109 6.32183 6.9655 6.4655C6.82183 6.609 6.75 6.78717 6.75 7C6.75 7.21283 6.82183 7.391 6.9655 7.5345C7.109 7.67817 7.28717 7.75 7.5 7.75Z" fill="#478C5C"/>
</g>
</svg>
