<svg width="25" height="24" viewBox="0 0 25 24" fill="none" xmlns="http://www.w3.org/2000/svg">
<mask id="mask0_2851_3273" style="mask-type:alpha" maskUnits="userSpaceOnUse" x="0" y="0" width="25" height="24">
<rect x="0.75" width="24" height="24" fill="#D9D9D9"/>
</mask>
<g mask="url(#mask0_2851_3273)">
<path d="M11.3308 14.1463L9.00775 11.823C8.86925 11.6847 8.69517 11.6138 8.4855 11.6105C8.276 11.6073 8.09875 11.6782 7.95375 11.823C7.80892 11.968 7.7365 12.1437 7.7365 12.35C7.7365 12.5563 7.80892 12.732 7.95375 12.877L10.698 15.6212C10.8788 15.8019 11.0898 15.8923 11.3308 15.8923C11.5718 15.8923 11.7827 15.8019 11.9635 15.6212L17.527 10.0578C17.6653 9.91925 17.7362 9.74517 17.7395 9.5355C17.7427 9.326 17.6718 9.14875 17.527 9.00375C17.382 8.85892 17.2063 8.7865 17 8.7865C16.7937 8.7865 16.618 8.85892 16.473 9.00375L11.3308 14.1463ZM12.7517 21.5C11.4377 21.5 10.2027 21.2507 9.0465 20.752C7.89033 20.2533 6.88467 19.5766 6.0295 18.7218C5.17433 17.8669 4.49725 16.8617 3.99825 15.706C3.49942 14.5503 3.25 13.3156 3.25 12.0017C3.25 10.6877 3.49933 9.45267 3.998 8.2965C4.49667 7.14033 5.17342 6.13467 6.02825 5.2795C6.88308 4.42433 7.88833 3.74725 9.044 3.24825C10.1997 2.74942 11.4344 2.5 12.7483 2.5C14.0623 2.5 15.2973 2.74933 16.4535 3.248C17.6097 3.74667 18.6153 4.42342 19.4705 5.27825C20.3257 6.13308 21.0028 7.13833 21.5018 8.294C22.0006 9.44967 22.25 10.6844 22.25 11.9983C22.25 13.3123 22.0007 14.5473 21.502 15.7035C21.0033 16.8597 20.3266 17.8653 19.4718 18.7205C18.6169 19.5757 17.6117 20.2528 16.456 20.7518C15.3003 21.2506 14.0656 21.5 12.7517 21.5ZM12.75 20C14.9833 20 16.875 19.225 18.425 17.675C19.975 16.125 20.75 14.2333 20.75 12C20.75 9.76667 19.975 7.875 18.425 6.325C16.875 4.775 14.9833 4 12.75 4C10.5167 4 8.625 4.775 7.075 6.325C5.525 7.875 4.75 9.76667 4.75 12C4.75 14.2333 5.525 16.125 7.075 17.675C8.625 19.225 10.5167 20 12.75 20Z" fill="#478C5C"/>
</g>
</svg>
