<svg width="48" height="48" viewBox="0 0 48 48" fill="none" xmlns="http://www.w3.org/2000/svg">
<mask id="mask0_932_4564" style="mask-type:alpha" maskUnits="userSpaceOnUse" x="0" y="0" width="48" height="48">
<rect width="48" height="48" fill="#D9D9D9"/>
</mask>
<g mask="url(#mask0_932_4564)">
<path d="M8 36V20.3075V21.1115V12V36ZM35.4345 39.6305C35.1935 39.6305 34.9692 39.5922 34.7615 39.5155C34.5538 39.4385 34.3563 39.3063 34.169 39.119L28.973 33.923C28.5653 33.5153 28.2795 33.084 28.1155 32.629C27.9515 32.1737 27.8695 31.7153 27.8695 31.254C27.8695 30.2643 28.2207 29.3848 28.923 28.6155C29.6257 27.8462 30.5322 27.4615 31.6425 27.4615C32.5115 27.4615 33.1935 27.6622 33.6885 28.0635C34.1832 28.4648 34.7652 29.0002 35.4345 29.6695C36.0628 29.0412 36.6295 28.5162 37.1345 28.0945C37.6398 27.6725 38.3373 27.4615 39.227 27.4615C40.3703 27.4615 41.285 27.8513 41.971 28.631C42.657 29.4103 43 30.2948 43 31.2845C43 31.7462 42.9097 32.2077 42.729 32.669C42.548 33.1307 42.2703 33.5487 41.896 33.923L36.7 39.119C36.5127 39.3063 36.3152 39.4385 36.1075 39.5155C35.8998 39.5922 35.6755 39.6305 35.4345 39.6305ZM8 16.808H40V12.6155C40 12.4615 39.9358 12.3205 39.8075 12.1925C39.6795 12.0642 39.5385 12 39.3845 12H8.6155C8.4615 12 8.3205 12.0642 8.1925 12.1925C8.06417 12.3205 8 12.4615 8 12.6155V16.808ZM8.6155 39C7.60517 39 6.75 38.65 6.05 37.95C5.35 37.25 5 36.3948 5 35.3845V12.6155C5 11.6052 5.35 10.75 6.05 10.05C6.75 9.35 7.60517 9 8.6155 9H39.3845C40.3948 9 41.25 9.35 41.95 10.05C42.65 10.75 43 11.6052 43 12.6155V20.1695C43 20.7182 42.7705 21.1213 42.3115 21.379C41.8525 21.6367 41.3653 21.6513 40.85 21.423C40.0347 21.0617 39.1705 20.7855 38.2575 20.5945C37.3448 20.4032 36.4038 20.3075 35.4345 20.3075C33.9065 20.3075 32.4547 20.5633 31.079 21.075C29.7033 21.5867 28.4718 22.2923 27.3845 23.192H8V35.3845C8 35.5385 8.06417 35.6795 8.1925 35.8075C8.3205 35.9358 8.4615 36 8.6155 36H21.3425C21.7682 36 22.1245 36.1437 22.4115 36.431C22.6988 36.718 22.8425 37.0743 22.8425 37.5C22.8425 37.9257 22.6988 38.282 22.4115 38.569C22.1245 38.8563 21.7682 39 21.3425 39H8.6155Z" fill="#2B5437"/>
</g>
</svg>
