<svg width="32" height="32" viewBox="0 0 32 32" fill="none" xmlns="http://www.w3.org/2000/svg">
<mask id="mask0_832_2644" style="mask-type:alpha" maskUnits="userSpaceOnUse" x="0" y="0" width="32" height="32">
<rect width="32" height="32" fill="#D9D9D9"/>
</mask>
<g mask="url(#mask0_832_2644)">
<path d="M12 23.6667H20C20.2838 23.6667 20.5213 23.5709 20.7127 23.3794C20.9042 23.188 21 22.9505 21 22.6667C21 22.3829 20.9042 22.1454 20.7127 21.954C20.5213 21.7625 20.2838 21.6667 20 21.6667H12C11.7162 21.6667 11.4787 21.7625 11.2873 21.954C11.0958 22.1454 11 22.3829 11 22.6667C11 22.9505 11.0958 23.188 11.2873 23.3794C11.4787 23.5709 11.7162 23.6667 12 23.6667ZM12 18.3334H20C20.2838 18.3334 20.5213 18.2376 20.7127 18.046C20.9042 17.8547 21 17.6172 21 17.3334C21 17.0496 20.9042 16.812 20.7127 16.6207C20.5213 16.4292 20.2838 16.3334 20 16.3334H12C11.7162 16.3334 11.4787 16.4292 11.2873 16.6207C11.0958 16.812 11 17.0496 11 17.3334C11 17.6172 11.0958 17.8547 11.2873 18.046C11.4787 18.2376 11.7162 18.3334 12 18.3334ZM8.41033 28.6667C7.73678 28.6667 7.16667 28.4334 6.7 27.9667C6.23333 27.5 6 26.9299 6 26.2564V5.74371C6 5.07015 6.23333 4.50004 6.7 4.03337C7.16667 3.56671 7.73678 3.33337 8.41033 3.33337H18.0027C18.324 3.33337 18.633 3.39582 18.9297 3.52071C19.2261 3.64537 19.4838 3.81715 19.7027 4.03604L25.2973 9.63071C25.5162 9.8496 25.688 10.1073 25.8127 10.4037C25.9376 10.7004 26 11.0094 26 11.3307V26.2564C26 26.9299 25.7667 27.5 25.3 27.9667C24.8333 28.4334 24.2632 28.6667 23.5897 28.6667H8.41033ZM18 10.128V5.33337H8.41033C8.30767 5.33337 8.21367 5.37615 8.12833 5.46171C8.04278 5.54704 8 5.64104 8 5.74371V26.2564C8 26.359 8.04278 26.453 8.12833 26.5384C8.21367 26.6239 8.30767 26.6667 8.41033 26.6667H23.5897C23.6923 26.6667 23.7863 26.6239 23.8717 26.5384C23.9572 26.453 24 26.359 24 26.2564V11.3334H19.2053C18.8616 11.3334 18.5748 11.2184 18.345 10.9884C18.115 10.7586 18 10.4718 18 10.128Z" fill="#478C5C"/>
</g>
</svg>
