<svg width="32" height="32" viewBox="0 0 32 32" fill="none" xmlns="http://www.w3.org/2000/svg">
<mask id="mask0_832_2656" style="mask-type:alpha" maskUnits="userSpaceOnUse" x="0" y="0" width="32" height="32">
<rect width="32" height="32" fill="#D9D9D9"/>
</mask>
<g mask="url(#mask0_832_2656)">
<path d="M6.66602 5.33337V13.5717V13.5384V26.6667V5.33337ZM7.07635 28.6667C6.40279 28.6667 5.83268 28.4334 5.36602 27.9667C4.89935 27.5 4.66602 26.9299 4.66602 26.2564V5.74371C4.66602 5.07015 4.89935 4.50004 5.36602 4.03337C5.83268 3.56671 6.40279 3.33337 7.07635 3.33337H16.6687C16.9938 3.33337 17.3037 3.39582 17.5983 3.52071C17.893 3.64537 18.1498 3.81715 18.3687 4.03604L23.9634 9.63071C24.1822 9.8496 24.354 10.1064 24.4787 10.401C24.6036 10.6957 24.666 11.0056 24.666 11.3307V13.136C24.666 13.4207 24.5701 13.655 24.3784 13.839C24.1866 14.0233 23.949 14.1154 23.6657 14.1154C23.3821 14.1154 23.1447 14.0196 22.9534 13.828C22.7618 13.6363 22.666 13.3987 22.666 13.1154V11.3334H17.8657C17.5257 11.3334 17.2408 11.2184 17.011 10.9884C16.781 10.7584 16.666 10.4734 16.666 10.1334V5.33337H7.07635C6.97368 5.33337 6.87968 5.37615 6.79435 5.46171C6.70879 5.54704 6.66602 5.64104 6.66602 5.74371V26.2564C6.66602 26.359 6.70879 26.453 6.79435 26.5384C6.87968 26.6239 6.97368 26.6667 7.07635 26.6667H14.2174C14.5007 26.6667 14.7381 26.7626 14.9297 26.9544C15.1215 27.1462 15.2174 27.3837 15.2174 27.667C15.2174 27.9506 15.1215 28.188 14.9297 28.3794C14.7381 28.5709 14.5007 28.6667 14.2174 28.6667H7.07635ZM22.002 25.5384C22.9934 25.5384 23.8305 25.1962 24.5134 24.5117C25.1962 23.827 25.5377 22.9889 25.5377 21.9974C25.5377 21.006 25.1955 20.1689 24.511 19.486C23.8264 18.8032 22.9882 18.4617 21.9967 18.4617C21.0054 18.4617 20.1682 18.8039 19.4854 19.4884C18.8025 20.173 18.461 21.0112 18.461 22.0027C18.461 22.994 18.8032 23.8312 19.4877 24.514C20.1724 25.1969 21.0105 25.5384 22.002 25.5384ZM29.5027 29.5027C29.3187 29.6872 29.0846 29.7794 28.8004 29.7794C28.5159 29.7794 28.2814 29.6872 28.0967 29.5027L25.148 26.541C24.6985 26.8693 24.2058 27.1176 23.67 27.286C23.134 27.4543 22.5771 27.5384 21.9994 27.5384C20.4609 27.5384 19.1532 26.9999 18.0764 25.923C16.9995 24.8462 16.461 23.5385 16.461 22C16.461 20.4616 16.9995 19.1539 18.0764 18.077C19.1532 17.0002 20.4609 16.4617 21.9994 16.4617C23.5378 16.4617 24.8455 17.0002 25.9224 18.077C26.9992 19.1539 27.5377 20.4616 27.5377 22C27.5377 22.5778 27.4536 23.1347 27.2854 23.6707C27.1169 24.2065 26.8686 24.6992 26.5403 25.1487L29.502 28.0974C29.6865 28.2814 29.7787 28.5154 29.7787 28.7994C29.7787 29.0836 29.6867 29.318 29.5027 29.5027Z" fill="#478C5C"/>
</g>
</svg>
