<svg width="24" height="24" viewBox="0 0 24 24" fill="none" xmlns="http://www.w3.org/2000/svg">
<mask id="mask0_2951_3859" style="mask-type:alpha" maskUnits="userSpaceOnUse" x="0" y="0" width="24" height="24">
<rect width="24" height="24" fill="#D9D9D9"/>
</mask>
<g mask="url(#mask0_2951_3859)">
<path d="M6.09625 19.5C5.88375 19.5 5.70558 19.4281 5.56175 19.2843C5.41808 19.1404 5.34625 18.9623 5.34625 18.7498C5.34625 18.5371 5.41808 18.359 5.56175 18.2155C5.70558 18.0718 5.88375 18 6.09625 18H6.87875L8.80575 11.5405C8.91992 11.1455 9.13917 10.8317 9.4635 10.599C9.78783 10.3663 10.1462 10.25 10.5385 10.25H13.4615C13.8538 10.25 14.2122 10.3663 14.5365 10.599C14.8608 10.8317 15.0801 11.1455 15.1943 11.5405L17.1212 18H17.9038C18.1163 18 18.2944 18.0719 18.4383 18.2158C18.5819 18.3596 18.6538 18.5378 18.6538 18.7503C18.6538 18.9629 18.5819 19.141 18.4383 19.2845C18.2944 19.4282 18.1163 19.5 17.9038 19.5H6.09625ZM8.4595 18H15.5405L13.75 11.9713C13.7308 11.9006 13.694 11.8461 13.6395 11.8078C13.585 11.7693 13.5225 11.75 13.452 11.75H10.548C10.4775 11.75 10.415 11.7693 10.3605 11.8078C10.306 11.8461 10.2692 11.9006 10.25 11.9713L8.4595 18ZM11.25 7.19226V4.19226C11.25 3.97976 11.3219 3.80168 11.4658 3.65801C11.6096 3.51418 11.7878 3.44226 12.0003 3.44226C12.2129 3.44226 12.391 3.51418 12.5345 3.65801C12.6782 3.80168 12.75 3.97976 12.75 4.19226V7.19226C12.75 7.40476 12.6781 7.58293 12.5343 7.72676C12.3904 7.87043 12.2122 7.94226 11.9998 7.94226C11.7871 7.94226 11.609 7.87043 11.4655 7.72676C11.3218 7.58293 11.25 7.40476 11.25 7.19226ZM16.423 8.71551L18.5578 6.59051C18.6963 6.45201 18.8677 6.38176 19.072 6.37976C19.2765 6.37793 19.4537 6.45193 19.6035 6.60176C19.7408 6.73909 19.8095 6.91093 19.8095 7.11726C19.8095 7.32376 19.7403 7.49618 19.602 7.63451L17.477 9.78451C17.3282 9.93334 17.1541 10.0093 16.9548 10.0125C16.7554 10.0157 16.5782 9.93968 16.423 9.78451C16.268 9.62951 16.1905 9.45134 16.1905 9.25001C16.1905 9.04868 16.268 8.87051 16.423 8.71551ZM19 13.4423H22C22.2125 13.4423 22.3906 13.5142 22.5343 13.658C22.6781 13.8018 22.75 13.9801 22.75 14.1928C22.75 14.4053 22.6781 14.5833 22.5343 14.727C22.3906 14.8705 22.2125 14.9423 22 14.9423H19C18.7875 14.9423 18.6094 14.8703 18.4657 14.7265C18.3219 14.5827 18.25 14.4045 18.25 14.192C18.25 13.9793 18.3219 13.8013 18.4657 13.6578C18.6094 13.5141 18.7875 13.4423 19 13.4423ZM6.523 9.76926L4.398 7.63451C4.25967 7.49618 4.1895 7.32476 4.1875 7.12026C4.18567 6.91576 4.25967 6.73859 4.4095 6.58876C4.54683 6.45143 4.71867 6.38276 4.925 6.38276C5.13133 6.38276 5.30375 6.45201 5.44225 6.59051L7.59225 8.71551C7.74092 8.86418 7.81692 9.03818 7.82025 9.23751C7.82342 9.43684 7.74742 9.61409 7.59225 9.76926C7.43708 9.92443 7.25892 10.002 7.05775 10.002C6.85642 10.002 6.67817 9.92443 6.523 9.76926ZM2 14.9423C1.7875 14.9423 1.60942 14.8703 1.46575 14.7265C1.32192 14.5827 1.25 14.4045 1.25 14.192C1.25 13.9793 1.32192 13.8013 1.46575 13.6578C1.60942 13.5141 1.7875 13.4423 2 13.4423H5C5.2125 13.4423 5.39058 13.5142 5.53425 13.658C5.67808 13.8018 5.75 13.9801 5.75 14.1928C5.75 14.4053 5.67808 14.5833 5.53425 14.727C5.39058 14.8705 5.2125 14.9423 5 14.9423H2Z" fill="#6E6E6E"/>
</g>
</svg>
