<svg width="24" height="24" viewBox="0 0 24 24" fill="none" xmlns="http://www.w3.org/2000/svg">
<mask id="mask0_2851_2499" style="mask-type:alpha" maskUnits="userSpaceOnUse" x="0" y="0" width="24" height="24">
<rect width="24" height="24" fill="#D9D9D9"/>
</mask>
<g mask="url(#mask0_2851_2499)">
<path d="M18.6479 12.7403H3.24219C3.02969 12.7403 2.85152 12.6684 2.70769 12.5248C2.56402 12.3809 2.49219 12.2027 2.49219 11.99C2.49219 11.7775 2.56402 11.5994 2.70769 11.4558C2.85152 11.3123 3.02969 11.2405 3.24219 11.2405H18.6479L14.3112 6.8885C14.175 6.75167 14.1038 6.58059 14.0974 6.37525C14.0913 6.16992 14.1625 5.99234 14.3112 5.8425C14.4475 5.70517 14.621 5.63651 14.8317 5.63651C15.0425 5.63651 15.2171 5.70576 15.3554 5.84426L20.8689 11.3578C20.9626 11.4513 21.0286 11.5504 21.0669 11.6553C21.1054 11.7599 21.1247 11.8721 21.1247 11.9918C21.1247 12.1114 21.1054 12.2251 21.0667 12.3328C21.0279 12.4404 20.9619 12.5404 20.8689 12.6328L15.3554 18.1463C15.2186 18.2846 15.0475 18.3538 14.8422 18.3538C14.637 18.3538 14.46 18.2846 14.3112 18.1463C14.1562 17.9974 14.0803 17.8192 14.0834 17.6115C14.0866 17.4038 14.1625 17.2257 14.3112 17.077L18.6479 12.7403Z" fill="#478C5C"/>
</g>
</svg>
