<svg width="49" height="49" viewBox="0 0 49 49" fill="none" xmlns="http://www.w3.org/2000/svg">
<mask id="mask0_932_4659" style="mask-type:alpha" maskUnits="userSpaceOnUse" x="0" y="0" width="49" height="49">
<rect x="0.5" y="0.5" width="48" height="48" fill="#D9D9D9"/>
</mask>
<g mask="url(#mask0_932_4659)">
<path d="M24.481 39.919C24.0527 39.919 23.6225 39.8422 23.1905 39.6885C22.7585 39.5345 22.3783 39.2935 22.05 38.9655L19.177 36.354C15.631 33.1207 12.465 29.9444 9.679 26.825C6.893 23.7057 5.5 20.364 5.5 16.8C5.5 13.9617 6.457 11.5854 8.371 9.67105C10.2853 7.75705 12.6617 6.80005 15.5 6.80005C17.1127 6.80005 18.7057 7.17188 20.279 7.91555C21.852 8.65922 23.259 9.86688 24.5 11.5385C25.741 9.86688 27.148 8.65922 28.721 7.91555C30.2943 7.17188 31.8873 6.80005 33.5 6.80005C36.3383 6.80005 38.7147 7.75705 40.629 9.67105C42.543 11.5854 43.5 13.9617 43.5 16.8C43.5 20.4027 42.0833 23.7815 39.25 26.9365C36.4167 30.0915 33.2577 33.2409 29.773 36.3845L26.9305 38.9655C26.6025 39.2935 26.2193 39.5345 25.781 39.6885C25.3423 39.8422 24.909 39.919 24.481 39.919ZM23.0615 14.577C21.9795 12.9284 20.8403 11.72 19.644 10.952C18.448 10.184 17.0667 9.80005 15.5 9.80005C13.5 9.80005 11.8333 10.4667 10.5 11.8C9.16667 13.1334 8.5 14.8 8.5 16.8C8.5 18.405 9.01733 20.0832 10.052 21.8345C11.0867 23.5859 12.3853 25.3269 13.948 27.0575C15.5107 28.7885 17.2037 30.4795 19.027 32.1305C20.85 33.7819 22.5397 35.3165 24.096 36.7345C24.2113 36.8372 24.346 36.8885 24.5 36.8885C24.654 36.8885 24.7887 36.8372 24.904 36.7345C26.4603 35.3165 28.15 33.7819 29.973 32.1305C31.7963 30.4795 33.4893 28.7885 35.052 27.0575C36.6147 25.3269 37.9133 23.5859 38.948 21.8345C39.9827 20.0832 40.5 18.405 40.5 16.8C40.5 14.8 39.8333 13.1334 38.5 11.8C37.1667 10.4667 35.5 9.80005 33.5 9.80005C31.9333 9.80005 30.552 10.184 29.356 10.952C28.1597 11.72 27.0205 12.9284 25.9385 14.577C25.7692 14.8334 25.5563 15.0257 25.3 15.154C25.0437 15.282 24.777 15.346 24.5 15.346C24.223 15.346 23.9563 15.282 23.7 15.154C23.4437 15.0257 23.2308 14.8334 23.0615 14.577Z" fill="#478C5C"/>
</g>
</svg>
