<svg width="32" height="32" viewBox="0 0 32 32" fill="none" xmlns="http://www.w3.org/2000/svg">
<mask id="mask0_832_2650" style="mask-type:alpha" maskUnits="userSpaceOnUse" x="0" y="0" width="32" height="32">
<rect width="32" height="32" fill="#D9D9D9"/>
</mask>
<g mask="url(#mask0_832_2650)">
<path d="M16 24.8077C17.3522 24.8077 18.4937 24.3239 19.4243 23.3564C20.355 22.3888 20.8203 21.2273 20.8203 19.8717V15.1537C20.8203 14.8699 20.7247 14.6324 20.5333 14.441C20.3418 14.2495 20.1041 14.1537 19.8203 14.1537C19.5368 14.1537 19.2992 14.2495 19.1077 14.441C18.9163 14.6324 18.8207 14.8699 18.8207 15.1537V19.8717C18.8207 20.6735 18.5501 21.3633 18.009 21.941C17.4679 22.5188 16.7982 22.8077 16 22.8077C15.2153 22.8077 14.5491 22.5188 14.0013 21.941C13.4533 21.3633 13.1793 20.6735 13.1793 19.8717V12.564C13.1793 12.2872 13.2674 12.0534 13.4437 11.8627C13.6197 11.6723 13.835 11.577 14.0897 11.577C14.3581 11.577 14.577 11.6723 14.7463 11.8627C14.9154 12.0534 15 12.2872 15 12.564V18.8717C15 19.1555 15.0958 19.3932 15.2873 19.5847C15.4787 19.776 15.7162 19.8717 16 19.8717C16.2838 19.8717 16.5213 19.776 16.7127 19.5847C16.9042 19.3932 17 19.1555 17 18.8717V12.564C17 11.7418 16.7206 11.0385 16.1617 10.454C15.6026 9.86937 14.9119 9.57704 14.0897 9.57704C13.2674 9.57704 12.5769 9.86937 12.018 10.454C11.4591 11.0385 11.1797 11.7418 11.1797 12.564V19.8717C11.1797 21.2273 11.6484 22.3888 12.586 23.3564C13.5236 24.3239 14.6616 24.8077 16 24.8077ZM8.41033 28.6667C7.73678 28.6667 7.16667 28.4334 6.7 27.9667C6.23333 27.5 6 26.9299 6 26.2564V5.74371C6 5.07015 6.23333 4.50004 6.7 4.03337C7.16667 3.56671 7.73678 3.33337 8.41033 3.33337H19.8203L26 9.51304V26.2564C26 26.9299 25.7667 27.5 25.3 27.9667C24.8333 28.4334 24.2632 28.6667 23.5897 28.6667H8.41033ZM8.41033 26.6667H23.5897C23.6923 26.6667 23.7863 26.6239 23.8717 26.5384C23.9572 26.453 24 26.359 24 26.2564V10.5127H20.0257C19.6821 10.5127 19.3953 10.3978 19.1653 10.168C18.9356 9.93804 18.8207 9.65126 18.8207 9.30771V5.33337H8.41033C8.30767 5.33337 8.21367 5.37615 8.12833 5.46171C8.04278 5.54704 8 5.64104 8 5.74371V26.2564C8 26.359 8.04278 26.453 8.12833 26.5384C8.21367 26.6239 8.30767 26.6667 8.41033 26.6667Z" fill="#478C5C"/>
</g>
</svg>
