<svg width="49" height="48" viewBox="0 0 49 48" fill="none" xmlns="http://www.w3.org/2000/svg">
<mask id="mask0_937_4609" style="mask-type:alpha" maskUnits="userSpaceOnUse" x="0" y="0" width="49" height="48">
<rect x="0.5" width="48" height="48" fill="#D9D9D9"/>
</mask>
<g mask="url(#mask0_937_4609)">
<path d="M24.0765 39.9425C24.2739 39.9425 24.4745 39.8963 24.6785 39.804C24.8822 39.7116 25.043 39.6065 25.161 39.4885L41.157 23.4925C41.6084 23.0411 41.9482 22.559 42.1765 22.046C42.4045 21.5333 42.5185 20.995 42.5185 20.431C42.5185 19.8463 42.4045 19.2835 42.1765 18.7425C41.9482 18.2011 41.6084 17.7151 41.157 17.2845L33.157 9.28446C32.7264 8.83312 32.2597 8.50296 31.757 8.29396C31.2547 8.08529 30.7112 7.98096 30.1265 7.98096C29.5625 7.98096 29.0209 8.08529 28.5015 8.29396C27.9822 8.50296 27.5034 8.83312 27.065 9.28446L25.9185 10.431L29.6185 14.1615C30.0672 14.5898 30.3987 15.0783 30.613 15.627C30.827 16.1756 30.934 16.7448 30.934 17.3345C30.934 18.5551 30.5264 19.5731 29.711 20.3885C28.8957 21.2038 27.8777 21.6115 26.657 21.6115C26.0674 21.6115 25.4962 21.514 24.9435 21.319C24.3912 21.1243 23.9009 20.8128 23.4725 20.3845L20.1265 17.0695C20.0112 16.9538 19.8637 16.896 19.684 16.896C19.5047 16.896 19.3574 16.9538 19.242 17.0695L10.992 25.319C10.8407 25.4703 10.7272 25.6396 10.6515 25.827C10.5759 26.014 10.538 26.2063 10.538 26.404C10.538 26.773 10.6637 27.0883 10.915 27.35C11.1664 27.6116 11.4765 27.7425 11.8455 27.7425C12.0432 27.7425 12.2439 27.6963 12.4475 27.604C12.6515 27.5116 12.8125 27.4065 12.9305 27.2885L18.4455 21.773C18.7225 21.496 19.0655 21.3491 19.4745 21.3325C19.8835 21.3158 20.2432 21.4626 20.5535 21.773C20.8432 22.0626 20.988 22.414 20.988 22.827C20.988 23.2396 20.8432 23.5908 20.5535 23.8805L15.0685 29.396C14.9175 29.5473 14.8042 29.7166 14.7285 29.904C14.6529 30.091 14.615 30.2833 14.615 30.481C14.615 30.8373 14.7439 31.1443 15.0015 31.402C15.2592 31.6596 15.5662 31.7885 15.9225 31.7885C16.1202 31.7885 16.3209 31.7423 16.5245 31.65C16.7285 31.5576 16.8894 31.4525 17.007 31.3345L22.7535 25.619C23.0305 25.3423 23.3734 25.1956 23.782 25.179C24.191 25.1623 24.5507 25.309 24.861 25.619C25.1507 25.909 25.2955 26.2603 25.2955 26.673C25.2955 27.0856 25.1507 27.437 24.861 27.727L19.1455 33.473C19.0072 33.591 18.897 33.7518 18.815 33.9555C18.733 34.1595 18.692 34.3601 18.692 34.5575C18.692 34.9141 18.8209 35.2213 19.0785 35.479C19.3362 35.7366 19.6432 35.8655 19.9995 35.8655C20.1969 35.8655 20.3892 35.8276 20.5765 35.752C20.7635 35.6763 20.9327 35.5628 21.084 35.4115L26.8305 29.696C27.1072 29.419 27.45 29.2721 27.859 29.2555C28.268 29.2388 28.6277 29.3856 28.938 29.696C29.2277 29.9856 29.3725 30.337 29.3725 30.75C29.3725 31.1626 29.2277 31.514 28.938 31.804L23.192 37.55C23.0407 37.7013 22.9272 37.877 22.8515 38.077C22.7759 38.277 22.738 38.4693 22.738 38.654C22.738 39.023 22.8752 39.33 23.1495 39.575C23.4239 39.82 23.7329 39.9425 24.0765 39.9425ZM24.0455 42.942C22.9149 42.942 21.929 42.5498 21.088 41.7655C20.247 40.9808 19.8074 40.0038 19.769 38.8345C18.6357 38.7575 17.6889 38.355 16.9285 37.627C16.1682 36.8986 15.756 35.9421 15.692 34.7575C14.5074 34.6808 13.5497 34.2668 12.819 33.5155C12.088 32.7641 11.6969 31.8191 11.6455 30.6805C10.4559 30.6038 9.47387 30.1725 8.69953 29.3865C7.9252 28.6005 7.53804 27.6063 7.53804 26.404C7.53804 25.8143 7.6502 25.2366 7.87454 24.671C8.09887 24.1056 8.4252 23.609 8.85354 23.181L17.1225 14.9115C17.8122 14.2218 18.6609 13.877 19.6685 13.877C20.6765 13.877 21.5254 14.2218 22.215 14.9115L25.542 18.2385C25.6597 18.3768 25.814 18.4871 26.005 18.5695C26.1964 18.6515 26.4035 18.6925 26.6265 18.6925C26.9905 18.6925 27.3045 18.572 27.5685 18.331C27.8329 18.09 27.965 17.7745 27.965 17.3845C27.965 17.1615 27.924 16.9545 27.842 16.7635C27.7597 16.5725 27.6494 16.418 27.511 16.3L20.4955 9.28446C20.0649 8.83312 19.595 8.50296 19.086 8.29396C18.577 8.08529 18.0302 7.98096 17.4455 7.98096C16.8815 7.98096 16.3464 8.08529 15.84 8.29396C15.3334 8.50296 14.8545 8.83312 14.4035 9.28446L7.83403 15.8845C7.25203 16.4665 6.86104 17.1671 6.66104 17.9865C6.46104 18.8058 6.48153 19.6026 6.72253 20.377C6.80987 20.7896 6.73487 21.1646 6.49753 21.502C6.26053 21.839 5.93553 22.0408 5.52253 22.1075C5.10987 22.1741 4.7317 22.0941 4.38803 21.8675C4.04437 21.6405 3.8392 21.3205 3.77253 20.9075C3.4572 19.6281 3.45603 18.3545 3.76903 17.0865C4.0817 15.8185 4.72387 14.6986 5.69553 13.727L12.2455 7.17696C12.9945 6.44862 13.8094 5.90062 14.69 5.53296C15.5707 5.16496 16.4957 4.98096 17.465 4.98096C18.434 4.98096 19.3557 5.16496 20.23 5.53296C21.1047 5.90062 21.906 6.44862 22.634 7.17696L23.7805 8.32296L24.9265 7.17696C25.6752 6.44862 26.4867 5.90062 27.361 5.53296C28.2354 5.16496 29.1572 4.98096 30.1265 4.98096C31.0959 4.98096 32.0209 5.16496 32.9015 5.53296C33.7822 5.90062 34.5867 6.44862 35.315 7.17696L43.265 15.127C43.993 15.8553 44.5507 16.6841 44.938 17.6135C45.325 18.5428 45.5185 19.4921 45.5185 20.4615C45.5185 21.4308 45.325 22.3526 44.938 23.227C44.5507 24.1013 43.993 24.9025 43.265 25.6305L27.2685 41.596C26.8275 42.037 26.3309 42.3716 25.7785 42.6C25.2259 42.828 24.6482 42.942 24.0455 42.942Z" fill="#478C5C"/>
</g>
</svg>
