<svg width="24" height="24" viewBox="0 0 24 24" fill="none" xmlns="http://www.w3.org/2000/svg">
<mask id="mask0_2951_4524" style="mask-type:alpha" maskUnits="userSpaceOnUse" x="0" y="0" width="24" height="24">
<rect width="24" height="24" fill="#D9D9D9"/>
</mask>
<g mask="url(#mask0_2951_4524)">
<path d="M9.3079 21.423C8.80923 21.423 8.38323 21.2464 8.0299 20.8932C7.67673 20.5401 7.50015 20.1141 7.50015 19.6152V16.5H4.3849C3.88607 16.5 3.46007 16.3234 3.1069 15.9702C2.75373 15.6169 2.57715 15.1909 2.57715 14.6922V9.30775C2.57715 8.80908 2.75373 8.38308 3.1069 8.02975C3.46007 7.67658 3.88607 7.5 4.3849 7.5H7.50015V4.38475C7.50015 3.88591 7.67673 3.45991 8.0299 3.10675C8.38323 2.75358 8.80923 2.577 9.3079 2.577H14.6924C15.1911 2.577 15.6171 2.75358 15.9704 3.10675C16.3236 3.45991 16.5001 3.88591 16.5001 4.38475V7.5H19.6154C20.1142 7.5 20.5402 7.67658 20.8934 8.02975C21.2466 8.38308 21.4231 8.80908 21.4231 9.30775V14.6922C21.4231 15.1909 21.2466 15.6169 20.8934 15.9702C20.5402 16.3234 20.1142 16.5 19.6154 16.5H16.5001V19.6152C16.5001 20.1141 16.3236 20.5401 15.9704 20.8932C15.6171 21.2464 15.1911 21.423 14.6924 21.423H9.3079ZM4.07715 11.25H9.00015C9.12831 11.25 9.24656 11.2804 9.3549 11.3412C9.46323 11.4022 9.54948 11.4834 9.61365 11.5847L10.7771 13.3172L12.2906 8.777C12.3445 8.62183 12.4348 8.49525 12.5616 8.39725C12.6886 8.29908 12.8348 8.25 13.0001 8.25C13.1283 8.25 13.2481 8.28041 13.3596 8.34125C13.4713 8.40225 13.5591 8.48341 13.6231 8.58475L15.3904 11.25H19.9231V9.30775C19.9231 9.21791 19.8943 9.14416 19.8366 9.0865C19.779 9.02883 19.7052 9 19.6154 9H15.9039C15.6462 9 15.4312 8.91375 15.2589 8.74125C15.0864 8.56891 15.0001 8.35391 15.0001 8.09624V4.38475C15.0001 4.29491 14.9713 4.22116 14.9136 4.16349C14.856 4.10583 14.7822 4.077 14.6924 4.077H9.3079C9.21806 4.077 9.14432 4.10583 9.08665 4.16349C9.02898 4.22116 9.00015 4.29491 9.00015 4.38475V8.09624C9.00015 8.35391 8.9139 8.56891 8.7414 8.74125C8.56907 8.91375 8.35407 9 8.0964 9H4.3849C4.29507 9 4.22131 9.02883 4.16365 9.0865C4.10598 9.14416 4.07715 9.21791 4.07715 9.30775V11.25ZM4.07715 12.75V14.6922C4.07715 14.7821 4.10598 14.8558 4.16365 14.9135C4.22131 14.9712 4.29507 15 4.3849 15H8.0964C8.35407 15 8.56907 15.0862 8.7414 15.2587C8.9139 15.4311 9.00015 15.6461 9.00015 15.9037V19.6152C9.00015 19.7051 9.02898 19.7788 9.08665 19.8365C9.14432 19.8942 9.21806 19.923 9.3079 19.923H14.6924C14.7822 19.923 14.856 19.8942 14.9136 19.8365C14.9713 19.7788 15.0001 19.7051 15.0001 19.6152V15.9037C15.0001 15.6461 15.0864 15.4311 15.2589 15.2587C15.4312 15.0862 15.6462 15 15.9039 15H19.6154C19.7052 15 19.779 14.9712 19.8366 14.9135C19.8943 14.8558 19.9231 14.7821 19.9231 14.6922V12.75H15.0001C14.872 12.75 14.7521 12.7179 14.6406 12.6537C14.529 12.5897 14.436 12.5071 14.3616 12.4057L13.2231 10.6827L11.7096 15.223C11.6558 15.3782 11.5613 15.5047 11.4261 15.6027C11.2908 15.7009 11.1405 15.75 10.9751 15.75C10.847 15.75 10.7287 15.7196 10.6204 15.6587C10.5121 15.5977 10.4258 15.5166 10.3616 15.4152L8.5849 12.75H4.07715Z" fill="#6E6E6E"/>
</g>
</svg>
