<svg width="49" height="48" viewBox="0 0 49 48" fill="none" xmlns="http://www.w3.org/2000/svg">
<mask id="mask0_937_4633" style="mask-type:alpha" maskUnits="userSpaceOnUse" x="0" y="0" width="49" height="48">
<rect x="0.5" width="48" height="48" fill="#D9D9D9"/>
</mask>
<g mask="url(#mask0_937_4633)">
<path d="M24.5005 33.5C24.9258 33.5 25.282 33.3562 25.569 33.0685C25.8563 32.7812 26 32.425 26 32V23.5C26 23.075 25.8562 22.7187 25.5685 22.431C25.2808 22.1437 24.9245 22 24.4995 22C24.0742 22 23.718 22.1437 23.431 22.431C23.1437 22.7187 23 23.075 23 23.5V32C23 32.425 23.1438 32.7812 23.4315 33.0685C23.7192 33.3562 24.0755 33.5 24.5005 33.5ZM24.5 18.577C24.9577 18.577 25.3413 18.4222 25.651 18.1125C25.9607 17.8028 26.1155 17.4192 26.1155 16.9615C26.1155 16.5038 25.9607 16.1202 25.651 15.8105C25.3413 15.5012 24.9577 15.3465 24.5 15.3465C24.0423 15.3465 23.6587 15.5012 23.349 15.8105C23.0393 16.1202 22.8845 16.5038 22.8845 16.9615C22.8845 17.4192 23.0393 17.8028 23.349 18.1125C23.6587 18.4222 24.0423 18.577 24.5 18.577ZM24.5035 43C21.8755 43 19.4053 42.5013 17.093 41.504C14.7807 40.5067 12.7693 39.1532 11.059 37.4435C9.34867 35.7338 7.9945 33.7233 6.9965 31.412C5.99883 29.1007 5.5 26.6312 5.5 24.0035C5.5 21.3755 5.99867 18.9053 6.996 16.593C7.99333 14.2807 9.34683 12.2693 11.0565 10.559C12.7662 8.84867 14.7767 7.4945 17.088 6.4965C19.3993 5.49883 21.8688 5 24.4965 5C27.1245 5 29.5947 5.49867 31.907 6.496C34.2193 7.49333 36.2307 8.84683 37.941 10.5565C39.6513 12.2662 41.0055 14.2767 42.0035 16.588C43.0012 18.8993 43.5 21.3688 43.5 23.9965C43.5 26.6245 43.0013 29.0947 42.004 31.407C41.0067 33.7193 39.6532 35.7307 37.9435 37.441C36.2338 39.1513 34.2233 40.5055 31.912 41.5035C29.6007 42.5012 27.1312 43 24.5035 43ZM24.5 40C28.9667 40 32.75 38.45 35.85 35.35C38.95 32.25 40.5 28.4667 40.5 24C40.5 19.5333 38.95 15.75 35.85 12.65C32.75 9.55 28.9667 8 24.5 8C20.0333 8 16.25 9.55 13.15 12.65C10.05 15.75 8.5 19.5333 8.5 24C8.5 28.4667 10.05 32.25 13.15 35.35C16.25 38.45 20.0333 40 24.5 40Z" fill="#478C5C"/>
</g>
</svg>
