<svg width="24" height="24" viewBox="0 0 24 24" fill="none" xmlns="http://www.w3.org/2000/svg">
<mask id="mask0_927_6310" style="mask-type:alpha" maskUnits="userSpaceOnUse" x="0" y="0" width="24" height="24">
<rect width="24" height="24" fill="#D9D9D9"/>
</mask>
<g mask="url(#mask0_927_6310)">
<path d="M5.9226 19.75C5.70993 19.75 5.53185 19.6781 5.38835 19.5343C5.24468 19.3906 5.17285 19.2125 5.17285 19V12.6923H3.92285C3.71035 12.6923 3.53227 12.6203 3.3886 12.4765C3.24477 12.3327 3.17285 12.1545 3.17285 11.942C3.17285 11.7293 3.24477 11.5512 3.3886 11.4078C3.53227 11.2641 3.71035 11.1923 3.92285 11.1923H7.92285C8.13535 11.1923 8.31352 11.2642 8.45735 11.408C8.60102 11.5518 8.67285 11.7301 8.67285 11.9427C8.67285 12.1553 8.60102 12.3333 8.45735 12.477C8.31352 12.6205 8.13535 12.6923 7.92285 12.6923H6.67285V19C6.67285 19.2125 6.60094 19.3906 6.4571 19.5343C6.31327 19.6781 6.1351 19.75 5.9226 19.75ZM5.9226 8.80775C5.70993 8.80775 5.53185 8.73583 5.38835 8.592C5.24468 8.44833 5.17285 8.27025 5.17285 8.05775V5C5.17285 4.7875 5.24477 4.60942 5.3886 4.46575C5.53244 4.32192 5.71069 4.25 5.92335 4.25C6.13585 4.25 6.31393 4.32192 6.4576 4.46575C6.6011 4.60942 6.67285 4.7875 6.67285 5V8.05775C6.67285 8.27025 6.60094 8.44833 6.4571 8.592C6.31327 8.73583 6.1351 8.80775 5.9226 8.80775ZM9.99985 8.80775C9.78735 8.80775 9.60927 8.73583 9.4656 8.592C9.32177 8.44817 9.24985 8.26992 9.24985 8.05725C9.24985 7.84475 9.32177 7.66667 9.4656 7.523C9.60927 7.3795 9.78735 7.30775 9.99985 7.30775H11.2499V5C11.2499 4.7875 11.3218 4.60942 11.4656 4.46575C11.6094 4.32192 11.7876 4.25 12.0001 4.25C12.2128 4.25 12.3909 4.32192 12.5344 4.46575C12.678 4.60942 12.7499 4.7875 12.7499 5V7.30775H13.9999C14.2124 7.30775 14.3904 7.37967 14.5341 7.5235C14.6779 7.66733 14.7499 7.8455 14.7499 8.058C14.7499 8.27067 14.6779 8.44875 14.5341 8.59225C14.3904 8.73592 14.2124 8.80775 13.9999 8.80775H9.99985ZM11.9996 19.75C11.7869 19.75 11.6089 19.6781 11.4654 19.5343C11.3217 19.3906 11.2499 19.2125 11.2499 19V11.9423C11.2499 11.7298 11.3218 11.5517 11.4656 11.408C11.6094 11.2642 11.7876 11.1923 12.0001 11.1923C12.2128 11.1923 12.3909 11.2642 12.5344 11.408C12.678 11.5517 12.7499 11.7298 12.7499 11.9423V19C12.7499 19.2125 12.6779 19.3906 12.5341 19.5343C12.3903 19.6781 12.2121 19.75 11.9996 19.75ZM18.0764 19.75C17.8639 19.75 17.6858 19.6781 17.5421 19.5343C17.3986 19.3906 17.3269 19.2125 17.3269 19V16.6923H16.0769C15.8644 16.6923 15.6862 16.6203 15.5424 16.4765C15.3987 16.3327 15.3269 16.1545 15.3269 15.942C15.3269 15.7293 15.3987 15.5513 15.5424 15.4078C15.6862 15.2641 15.8644 15.1923 16.0769 15.1923H20.0769C20.2894 15.1923 20.4674 15.2642 20.6111 15.408C20.7549 15.5518 20.8269 15.7301 20.8269 15.9427C20.8269 16.1552 20.7549 16.3333 20.6111 16.477C20.4674 16.6205 20.2894 16.6923 20.0769 16.6923H18.8269V19C18.8269 19.2125 18.7549 19.3906 18.6111 19.5343C18.4673 19.6781 18.289 19.75 18.0764 19.75ZM18.0764 12.8077C17.8639 12.8077 17.6858 12.7358 17.5421 12.592C17.3986 12.4483 17.3269 12.2703 17.3269 12.0578V5C17.3269 4.7875 17.3988 4.60942 17.5426 4.46575C17.6864 4.32192 17.8646 4.25 18.0771 4.25C18.2898 4.25 18.4679 4.32192 18.6114 4.46575C18.755 4.60942 18.8269 4.7875 18.8269 5V12.0578C18.8269 12.2703 18.7549 12.4483 18.6111 12.592C18.4673 12.7358 18.289 12.8077 18.0764 12.8077Z" fill="#2D2D2D"/>
<path d="M5.9226 19.75C5.70993 19.75 5.53185 19.6781 5.38835 19.5343C5.24468 19.3906 5.17285 19.2125 5.17285 19V12.6923H3.92285C3.71035 12.6923 3.53227 12.6203 3.3886 12.4765C3.24477 12.3327 3.17285 12.1545 3.17285 11.942C3.17285 11.7293 3.24477 11.5512 3.3886 11.4078C3.53227 11.2641 3.71035 11.1923 3.92285 11.1923H7.92285C8.13535 11.1923 8.31352 11.2642 8.45735 11.408C8.60102 11.5518 8.67285 11.7301 8.67285 11.9427C8.67285 12.1553 8.60102 12.3333 8.45735 12.477C8.31352 12.6205 8.13535 12.6923 7.92285 12.6923H6.67285V19C6.67285 19.2125 6.60094 19.3906 6.4571 19.5343C6.31327 19.6781 6.1351 19.75 5.9226 19.75ZM5.9226 8.80775C5.70993 8.80775 5.53185 8.73583 5.38835 8.592C5.24468 8.44833 5.17285 8.27025 5.17285 8.05775V5C5.17285 4.7875 5.24477 4.60942 5.3886 4.46575C5.53244 4.32192 5.71069 4.25 5.92335 4.25C6.13585 4.25 6.31393 4.32192 6.4576 4.46575C6.6011 4.60942 6.67285 4.7875 6.67285 5V8.05775C6.67285 8.27025 6.60094 8.44833 6.4571 8.592C6.31327 8.73583 6.1351 8.80775 5.9226 8.80775ZM9.99985 8.80775C9.78735 8.80775 9.60927 8.73583 9.4656 8.592C9.32177 8.44817 9.24985 8.26992 9.24985 8.05725C9.24985 7.84475 9.32177 7.66667 9.4656 7.523C9.60927 7.3795 9.78735 7.30775 9.99985 7.30775H11.2499V5C11.2499 4.7875 11.3218 4.60942 11.4656 4.46575C11.6094 4.32192 11.7876 4.25 12.0001 4.25C12.2128 4.25 12.3909 4.32192 12.5344 4.46575C12.678 4.60942 12.7499 4.7875 12.7499 5V7.30775H13.9999C14.2124 7.30775 14.3904 7.37967 14.5341 7.5235C14.6779 7.66733 14.7499 7.8455 14.7499 8.058C14.7499 8.27067 14.6779 8.44875 14.5341 8.59225C14.3904 8.73592 14.2124 8.80775 13.9999 8.80775H9.99985ZM11.9996 19.75C11.7869 19.75 11.6089 19.6781 11.4654 19.5343C11.3217 19.3906 11.2499 19.2125 11.2499 19V11.9423C11.2499 11.7298 11.3218 11.5517 11.4656 11.408C11.6094 11.2642 11.7876 11.1923 12.0001 11.1923C12.2128 11.1923 12.3909 11.2642 12.5344 11.408C12.678 11.5517 12.7499 11.7298 12.7499 11.9423V19C12.7499 19.2125 12.6779 19.3906 12.5341 19.5343C12.3903 19.6781 12.2121 19.75 11.9996 19.75ZM18.0764 19.75C17.8639 19.75 17.6858 19.6781 17.5421 19.5343C17.3986 19.3906 17.3269 19.2125 17.3269 19V16.6923H16.0769C15.8644 16.6923 15.6862 16.6203 15.5424 16.4765C15.3987 16.3327 15.3269 16.1545 15.3269 15.942C15.3269 15.7293 15.3987 15.5513 15.5424 15.4078C15.6862 15.2641 15.8644 15.1923 16.0769 15.1923H20.0769C20.2894 15.1923 20.4674 15.2642 20.6111 15.408C20.7549 15.5518 20.8269 15.7301 20.8269 15.9427C20.8269 16.1552 20.7549 16.3333 20.6111 16.477C20.4674 16.6205 20.2894 16.6923 20.0769 16.6923H18.8269V19C18.8269 19.2125 18.7549 19.3906 18.6111 19.5343C18.4673 19.6781 18.289 19.75 18.0764 19.75ZM18.0764 12.8077C17.8639 12.8077 17.6858 12.7358 17.5421 12.592C17.3986 12.4483 17.3269 12.2703 17.3269 12.0578V5C17.3269 4.7875 17.3988 4.60942 17.5426 4.46575C17.6864 4.32192 17.8646 4.25 18.0771 4.25C18.2898 4.25 18.4679 4.32192 18.6114 4.46575C18.755 4.60942 18.8269 4.7875 18.8269 5V12.0578C18.8269 12.2703 18.7549 12.4483 18.6111 12.592C18.4673 12.7358 18.289 12.8077 18.0764 12.8077Z" fill="black" fill-opacity="0.2"/>
</g>
</svg>
