<svg width="48" height="48" viewBox="0 0 48 48" fill="none" xmlns="http://www.w3.org/2000/svg">
<mask id="mask0_2528_3119" style="mask-type:alpha" maskUnits="userSpaceOnUse" x="0" y="0" width="48" height="48">
<rect width="48" height="48" fill="#D9D9D9"/>
</mask>
<g mask="url(#mask0_2528_3119)">
<path d="M10.5 37.769C10.075 37.769 9.71883 37.6253 9.4315 37.338C9.14383 37.0503 9 36.6938 9 36.2685C9 35.8435 9.14383 35.4873 9.4315 35.2C9.71883 34.913 10.075 34.7695 10.5 34.7695H12.6155V19.846C12.6155 17.1563 13.4457 14.7782 15.106 12.7115C16.766 10.6448 18.8973 9.323 21.5 8.746V7.5C21.5 6.80567 21.7428 6.21533 22.2285 5.729C22.7142 5.243 23.3038 5 23.9975 5C24.6915 5 25.282 5.243 25.769 5.729C26.2563 6.21533 26.5 6.80567 26.5 7.5V8.746C29.1027 9.323 31.234 10.6448 32.894 12.7115C34.5543 14.7782 35.3845 17.1563 35.3845 19.846V34.7695H37.5C37.925 34.7695 38.2812 34.9132 38.5685 35.2005C38.8562 35.4882 39 35.8447 39 36.27C39 36.695 38.8562 37.0512 38.5685 37.3385C38.2812 37.6255 37.925 37.769 37.5 37.769H10.5ZM23.9965 43.3845C23.0015 43.3845 22.1508 43.0305 21.4445 42.3225C20.7378 41.6145 20.3845 40.7633 20.3845 39.769H27.6155C27.6155 40.7667 27.2612 41.6187 26.5525 42.325C25.8438 43.0313 24.9918 43.3845 23.9965 43.3845ZM15.6155 34.7695H32.3845V19.846C32.3845 17.5307 31.566 15.5545 29.929 13.9175C28.2917 12.2802 26.3153 11.4615 24 11.4615C21.6847 11.4615 19.7083 12.2802 18.071 13.9175C16.434 15.5545 15.6155 17.5307 15.6155 19.846V34.7695Z" fill="#2B5437"/>
</g>
</svg>
