<svg width="48" height="48" viewBox="0 0 48 48" fill="none" xmlns="http://www.w3.org/2000/svg">
<mask id="mask0_932_4624" style="mask-type:alpha" maskUnits="userSpaceOnUse" x="0" y="0" width="48" height="48">
<rect width="48" height="48" fill="#D9D9D9"/>
</mask>
<g mask="url(#mask0_932_4624)">
<path d="M7 20.1925V8.808C7 8.29567 7.17333 7.86633 7.52 7.52C7.86633 7.17333 8.29567 7 8.808 7H20.1925C20.7045 7 21.1338 7.17333 21.4805 7.52C21.8268 7.86633 22 8.29567 22 8.808V20.1925C22 20.7045 21.8268 21.1338 21.4805 21.4805C21.1338 21.8268 20.7045 22 20.1925 22H8.808C8.29567 22 7.86633 21.8268 7.52 21.4805C7.17333 21.1338 7 20.7045 7 20.1925ZM10 19H19V10H10V19ZM7 39.192V27.8075C7 27.2955 7.17333 26.8662 7.52 26.5195C7.86633 26.1732 8.29567 26 8.808 26H20.1925C20.7045 26 21.1338 26.1732 21.4805 26.5195C21.8268 26.8662 22 27.2955 22 27.8075V39.192C22 39.7043 21.8268 40.1337 21.4805 40.48C21.1338 40.8267 20.7045 41 20.1925 41H8.808C8.29567 41 7.86633 40.8267 7.52 40.48C7.17333 40.1337 7 39.7043 7 39.192ZM10 38H19V29H10V38ZM26 20.1925V8.808C26 8.29567 26.1732 7.86633 26.5195 7.52C26.8662 7.17333 27.2955 7 27.8075 7H39.192C39.7043 7 40.1337 7.17333 40.48 7.52C40.8267 7.86633 41 8.29567 41 8.808V20.1925C41 20.7045 40.8267 21.1338 40.48 21.4805C40.1337 21.8268 39.7043 22 39.192 22H27.8075C27.2955 22 26.8662 21.8268 26.5195 21.4805C26.1732 21.1338 26 20.7045 26 20.1925ZM29 19H38V10H29V19ZM37.25 41V37.25H41V41H37.25ZM26 29.75V26H29.75V29.75H26ZM29.75 33.5V29.75H33.5V33.5H29.75ZM26 37.25V33.5H29.75V37.25H26ZM29.75 41V37.25H33.5V41H29.75ZM33.5 37.25V33.5H37.25V37.25H33.5ZM33.5 29.75V26H37.25V29.75H33.5ZM37.25 33.5V29.75H41V33.5H37.25Z" fill="#6E6E6E"/>
</g>
</svg>
