<svg width="48" height="48" viewBox="0 0 48 48" fill="none" xmlns="http://www.w3.org/2000/svg">
<mask id="mask0_835_1520" style="mask-type:alpha" maskUnits="userSpaceOnUse" x="0" y="0" width="48" height="48">
<rect width="48" height="48" fill="#D9D9D9"/>
</mask>
<g mask="url(#mask0_835_1520)">
<path d="M25.5 23.3925V15.5C25.5 15.075 25.3562 14.7187 25.0685 14.431C24.7808 14.1437 24.4245 14 23.9995 14C23.5742 14 23.218 14.1437 22.931 14.431C22.6437 14.7187 22.5 15.075 22.5 15.5V23.854C22.5 24.0893 22.5437 24.3173 22.631 24.538C22.718 24.7587 22.8552 24.9627 23.0425 25.15L29.8925 32C30.1692 32.277 30.5172 32.4187 30.9365 32.425C31.3558 32.4313 31.7103 32.2897 32 32C32.2897 31.7103 32.4345 31.359 32.4345 30.946C32.4345 30.5333 32.2897 30.1822 32 29.8925L25.5 23.3925ZM24.0035 43C21.3755 43 18.9053 42.5013 16.593 41.504C14.2807 40.5067 12.2693 39.1532 10.559 37.4435C8.84867 35.7338 7.4945 33.7233 6.4965 31.412C5.49883 29.1007 5 26.6312 5 24.0035C5 21.3755 5.49867 18.9053 6.496 16.593C7.49333 14.2807 8.84683 12.2693 10.5565 10.559C12.2662 8.84867 14.2767 7.4945 16.588 6.4965C18.8993 5.49883 21.3688 5 23.9965 5C26.6245 5 29.0947 5.49867 31.407 6.496C33.7193 7.49333 35.7307 8.84683 37.441 10.5565C39.1513 12.2662 40.5055 14.2767 41.5035 16.588C42.5012 18.8993 43 21.3688 43 23.9965C43 26.6245 42.5013 29.0947 41.504 31.407C40.5067 33.7193 39.1532 35.7307 37.4435 37.441C35.7338 39.1513 33.7233 40.5055 31.412 41.5035C29.1007 42.5012 26.6312 43 24.0035 43ZM24 40C28.4333 40 32.2083 38.4417 35.325 35.325C38.4417 32.2083 40 28.4333 40 24C40 19.5667 38.4417 15.7917 35.325 12.675C32.2083 9.55833 28.4333 8 24 8C19.5667 8 15.7917 9.55833 12.675 12.675C9.55833 15.7917 8 19.5667 8 24C8 28.4333 9.55833 32.2083 12.675 35.325C15.7917 38.4417 19.5667 40 24 40Z" fill="#478C5C"/>
</g>
</svg>
