<svg width="20" height="20" viewBox="0 0 20 20" fill="none" xmlns="http://www.w3.org/2000/svg">
<mask id="mask0_1163_15573" style="mask-type:alpha" maskUnits="userSpaceOnUse" x="0" y="0" width="20" height="20">
<rect width="20" height="20" fill="#D9D9D9"/>
</mask>
<g mask="url(#mask0_1163_15573)">
<path d="M7.93198 13.0128C6.50892 13.0128 5.30378 12.5192 4.31656 11.5321C3.32948 10.5449 2.83594 9.33978 2.83594 7.91672C2.83594 6.49366 3.32948 5.28853 4.31656 4.3013C5.30378 3.31422 6.50892 2.82068 7.93198 2.82068C9.35503 2.82068 10.5602 3.31422 11.5474 4.3013C12.5345 5.28853 13.028 6.49366 13.028 7.91672C13.028 8.51186 12.9282 9.08026 12.7284 9.62193C12.5286 10.1636 12.262 10.6347 11.9286 11.0353L16.7236 15.8303C16.8391 15.9455 16.8981 16.0905 16.9007 16.2653C16.9034 16.44 16.8443 16.5877 16.7236 16.7084C16.603 16.8291 16.4566 16.8894 16.2845 16.8894C16.1125 16.8894 15.9662 16.8291 15.8455 16.7084L11.0505 11.9134C10.6339 12.2574 10.1547 12.5267 9.61302 12.7211C9.07135 12.9155 8.51101 13.0128 7.93198 13.0128ZM7.93198 11.763C9.00573 11.763 9.91517 11.3903 10.6603 10.6451C11.4056 9.89992 11.7782 8.99047 11.7782 7.91672C11.7782 6.84297 11.4056 5.93353 10.6603 5.18839C9.91517 4.44311 9.00573 4.07047 7.93198 4.07047C6.85823 4.07047 5.94878 4.44311 5.20365 5.18839C4.45837 5.93353 4.08573 6.84297 4.08573 7.91672C4.08573 8.99047 4.45837 9.89992 5.20365 10.6451C5.94878 11.3903 6.85823 11.763 7.93198 11.763Z" fill="#6E6E6E"/>
</g>
</svg>
