<svg width="48" height="48" viewBox="0 0 48 48" fill="none" xmlns="http://www.w3.org/2000/svg">
  <circle cx="24" cy="24" r="24" fill="#E8F0E0"/>
  <path d="M16 26C14.9 26 14 25.1 14 24C14 22.9 14.9 22 16 22C17.1 22 18 22.9 18 24" stroke="#2C6E49" stroke-width="2" stroke-linecap="round" stroke-linejoin="round"/>
  <path d="M32 22C33.1 22 34 22.9 34 24C34 25.1 33.1 26 32 26C30.9 26 30 25.1 30 24" stroke="#2C6E49" stroke-width="2" stroke-linecap="round" stroke-linejoin="round"/>
  <path d="M18 24L22 28L26 24L30 24" stroke="#2C6E49" stroke-width="2" stroke-linecap="round" stroke-linejoin="round"/>
  <path d="M22 28L18 32" stroke="#2C6E49" stroke-width="2" stroke-linecap="round" stroke-linejoin="round"/>
  <path d="M26 24L30 20" stroke="#2C6E49" stroke-width="2" stroke-linecap="round" stroke-linejoin="round"/>
</svg> 