<svg width="64" height="64" viewBox="0 0 64 64" fill="none" xmlns="http://www.w3.org/2000/svg">
<mask id="mask0_831_2529" style="mask-type:alpha" maskUnits="userSpaceOnUse" x="0" y="0" width="64" height="64">
<rect width="64" height="64" fill="#D9D9D9"/>
</mask>
<g mask="url(#mask0_831_2529)">
<path d="M36.9951 54.9387C37.0808 54.9729 37.1577 54.99 37.2257 54.99C37.2942 54.99 37.3713 54.9729 37.4571 54.9387L53.1437 50.082C53.0073 49.4771 52.7253 49.0131 52.2977 48.69C51.8702 48.3669 51.3864 48.2054 50.8464 48.2054H37.7871C36.6235 48.2054 35.6348 48.1609 34.8211 48.072C34.0073 47.9831 33.1713 47.7882 32.3131 47.4874L28.1284 46.118C27.5906 45.9469 27.2042 45.6051 26.9691 45.0927C26.7335 44.5798 26.7013 44.0576 26.8724 43.526C27.0431 42.994 27.3737 42.6042 27.8644 42.3567C28.3551 42.1087 28.8704 42.0702 29.4104 42.2414L32.8771 43.4567C33.6842 43.7131 34.5868 43.8951 35.5851 44.0027C36.5833 44.1102 37.8771 44.1778 39.4664 44.2054H40.1797C40.1797 43.5454 40.0311 42.976 39.7337 42.4974C39.4364 42.0187 39.0448 41.6956 38.5591 41.528L23.0877 35.846C23.0362 35.8291 22.9891 35.8165 22.9464 35.808C22.9037 35.7991 22.8568 35.7947 22.8057 35.7947H17.8724V49.5387L36.9951 54.9387ZM35.9544 58.8567L17.8724 53.672C17.5679 54.776 16.9491 55.6622 16.0157 56.3307C15.0824 56.9991 14.0944 57.3334 13.0517 57.3334H9.35973C8.03395 57.3334 6.89906 56.8614 5.95506 55.9174C5.01106 54.9734 4.53906 53.8385 4.53906 52.5127V36.6154C4.53906 35.29 5.01106 34.1554 5.95506 33.2114C6.89906 32.2674 8.03395 31.7954 9.35973 31.7954H22.7757C23.0553 31.7954 23.3386 31.826 23.6257 31.8874C23.9133 31.9491 24.18 32.0209 24.4257 32.1027L39.9644 37.826C41.1746 38.2736 42.1797 39.0658 42.9797 40.2027C43.7797 41.3396 44.1797 42.6738 44.1797 44.2054H50.8464C52.7611 44.2054 54.3208 44.8234 55.5257 46.0594C56.7311 47.2949 57.3337 48.8991 57.3337 50.872C57.3337 51.6276 57.1337 52.236 56.7337 52.6974C56.3337 53.1591 55.7286 53.5249 54.9184 53.7947L38.7391 58.8154C38.3013 58.9589 37.8413 59.0349 37.3591 59.0434C36.8773 59.0522 36.4091 58.99 35.9544 58.8567ZM8.53906 52.5127C8.53906 52.7522 8.61595 52.9489 8.76973 53.1027C8.92351 53.2565 9.12017 53.3334 9.35973 53.3334H13.0517C13.2908 53.3334 13.4875 53.2694 13.6417 53.1414C13.7955 53.0129 13.8724 52.8034 13.8724 52.5127V35.7947H9.35973C9.12017 35.7947 8.92351 35.8718 8.76973 36.026C8.61595 36.1798 8.53906 36.3762 8.53906 36.6154V52.5127ZM42.2564 31.9434C41.6582 31.9434 41.0702 31.834 40.4924 31.6154C39.9146 31.3967 39.3866 31.0685 38.9084 30.6307L31.7031 23.636C30.428 22.4054 29.3553 21.0354 28.4851 19.526C27.6148 18.0167 27.1797 16.3729 27.1797 14.5947C27.1797 12.3925 27.9506 10.5207 29.4924 8.97935C31.0337 7.43758 32.9055 6.66669 35.1077 6.66669C36.5473 6.66669 37.8764 7.0138 39.0951 7.70802C40.3142 8.4018 41.3682 9.28558 42.2571 10.3594C43.1459 9.28558 44.1997 8.4018 45.4184 7.70802C46.6371 7.0138 47.9662 6.66669 49.4057 6.66669C51.608 6.66669 53.4797 7.43758 55.0211 8.97935C56.5628 10.5207 57.3337 12.3925 57.3337 14.5947C57.3337 16.3729 56.9055 18.0167 56.0491 19.526C55.1926 21.0354 54.1268 22.4054 52.8517 23.636L45.6057 30.6307C45.1271 31.0685 44.5986 31.3967 44.0204 31.6154C43.4426 31.834 42.8546 31.9434 42.2564 31.9434ZM42.8211 27.7387L49.8824 20.8874C50.7779 20.0087 51.5771 19.0531 52.2797 18.0207C52.9824 16.9882 53.3337 15.8462 53.3337 14.5947C53.3337 13.4974 52.9533 12.5685 52.1924 11.808C51.4319 11.0471 50.5031 10.6667 49.4057 10.6667C48.5613 10.6667 47.7886 10.8871 47.0877 11.328C46.3868 11.7694 45.768 12.3285 45.2311 13.0054L44.0411 14.4414C43.5819 14.9951 42.9886 15.272 42.2611 15.272C41.5335 15.272 40.9373 14.9951 40.4724 14.4414L39.2824 13.0054C38.7455 12.3285 38.1266 11.7694 37.4257 11.328C36.7253 10.8871 35.9526 10.6667 35.1077 10.6667C34.0104 10.6667 33.0815 11.0471 32.3211 11.808C31.5602 12.5685 31.1797 13.4974 31.1797 14.5947C31.1797 15.8462 31.5311 16.9882 32.2337 18.0207C32.9364 19.0531 33.7355 20.0087 34.6311 20.8874L41.6924 27.7387C41.8466 27.8925 42.0348 27.9694 42.2571 27.9694C42.4793 27.9694 42.6673 27.8925 42.8211 27.7387Z" fill="#478C5C"/>
</g>
</svg>
