<svg width="25" height="24" viewBox="0 0 25 24" fill="none" xmlns="http://www.w3.org/2000/svg">
<mask id="mask0_2851_2810" style="mask-type:alpha" maskUnits="userSpaceOnUse" x="0" y="0" width="25" height="24">
<rect x="0.5" width="24" height="24" fill="#D9D9D9"/>
</mask>
<g mask="url(#mask0_2851_2810)">
<path d="M12.5029 15.577C13.6361 15.577 14.5985 15.1804 15.3902 14.3872C16.1819 13.5941 16.5777 12.6309 16.5777 11.4978C16.5777 10.3646 16.1811 9.40217 15.3879 8.6105C14.5948 7.81883 13.6316 7.423 12.4984 7.423C11.3653 7.423 10.4029 7.81958 9.61119 8.61275C8.81952 9.40592 8.42369 10.3691 8.42369 11.5023C8.42369 12.6354 8.82027 13.5978 9.61344 14.3895C10.4066 15.1812 11.3698 15.577 12.5029 15.577ZM12.5007 14.2C11.7507 14.2 11.1132 13.9375 10.5882 13.4125C10.0632 12.8875 9.80069 12.25 9.80069 11.5C9.80069 10.75 10.0632 10.1125 10.5882 9.5875C11.1132 9.0625 11.7507 8.8 12.5007 8.8C13.2507 8.8 13.8882 9.0625 14.4132 9.5875C14.9382 10.1125 15.2007 10.75 15.2007 11.5C15.2007 12.25 14.9382 12.8875 14.4132 13.4125C13.8882 13.9375 13.2507 14.2 12.5007 14.2ZM12.5007 18.5C10.3955 18.5 8.47019 17.9384 6.72469 16.8152C4.97919 15.6922 3.58594 14.2148 2.54494 12.3828C2.4616 12.2391 2.40069 12.0943 2.36219 11.9485C2.32385 11.8027 2.30469 11.653 2.30469 11.4995C2.30469 11.346 2.32385 11.1965 2.36219 11.051C2.40069 10.9055 2.4616 10.7609 2.54494 10.6172C3.58594 8.78525 4.97919 7.30775 6.72469 6.18475C8.47019 5.06158 10.3955 4.5 12.5007 4.5C14.6059 4.5 16.5312 5.06158 18.2767 6.18475C20.0222 7.30775 21.4154 8.78525 22.4564 10.6172C22.5398 10.7609 22.6007 10.9057 22.6392 11.0515C22.6775 11.1973 22.6967 11.347 22.6967 11.5005C22.6967 11.654 22.6775 11.8035 22.6392 11.949C22.6007 12.0945 22.5398 12.2391 22.4564 12.3828C21.4154 14.2148 20.0222 15.6922 18.2767 16.8152C16.5312 17.9384 14.6059 18.5 12.5007 18.5ZM12.5007 17C14.384 17 16.1132 16.5042 17.6882 15.5125C19.2632 14.5208 20.4674 13.1833 21.3007 11.5C20.4674 9.81667 19.2632 8.47917 17.6882 7.4875C16.1132 6.49583 14.384 6 12.5007 6C10.6174 6 8.88819 6.49583 7.31319 7.4875C5.73819 8.47917 4.53402 9.81667 3.70069 11.5C4.53402 13.1833 5.73819 14.5208 7.31319 15.5125C8.88819 16.5042 10.6174 17 12.5007 17Z" fill="#478C5C"/>
</g>
</svg>
