<svg width="54" height="55" viewBox="0 0 54 55" fill="none" xmlns="http://www.w3.org/2000/svg">
<path fill-rule="evenodd" clip-rule="evenodd" d="M27 0.936279C12.0883 0.936279 0 13.0246 0 27.9363C0 42.848 12.0883 54.9363 27 54.9363C41.9117 54.9363 54 42.848 54 27.9363C54 13.0246 41.9117 0.936279 27 0.936279ZM21.0637 13.6233C22.5997 13.5534 23.0905 13.5363 27.0014 13.5363H26.9969C30.9089 13.5363 31.3979 13.5534 32.9339 13.6233C34.4669 13.6935 35.5139 13.9362 36.4319 14.2923C37.38 14.6598 38.181 15.1518 38.982 15.9528C39.783 16.7532 40.275 17.5566 40.644 18.5037C40.998 19.4193 41.241 20.4658 41.313 21.9988C41.382 23.5348 41.4 24.0256 41.4 27.9364C41.4 31.8473 41.382 32.3369 41.313 33.8729C41.241 35.4053 40.998 36.452 40.644 37.3679C40.275 38.3147 39.783 39.1181 38.982 39.9186C38.1819 40.7196 37.3797 41.2128 36.4328 41.5806C35.5166 41.9367 34.469 42.1794 32.936 42.2496C31.4 42.3195 30.9107 42.3366 26.9995 42.3366C23.089 42.3366 22.5985 42.3195 21.0625 42.2496C19.5298 42.1794 18.4831 41.9367 17.5669 41.5806C16.6203 41.2128 15.8169 40.7196 15.0168 39.9186C14.2161 39.1181 13.7241 38.3147 13.356 37.3676C13.0002 36.452 12.7575 35.4056 12.687 33.8726C12.6174 32.3366 12.6 31.8473 12.6 27.9364C12.6 24.0256 12.618 23.5345 12.6867 21.9985C12.7557 20.4661 12.9987 19.4193 13.3557 18.5034C13.7247 17.5566 14.2167 16.7532 15.0177 15.9528C15.8181 15.1521 16.6215 14.6601 17.5687 14.2923C18.4843 13.9362 19.5307 13.6935 21.0637 13.6233Z" fill="white"/>
<path fill-rule="evenodd" clip-rule="evenodd" d="M25.7096 16.1313C25.9604 16.1309 26.2303 16.131 26.5215 16.1311L27.0014 16.1313C30.8463 16.1313 31.302 16.1451 32.8203 16.2141C34.2243 16.2783 34.9863 16.5129 35.4939 16.71C36.1659 16.971 36.645 17.283 37.1487 17.787C37.6527 18.291 37.9647 18.771 38.2263 19.443C38.4234 19.95 38.6583 20.712 38.7222 22.116C38.7912 23.6341 38.8062 24.0901 38.8062 27.9331C38.8062 31.7761 38.7912 32.2322 38.7222 33.7502C38.658 35.1542 38.4234 35.9162 38.2263 36.4232C37.9653 37.0952 37.6527 37.5737 37.1487 38.0774C36.6447 38.5814 36.1662 38.8934 35.4939 39.1544C34.9869 39.3524 34.2243 39.5864 32.8203 39.6506C31.3023 39.7196 30.8463 39.7346 27.0014 39.7346C23.1563 39.7346 22.7006 39.7196 21.1826 39.6506C19.7785 39.5858 19.0165 39.3512 18.5086 39.1541C17.8366 38.8931 17.3566 38.5811 16.8526 38.0771C16.3486 37.5731 16.0366 37.0943 15.775 36.422C15.5779 35.915 15.343 35.153 15.2791 33.749C15.2101 32.231 15.1963 31.7749 15.1963 27.9295C15.1963 24.0841 15.2101 23.6305 15.2791 22.1124C15.3433 20.7084 15.5779 19.9464 15.775 19.4388C16.036 18.7668 16.3486 18.2868 16.8526 17.7828C17.3566 17.2788 17.8366 16.9668 18.5086 16.7052C19.0162 16.5072 19.7785 16.2732 21.1826 16.2087C22.511 16.1487 23.0258 16.1307 25.7096 16.1277V16.1313ZM34.6881 18.5223C33.7341 18.5223 32.9601 19.2954 32.9601 20.2497C32.9601 21.2037 33.7341 21.9777 34.6881 21.9777C35.6421 21.9777 36.4161 21.2037 36.4161 20.2497C36.4161 19.2957 35.6421 18.5217 34.6881 18.5217V18.5223ZM19.6063 27.9364C19.6063 23.8526 22.9173 20.5415 27.0011 20.5413C31.0851 20.5413 34.3953 23.8525 34.3953 27.9364C34.3953 32.0203 31.0854 35.33 27.0014 35.33C22.9175 35.33 19.6063 32.0203 19.6063 27.9364Z" fill="white"/>
<path d="M27.0012 23.1365C29.652 23.1365 31.8013 25.2854 31.8013 27.9365C31.8013 30.5874 29.652 32.7366 27.0012 32.7366C24.3501 32.7366 22.2012 30.5874 22.2012 27.9365C22.2012 25.2854 24.3501 23.1365 27.0012 23.1365Z" fill="white"/>
</svg>
