<svg width="405" height="128" viewBox="0 0 405 128" fill="none" xmlns="http://www.w3.org/2000/svg">
<g clip-path="url(#clip0_748_6169)">
<path d="M109.746 46.3055C108.566 41.627 102.548 38.1481 100.07 37.5483C95.8215 36.1087 91.4553 35.6289 87.089 36.3486C88.7411 31.91 90.2752 28.4311 92.0453 25.672C93.1074 23.8725 94.4054 22.433 95.7035 20.8735C96.7656 19.6739 97.7096 18.4742 98.4177 17.3946C100.306 14.5155 100.07 12.4761 99.4797 11.1565C98.4177 8.87723 95.7035 7.91753 94.2874 7.79757C88.5051 7.19776 82.2507 9.35708 75.7603 14.2755C67.1458 20.6336 61.0094 30.3505 56.1712 44.986L55.4631 7.43768C56.9972 6.83787 57.9413 5.27836 57.8233 3.47892C57.5872 1.31959 55.8171 -0.23992 53.693 -0.119958C52.631 4.79817e-06 51.6869 0.479855 51.0969 1.31959C50.3888 2.15933 50.1528 3.11903 50.2708 4.19869C50.3888 5.99813 51.6869 7.31772 53.339 7.67761L53.929 44.0262C49.2088 29.8707 43.0724 20.3936 34.5759 14.1556C27.9675 9.35708 21.7131 7.19776 15.9308 7.67761C14.6327 7.79757 11.8005 8.63731 10.6205 11.0366C10.0304 12.2362 9.67641 14.3955 11.5645 17.1546C12.2726 18.3543 13.3346 19.5539 14.2787 20.7535C15.3407 22.0731 16.4028 23.3927 17.4649 24.8322C19.589 27.8313 21.3591 32.15 22.7752 36.2287C18.2909 35.5089 13.9247 35.8688 9.67641 37.4283C7.19827 38.0281 1.0619 41.507 -0.0001591 46.1856C-0.472187 48.105 -0.35418 50.8641 3.06802 53.8632C3.54005 54.2231 4.01208 54.583 4.48411 54.9428C7.90631 57.462 11.3285 60.1012 13.9247 66.0993C16.2848 71.4977 17.9369 77.9756 19.589 84.2137C22.0671 93.6907 24.6633 103.528 29.6196 109.886C30.7997 111.445 33.8678 115.284 37.172 115.644C37.4081 115.644 37.5261 115.644 37.7621 115.644C39.7682 115.644 40.7123 114.684 41.1843 113.844C42.8364 110.845 39.2962 105.807 38.2341 104.247C35.4019 100.409 31.8617 95.4902 29.5016 87.8126C27.9675 82.8941 26.9054 78.5755 25.8434 74.3768C23.3652 64.2999 21.3591 56.2624 15.3407 48.3449C14.8687 47.7451 14.0427 47.6251 13.5706 48.105C12.9806 48.5848 12.8626 49.4246 13.3346 49.9044C18.999 57.462 20.8871 65.1396 23.3652 74.9766C24.3093 79.0553 25.4893 83.6139 27.0234 88.6523C29.5016 96.6898 33.1598 101.848 36.346 106.047C38.5881 109.046 39.5322 111.925 39.0602 112.765C38.8241 113.125 37.9981 113.125 37.6441 113.125C36.11 112.885 33.8678 111.085 31.8617 108.326C27.1414 102.328 24.7813 93.2109 22.3032 83.6139C20.6511 77.2559 18.881 70.6579 16.5208 65.0197C13.6887 58.4218 9.67641 55.4227 6.25421 52.7835C5.78218 52.4236 5.31015 52.0637 4.95613 51.8238C3.06802 50.2643 2.35998 48.5848 2.83201 46.9053C3.77606 43.3065 9.08638 40.4274 10.6205 40.0675C10.7385 40.0675 10.7385 40.0675 10.8565 40.0675C15.5768 38.388 20.5331 38.268 25.6074 39.5876C37.7621 42.7067 46.2586 52.6635 53.811 72.5773C53.811 72.6973 53.811 72.6973 53.693 72.8173C52.0409 80.015 50.0348 89.612 49.4448 100.409C48.8547 109.286 49.0907 116.004 50.0348 120.562C51.3329 127.04 53.693 128 55.1091 128C56.4072 128 58.8853 127.04 60.1834 120.562C61.1275 115.884 61.3635 108.926 60.7734 100.049C60.3014 91.4114 59.0033 82.6542 56.4072 72.3374C63.9596 52.5436 72.3381 42.7067 84.4928 39.5876C89.5671 38.268 94.5234 38.388 99.2437 40.0675C99.2437 40.0675 99.3617 40.0675 99.4797 40.0675C101.132 40.4274 106.442 43.3065 107.268 46.9053C107.74 48.5848 107.032 50.2643 105.144 51.8238C104.672 52.1837 104.2 52.5436 103.728 52.9035C100.188 55.5426 96.2935 58.5417 93.4614 65.1396C90.9832 70.7779 89.3311 77.3758 87.679 83.7338C85.2009 93.4508 82.8407 102.568 78.1205 108.566C76.1143 111.325 73.9902 113.125 72.4561 113.245C72.1021 113.245 71.1581 113.245 70.922 112.885C70.45 112.045 71.3941 109.166 73.6362 106.167C76.8224 101.968 80.4806 96.8098 82.9588 88.7723C84.4928 83.7338 85.6729 79.1753 86.617 75.0965C89.0951 65.2596 90.9832 57.582 96.6476 50.0244C97.1196 49.4246 97.0016 48.5848 96.4115 48.2249C95.8215 47.7451 94.9955 47.8651 94.6414 48.4649C88.5051 56.2624 86.499 64.18 84.0208 74.3768C82.9587 78.5755 81.8967 82.8941 80.3626 87.8126C78.0025 95.4902 74.5803 100.409 71.5121 104.487C70.45 105.927 66.9098 110.965 68.5619 114.084C69.0339 114.924 69.978 115.764 71.9841 115.764C72.2201 115.764 72.3381 115.764 72.5741 115.764C75.8783 115.284 78.9465 111.565 80.1266 110.006C85.2009 103.648 87.679 93.8107 90.1572 84.2137C91.8093 77.9756 93.4614 71.4977 95.8215 66.0993C98.4177 60.1012 101.84 57.462 105.262 54.9428C105.734 54.583 106.206 54.2231 106.678 53.8632C110.1 50.9841 110.218 48.105 109.746 46.3055ZM57.5872 120.082C56.7612 124.161 55.5811 125.481 55.1091 125.481C54.6371 125.481 53.457 124.161 52.631 120.202C51.6869 115.884 51.5689 109.166 52.0409 100.649C52.5129 92.2512 53.811 84.5736 55.1091 78.2156C56.8792 86.1331 57.8233 93.3308 58.1773 100.289C58.7673 108.806 58.5313 115.644 57.5872 120.082ZM54.9911 68.8585C48.1467 51.8238 40.3582 42.3468 29.7376 38.268C29.7376 38.1481 29.7376 38.0281 29.7376 38.0281C29.1476 32.2699 27.3775 21.8332 23.0112 17.0347C22.5392 16.5548 21.7131 16.4349 21.1231 16.9147C20.6511 17.3946 20.5331 18.2343 21.0051 18.8341C23.7192 21.8332 25.8434 28.5511 26.9054 37.4283C26.5514 37.3083 26.1974 37.1884 25.8434 37.0684H25.7254C23.9553 32.15 22.0671 27.1115 19.589 23.5127C18.5269 21.9531 17.3469 20.5136 16.2848 19.194C15.3407 17.9944 14.3967 16.9147 13.6887 15.8351C12.7446 14.3955 12.3906 13.1959 12.8626 12.2362C13.4526 11.0366 14.9867 10.4367 16.0488 10.3168C21.1231 9.83693 26.7874 11.8763 32.6878 16.3149C42.2463 23.3927 48.6187 34.7891 53.575 53.1434C53.693 53.6232 54.047 53.9831 54.5191 54.1031C54.6371 54.1031 54.6371 54.1031 54.7551 54.1031H54.8731H54.9911C55.1091 54.1031 55.1091 54.1031 55.2271 54.1031C55.6991 53.9831 56.0532 53.6232 56.1712 53.1434C61.1275 34.6692 67.4998 23.3927 77.0584 16.3149C83.0768 11.7563 88.7411 9.71697 93.8154 10.3168C94.7594 10.4367 96.4115 11.0366 96.8836 12.2362C97.3556 13.3158 96.6476 14.8754 95.9395 15.8351C95.3495 16.7948 94.4054 17.9944 93.4614 19.074C92.2813 20.5136 90.8652 22.1931 89.6852 24.1125C87.561 27.4714 85.7909 31.6701 83.9028 36.8285H83.7848C83.4308 36.9485 83.1948 37.0684 82.8407 37.0684C83.9028 28.1912 86.0269 21.4733 88.7411 18.4742C89.2131 17.9944 89.2131 17.1546 88.6231 16.5548C88.1511 16.075 87.325 16.075 86.735 16.6748C82.3687 21.4733 80.5986 31.91 80.0086 37.6682C80.0086 37.7882 80.0086 37.7882 80.0086 37.9082C69.624 42.2268 61.8355 51.7038 54.9911 68.8585Z" fill="#356945"/>
<path d="M200.376 35.5089C200.258 33.3496 199.668 31.4302 198.488 29.9906C197.544 28.791 195.773 27.3515 192.587 27.3515C190.817 27.3515 189.165 27.9513 187.867 29.0309C186.687 29.9906 185.743 31.4302 185.035 33.3496L169.104 75.0965L153.409 33.4695C152.701 31.5501 151.757 30.1106 150.577 29.0309C149.279 27.8313 147.627 27.3515 145.739 27.3515C142.67 27.3515 140.9 28.791 139.956 30.1106C138.776 31.6701 138.186 33.5895 138.068 35.7488L133.82 98.8491V99.8088C133.82 101.848 134.41 103.528 135.59 104.847C136.888 106.287 138.54 107.127 140.664 107.127C142.198 107.127 147.037 106.647 147.509 99.6889L149.869 61.0609L163.322 95.3702C164.974 99.329 167.806 99.9288 169.34 99.9288C170.638 99.9288 173.824 99.4489 175.476 95.2502L188.929 60.941L191.289 99.5689C191.407 101.848 191.997 103.528 193.177 104.847C194.357 106.287 196.128 107.007 198.134 107.007C200.14 107.007 201.792 106.287 203.09 104.847C204.27 103.528 204.978 101.728 204.978 99.6889V99.209C204.978 98.8491 204.978 98.4892 204.86 98.1293L200.376 35.5089Z" fill="#356945"/>
<path d="M224.685 32.5098C222.443 32.5098 220.437 33.3496 219.021 35.149C217.723 36.7085 217.133 38.7479 217.133 41.3871C217.133 43.9063 217.723 45.9456 219.021 47.5052C220.437 49.3046 222.443 50.1443 224.685 50.1443C227.045 50.1443 229.052 49.1846 230.468 47.5052C231.766 45.9456 232.356 43.9063 232.356 41.3871C232.356 38.8679 231.648 36.7085 230.468 35.149C229.052 33.4695 227.045 32.5098 224.685 32.5098Z" fill="#356945"/>
<path d="M224.685 52.9035C221.971 52.9035 220.319 54.2231 219.493 55.3027C218.431 56.7423 217.841 58.5417 217.841 60.701V98.9691C217.841 101.128 218.431 103.048 219.493 104.367C220.319 105.567 221.971 106.887 224.803 106.887C227.517 106.887 229.169 105.567 230.114 104.367C231.176 102.928 231.766 101.128 231.766 98.9691V60.821C231.766 58.5417 231.176 56.7423 230.114 55.4227C229.051 54.2231 227.399 52.9035 224.685 52.9035Z" fill="#356945"/>
<path d="M335.966 95.0103L310.004 63.8201L333.015 39.2277C334.549 37.6682 335.258 35.9888 335.258 34.1893C335.258 32.3899 334.549 30.8304 333.369 29.5108C332.071 28.1912 330.537 27.5914 328.767 27.5914C326.761 27.5914 324.873 28.671 323.339 30.4705L301.744 54.343V35.149C301.744 32.8697 301.153 31.0703 300.091 29.7507C299.265 28.671 297.613 27.3515 294.899 27.3515C294.781 27.3515 294.781 27.3515 294.663 27.3515C294.545 27.3515 294.545 27.3515 294.427 27.3515C292.303 27.3515 290.415 28.1912 289.117 29.7507C287.937 31.1903 287.347 33.1097 287.347 35.3889V75.4564L262.093 32.2699C261.149 30.7104 260.205 29.5108 259.143 28.791C257.963 27.9513 256.429 27.4714 254.777 27.4714C251.473 27.4714 249.584 29.1509 248.64 30.4705C247.46 32.15 246.988 34.1893 246.988 36.4686V99.209C246.988 101.488 247.578 103.288 248.64 104.607C249.466 105.687 251.119 107.007 253.833 107.007C255.957 107.007 257.727 106.167 258.907 104.607C259.969 103.168 260.559 101.368 260.559 99.209V56.0225L287.701 102.448C287.937 102.808 288.055 103.048 288.291 103.288C288.527 103.768 288.763 104.127 288.999 104.487C290.297 106.167 292.067 107.007 294.309 107.007C295.961 107.007 297.495 106.527 298.557 105.567C299.147 105.087 299.619 104.607 300.091 104.008C301.153 102.448 301.626 100.649 301.626 98.4892V75.2165L324.991 103.528C326.761 105.687 328.767 106.767 330.773 106.767C332.661 106.767 334.313 106.047 335.612 104.727C336.91 103.408 337.618 101.728 337.618 99.9288C337.618 99.0891 337.382 98.2493 337.028 97.2896C336.91 96.5698 336.438 95.7301 335.966 95.0103Z" fill="#356945"/>
<path d="M404.292 96.4499L381.398 33.7095C380.69 31.6701 379.746 30.2306 378.566 29.1509C377.268 27.9513 375.498 27.3515 373.492 27.3515C371.486 27.3515 369.716 27.9513 368.418 29.1509C367.238 30.2306 366.294 31.6701 365.467 33.8294L342.692 96.6898C342.456 97.2896 342.338 97.8894 342.22 98.3693C342.102 98.9691 342.102 99.5689 342.102 100.169C342.102 102.088 342.81 103.768 344.226 105.087C345.524 106.407 347.176 107.007 348.946 107.007C350.835 107.007 354.139 106.287 355.791 101.368L360.275 89.0122H386.709L391.075 101.368C392.963 106.287 396.267 107.007 398.037 107.007C399.925 107.007 401.578 106.287 402.876 105.087C404.292 103.768 405 102.088 405 100.169C405 98.9691 404.764 97.6495 404.292 96.4499ZM382.342 75.9363H364.523L373.492 51.104L382.342 75.9363Z" fill="#356945"/>
</g>
<defs>
<clipPath id="clip0_748_6169">
<rect width="405" height="128" fill="white"/>
</clipPath>
</defs>
</svg>
