<svg width="1440" height="2617" viewBox="0 0 1440 2617" fill="none" xmlns="http://www.w3.org/2000/svg">
<rect y="949" width="1440" height="400" fill="#478C5C"/>
<path d="M1292.97 1232.38C1287.95 1224.34 1283.48 1214.21 1287.65 1205.7C1288.26 1204.38 1289.27 1203.07 1290.65 1202.6C1291.58 1202.29 1292.66 1202.45 1293.66 1202.6C1297.83 1203.53 1301.61 1206.32 1303.85 1209.95C1304.62 1206.86 1305.39 1203.76 1306.24 1200.67C1306.47 1199.67 1306.78 1198.5 1307.71 1197.96C1309.56 1196.65 1312.03 1198.66 1313.03 1200.67C1314.03 1202.76 1314.88 1205.31 1317.12 1205.85C1317.66 1201.91 1318.2 1197.89 1318.74 1193.94C1319.2 1190.23 1320.59 1185.59 1324.3 1185.05C1327.46 1184.58 1330.01 1187.6 1331.39 1190.38C1333.94 1195.64 1334.87 1201.68 1333.94 1207.48C1335.56 1206.78 1336.33 1205 1337.34 1203.53C1338.34 1202.14 1340.27 1200.9 1341.81 1201.83C1343.2 1202.68 1343.12 1204.69 1342.81 1206.32C1341.58 1213.43 1340.04 1220.55 1338.11 1227.51C1338.11 1227.51 1329.39 1247.23 1315.35 1247C1301.15 1246.77 1292.97 1232.38 1292.97 1232.38Z" fill="#407E53"/>
<path d="M675 1349C675 1349 393.842 1229.96 0.169312 1238.43L0 1349H675Z" fill="#356945"/>
<path d="M28.9713 1242.38C23.956 1234.34 19.4808 1224.21 23.6473 1215.7C24.2646 1214.38 25.2677 1213.07 26.6565 1212.6C27.5825 1212.29 28.6627 1212.45 29.6657 1212.6C33.8323 1213.53 37.6131 1216.32 39.8507 1219.95C40.6223 1216.86 41.3939 1213.76 42.2426 1210.67C42.4741 1209.67 42.7827 1208.5 43.7086 1207.96C45.5604 1206.65 48.0295 1208.66 49.0326 1210.67C50.0357 1212.76 50.8844 1215.31 53.122 1215.85C53.6621 1211.91 54.2022 1207.89 54.7423 1203.94C55.2053 1200.23 56.5941 1195.59 60.2978 1195.05C63.4613 1194.58 66.0075 1197.6 67.3964 1200.38C69.9426 1205.64 70.8685 1211.68 69.9426 1217.48C71.5629 1216.78 72.3345 1215 73.3376 1213.53C74.3407 1212.14 76.2696 1210.9 77.8128 1211.83C79.2017 1212.68 79.1245 1214.69 78.8159 1216.32C77.5813 1223.43 76.0382 1230.55 74.1092 1237.51C74.1092 1237.51 65.3903 1257.23 51.3474 1257C37.1501 1256.77 28.9713 1242.38 28.9713 1242.38Z" fill="#356945"/>
<path d="M521.842 1298.52C520.036 1297.8 518.591 1297.62 516.966 1297.26C516.244 1297.08 515.341 1297.08 514.619 1296.9C513.896 1296.9 512.993 1296.72 512.09 1296.9H511.91C510.826 1296.9 510.104 1297.98 510.104 1298.88C510.104 1299.24 510.285 1299.6 510.646 1299.97C511.368 1300.87 512.271 1301.41 513.174 1301.77C514.077 1302.13 515.16 1302.49 516.244 1302.67C518.23 1302.86 520.397 1302.67 522.203 1301.59C522.926 1301.05 523.287 1299.97 522.745 1299.24C522.564 1298.88 522.203 1298.7 521.842 1298.52Z" fill="#BACC81"/>
<path d="M474.89 1299.06C473.084 1297.62 471.097 1296.9 469.111 1296.17C468.027 1295.81 467.124 1295.63 466.041 1295.45C464.957 1295.27 463.874 1295.27 462.79 1295.45C461.707 1295.63 460.984 1296.53 461.165 1297.62C461.165 1298.16 461.526 1298.52 461.887 1298.88C462.79 1299.6 463.693 1300.15 464.596 1300.51C465.499 1300.87 466.583 1301.23 467.486 1301.59C469.472 1302.13 471.639 1302.49 473.806 1302.31C474.709 1302.13 475.431 1301.41 475.251 1300.51C475.612 1299.79 475.251 1299.24 474.89 1299.06Z" fill="#BACC81"/>
<path d="M531.989 1325.6C530.183 1323.79 528.016 1322.71 525.849 1321.81C524.765 1321.26 523.682 1320.9 522.418 1320.54C521.334 1320.18 520.07 1320 518.806 1320C517.722 1320 517 1320.72 517 1321.81C517 1322.35 517.18 1322.89 517.542 1323.25C518.445 1324.15 519.528 1324.88 520.612 1325.42C521.695 1325.96 522.779 1326.5 523.862 1327.04C526.029 1327.95 528.377 1328.67 530.905 1328.67C531.808 1328.67 532.53 1327.95 532.711 1327.04C532.53 1326.32 532.35 1325.96 531.989 1325.6Z" fill="#BACC81"/>
<path d="M180.634 1306.81C178.857 1303.94 177.334 1300.81 176.319 1297.51C175.22 1294.3 174.543 1290.91 174.204 1287.53C174.035 1285.84 173.951 1284.14 173.951 1282.45C173.951 1281.61 174.12 1280.85 174.374 1280.17C174.627 1279.49 175.135 1279.07 175.727 1278.98C176.319 1278.9 177.081 1279.07 177.673 1279.49C178.265 1279.91 178.772 1280.42 179.195 1281.1C180.041 1282.45 180.634 1284.23 182.156 1285.58C182.495 1285.84 182.918 1285.84 183.171 1285.58C183.256 1285.5 183.341 1285.33 183.341 1285.24C184.102 1281.1 182.833 1277.04 183.594 1273.49C184.017 1271.71 184.863 1269.93 186.217 1268.92C187.57 1267.9 189.431 1267.82 190.954 1268.58C192.561 1269.34 193.83 1270.69 194.676 1272.39C195.522 1274.08 196.114 1275.85 196.791 1277.8L200.513 1289.05C200.682 1289.47 201.105 1289.73 201.528 1289.56C201.782 1289.47 202.036 1289.22 202.036 1288.97C202.374 1287.27 202.966 1285.58 203.982 1284.31C204.489 1283.72 205.081 1283.21 205.758 1283.04C206.435 1282.88 207.196 1282.88 207.873 1283.21C209.226 1283.89 210.241 1285.33 210.495 1286.94C210.749 1288.54 210.495 1290.32 210.241 1292.18C210.157 1292.6 210.495 1292.94 210.834 1293.03C211.172 1293.11 211.426 1292.94 211.595 1292.6C212.187 1291.42 212.948 1290.32 213.879 1289.39C214.725 1288.46 215.825 1287.61 216.924 1287.53C218.024 1287.36 219.208 1287.87 219.801 1288.88C220.477 1289.9 220.646 1291.17 220.646 1292.43C220.646 1293.7 220.308 1295.06 219.97 1296.33C219.631 1297.59 219.124 1298.86 218.447 1300.05C217.178 1302.42 215.486 1304.53 213.371 1306.31C213.118 1306.48 213.118 1306.81 213.287 1307.07C213.456 1307.32 213.794 1307.32 214.048 1307.15C216.332 1305.38 218.193 1303.18 219.547 1300.64C220.224 1299.37 220.816 1298.1 221.239 1296.66C221.662 1295.31 222 1293.87 222 1292.43C222 1291 221.831 1289.39 220.9 1288.04C220.477 1287.36 219.801 1286.77 219.039 1286.43C218.278 1286.09 217.432 1285.92 216.586 1286.09C215.74 1286.17 214.979 1286.51 214.387 1286.94C213.71 1287.36 213.202 1287.87 212.695 1288.37C211.68 1289.47 210.918 1290.66 210.157 1291.93L211.595 1292.43C211.849 1290.66 212.187 1288.71 211.849 1286.77C211.51 1284.82 210.411 1282.79 208.38 1281.86C207.365 1281.35 206.181 1281.27 205.166 1281.61C204.066 1281.94 203.22 1282.62 202.543 1283.38C201.274 1284.99 200.598 1286.85 200.259 1288.71L201.867 1288.63L198.229 1277.38C197.637 1275.52 197.045 1273.57 196.03 1271.71C195.099 1269.85 193.576 1268.16 191.546 1267.23C190.531 1266.72 189.431 1266.47 188.247 1266.55C187.063 1266.63 185.963 1267.06 185.117 1267.73C184.186 1268.41 183.51 1269.34 183.002 1270.27C182.495 1271.2 182.156 1272.22 181.902 1273.23C181.479 1275.35 181.649 1277.38 181.733 1279.32C181.902 1281.27 181.987 1283.21 181.649 1285.07L182.918 1284.65C181.818 1283.64 181.226 1282.03 180.211 1280.51C179.703 1279.75 179.026 1278.98 178.18 1278.39C177.334 1277.88 176.319 1277.46 175.22 1277.63C174.12 1277.8 173.189 1278.73 172.766 1279.66C172.343 1280.59 172.259 1281.52 172.259 1282.45C172.259 1284.23 172.343 1286.01 172.513 1287.7C173.274 1294.72 175.727 1301.49 179.534 1307.32C179.703 1307.58 179.957 1307.58 180.211 1307.49C180.718 1307.41 180.718 1307.07 180.634 1306.81Z" fill="#478C5C"/>
<path d="M37.002 1349C37.002 1349 621.395 1225.3 1439.65 1236.75L1440 1349H37.002Z" fill="#407E53"/>
<path d="M598.983 1340.65C601.173 1337.1 603.05 1333.24 604.301 1329.18C605.656 1325.22 606.49 1321.05 606.907 1316.88C607.116 1314.79 607.22 1312.7 607.22 1310.62C607.22 1309.58 607.012 1308.64 606.699 1307.8C606.386 1306.97 605.76 1306.45 605.031 1306.35C604.301 1306.24 603.362 1306.45 602.633 1306.97C601.903 1307.49 601.277 1308.12 600.756 1308.95C599.713 1310.62 598.984 1312.81 597.107 1314.48C596.69 1314.79 596.168 1314.79 595.856 1314.48C595.751 1314.37 595.647 1314.16 595.647 1314.06C594.709 1308.95 596.273 1303.95 595.334 1299.57C594.813 1297.38 593.77 1295.19 592.102 1293.94C590.434 1292.69 588.14 1292.58 586.264 1293.52C584.283 1294.46 582.719 1296.13 581.676 1298.21C580.634 1300.3 579.904 1302.49 579.07 1304.89L574.482 1318.75C574.274 1319.27 573.752 1319.59 573.231 1319.38C572.918 1319.27 572.606 1318.96 572.606 1318.65C572.189 1316.56 571.459 1314.48 570.208 1312.91C569.582 1312.18 568.852 1311.56 568.018 1311.35C567.184 1311.14 566.246 1311.14 565.412 1311.56C563.743 1312.39 562.492 1314.16 562.179 1316.15C561.867 1318.13 562.179 1320.32 562.492 1322.61C562.597 1323.13 562.179 1323.55 561.762 1323.65C561.345 1323.76 561.033 1323.55 560.824 1323.13C560.094 1321.67 559.156 1320.32 558.009 1319.17C556.966 1318.02 555.611 1316.98 554.256 1316.88C552.9 1316.67 551.441 1317.29 550.711 1318.54C549.877 1319.79 549.668 1321.36 549.668 1322.92C549.668 1324.49 550.085 1326.15 550.502 1327.72C550.919 1329.28 551.545 1330.85 552.379 1332.3C553.943 1335.22 556.028 1337.83 558.635 1340.02C558.947 1340.23 558.947 1340.65 558.739 1340.96C558.53 1341.27 558.113 1341.27 557.801 1341.06C554.985 1338.87 552.692 1336.16 551.024 1333.03C550.189 1331.47 549.46 1329.91 548.938 1328.13C548.417 1326.47 548 1324.69 548 1322.92C548 1321.15 548.209 1319.17 549.355 1317.5C549.877 1316.67 550.711 1315.94 551.649 1315.52C552.587 1315.1 553.63 1314.89 554.673 1315.1C555.715 1315.21 556.654 1315.62 557.383 1316.15C558.218 1316.67 558.843 1317.29 559.469 1317.92C560.72 1319.27 561.658 1320.73 562.596 1322.3L560.824 1322.92C560.511 1320.73 560.094 1318.33 560.511 1315.94C560.928 1313.54 562.284 1311.04 564.786 1309.89C566.037 1309.26 567.497 1309.16 568.748 1309.58C570.103 1309.99 571.146 1310.83 571.98 1311.77C573.544 1313.75 574.378 1316.04 574.795 1318.33L572.814 1318.23L577.297 1304.36C578.027 1302.07 578.757 1299.67 580.008 1297.38C581.155 1295.09 583.032 1293 585.534 1291.85C586.785 1291.23 588.14 1290.92 589.6 1291.02C591.06 1291.12 592.415 1291.65 593.458 1292.48C594.605 1293.31 595.439 1294.46 596.064 1295.61C596.69 1296.75 597.107 1298 597.42 1299.26C597.941 1301.86 597.732 1304.36 597.628 1306.76C597.42 1309.16 597.315 1311.56 597.732 1313.85L596.168 1313.33C597.524 1312.08 598.254 1310.1 599.505 1308.22C600.13 1307.28 600.964 1306.35 602.007 1305.62C603.05 1304.99 604.301 1304.47 605.656 1304.68C607.012 1304.89 608.158 1306.03 608.68 1307.18C609.201 1308.33 609.305 1309.47 609.305 1310.62C609.305 1312.81 609.201 1315 608.992 1317.08C608.054 1325.74 605.031 1334.08 600.339 1341.27C600.13 1341.58 599.818 1341.58 599.505 1341.48C598.879 1341.37 598.879 1340.96 598.983 1340.65Z" fill="#BACC81"/>
<path d="M1243.68 1306.44C1253.8 1293.8 1260.48 1278.63 1263.01 1262.74C1263.37 1260.76 1263.55 1258.77 1263.73 1256.78C1263.91 1254.8 1263.91 1252.81 1263.55 1251C1263.19 1249.2 1262.65 1247.39 1261.56 1246.31C1260.48 1245.23 1258.85 1244.5 1257.23 1244.68C1255.6 1244.86 1253.98 1245.59 1252.53 1246.85C1251.09 1247.93 1249.82 1249.38 1248.74 1251C1246.57 1254.25 1244.77 1258.23 1241.16 1261.12C1240.43 1261.66 1239.53 1261.48 1238.99 1260.94C1238.63 1260.58 1238.63 1260.03 1238.63 1259.67C1240.79 1249.74 1242.06 1239.45 1242.24 1229.34C1242.24 1226.81 1242.24 1224.46 1241.7 1222.11C1241.16 1219.76 1240.25 1217.6 1238.63 1216.51C1237 1215.43 1234.83 1215.25 1233.03 1216.33C1231.22 1217.24 1229.42 1219.04 1228.15 1221.03C1226.71 1223.02 1225.62 1225.36 1224.36 1227.53C1223.1 1229.88 1222.01 1232.04 1220.93 1234.39C1218.76 1239.09 1216.78 1243.78 1214.97 1248.48C1211.36 1258.05 1208.47 1267.8 1206.3 1277.91C1206.12 1278.81 1205.22 1279.54 1204.32 1279.17C1203.77 1278.99 1203.41 1278.81 1203.23 1278.45C1201.79 1276.1 1200.88 1273.4 1200.34 1270.87C1199.8 1268.34 1199.26 1265.99 1198.36 1263.65C1197.63 1261.48 1196.37 1259.49 1194.74 1257.87C1193.12 1256.42 1191.13 1255.52 1189.15 1255.7L1190.23 1254.98C1184.63 1262.74 1182.1 1272.85 1183.55 1282.43C1183.73 1283.33 1183.19 1284.05 1182.28 1284.23C1181.56 1284.41 1180.66 1283.87 1180.48 1283.15C1179.39 1279.72 1178.49 1276.47 1176.69 1273.58C1175.78 1272.13 1174.88 1270.87 1173.62 1269.78C1172.53 1268.7 1171.09 1267.98 1169.64 1267.62C1166.75 1266.71 1163.14 1267.26 1161.52 1269.6C1159.71 1271.77 1159.89 1275.38 1160.07 1278.81C1160.79 1285.49 1164.41 1291.63 1169.1 1296.69C1173.8 1301.93 1179.21 1306.26 1184.81 1310.6C1185.35 1310.96 1185.35 1311.68 1184.99 1312.22C1184.63 1312.76 1183.91 1312.76 1183.37 1312.4C1177.59 1308.25 1171.99 1303.73 1167.11 1298.5C1162.24 1293.26 1158.09 1286.76 1157.18 1279.17C1157 1278.27 1157 1277.37 1157 1276.47C1157 1275.56 1157 1274.66 1157 1273.58C1157.18 1271.59 1157.72 1269.6 1158.99 1267.8C1160.25 1265.99 1162.24 1264.91 1164.23 1264.55C1166.21 1264.19 1168.38 1264.19 1170.18 1264.73C1172.17 1265.27 1173.98 1266.17 1175.42 1267.62C1176.87 1268.88 1178.13 1270.51 1179.03 1272.13C1181.02 1275.38 1182.1 1278.99 1183.01 1282.24L1179.94 1282.97C1178.31 1272.67 1180.84 1261.66 1186.98 1253.17C1187.16 1252.81 1187.7 1252.63 1188.06 1252.45C1189.69 1252.27 1191.31 1252.45 1192.58 1252.99C1194.02 1253.53 1195.29 1254.44 1196.37 1255.34C1198.54 1257.32 1199.98 1259.67 1200.88 1262.38C1201.79 1264.91 1202.33 1267.44 1202.87 1269.97C1203.41 1272.31 1204.14 1274.66 1205.4 1276.47L1202.15 1277.01C1204.32 1266.71 1207.21 1256.78 1210.82 1247.03C1212.62 1242.16 1214.79 1237.46 1216.96 1232.77C1218.04 1230.42 1219.3 1228.07 1220.39 1225.72C1221.65 1223.38 1222.74 1221.03 1224.36 1218.86C1225.99 1216.69 1227.79 1214.53 1230.5 1213.08C1231.76 1212.36 1233.39 1212 1235.02 1212C1236.64 1212.18 1238.27 1212.72 1239.53 1213.63C1242.24 1215.61 1243.32 1218.5 1243.86 1221.21C1244.41 1223.92 1244.59 1226.81 1244.41 1229.34C1244.23 1239.81 1242.96 1250.1 1240.61 1260.39L1238.09 1258.77C1240.97 1256.6 1242.78 1252.81 1245.13 1249.38C1247.48 1245.77 1250.91 1242.34 1255.96 1241.8C1258.49 1241.61 1261.02 1242.52 1262.65 1244.32C1264.27 1246.13 1265.17 1248.48 1265.53 1250.64C1265.9 1252.81 1265.9 1254.98 1265.72 1257.14C1265.53 1259.13 1265.17 1261.3 1264.81 1263.28C1262.1 1279.72 1254.88 1295.25 1244.41 1307.89C1244.04 1308.25 1243.32 1308.43 1242.96 1308.07C1243.32 1307.53 1243.32 1306.8 1243.68 1306.44Z" fill="#BACC81"/>
<path d="M61.7047 1286.97C64.4135 1285.71 66.9416 1284.99 69.6504 1284.26C70.9145 1283.9 72.3592 1283.54 73.8039 1283.36C75.2486 1283.18 76.5128 1283 77.9575 1283C78.8604 1283 79.7634 1283.72 79.7634 1284.81C79.7634 1285.35 79.4022 1285.89 79.041 1286.25C77.7769 1287.15 76.5127 1287.88 75.068 1288.42C73.6234 1288.96 72.3593 1289.32 70.9146 1289.68C68.0252 1290.22 65.1357 1290.58 62.0658 1290.22C61.1628 1290.04 60.6211 1289.32 60.6211 1288.42C60.9823 1287.7 61.3435 1287.33 61.7047 1286.97Z" fill="#478C5C"/>
<path d="M37.1421 1311.35C39.8509 1309.54 42.9208 1308.46 45.8102 1307.56C47.2549 1307.02 48.8802 1306.66 50.3249 1306.47C51.9502 1306.11 53.3949 1305.93 55.0202 1305.93C55.9232 1305.93 56.8261 1306.66 56.8261 1307.74C56.8261 1308.28 56.4649 1309 55.9232 1309.18C54.4785 1310.09 53.0337 1310.81 51.589 1311.35C50.1443 1311.89 48.6996 1312.43 47.0743 1312.8C44.0044 1313.7 40.9344 1314.24 37.6838 1314.42C36.7809 1314.42 36.0586 1313.7 36.0586 1312.8C36.4198 1312.07 36.6003 1311.53 37.1421 1311.35Z" fill="#478C5C"/>
<path d="M9.08353 1299.79C11.7923 1298.17 14.8623 1297.27 17.7517 1296.54C19.1964 1296.18 20.8217 1295.82 22.2664 1295.64C23.8917 1295.46 25.3363 1295.28 26.9616 1295.46C27.8646 1295.46 28.7675 1296.36 28.587 1297.27C28.587 1297.81 28.2258 1298.35 27.684 1298.71C26.2393 1299.43 24.7946 1300.16 23.3499 1300.7C21.9052 1301.24 20.4605 1301.6 18.8352 1301.96C15.7652 1302.68 12.6953 1303.04 9.62533 1303.04C8.72239 1303.04 8 1302.32 8 1301.42C8.36117 1300.52 8.54177 1299.97 9.08353 1299.79Z" fill="#478C5C"/>
<path d="M1117.04 1292.26C1119.03 1291.36 1121.19 1291.18 1123.18 1291C1124.26 1291 1125.17 1291 1126.25 1291.18C1127.33 1291.36 1128.24 1291.54 1129.32 1292.08C1130.22 1292.44 1130.77 1293.71 1130.22 1294.61C1130.04 1294.97 1129.68 1295.33 1129.32 1295.51C1128.24 1296.06 1127.33 1296.24 1126.25 1296.42C1125.17 1296.6 1124.26 1296.6 1123.18 1296.6C1121.19 1296.6 1119.03 1296.24 1117.04 1295.33C1116.14 1294.97 1115.78 1293.89 1116.14 1293.17C1116.5 1292.81 1116.68 1292.44 1117.04 1292.26Z" fill="#BACC81"/>
<path d="M1073.4 1295.44C1076.47 1294.9 1079.36 1294.72 1082.25 1294.54C1083.7 1294.36 1085.14 1294.36 1086.59 1294.18C1088.03 1294 1089.47 1294 1091.1 1294C1092 1294 1092.91 1294.9 1092.91 1295.81C1092.91 1296.35 1092.54 1296.89 1092 1297.25C1090.56 1298.15 1089.11 1298.7 1087.49 1299.06C1085.86 1299.42 1084.24 1299.78 1082.61 1299.78C1079.36 1299.96 1076.11 1299.6 1073.04 1298.33C1072.14 1297.97 1071.78 1297.07 1072.14 1296.17C1072.32 1295.81 1072.86 1295.44 1073.4 1295.44Z" fill="#BACC81"/>
<path d="M426.164 1324.88C427.97 1324.16 429.414 1323.98 431.04 1323.61C431.762 1323.43 432.665 1323.43 433.387 1323.25C434.11 1323.25 435.013 1323.07 435.916 1323.25H436.096C437.18 1323.25 437.902 1324.34 437.902 1325.24C437.902 1325.6 437.721 1325.96 437.36 1326.32C436.638 1327.23 435.735 1327.77 434.832 1328.13C433.929 1328.49 432.845 1328.85 431.762 1329.03C429.776 1329.21 427.609 1329.03 425.803 1327.95C425.08 1327.41 424.719 1326.32 425.261 1325.6C425.441 1325.24 425.803 1325.06 426.164 1324.88Z" fill="#BACC81"/>
<path d="M473.114 1325.42C474.92 1323.98 476.907 1323.25 478.893 1322.53C479.977 1322.17 480.88 1321.99 481.963 1321.81C483.047 1321.63 484.13 1321.63 485.214 1321.81C486.297 1321.99 487.019 1322.89 486.839 1323.98C486.839 1324.52 486.478 1324.88 486.117 1325.24C485.214 1325.96 484.311 1326.5 483.408 1326.86C482.505 1327.23 481.421 1327.59 480.518 1327.95C478.532 1328.49 476.365 1328.85 474.198 1328.67C473.295 1328.49 472.573 1327.77 472.753 1326.86C472.392 1326.14 472.753 1325.6 473.114 1325.42Z" fill="#BACC81"/>
<path d="M479.072 1299.6C480.878 1297.79 483.045 1296.71 485.212 1295.81C486.295 1295.26 487.379 1294.9 488.643 1294.54C489.727 1294.18 490.991 1294 492.255 1294C493.338 1294 494.061 1294.72 494.061 1295.81C494.061 1296.35 493.88 1296.89 493.519 1297.25C492.616 1298.15 491.532 1298.88 490.449 1299.42C489.365 1299.96 488.282 1300.5 487.198 1301.04C485.031 1301.95 482.684 1302.67 480.155 1302.67C479.253 1302.67 478.53 1301.95 478.35 1301.04C478.53 1300.32 478.711 1299.96 479.072 1299.6Z" fill="#BACC81"/>
<path d="M1094.3 1271.71C1097.01 1270.62 1099.9 1270.26 1102.61 1270.08C1104.05 1270.08 1105.31 1269.9 1106.76 1270.08C1108.2 1270.08 1109.65 1270.26 1110.91 1270.62C1111.82 1270.8 1112.36 1271.89 1112.18 1272.79C1112 1273.33 1111.64 1273.87 1111.09 1274.05C1109.65 1274.59 1108.38 1274.96 1106.94 1275.14C1105.5 1275.32 1104.23 1275.5 1102.79 1275.5C1100.08 1275.5 1097.19 1275.5 1094.3 1274.78C1093.4 1274.59 1092.85 1273.69 1093.03 1272.79C1093.4 1272.43 1093.94 1271.89 1094.3 1271.71Z" fill="#BACC81"/>
<path fill-rule="evenodd" clip-rule="evenodd" d="M1417.4 1349H1297.81C1287.93 1333.45 1281.39 1315.67 1290 1300.42C1291.62 1297.53 1293.97 1294.83 1297.58 1293.74C1299.93 1293.02 1302.64 1293.38 1305.17 1293.92C1315.82 1296.09 1325.21 1302.05 1330.99 1309.99C1331.86 1307.07 1332.69 1304.15 1333.52 1301.24C1334.59 1297.5 1335.65 1293.79 1336.77 1290.13C1337.31 1287.96 1338.21 1285.62 1340.38 1284.35C1345.08 1281.46 1351.22 1285.98 1353.92 1290.31C1354.2 1290.8 1354.47 1291.3 1354.75 1291.81C1357 1295.95 1359.41 1300.38 1364.4 1301.51C1365.66 1293.02 1366.93 1284.53 1368.01 1276.05C1369.09 1268.1 1372.34 1258.17 1381.73 1257.08C1389.68 1256.18 1396 1262.68 1399.61 1268.82C1406.11 1280.2 1408.64 1293.2 1406.48 1305.66C1409.56 1304.54 1411.44 1302.01 1413.32 1299.49C1413.86 1298.77 1414.4 1298.04 1414.96 1297.35C1417.49 1294.28 1422.37 1291.76 1426.16 1293.74C1429.59 1295.55 1429.41 1299.88 1428.87 1303.31C1425.98 1318.66 1422.19 1333.83 1417.49 1348.82C1417.49 1348.82 1417.46 1348.88 1417.4 1349Z" fill="#BACC81"/>
<g filter="url(#filter0_f_811_1570)">
<path d="M165 1159.5C165 1234.89 103.887 1296 28.5 1296C-46.8869 1296 -108 1234.89 -108 1159.5C-108 1084.11 -46.8869 1023 28.5 1023C103.887 1023 165 1084.11 165 1159.5Z" fill="#BACC81"/>
</g>
<g filter="url(#filter1_f_811_1570)">
<path d="M1718 1308.5C1718 1478.88 1579.88 1617 1409.5 1617C1239.12 1617 1101 1478.88 1101 1308.5C1101 1138.12 1239.12 1000 1409.5 1000C1579.88 1000 1718 1138.12 1718 1308.5Z" fill="#BACC81"/>
</g>
<path d="M210.781 1111C216.541 1111 221.661 1112.08 226.141 1114.24C230.621 1116.4 234.381 1119.44 237.421 1123.36C240.541 1127.2 242.861 1131.68 244.381 1136.8C245.981 1141.84 246.781 1147.24 246.781 1153C246.781 1160.76 245.381 1167.84 242.581 1174.24C239.781 1180.56 235.701 1185.6 230.341 1189.36C225.061 1193.12 218.541 1195 210.781 1195H182.101C180.021 1195 178.261 1194.32 176.821 1192.96C175.461 1191.52 174.781 1189.76 174.781 1187.68V1118.32C174.781 1116.24 175.461 1114.52 176.821 1113.16C178.261 1111.72 180.021 1111 182.101 1111H210.781ZM209.581 1181.2C214.621 1181.2 218.741 1179.92 221.941 1177.36C225.141 1174.72 227.461 1171.28 228.901 1167.04C230.421 1162.72 231.181 1158.04 231.181 1153C231.181 1149.24 230.741 1145.68 229.861 1142.32C229.061 1138.88 227.781 1135.88 226.021 1133.32C224.261 1130.68 222.021 1128.6 219.301 1127.08C216.581 1125.56 213.341 1124.8 209.581 1124.8H188.581L189.781 1123.72V1182.52L189.061 1181.2H209.581ZM283.34 1196.2C276.54 1196.2 270.62 1194.8 265.58 1192C260.62 1189.12 256.78 1185.24 254.06 1180.36C251.42 1175.48 250.1 1169.96 250.1 1163.8C250.1 1156.6 251.54 1150.48 254.42 1145.44C257.38 1140.32 261.22 1136.4 265.94 1133.68C270.66 1130.96 275.66 1129.6 280.94 1129.6C285.02 1129.6 288.86 1130.44 292.46 1132.12C296.14 1133.8 299.38 1136.12 302.18 1139.08C304.98 1141.96 307.18 1145.32 308.78 1149.16C310.46 1153 311.3 1157.08 311.3 1161.4C311.22 1163.32 310.46 1164.88 309.02 1166.08C307.58 1167.28 305.9 1167.88 303.98 1167.88H258.14L254.54 1155.88H298.58L295.94 1158.28V1155.04C295.78 1152.72 294.94 1150.64 293.42 1148.8C291.98 1146.96 290.14 1145.52 287.9 1144.48C285.74 1143.36 283.42 1142.8 280.94 1142.8C278.54 1142.8 276.3 1143.12 274.22 1143.76C272.14 1144.4 270.34 1145.48 268.82 1147C267.3 1148.52 266.1 1150.56 265.22 1153.12C264.34 1155.68 263.9 1158.92 263.9 1162.84C263.9 1167.16 264.78 1170.84 266.54 1173.88C268.38 1176.84 270.7 1179.12 273.5 1180.72C276.38 1182.24 279.42 1183 282.62 1183C285.58 1183 287.94 1182.76 289.7 1182.28C291.46 1181.8 292.86 1181.24 293.9 1180.6C295.02 1179.88 296.02 1179.28 296.9 1178.8C298.34 1178.08 299.7 1177.72 300.98 1177.72C302.74 1177.72 304.18 1178.32 305.3 1179.52C306.5 1180.72 307.1 1182.12 307.1 1183.72C307.1 1185.88 305.98 1187.84 303.74 1189.6C301.66 1191.36 298.74 1192.92 294.98 1194.28C291.22 1195.56 287.34 1196.2 283.34 1196.2ZM312.961 1185.04C312.161 1183.92 311.801 1182.48 311.881 1180.72C311.961 1178.96 313.001 1177.44 315.001 1176.16C316.281 1175.36 317.641 1175.04 319.081 1175.2C320.521 1175.28 321.921 1176 323.281 1177.36C325.601 1179.68 328.041 1181.48 330.601 1182.76C333.161 1184.04 336.361 1184.68 340.201 1184.68C341.401 1184.6 342.721 1184.44 344.161 1184.2C345.601 1183.88 346.841 1183.24 347.881 1182.28C349.001 1181.24 349.561 1179.68 349.561 1177.6C349.561 1175.84 348.961 1174.44 347.761 1173.4C346.561 1172.36 344.961 1171.48 342.961 1170.76C341.041 1170.04 338.881 1169.36 336.481 1168.72C334.001 1168 331.441 1167.2 328.801 1166.32C326.241 1165.44 323.881 1164.32 321.721 1162.96C319.561 1161.52 317.801 1159.64 316.441 1157.32C315.081 1155 314.401 1152.08 314.401 1148.56C314.401 1144.56 315.521 1141.16 317.761 1138.36C320.001 1135.56 322.881 1133.4 326.401 1131.88C330.001 1130.36 333.761 1129.6 337.681 1129.6C340.161 1129.6 342.761 1129.92 345.481 1130.56C348.201 1131.12 350.801 1132.08 353.281 1133.44C355.761 1134.72 357.841 1136.44 359.521 1138.6C360.401 1139.8 360.921 1141.24 361.081 1142.92C361.241 1144.6 360.481 1146.12 358.801 1147.48C357.601 1148.44 356.201 1148.88 354.601 1148.8C353.001 1148.64 351.681 1148.08 350.641 1147.12C349.281 1145.36 347.441 1143.96 345.121 1142.92C342.881 1141.88 340.281 1141.36 337.321 1141.36C336.121 1141.36 334.801 1141.52 333.361 1141.84C332.001 1142.08 330.801 1142.68 329.761 1143.64C328.721 1144.52 328.201 1145.96 328.201 1147.96C328.201 1149.8 328.801 1151.28 330.001 1152.4C331.201 1153.44 332.801 1154.32 334.801 1155.04C336.881 1155.68 339.081 1156.32 341.401 1156.96C343.801 1157.6 346.241 1158.36 348.721 1159.24C351.201 1160.12 353.481 1161.28 355.561 1162.72C357.641 1164.16 359.321 1166.04 360.601 1168.36C361.881 1170.6 362.521 1173.48 362.521 1177C362.521 1181.08 361.321 1184.56 358.921 1187.44C356.521 1190.32 353.521 1192.52 349.921 1194.04C346.321 1195.48 342.641 1196.2 338.881 1196.2C334.161 1196.2 329.441 1195.4 324.721 1193.8C320.001 1192.12 316.081 1189.2 312.961 1185.04ZM368.092 1132H396.532C398.452 1132 400.052 1132.64 401.332 1133.92C402.612 1135.2 403.252 1136.8 403.252 1138.72C403.252 1140.56 402.612 1142.12 401.332 1143.4C400.052 1144.6 398.452 1145.2 396.532 1145.2H368.092C366.172 1145.2 364.572 1144.56 363.292 1143.28C362.012 1142 361.372 1140.4 361.372 1138.48C361.372 1136.64 362.012 1135.12 363.292 1133.92C364.572 1132.64 366.172 1132 368.092 1132ZM380.932 1117C383.012 1117 384.692 1117.72 385.972 1119.16C387.332 1120.52 388.012 1122.24 388.012 1124.32V1177.72C388.012 1178.84 388.212 1179.76 388.612 1180.48C389.092 1181.2 389.692 1181.72 390.412 1182.04C391.212 1182.36 392.052 1182.52 392.932 1182.52C393.892 1182.52 394.772 1182.36 395.572 1182.04C396.372 1181.64 397.292 1181.44 398.332 1181.44C399.452 1181.44 400.452 1181.96 401.332 1183C402.292 1184.04 402.772 1185.48 402.772 1187.32C402.772 1189.56 401.532 1191.4 399.052 1192.84C396.652 1194.28 394.052 1195 391.252 1195C389.572 1195 387.692 1194.88 385.612 1194.64C383.612 1194.32 381.692 1193.64 379.852 1192.6C378.092 1191.48 376.612 1189.8 375.412 1187.56C374.212 1185.32 373.612 1182.24 373.612 1178.32V1124.32C373.612 1122.24 374.292 1120.52 375.652 1119.16C377.092 1117.72 378.852 1117 380.932 1117ZM422.833 1187.68C422.833 1189.76 422.153 1191.52 420.793 1192.96C419.433 1194.32 417.713 1195 415.633 1195C413.553 1195 411.833 1194.32 410.473 1192.96C409.113 1191.52 408.433 1189.76 408.433 1187.68V1138.12C408.433 1136.04 409.113 1134.32 410.473 1132.96C411.833 1131.52 413.553 1130.8 415.633 1130.8C417.713 1130.8 419.433 1131.52 420.793 1132.96C422.153 1134.32 422.833 1136.04 422.833 1138.12V1187.68ZM415.513 1123C412.793 1123 410.873 1122.56 409.753 1121.68C408.633 1120.8 408.073 1119.24 408.073 1117V1114.72C408.073 1112.4 408.673 1110.84 409.873 1110.04C411.153 1109.16 413.073 1108.72 415.633 1108.72C418.433 1108.72 420.393 1109.16 421.513 1110.04C422.633 1110.92 423.193 1112.48 423.193 1114.72V1117C423.193 1119.32 422.593 1120.92 421.393 1121.8C420.193 1122.6 418.233 1123 415.513 1123ZM464.753 1129.6C470.673 1129.6 475.153 1130.84 478.193 1133.32C481.313 1135.8 483.433 1139.12 484.553 1143.28C485.753 1147.36 486.353 1151.92 486.353 1156.96V1187.68C486.353 1189.76 485.673 1191.52 484.313 1192.96C482.953 1194.32 481.233 1195 479.153 1195C477.073 1195 475.353 1194.32 473.993 1192.96C472.633 1191.52 471.953 1189.76 471.953 1187.68V1156.96C471.953 1154.32 471.593 1151.96 470.873 1149.88C470.233 1147.72 469.033 1146 467.273 1144.72C465.513 1143.44 462.993 1142.8 459.713 1142.8C456.513 1142.8 453.793 1143.44 451.553 1144.72C449.393 1146 447.713 1147.72 446.513 1149.88C445.393 1151.96 444.833 1154.32 444.833 1156.96V1187.68C444.833 1189.76 444.153 1191.52 442.793 1192.96C441.433 1194.32 439.713 1195 437.633 1195C435.553 1195 433.833 1194.32 432.473 1192.96C431.113 1191.52 430.433 1189.76 430.433 1187.68V1138.12C430.433 1136.04 431.113 1134.32 432.473 1132.96C433.833 1131.52 435.553 1130.8 437.633 1130.8C439.713 1130.8 441.433 1131.52 442.793 1132.96C444.153 1134.32 444.833 1136.04 444.833 1138.12V1143.28L443.033 1142.92C443.753 1141.56 444.793 1140.12 446.153 1138.6C447.513 1137 449.113 1135.52 450.953 1134.16C452.793 1132.8 454.873 1131.72 457.193 1130.92C459.513 1130.04 462.033 1129.6 464.753 1129.6ZM556.997 1162.96C556.997 1169.52 555.517 1175.32 552.557 1180.36C549.677 1185.32 545.757 1189.2 540.797 1192C535.917 1194.8 530.437 1196.2 524.357 1196.2C518.277 1196.2 512.757 1194.8 507.797 1192C502.917 1189.2 498.997 1185.32 496.037 1180.36C493.157 1175.32 491.717 1169.52 491.717 1162.96C491.717 1156.4 493.157 1150.64 496.037 1145.68C498.997 1140.64 502.917 1136.72 507.797 1133.92C512.757 1131.04 518.277 1129.6 524.357 1129.6C530.437 1129.6 535.917 1131.04 540.797 1133.92C545.757 1136.72 549.677 1140.64 552.557 1145.68C555.517 1150.64 556.997 1156.4 556.997 1162.96ZM542.597 1162.96C542.597 1158.88 541.757 1155.36 540.077 1152.4C538.477 1149.36 536.277 1147 533.477 1145.32C530.757 1143.64 527.717 1142.8 524.357 1142.8C520.997 1142.8 517.917 1143.64 515.117 1145.32C512.397 1147 510.197 1149.36 508.517 1152.4C506.917 1155.36 506.117 1158.88 506.117 1162.96C506.117 1166.96 506.917 1170.48 508.517 1173.52C510.197 1176.48 512.397 1178.8 515.117 1180.48C517.917 1182.16 520.997 1183 524.357 1183C527.717 1183 530.757 1182.16 533.477 1180.48C536.277 1178.8 538.477 1176.48 540.077 1173.52C541.757 1170.48 542.597 1166.96 542.597 1162.96ZM641.393 1106.2C643.473 1106.2 645.193 1106.88 646.553 1108.24C647.913 1109.6 648.593 1111.36 648.593 1113.52V1187.68C648.593 1189.76 647.913 1191.52 646.553 1192.96C645.193 1194.32 643.473 1195 641.393 1195C639.313 1195 637.593 1194.32 636.233 1192.96C634.873 1191.52 634.193 1189.76 634.193 1187.68V1181.8L636.833 1182.88C636.833 1183.92 636.273 1185.2 635.153 1186.72C634.033 1188.16 632.513 1189.6 630.593 1191.04C628.673 1192.48 626.393 1193.72 623.753 1194.76C621.193 1195.72 618.393 1196.2 615.353 1196.2C609.833 1196.2 604.833 1194.8 600.353 1192C595.873 1189.12 592.313 1185.2 589.673 1180.24C587.113 1175.2 585.833 1169.44 585.833 1162.96C585.833 1156.4 587.113 1150.64 589.673 1145.68C592.313 1140.64 595.833 1136.72 600.233 1133.92C604.633 1131.04 609.513 1129.6 614.873 1129.6C618.313 1129.6 621.473 1130.12 624.353 1131.16C627.233 1132.2 629.713 1133.52 631.793 1135.12C633.953 1136.72 635.593 1138.36 636.713 1140.04C637.913 1141.64 638.513 1143 638.513 1144.12L634.193 1145.68V1113.52C634.193 1111.44 634.873 1109.72 636.233 1108.36C637.593 1106.92 639.313 1106.2 641.393 1106.2ZM617.153 1183C620.673 1183 623.753 1182.12 626.393 1180.36C629.033 1178.6 631.073 1176.2 632.513 1173.16C634.033 1170.12 634.793 1166.72 634.793 1162.96C634.793 1159.12 634.033 1155.68 632.513 1152.64C631.073 1149.6 629.033 1147.2 626.393 1145.44C623.753 1143.68 620.673 1142.8 617.153 1142.8C613.713 1142.8 610.673 1143.68 608.033 1145.44C605.393 1147.2 603.313 1149.6 601.793 1152.64C600.353 1155.68 599.633 1159.12 599.633 1162.96C599.633 1166.72 600.353 1170.12 601.793 1173.16C603.313 1176.2 605.393 1178.6 608.033 1180.36C610.673 1182.12 613.713 1183 617.153 1183ZM687.224 1196.2C680.424 1196.2 674.504 1194.8 669.464 1192C664.504 1189.12 660.664 1185.24 657.944 1180.36C655.304 1175.48 653.984 1169.96 653.984 1163.8C653.984 1156.6 655.424 1150.48 658.304 1145.44C661.264 1140.32 665.104 1136.4 669.824 1133.68C674.544 1130.96 679.544 1129.6 684.824 1129.6C688.904 1129.6 692.744 1130.44 696.344 1132.12C700.024 1133.8 703.264 1136.12 706.064 1139.08C708.864 1141.96 711.064 1145.32 712.664 1149.16C714.344 1153 715.184 1157.08 715.184 1161.4C715.104 1163.32 714.344 1164.88 712.904 1166.08C711.464 1167.28 709.784 1167.88 707.864 1167.88H662.024L658.424 1155.88H702.464L699.824 1158.28V1155.04C699.664 1152.72 698.824 1150.64 697.304 1148.8C695.864 1146.96 694.024 1145.52 691.784 1144.48C689.624 1143.36 687.304 1142.8 684.824 1142.8C682.424 1142.8 680.184 1143.12 678.104 1143.76C676.024 1144.4 674.224 1145.48 672.704 1147C671.184 1148.52 669.984 1150.56 669.104 1153.12C668.224 1155.68 667.784 1158.92 667.784 1162.84C667.784 1167.16 668.664 1170.84 670.424 1173.88C672.264 1176.84 674.584 1179.12 677.384 1180.72C680.264 1182.24 683.304 1183 686.504 1183C689.464 1183 691.824 1182.76 693.584 1182.28C695.344 1181.8 696.744 1181.24 697.784 1180.6C698.904 1179.88 699.904 1179.28 700.784 1178.8C702.224 1178.08 703.584 1177.72 704.864 1177.72C706.624 1177.72 708.064 1178.32 709.184 1179.52C710.384 1180.72 710.984 1182.12 710.984 1183.72C710.984 1185.88 709.864 1187.84 707.624 1189.6C705.544 1191.36 702.624 1192.92 698.864 1194.28C695.104 1195.56 691.224 1196.2 687.224 1196.2ZM762.598 1187.68C762.598 1189.76 761.878 1191.52 760.438 1192.96C759.078 1194.32 757.358 1195 755.278 1195C753.278 1195 751.598 1194.32 750.238 1192.96C748.878 1191.52 748.198 1189.76 748.198 1187.68V1113.52C748.198 1111.44 748.878 1109.72 750.238 1108.36C751.678 1106.92 753.438 1106.2 755.518 1106.2C757.598 1106.2 759.278 1106.92 760.558 1108.36C761.918 1109.72 762.598 1111.44 762.598 1113.52V1187.68ZM833.25 1162.96C833.25 1169.52 831.77 1175.32 828.81 1180.36C825.93 1185.32 822.01 1189.2 817.05 1192C812.17 1194.8 806.69 1196.2 800.61 1196.2C794.53 1196.2 789.01 1194.8 784.05 1192C779.17 1189.2 775.25 1185.32 772.29 1180.36C769.41 1175.32 767.97 1169.52 767.97 1162.96C767.97 1156.4 769.41 1150.64 772.29 1145.68C775.25 1140.64 779.17 1136.72 784.05 1133.92C789.01 1131.04 794.53 1129.6 800.61 1129.6C806.69 1129.6 812.17 1131.04 817.05 1133.92C822.01 1136.72 825.93 1140.64 828.81 1145.68C831.77 1150.64 833.25 1156.4 833.25 1162.96ZM818.85 1162.96C818.85 1158.88 818.01 1155.36 816.33 1152.4C814.73 1149.36 812.53 1147 809.73 1145.32C807.01 1143.64 803.97 1142.8 800.61 1142.8C797.25 1142.8 794.17 1143.64 791.37 1145.32C788.65 1147 786.45 1149.36 784.77 1152.4C783.17 1155.36 782.37 1158.88 782.37 1162.96C782.37 1166.96 783.17 1170.48 784.77 1173.52C786.45 1176.48 788.65 1178.8 791.37 1180.48C794.17 1182.16 797.25 1183 800.61 1183C803.97 1183 807.01 1182.16 809.73 1180.48C812.53 1178.8 814.73 1176.48 816.33 1173.52C818.01 1170.48 818.85 1166.96 818.85 1162.96ZM834.933 1185.04C834.133 1183.92 833.773 1182.48 833.853 1180.72C833.933 1178.96 834.973 1177.44 836.973 1176.16C838.253 1175.36 839.613 1175.04 841.053 1175.2C842.493 1175.28 843.893 1176 845.253 1177.36C847.573 1179.68 850.013 1181.48 852.573 1182.76C855.133 1184.04 858.333 1184.68 862.173 1184.68C863.373 1184.6 864.693 1184.44 866.133 1184.2C867.573 1183.88 868.813 1183.24 869.853 1182.28C870.973 1181.24 871.533 1179.68 871.533 1177.6C871.533 1175.84 870.933 1174.44 869.733 1173.4C868.533 1172.36 866.933 1171.48 864.933 1170.76C863.013 1170.04 860.853 1169.36 858.453 1168.72C855.973 1168 853.413 1167.2 850.773 1166.32C848.213 1165.44 845.853 1164.32 843.693 1162.96C841.533 1161.52 839.773 1159.64 838.413 1157.32C837.053 1155 836.373 1152.08 836.373 1148.56C836.373 1144.56 837.493 1141.16 839.733 1138.36C841.973 1135.56 844.853 1133.4 848.373 1131.88C851.973 1130.36 855.733 1129.6 859.653 1129.6C862.133 1129.6 864.733 1129.92 867.453 1130.56C870.173 1131.12 872.773 1132.08 875.253 1133.44C877.733 1134.72 879.813 1136.44 881.493 1138.6C882.373 1139.8 882.893 1141.24 883.053 1142.92C883.213 1144.6 882.453 1146.12 880.773 1147.48C879.573 1148.44 878.173 1148.88 876.573 1148.8C874.973 1148.64 873.653 1148.08 872.613 1147.12C871.253 1145.36 869.413 1143.96 867.093 1142.92C864.853 1141.88 862.253 1141.36 859.293 1141.36C858.093 1141.36 856.773 1141.52 855.333 1141.84C853.973 1142.08 852.773 1142.68 851.733 1143.64C850.693 1144.52 850.173 1145.96 850.173 1147.96C850.173 1149.8 850.773 1151.28 851.973 1152.4C853.173 1153.44 854.773 1154.32 856.773 1155.04C858.853 1155.68 861.053 1156.32 863.373 1156.96C865.773 1157.6 868.213 1158.36 870.693 1159.24C873.173 1160.12 875.453 1161.28 877.533 1162.72C879.613 1164.16 881.293 1166.04 882.573 1168.36C883.853 1170.6 884.493 1173.48 884.493 1177C884.493 1181.08 883.293 1184.56 880.893 1187.44C878.493 1190.32 875.493 1192.52 871.893 1194.04C868.293 1195.48 864.613 1196.2 860.853 1196.2C856.133 1196.2 851.413 1195.4 846.693 1193.8C841.973 1192.12 838.053 1189.2 834.933 1185.04ZM948.777 1106.2C950.537 1106.2 952.257 1106.44 953.937 1106.92C955.617 1107.4 957.017 1108.2 958.137 1109.32C959.257 1110.36 959.817 1111.76 959.817 1113.52C959.817 1115.52 959.217 1117.12 958.017 1118.32C956.897 1119.44 955.577 1120 954.057 1120C953.337 1120 952.257 1119.84 950.817 1119.52C949.377 1119.12 947.977 1118.92 946.617 1118.92C944.617 1118.92 943.057 1119.36 941.937 1120.24C940.897 1121.12 940.177 1122.16 939.777 1123.36C939.377 1124.48 939.177 1125.48 939.177 1126.36V1187.68C939.177 1189.76 938.497 1191.52 937.137 1192.96C935.777 1194.32 934.057 1195 931.977 1195C929.897 1195 928.177 1194.32 926.817 1192.96C925.457 1191.52 924.777 1189.76 924.777 1187.68V1126.48C924.777 1120.8 926.777 1116 930.777 1112.08C934.777 1108.16 940.777 1106.2 948.777 1106.2ZM950.097 1132C952.017 1132 953.617 1132.64 954.897 1133.92C956.177 1135.12 956.817 1136.68 956.817 1138.6C956.817 1140.52 956.177 1142.12 954.897 1143.4C953.617 1144.6 952.017 1145.2 950.097 1145.2H918.297C916.377 1145.2 914.777 1144.6 913.497 1143.4C912.217 1142.12 911.577 1140.52 911.577 1138.6C911.577 1136.68 912.217 1135.12 913.497 1133.92C914.777 1132.64 916.377 1132 918.297 1132H950.097ZM1019.61 1162.96C1019.61 1169.52 1018.13 1175.32 1015.17 1180.36C1012.29 1185.32 1008.37 1189.2 1003.41 1192C998.527 1194.8 993.047 1196.2 986.967 1196.2C980.887 1196.2 975.367 1194.8 970.407 1192C965.527 1189.2 961.607 1185.32 958.647 1180.36C955.767 1175.32 954.327 1169.52 954.327 1162.96C954.327 1156.4 955.767 1150.64 958.647 1145.68C961.607 1140.64 965.527 1136.72 970.407 1133.92C975.367 1131.04 980.887 1129.6 986.967 1129.6C993.047 1129.6 998.527 1131.04 1003.41 1133.92C1008.37 1136.72 1012.29 1140.64 1015.17 1145.68C1018.13 1150.64 1019.61 1156.4 1019.61 1162.96ZM1005.21 1162.96C1005.21 1158.88 1004.37 1155.36 1002.69 1152.4C1001.09 1149.36 998.887 1147 996.087 1145.32C993.367 1143.64 990.327 1142.8 986.967 1142.8C983.607 1142.8 980.527 1143.64 977.727 1145.32C975.007 1147 972.807 1149.36 971.127 1152.4C969.527 1155.36 968.727 1158.88 968.727 1162.96C968.727 1166.96 969.527 1170.48 971.127 1173.52C972.807 1176.48 975.007 1178.8 977.727 1180.48C980.527 1182.16 983.607 1183 986.967 1183C990.327 1183 993.367 1182.16 996.087 1180.48C998.887 1178.8 1001.09 1176.48 1002.69 1173.52C1004.37 1170.48 1005.21 1166.96 1005.21 1162.96ZM1059.33 1129.6C1065.25 1129.6 1069.73 1130.84 1072.77 1133.32C1075.89 1135.8 1078.01 1139.12 1079.13 1143.28C1080.33 1147.36 1080.93 1151.92 1080.93 1156.96V1187.68C1080.93 1189.76 1080.25 1191.52 1078.89 1192.96C1077.53 1194.32 1075.81 1195 1073.73 1195C1071.65 1195 1069.93 1194.32 1068.57 1192.96C1067.21 1191.52 1066.53 1189.76 1066.53 1187.68V1156.96C1066.53 1154.32 1066.17 1151.96 1065.45 1149.88C1064.81 1147.72 1063.61 1146 1061.85 1144.72C1060.09 1143.44 1057.57 1142.8 1054.29 1142.8C1051.09 1142.8 1048.37 1143.44 1046.13 1144.72C1043.97 1146 1042.29 1147.72 1041.09 1149.88C1039.97 1151.96 1039.41 1154.32 1039.41 1156.96V1187.68C1039.41 1189.76 1038.73 1191.52 1037.37 1192.96C1036.01 1194.32 1034.29 1195 1032.21 1195C1030.13 1195 1028.41 1194.32 1027.05 1192.96C1025.69 1191.52 1025.01 1189.76 1025.01 1187.68V1138.12C1025.01 1136.04 1025.69 1134.32 1027.05 1132.96C1028.41 1131.52 1030.13 1130.8 1032.21 1130.8C1034.29 1130.8 1036.01 1131.52 1037.37 1132.96C1038.73 1134.32 1039.41 1136.04 1039.41 1138.12V1143.28L1037.61 1142.92C1038.33 1141.56 1039.37 1140.12 1040.73 1138.6C1042.09 1137 1043.69 1135.52 1045.53 1134.16C1047.37 1132.8 1049.45 1131.72 1051.77 1130.92C1054.09 1130.04 1056.61 1129.6 1059.33 1129.6ZM1141.85 1106.2C1143.93 1106.2 1145.65 1106.88 1147.01 1108.24C1148.37 1109.6 1149.05 1111.36 1149.05 1113.52V1187.68C1149.05 1189.76 1148.37 1191.52 1147.01 1192.96C1145.65 1194.32 1143.93 1195 1141.85 1195C1139.77 1195 1138.05 1194.32 1136.69 1192.96C1135.33 1191.52 1134.65 1189.76 1134.65 1187.68V1181.8L1137.29 1182.88C1137.29 1183.92 1136.73 1185.2 1135.61 1186.72C1134.49 1188.16 1132.97 1189.6 1131.05 1191.04C1129.13 1192.48 1126.85 1193.72 1124.21 1194.76C1121.65 1195.72 1118.85 1196.2 1115.81 1196.2C1110.29 1196.2 1105.29 1194.8 1100.81 1192C1096.33 1189.12 1092.77 1185.2 1090.13 1180.24C1087.57 1175.2 1086.29 1169.44 1086.29 1162.96C1086.29 1156.4 1087.57 1150.64 1090.13 1145.68C1092.77 1140.64 1096.29 1136.72 1100.69 1133.92C1105.09 1131.04 1109.97 1129.6 1115.33 1129.6C1118.77 1129.6 1121.93 1130.12 1124.81 1131.16C1127.69 1132.2 1130.17 1133.52 1132.25 1135.12C1134.41 1136.72 1136.05 1138.36 1137.17 1140.04C1138.37 1141.64 1138.97 1143 1138.97 1144.12L1134.65 1145.68V1113.52C1134.65 1111.44 1135.33 1109.72 1136.69 1108.36C1138.05 1106.92 1139.77 1106.2 1141.85 1106.2ZM1117.61 1183C1121.13 1183 1124.21 1182.12 1126.85 1180.36C1129.49 1178.6 1131.53 1176.2 1132.97 1173.16C1134.49 1170.12 1135.25 1166.72 1135.25 1162.96C1135.25 1159.12 1134.49 1155.68 1132.97 1152.64C1131.53 1149.6 1129.49 1147.2 1126.85 1145.44C1124.21 1143.68 1121.13 1142.8 1117.61 1142.8C1114.17 1142.8 1111.13 1143.68 1108.49 1145.44C1105.85 1147.2 1103.77 1149.6 1102.25 1152.64C1100.81 1155.68 1100.09 1159.12 1100.09 1162.96C1100.09 1166.72 1100.81 1170.12 1102.25 1173.16C1103.77 1176.2 1105.85 1178.6 1108.49 1180.36C1111.13 1182.12 1114.17 1183 1117.61 1183ZM1219.73 1162.96C1219.73 1169.52 1218.25 1175.32 1215.29 1180.36C1212.41 1185.32 1208.49 1189.2 1203.53 1192C1198.65 1194.8 1193.17 1196.2 1187.09 1196.2C1181.01 1196.2 1175.49 1194.8 1170.53 1192C1165.65 1189.2 1161.73 1185.32 1158.77 1180.36C1155.89 1175.32 1154.45 1169.52 1154.45 1162.96C1154.45 1156.4 1155.89 1150.64 1158.77 1145.68C1161.73 1140.64 1165.65 1136.72 1170.53 1133.92C1175.49 1131.04 1181.01 1129.6 1187.09 1129.6C1193.17 1129.6 1198.65 1131.04 1203.53 1133.92C1208.49 1136.72 1212.41 1140.64 1215.29 1145.68C1218.25 1150.64 1219.73 1156.4 1219.73 1162.96ZM1205.33 1162.96C1205.33 1158.88 1204.49 1155.36 1202.81 1152.4C1201.21 1149.36 1199.01 1147 1196.21 1145.32C1193.49 1143.64 1190.45 1142.8 1187.09 1142.8C1183.73 1142.8 1180.65 1143.64 1177.85 1145.32C1175.13 1147 1172.93 1149.36 1171.25 1152.4C1169.65 1155.36 1168.85 1158.88 1168.85 1162.96C1168.85 1166.96 1169.65 1170.48 1171.25 1173.52C1172.93 1176.48 1175.13 1178.8 1177.85 1180.48C1180.65 1182.16 1183.73 1183 1187.09 1183C1190.45 1183 1193.49 1182.16 1196.21 1180.48C1199.01 1178.8 1201.21 1176.48 1202.81 1173.52C1204.49 1170.48 1205.33 1166.96 1205.33 1162.96ZM1221.41 1185.04C1220.61 1183.92 1220.25 1182.48 1220.33 1180.72C1220.41 1178.96 1221.45 1177.44 1223.45 1176.16C1224.73 1175.36 1226.09 1175.04 1227.53 1175.2C1228.97 1175.28 1230.37 1176 1231.73 1177.36C1234.05 1179.68 1236.49 1181.48 1239.05 1182.76C1241.61 1184.04 1244.81 1184.68 1248.65 1184.68C1249.85 1184.6 1251.17 1184.44 1252.61 1184.2C1254.05 1183.88 1255.29 1183.24 1256.33 1182.28C1257.45 1181.24 1258.01 1179.68 1258.01 1177.6C1258.01 1175.84 1257.41 1174.44 1256.21 1173.4C1255.01 1172.36 1253.41 1171.48 1251.41 1170.76C1249.49 1170.04 1247.33 1169.36 1244.93 1168.72C1242.45 1168 1239.89 1167.2 1237.25 1166.32C1234.69 1165.44 1232.33 1164.32 1230.17 1162.96C1228.01 1161.52 1226.25 1159.64 1224.89 1157.32C1223.53 1155 1222.85 1152.08 1222.85 1148.56C1222.85 1144.56 1223.97 1141.16 1226.21 1138.36C1228.45 1135.56 1231.33 1133.4 1234.85 1131.88C1238.45 1130.36 1242.21 1129.6 1246.13 1129.6C1248.61 1129.6 1251.21 1129.92 1253.93 1130.56C1256.65 1131.12 1259.25 1132.08 1261.73 1133.44C1264.21 1134.72 1266.29 1136.44 1267.97 1138.6C1268.85 1139.8 1269.37 1141.24 1269.53 1142.92C1269.69 1144.6 1268.93 1146.12 1267.25 1147.48C1266.05 1148.44 1264.65 1148.88 1263.05 1148.8C1261.45 1148.64 1260.13 1148.08 1259.09 1147.12C1257.73 1145.36 1255.89 1143.96 1253.57 1142.92C1251.33 1141.88 1248.73 1141.36 1245.77 1141.36C1244.57 1141.36 1243.25 1141.52 1241.81 1141.84C1240.45 1142.08 1239.25 1142.68 1238.21 1143.64C1237.17 1144.52 1236.65 1145.96 1236.65 1147.96C1236.65 1149.8 1237.25 1151.28 1238.45 1152.4C1239.65 1153.44 1241.25 1154.32 1243.25 1155.04C1245.33 1155.68 1247.53 1156.32 1249.85 1156.96C1252.25 1157.6 1254.69 1158.36 1257.17 1159.24C1259.65 1160.12 1261.93 1161.28 1264.01 1162.72C1266.09 1164.16 1267.77 1166.04 1269.05 1168.36C1270.33 1170.6 1270.97 1173.48 1270.97 1177C1270.97 1181.08 1269.77 1184.56 1267.37 1187.44C1264.97 1190.32 1261.97 1192.52 1258.37 1194.04C1254.77 1195.48 1251.09 1196.2 1247.33 1196.2C1242.61 1196.2 1237.89 1195.4 1233.17 1193.8C1228.45 1192.12 1224.53 1189.2 1221.41 1185.04Z" fill="white"/>
<defs>
<filter id="filter0_f_811_1570" x="-1108" y="23" width="2273" height="2273" filterUnits="userSpaceOnUse" color-interpolation-filters="sRGB">
<feFlood flood-opacity="0" result="BackgroundImageFix"/>
<feBlend mode="normal" in="SourceGraphic" in2="BackgroundImageFix" result="shape"/>
<feGaussianBlur stdDeviation="500" result="effect1_foregroundBlur_811_1570"/>
</filter>
<filter id="filter1_f_811_1570" x="101" y="0" width="2617" height="2617" filterUnits="userSpaceOnUse" color-interpolation-filters="sRGB">
<feFlood flood-opacity="0" result="BackgroundImageFix"/>
<feBlend mode="normal" in="SourceGraphic" in2="BackgroundImageFix" result="shape"/>
<feGaussianBlur stdDeviation="500" result="effect1_foregroundBlur_811_1570"/>
</filter>
</defs>
</svg>
