<svg width="300" height="200" viewBox="0 0 300 200" fill="none" xmlns="http://www.w3.org/2000/svg">
  <!-- Background hills -->
  <path d="M0 200C50 150 100 180 150 150C200 120 250 150 300 120L300 200L0 200Z" fill="#7bed9f"/>
  <path d="M0 200C30 170 60 190 90 180C120 170 150 190 180 180C210 170 240 190 270 180C300 170 300 200 300 200L0 200Z" fill="#4a8c67"/>
  
  <!-- Small details -->
  <path d="M30 170C35 165 40 170 45 165" stroke="#2c6e49" stroke-width="2" stroke-linecap="round"/>
  <path d="M70 180C75 175 80 180 85 175" stroke="#2c6e49" stroke-width="2" stroke-linecap="round"/>
  <path d="M120 170C125 165 130 170 135 165" stroke="#2c6e49" stroke-width="2" stroke-linecap="round"/>
  <path d="M200 180C205 175 210 180 215 175" stroke="#2c6e49" stroke-width="2" stroke-linecap="round"/>
  <path d="M250 170C255 165 260 170 265 165" stroke="#2c6e49" stroke-width="2" stroke-linecap="round"/>
</svg>

