<svg width="300" height="400" viewBox="0 0 300 400" fill="none" xmlns="http://www.w3.org/2000/svg">
  <!-- Llama body -->
  <path d="M150 350C180 350 200 320 200 280C200 240 180 200 150 200C120 200 100 240 100 280C100 320 120 350 150 350Z" fill="white" stroke="#333" stroke-width="2"/>
  
  <!-- Llama neck and head -->
  <path d="M150 200C150 200 140 150 140 120C140 90 160 70 180 70C200 70 220 90 220 110C220 130 200 150 180 150" fill="white" stroke="#333" stroke-width="2"/>
  
  <!-- Llama face -->
  <ellipse cx="200" cy="90" rx="20" ry="25" fill="white" stroke="#333" stroke-width="2"/>
  <circle cx="210" cy="85" r="3" fill="black"/>
  <circle cx="190" cy="85" r="3" fill="black"/>
  <path d="M195 95C200 100 205 95 210 95" stroke="black" stroke-width="2" stroke-linecap="round"/>
  <path d="M185 75C180 70 175 65 175 60C175 55 180 50 185 50C190 50 195 55 195 60C195 65 190 70 185 75Z" fill="#ffc0cb" stroke="#333" stroke-width="1"/>
  <path d="M215 75C220 70 225 65 225 60C225 55 220 50 215 50C210 50 205 55 205 60C205 65 210 70 215 75Z" fill="#ffc0cb" stroke="#333" stroke-width="1"/>
  
  <!-- Llama legs -->
  <line x1="120" y1="350" x2="120" y2="390" stroke="#333" stroke-width="4"/>
  <line x1="140" y1="350" x2="140" y2="390" stroke="#333" stroke-width="4"/>
  <line x1="160" y1="350" x2="160" y2="390" stroke="#333" stroke-width="4"/>
  <line x1="180" y1="350" x2="180" y2="390" stroke="#333" stroke-width="4"/>
  
  <!-- Llama decorations -->
  <circle cx="150" cy="230" r="5" fill="#ff6b6b"/>
  <circle cx="150" cy="260" r="5" fill="#ff6b6b"/>
  <circle cx="150" cy="290" r="5" fill="#ff6b6b"/>
  <circle cx="150" cy="320" r="5" fill="#ff6b6b"/>
  
  <!-- Rainbow decoration -->
  <path d="M180 280C190 270 200 280 210 280" stroke="red" stroke-width="4" stroke-linecap="round"/>
  <path d="M180 285C190 275 200 285 210 285" stroke="orange" stroke-width="4" stroke-linecap="round"/>
  <path d="M180 290C190 280 200 290 210 290" stroke="yellow" stroke-width="4" stroke-linecap="round"/>
  <path d="M180 295C190 285 200 295 210 295" stroke="green" stroke-width="4" stroke-linecap="round"/>
  <path d="M180 300C190 290 200 300 210 300" stroke="blue" stroke-width="4" stroke-linecap="round"/>
  <path d="M180 305C190 295 200 305 210 305" stroke="purple" stroke-width="4" stroke-linecap="round"/>
</svg>

