<svg width="400" height="500" viewBox="0 0 400 500" fill="none" xmlns="http://www.w3.org/2000/svg">
  <!-- Body -->
  <path d="M200 450c50 0 90-40 90-90V200c0-50-40-90-90-90s-90 40-90 90v160c0 50 40 90 90 90z" fill="white"/>
  
  <!-- Head -->
  <path d="M200 110c30 0 54-24 54-54S230 2 200 2s-54 24-54 54 24 54 54 54z" fill="white"/>
  
  <!-- Ears -->
  <path d="M160 40c0-11 9-20 20-20s20 9 20 20-9 20-20 20-20-9-20-20z" fill="#FFE5D9"/>
  <path d="M240 40c0-11 9-20 20-20s20 9 20 20-9 20-20 20-20-9-20-20z" fill="#FFE5D9"/>
  
  <!-- Face -->
  <circle cx="185" cy="30" r="5" fill="black"/>
  <circle cx="215" cy="30" r="5" fill="black"/>
  <path d="M200 45c8 0 15 4 19 10" stroke="black" stroke-width="3" stroke-linecap="round"/>
  
  <!-- Rainbow Decoration -->
  <path d="M240 300c10-10 20 0 30 0" stroke="#FF0000" stroke-width="6" stroke-linecap="round"/>
  <path d="M240 310c10-10 20 0 30 0" stroke="#FF7F00" stroke-width="6" stroke-linecap="round"/>
  <path d="M240 320c10-10 20 0 30 0" stroke="#FFFF00" stroke-width="6" stroke-linecap="round"/>
  <path d="M240 330c10-10 20 0 30 0" stroke="#00FF00" stroke-width="6" stroke-linecap="round"/>
  <path d="M240 340c10-10 20 0 30 0" stroke="#0000FF" stroke-width="6" stroke-linecap="round"/>
  <path d="M240 350c10-10 20 0 30 0" stroke="#4B0082" stroke-width="6" stroke-linecap="round"/>
  
  <!-- Decorative Dots -->
  <circle cx="200" cy="250" r="8" fill="#FF6B6B"/>
  <circle cx="200" cy="290" r="8" fill="#FF6B6B"/>
  <circle cx="200" cy="330" r="8" fill="#FF6B6B"/>
  <circle cx="200" cy="370" r="8" fill="#FF6B6B"/>
</svg>

