<svg width="1440" height="400" viewBox="0 0 1440 400" fill="none" xmlns="http://www.w3.org/2000/svg">
<g clip-path="url(#clip0_1_2)">
<path d="M1440 0H0V400H1440V0Z" fill="#478C5C"/>
<path d="M1292.97 283.38C1287.95 275.337 1283.48 265.205 1287.65 256.698C1288.26 255.383 1289.27 254.068 1290.65 253.604C1291.58 253.295 1292.66 253.449 1293.66 253.604C1297.83 254.532 1301.61 257.316 1303.85 260.951C1304.62 257.858 1305.39 254.764 1306.24 251.671C1306.47 250.665 1306.78 249.505 1307.71 248.964C1309.56 247.649 1312.03 249.66 1313.03 251.671C1314.03 253.759 1314.88 256.311 1317.12 256.852C1317.66 252.908 1318.2 248.886 1318.74 244.942C1319.2 241.229 1320.59 236.589 1324.3 236.048C1327.46 235.584 1330.01 238.6 1331.39 241.384C1333.94 246.643 1334.87 252.676 1333.94 258.477C1335.56 257.78 1336.33 256.002 1337.34 254.532C1338.34 253.14 1340.27 251.903 1341.81 252.831C1343.2 253.681 1343.12 255.692 1342.81 257.316C1341.58 264.432 1340.04 271.547 1338.11 278.508C1338.11 278.508 1329.39 298.23 1315.35 297.998C1301.15 297.766 1292.97 283.38 1292.97 283.38Z" fill="#407E53"/>
<path d="M675 400C675 400 393.842 280.964 0.169312 289.431L0 400H675Z" fill="#356945"/>
<path d="M28.9713 293.38C23.956 285.337 19.4808 275.205 23.6473 266.698C24.2646 265.383 25.2677 264.068 26.6565 263.604C27.5825 263.295 28.6627 263.449 29.6657 263.604C33.8323 264.532 37.6131 267.316 39.8507 270.951C40.6223 267.858 41.3939 264.764 42.2426 261.671C42.4741 260.665 42.7827 259.505 43.7086 258.964C45.5604 257.649 48.0295 259.66 49.0326 261.671C50.0357 263.759 50.8844 266.311 53.122 266.852C53.6621 262.908 54.2022 258.886 54.7423 254.942C55.2053 251.229 56.5941 246.589 60.2978 246.048C63.4613 245.584 66.0075 248.6 67.3964 251.384C69.9426 256.643 70.8685 262.676 69.9426 268.477C71.5629 267.78 72.3345 266.002 73.3376 264.532C74.3407 263.14 76.2696 261.903 77.8128 262.831C79.2017 263.681 79.1245 265.692 78.8159 267.316C77.5813 274.432 76.0382 281.547 74.1092 288.508C74.1092 288.508 65.3903 308.23 51.3474 307.998C37.1501 307.766 28.9713 293.38 28.9713 293.38Z" fill="#356945"/>
<path d="M521.842 349.521C520.036 348.799 518.591 348.619 516.966 348.257C516.244 348.077 515.341 348.077 514.619 347.896C513.896 347.896 512.993 347.716 512.09 347.896H511.91C510.826 347.896 510.104 348.98 510.104 349.883C510.104 350.244 510.285 350.605 510.646 350.966C511.368 351.869 512.271 352.411 513.174 352.772C514.077 353.133 515.16 353.494 516.244 353.675C518.23 353.855 520.397 353.675 522.203 352.591C522.926 352.049 523.287 350.966 522.745 350.244C522.564 349.883 522.203 349.702 521.842 349.521Z" fill="#BACC81"/>
<path d="M474.89 350.063C473.084 348.618 471.097 347.896 469.111 347.173C468.027 346.812 467.124 346.632 466.041 346.451C464.957 346.271 463.874 346.271 462.79 346.451C461.707 346.632 460.984 347.535 461.165 348.618C461.165 349.16 461.526 349.521 461.887 349.882C462.79 350.604 463.693 351.146 464.596 351.507C465.499 351.868 466.583 352.23 467.486 352.591C469.472 353.132 471.639 353.494 473.806 353.313C474.709 353.132 475.431 352.41 475.251 351.507C475.612 350.785 475.251 350.243 474.89 350.063Z" fill="#BACC81"/>
<path d="M531.989 376.598C530.183 374.792 528.016 373.709 525.849 372.806C524.765 372.264 523.682 371.903 522.418 371.542C521.334 371.181 520.07 371 518.806 371C517.722 371 517 371.722 517 372.806C517 373.348 517.18 373.889 517.542 374.25C518.445 375.153 519.528 375.876 520.612 376.417C521.695 376.959 522.779 377.501 523.862 378.042C526.029 378.945 528.377 379.668 530.905 379.668C531.808 379.668 532.53 378.945 532.711 378.042C532.53 377.32 532.35 376.959 531.989 376.598Z" fill="#BACC81"/>
<path d="M180.634 357.814C178.857 354.938 177.334 351.808 176.319 348.509C175.22 345.295 174.543 341.911 174.204 338.528C174.035 336.836 173.951 335.144 173.951 333.453C173.951 332.607 174.12 331.845 174.374 331.169C174.627 330.492 175.135 330.069 175.727 329.984C176.319 329.9 177.081 330.069 177.673 330.492C178.265 330.915 178.772 331.422 179.195 332.099C180.041 333.453 180.634 335.229 182.156 336.582C182.495 336.836 182.918 336.836 183.171 336.582C183.256 336.498 183.341 336.329 183.341 336.244C184.102 332.099 182.833 328.039 183.594 324.486C184.017 322.71 184.863 320.933 186.217 319.918C187.57 318.903 189.431 318.819 190.954 319.58C192.561 320.341 193.83 321.695 194.676 323.386C195.522 325.078 196.114 326.855 196.791 328.8L200.513 340.05C200.682 340.473 201.105 340.727 201.528 340.558C201.782 340.473 202.036 340.22 202.036 339.966C202.374 338.274 202.966 336.582 203.982 335.313C204.489 334.721 205.081 334.214 205.758 334.045C206.435 333.875 207.196 333.875 207.873 334.214C209.226 334.891 210.241 336.329 210.495 337.936C210.749 339.543 210.495 341.319 210.241 343.18C210.157 343.603 210.495 343.942 210.834 344.026C211.172 344.111 211.426 343.942 211.595 343.603C212.187 342.419 212.948 341.319 213.879 340.389C214.725 339.458 215.825 338.612 216.924 338.528C218.024 338.359 219.208 338.866 219.801 339.881C220.477 340.896 220.646 342.165 220.646 343.434C220.646 344.703 220.308 346.056 219.97 347.325C219.631 348.594 219.124 349.863 218.447 351.047C217.178 353.416 215.486 355.53 213.371 357.307C213.118 357.476 213.118 357.814 213.287 358.068C213.456 358.322 213.794 358.322 214.048 358.153C216.332 356.376 218.193 354.177 219.547 351.639C220.224 350.37 220.816 349.102 221.239 347.664C221.662 346.31 222 344.872 222 343.434C222 341.996 221.831 340.389 220.9 339.035C220.477 338.359 219.801 337.767 219.039 337.428C218.278 337.09 217.432 336.921 216.586 337.09C215.74 337.174 214.979 337.513 214.387 337.936C213.71 338.359 213.202 338.866 212.695 339.374C211.68 340.473 210.918 341.658 210.157 342.927L211.595 343.434C211.849 341.658 212.187 339.712 211.849 337.767C211.51 335.821 210.411 333.791 208.38 332.86C207.365 332.353 206.181 332.268 205.166 332.607C204.066 332.945 203.22 333.622 202.543 334.383C201.274 335.99 200.598 337.851 200.259 339.712L201.867 339.628L198.229 328.377C197.637 326.516 197.045 324.571 196.03 322.71C195.099 320.849 193.576 319.157 191.546 318.226C190.531 317.719 189.431 317.465 188.247 317.55C187.063 317.634 185.963 318.057 185.117 318.734C184.186 319.411 183.51 320.341 183.002 321.272C182.495 322.202 182.156 323.217 181.902 324.232C181.479 326.347 181.649 328.377 181.733 330.323C181.902 332.268 181.987 334.214 181.649 336.075L182.918 335.652C181.818 334.637 181.226 333.03 180.211 331.507C179.703 330.746 179.026 329.984 178.18 329.392C177.334 328.885 176.319 328.462 175.22 328.631C174.12 328.8 173.189 329.731 172.766 330.661C172.343 331.592 172.259 332.522 172.259 333.453C172.259 335.229 172.343 337.005 172.513 338.697C173.274 345.718 175.727 352.485 179.534 358.322C179.703 358.576 179.957 358.576 180.211 358.491C180.718 358.406 180.718 358.068 180.634 357.814Z" fill="#478C5C"/>
<path d="M37.002 400C37.002 400 621.395 276.296 1439.65 287.749L1440 400H37.002Z" fill="#407E53"/>
<path d="M598.983 391.645C601.173 388.1 603.05 384.243 604.301 380.177C605.656 376.215 606.49 372.045 606.907 367.875C607.116 365.79 607.22 363.705 607.22 361.62C607.22 360.577 607.012 359.639 606.699 358.805C606.386 357.971 605.76 357.45 605.031 357.345C604.301 357.241 603.362 357.45 602.633 357.971C601.903 358.492 601.277 359.118 600.756 359.952C599.713 361.62 598.984 363.809 597.107 365.477C596.69 365.79 596.168 365.79 595.856 365.477C595.751 365.373 595.647 365.164 595.647 365.06C594.709 359.952 596.273 354.947 595.334 350.569C594.813 348.379 593.77 346.19 592.102 344.939C590.434 343.688 588.14 343.584 586.264 344.522C584.283 345.46 582.719 347.128 581.676 349.213C580.634 351.298 579.904 353.488 579.07 355.886L574.482 369.752C574.274 370.273 573.752 370.586 573.231 370.377C572.918 370.273 572.606 369.96 572.606 369.647C572.189 367.562 571.459 365.477 570.208 363.913C569.582 363.184 568.852 362.558 568.018 362.349C567.184 362.141 566.246 362.141 565.412 362.558C563.743 363.392 562.492 365.164 562.179 367.145C561.867 369.126 562.179 371.315 562.492 373.609C562.597 374.13 562.179 374.547 561.762 374.652C561.345 374.756 561.033 374.547 560.824 374.13C560.094 372.671 559.156 371.315 558.009 370.169C556.966 369.022 555.611 367.979 554.256 367.875C552.9 367.667 551.441 368.292 550.711 369.543C549.877 370.794 549.668 372.358 549.668 373.922C549.668 375.486 550.085 377.154 550.502 378.718C550.919 380.281 551.545 381.845 552.379 383.305C553.943 386.224 556.028 388.83 558.635 391.02C558.947 391.228 558.947 391.645 558.739 391.958C558.53 392.271 558.113 392.271 557.801 392.062C554.985 389.873 552.692 387.162 551.024 384.035C550.189 382.471 549.46 380.907 548.938 379.135C548.417 377.466 548 375.694 548 373.922C548 372.149 548.209 370.169 549.355 368.501C549.877 367.666 550.711 366.937 551.649 366.52C552.587 366.103 553.63 365.894 554.673 366.103C555.715 366.207 556.654 366.624 557.383 367.145C558.218 367.666 558.843 368.292 559.469 368.918C560.72 370.273 561.658 371.732 562.596 373.296L560.824 373.922C560.511 371.732 560.094 369.335 560.511 366.937C560.928 364.539 562.284 362.037 564.786 360.89C566.037 360.264 567.497 360.16 568.748 360.577C570.103 360.994 571.146 361.828 571.98 362.766C573.544 364.747 574.378 367.041 574.795 369.335L572.814 369.23L577.297 355.364C578.027 353.071 578.757 350.673 580.008 348.379C581.155 346.086 583.032 344.001 585.534 342.854C586.785 342.228 588.14 341.916 589.6 342.02C591.06 342.124 592.415 342.645 593.458 343.479C594.605 344.313 595.439 345.46 596.064 346.607C596.69 347.754 597.107 349.005 597.42 350.256C597.941 352.862 597.732 355.364 597.628 357.762C597.42 360.16 597.315 362.558 597.732 364.852L596.168 364.33C597.524 363.079 598.254 361.098 599.505 359.222C600.13 358.284 600.964 357.345 602.007 356.615C603.05 355.99 604.301 355.469 605.656 355.677C607.012 355.886 608.158 357.032 608.68 358.179C609.201 359.326 609.305 360.473 609.305 361.62C609.305 363.809 609.201 365.998 608.992 368.084C608.054 376.737 605.031 385.077 600.339 392.271C600.13 392.583 599.818 392.583 599.505 392.479C598.879 392.375 598.879 391.958 598.983 391.645Z" fill="#BACC81"/>
<path d="M1243.68 357.442C1253.8 344.801 1260.48 329.633 1263.01 313.742C1263.37 311.756 1263.55 309.769 1263.73 307.783C1263.91 305.797 1263.91 303.81 1263.55 302.005C1263.19 300.199 1262.65 298.393 1261.56 297.31C1260.48 296.226 1258.85 295.504 1257.23 295.684C1255.6 295.865 1253.98 296.587 1252.53 297.851C1251.09 298.935 1249.82 300.379 1248.74 302.005C1246.57 305.255 1244.77 309.228 1241.16 312.117C1240.43 312.659 1239.53 312.478 1238.99 311.936C1238.63 311.575 1238.63 311.033 1238.63 310.672C1240.79 300.741 1242.06 290.448 1242.24 280.335C1242.24 277.807 1242.24 275.46 1241.7 273.112C1241.16 270.765 1240.25 268.598 1238.63 267.514C1237 266.431 1234.83 266.25 1233.03 267.334C1231.22 268.237 1229.42 270.043 1228.15 272.029C1226.71 274.015 1225.62 276.363 1224.36 278.53C1223.1 280.877 1222.01 283.044 1220.93 285.392C1218.76 290.087 1216.78 294.782 1214.97 299.477C1211.36 309.047 1208.47 318.798 1206.3 328.911C1206.12 329.814 1205.22 330.536 1204.32 330.175C1203.77 329.994 1203.41 329.813 1203.23 329.452C1201.79 327.105 1200.88 324.396 1200.34 321.868C1199.8 319.34 1199.26 316.993 1198.36 314.645C1197.63 312.478 1196.37 310.492 1194.74 308.867C1193.12 307.422 1191.13 306.519 1189.15 306.7L1190.23 305.977C1184.63 313.742 1182.1 323.854 1183.55 333.425C1183.73 334.328 1183.19 335.05 1182.28 335.231C1181.56 335.411 1180.66 334.87 1180.48 334.147C1179.39 330.716 1178.49 327.466 1176.69 324.577C1175.78 323.132 1174.88 321.868 1173.62 320.785C1172.53 319.701 1171.09 318.979 1169.64 318.618C1166.75 317.715 1163.14 318.257 1161.52 320.604C1159.71 322.771 1159.89 326.383 1160.07 329.814C1160.79 336.495 1164.41 342.634 1169.1 347.691C1173.8 352.927 1179.21 357.261 1184.81 361.595C1185.35 361.956 1185.35 362.679 1184.99 363.22C1184.63 363.762 1183.91 363.762 1183.37 363.401C1177.59 359.248 1171.99 354.733 1167.11 349.496C1162.24 344.26 1158.09 337.759 1157.18 330.175C1157 329.272 1157 328.369 1157 327.466C1157 326.563 1157 325.66 1157 324.577C1157.18 322.59 1157.72 320.604 1158.99 318.798C1160.25 316.993 1162.24 315.909 1164.23 315.548C1166.21 315.187 1168.38 315.187 1170.18 315.728C1172.17 316.27 1173.98 317.173 1175.42 318.618C1176.87 319.882 1178.13 321.507 1179.03 323.132C1181.02 326.383 1182.1 329.994 1183.01 333.244L1179.94 333.967C1178.31 323.674 1180.84 312.659 1186.98 304.172C1187.16 303.81 1187.7 303.63 1188.06 303.449C1189.69 303.269 1191.31 303.449 1192.58 303.991C1194.02 304.533 1195.29 305.436 1196.37 306.339C1198.54 308.325 1199.98 310.672 1200.88 313.381C1201.79 315.909 1202.33 318.437 1202.87 320.965C1203.41 323.313 1204.14 325.66 1205.4 327.466L1202.15 328.008C1204.32 317.715 1207.21 307.783 1210.82 298.032C1212.62 293.156 1214.79 288.461 1216.96 283.766C1218.04 281.419 1219.3 279.071 1220.39 276.724C1221.65 274.376 1222.74 272.029 1224.36 269.862C1225.99 267.695 1227.79 265.528 1230.5 264.083C1231.76 263.361 1233.39 263 1235.02 263C1236.64 263.181 1238.27 263.722 1239.53 264.625C1242.24 266.612 1243.32 269.501 1243.86 272.209C1244.41 274.918 1244.59 277.807 1244.41 280.335C1244.23 290.809 1242.96 301.102 1240.61 311.395L1238.09 309.769C1240.97 307.603 1242.78 303.81 1245.13 300.379C1247.48 296.768 1250.91 293.337 1255.96 292.795C1258.49 292.615 1261.02 293.518 1262.65 295.323C1264.27 297.129 1265.17 299.477 1265.53 301.643C1265.9 303.81 1265.9 305.977 1265.72 308.144C1265.53 310.131 1265.17 312.298 1264.81 314.284C1262.1 330.716 1254.88 346.246 1244.41 358.886C1244.04 359.248 1243.32 359.428 1242.96 359.067C1243.32 358.525 1243.32 357.803 1243.68 357.442Z" fill="#BACC81"/>
<path d="M61.7047 337.973C64.4135 336.709 66.9416 335.986 69.6504 335.264C70.9145 334.903 72.3592 334.542 73.8039 334.361C75.2486 334.181 76.5128 334 77.9575 334C78.8604 334 79.7634 334.722 79.7634 335.806C79.7634 336.348 79.4022 336.889 79.041 337.25C77.7769 338.153 76.5127 338.876 75.068 339.417C73.6234 339.959 72.3593 340.32 70.9146 340.681C68.0252 341.223 65.1357 341.584 62.0658 341.223C61.1628 341.043 60.6211 340.32 60.6211 339.417C60.9823 338.695 61.3435 338.334 61.7047 337.973Z" fill="#478C5C"/>
<path d="M37.1421 362.351C39.8509 360.545 42.9208 359.461 45.8102 358.558C47.2549 358.017 48.8802 357.656 50.3249 357.475C51.9502 357.114 53.3949 356.933 55.0202 356.933C55.9232 356.933 56.8261 357.656 56.8261 358.739C56.8261 359.281 56.4649 360.003 55.9232 360.184C54.4785 361.086 53.0337 361.809 51.589 362.351C50.1443 362.892 48.6996 363.434 47.0743 363.795C44.0044 364.698 40.9344 365.24 37.6838 365.42C36.7809 365.42 36.0586 364.698 36.0586 363.795C36.4198 363.073 36.6003 362.531 37.1421 362.351Z" fill="#478C5C"/>
<path d="M9.08353 350.794C11.7923 349.169 14.8623 348.266 17.7517 347.543C19.1964 347.182 20.8217 346.821 22.2664 346.641C23.8917 346.46 25.3363 346.279 26.9616 346.46C27.8646 346.46 28.7675 347.363 28.587 348.266C28.587 348.808 28.2258 349.349 27.684 349.71C26.2393 350.433 24.7946 351.155 23.3499 351.697C21.9052 352.239 20.4605 352.6 18.8352 352.961C15.7652 353.683 12.6953 354.044 9.62533 354.044C8.72239 354.044 8 353.322 8 352.419C8.36117 351.516 8.54177 350.974 9.08353 350.794Z" fill="#478C5C"/>
<path d="M1117.04 343.264C1119.03 342.361 1121.19 342.181 1123.18 342C1124.26 342 1125.17 342 1126.25 342.181C1127.33 342.361 1128.24 342.542 1129.32 343.083C1130.22 343.445 1130.77 344.709 1130.22 345.612C1130.04 345.973 1129.68 346.334 1129.32 346.514C1128.24 347.056 1127.33 347.237 1126.25 347.417C1125.17 347.598 1124.26 347.598 1123.18 347.598C1121.19 347.598 1119.03 347.237 1117.04 346.334C1116.14 345.973 1115.78 344.889 1116.14 344.167C1116.5 343.806 1116.68 343.445 1117.04 343.264Z" fill="#BACC81"/>
<path d="M1073.4 346.445C1076.47 345.903 1079.36 345.722 1082.25 345.542C1083.7 345.361 1085.14 345.361 1086.59 345.181C1088.03 345 1089.47 345 1091.1 345C1092 345 1092.91 345.903 1092.91 346.806C1092.91 347.348 1092.54 347.889 1092 348.25C1090.56 349.153 1089.11 349.695 1087.49 350.056C1085.86 350.417 1084.24 350.778 1082.61 350.778C1079.36 350.959 1076.11 350.598 1073.04 349.334C1072.14 348.973 1071.78 348.07 1072.14 347.167C1072.32 346.806 1072.86 346.445 1073.4 346.445Z" fill="#BACC81"/>
<path d="M426.164 375.879C427.97 375.156 429.414 374.976 431.04 374.615C431.762 374.434 432.665 374.434 433.387 374.253C434.11 374.253 435.013 374.073 435.916 374.253H436.096C437.18 374.253 437.902 375.337 437.902 376.24C437.902 376.601 437.721 376.962 437.36 377.323C436.638 378.226 435.735 378.768 434.832 379.129C433.929 379.49 432.845 379.851 431.762 380.032C429.776 380.213 427.609 380.032 425.803 378.948C425.08 378.407 424.719 377.323 425.261 376.601C425.441 376.24 425.803 376.059 426.164 375.879Z" fill="#BACC81"/>
<path d="M473.114 376.42C474.92 374.975 476.907 374.253 478.893 373.531C479.977 373.17 480.88 372.989 481.963 372.808C483.047 372.628 484.13 372.628 485.214 372.808C486.297 372.989 487.019 373.892 486.839 374.975C486.839 375.517 486.478 375.878 486.117 376.239C485.214 376.962 484.311 377.503 483.408 377.865C482.505 378.226 481.421 378.587 480.518 378.948C478.532 379.49 476.365 379.851 474.198 379.67C473.295 379.49 472.573 378.767 472.753 377.865C472.392 377.142 472.753 376.601 473.114 376.42Z" fill="#BACC81"/>
<path d="M479.072 350.598C480.878 348.792 483.045 347.709 485.212 346.806C486.295 346.264 487.379 345.903 488.643 345.542C489.727 345.181 490.991 345 492.255 345C493.338 345 494.061 345.722 494.061 346.806C494.061 347.348 493.88 347.889 493.519 348.25C492.616 349.153 491.532 349.876 490.449 350.417C489.365 350.959 488.282 351.501 487.198 352.042C485.031 352.945 482.684 353.668 480.155 353.668C479.253 353.668 478.53 352.945 478.35 352.042C478.53 351.32 478.711 350.959 479.072 350.598Z" fill="#BACC81"/>
<g filter="url(#filter0_f_1_2)">
<path d="M1718 359.5C1718 529.88 1579.88 668 1409.5 668C1239.12 668 1101 529.88 1101 359.5C1101 189.12 1239.12 51 1409.5 51C1579.88 51 1718 189.12 1718 359.5Z" fill="#BACC81"/>
</g>
<path d="M1094.3 322.705C1097.01 321.622 1099.9 321.261 1102.61 321.08C1104.05 321.08 1105.31 320.9 1106.76 321.08C1108.2 321.08 1109.65 321.261 1110.91 321.622C1111.82 321.803 1112.36 322.886 1112.18 323.789C1112 324.331 1111.64 324.872 1111.09 325.053C1109.65 325.595 1108.38 325.956 1106.94 326.136C1105.5 326.317 1104.23 326.498 1102.79 326.498C1100.08 326.498 1097.19 326.498 1094.3 325.775C1093.4 325.595 1092.85 324.692 1093.03 323.789C1093.4 323.428 1093.94 322.886 1094.3 322.705Z" fill="#BACC81"/>
<path fill-rule="evenodd" clip-rule="evenodd" d="M1417.4 400H1297.81C1287.93 384.45 1281.39 366.674 1290 351.423C1291.62 348.534 1293.97 345.825 1297.58 344.742C1299.93 344.019 1302.64 344.38 1305.17 344.922C1315.82 347.089 1325.21 353.048 1330.99 360.994C1331.86 358.07 1332.69 355.146 1333.52 352.238C1334.59 348.5 1335.65 344.786 1336.77 341.13C1337.31 338.963 1338.21 336.616 1340.38 335.352C1345.08 332.462 1351.22 336.977 1353.92 341.311C1354.2 341.801 1354.47 342.302 1354.75 342.808C1357 346.953 1359.41 351.38 1364.4 352.506C1365.66 344.019 1366.93 335.532 1368.01 327.045C1369.09 319.1 1372.34 309.168 1381.73 308.084C1389.68 307.182 1396 313.682 1399.61 319.822C1406.11 331.198 1408.64 344.2 1406.48 356.66C1409.56 355.539 1411.44 353.006 1413.32 350.493C1413.86 349.766 1414.4 349.042 1414.96 348.353C1417.49 345.283 1422.37 342.755 1426.16 344.742C1429.59 346.547 1429.41 350.881 1428.87 354.312C1425.98 369.661 1422.19 384.83 1417.49 399.818C1417.49 399.818 1417.46 399.88 1417.4 400Z" fill="#BACC81"/>
<g filter="url(#filter1_f_1_2)">
<path d="M165 210.5C165 285.887 103.887 347 28.5 347C-46.8869 347 -108 285.887 -108 210.5C-108 135.113 -46.8869 74 28.5 74C103.887 74 165 135.113 165 210.5Z" fill="#BACC81"/>
</g>
</g>
<defs>
<filter id="filter0_f_1_2" x="101" y="-949" width="2617" height="2617" filterUnits="userSpaceOnUse" color-interpolation-filters="sRGB">
<feFlood flood-opacity="0" result="BackgroundImageFix"/>
<feBlend mode="normal" in="SourceGraphic" in2="BackgroundImageFix" result="shape"/>
<feGaussianBlur stdDeviation="500" result="effect1_foregroundBlur_1_2"/>
</filter>
<filter id="filter1_f_1_2" x="-1108" y="-926" width="2273" height="2273" filterUnits="userSpaceOnUse" color-interpolation-filters="sRGB">
<feFlood flood-opacity="0" result="BackgroundImageFix"/>
<feBlend mode="normal" in="SourceGraphic" in2="BackgroundImageFix" result="shape"/>
<feGaussianBlur stdDeviation="500" result="effect1_foregroundBlur_1_2"/>
</filter>
<clipPath id="clip0_1_2">
<rect width="1440" height="1768" fill="white" transform="translate(0 -100)"/>
</clipPath>
</defs>
</svg>
