<svg width="400" height="400" viewBox="0 0 400 400" fill="none" xmlns="http://www.w3.org/2000/svg">
  <!-- Earth -->
  <circle cx="200" cy="200" r="120" fill="#7bed9f" stroke="#2c6e49" stroke-width="4"/>
  <path d="M120 160C150 140 180 180 220 160C260 140 280 180 280 200" stroke="#2c6e49" stroke-width="4" stroke-linecap="round"/>
  <path d="M120 220C150 200 190 240 230 220C270 200 280 220 280 240" stroke="#2c6e49" stroke-width="4" stroke-linecap="round"/>
  
  <!-- People around the earth -->
  <!-- Person 1 -->
  <circle cx="120" cy="120" r="25" fill="#f8a488"/>
  <rect x="115" y="145" width="10" height="40" fill="#4a8c67"/>
  <rect x="105" y="145" width="30" height="30" rx="5" fill="#4a8c67"/>
  <path d="M105 175C105 175 85 195 100 210" stroke="#4a8c67" stroke-width="8" stroke-linecap="round"/>
  <path d="M135 175C135 175 155 195 140 210" stroke="#4a8c67" stroke-width="8" stroke-linecap="round"/>
  
  <!-- Person 2 -->
  <circle cx="280" cy="120" r="25" fill="#f8a488"/>
  <rect x="275" y="145" width="10" height="40" fill="#9c59b6"/>
  <rect x="265" y="145" width="30" height="30" rx="5" fill="#9c59b6"/>
  <path d="M265 175C265 175 245 195 260 210" stroke="#9c59b6" stroke-width="8" stroke-linecap="round"/>
  <path d="M295 175C295 175 315 195 300 210" stroke="#9c59b6" stroke-width="8" stroke-linecap="round"/>
  
  <!-- Person 3 -->
  <circle cx="120" cy="280" r="25" fill="#f8a488"/>
  <rect x="115" y="305" width="10" height="40" fill="#ff6b6b"/>
  <rect x="105" y="305" width="30" height="30" rx="5" fill="#ff6b6b"/>
  <path d="M105 335C105 335 85 355 100 370" stroke="#ff6b6b" stroke-width="8" stroke-linecap="round"/>
  <path d="M135 335C135 335 155 355 140 370" stroke="#ff6b6b" stroke-width="8" stroke-linecap="round"/>
  
  <!-- Person 4 -->
  <circle cx="280" cy="280" r="25" fill="#f8a488"/>
  <rect x="275" y="305" width="10" height="40" fill="#f39c12"/>
  <rect x="265" y="305" width="30" height="30" rx="5" fill="#f39c12"/>
  <path d="M265 335C265 335 245 355 260 370" stroke="#f39c12" stroke-width="8" stroke-linecap="round"/>
  <path d="M295 335C295 335 315 355 300 370" stroke="#f39c12" stroke-width="8" stroke-linecap="round"/>
  
  <!-- Person 5 (center top) -->
  <circle cx="200" cy="80" r="25" fill="#f8a488"/>
  <rect x="195" y="105" width="10" height="30" fill="#4a8c67"/>
  <rect x="185" y="105" width="30" height="30" rx="5" fill="#4a8c67"/>
  <path d="M185 135C185 135 165 145 170 160" stroke="#4a8c67" stroke-width="8" stroke-linecap="round"/>
  <path d="M215 135C215 135 235 145 230 160" stroke="#4a8c67" stroke-width="8" stroke-linecap="round"/>
</svg>

