<svg width="20" height="20" viewBox="0 0 20 20" fill="none" xmlns="http://www.w3.org/2000/svg">
<mask id="mask0_2281_1417" style="mask-type:alpha" maskUnits="userSpaceOnUse" x="0" y="0" width="20" height="20">
<rect width="20" height="20" fill="#D9D9D9"/>
</mask>
<g mask="url(#mask0_2281_1417)">
<path d="M9.16602 14.1667H10.8327V9.16675H9.16602V14.1667ZM9.99935 7.50008C10.2355 7.50008 10.4335 7.42008 10.5935 7.26008C10.753 7.10064 10.8327 6.90286 10.8327 6.66675C10.8327 6.43064 10.753 6.23258 10.5935 6.07258C10.4335 5.91314 10.2355 5.83341 9.99935 5.83341C9.76324 5.83341 9.56546 5.91314 9.40602 6.07258C9.24602 6.23258 9.16602 6.43064 9.16602 6.66675C9.16602 6.90286 9.24602 7.10064 9.40602 7.26008C9.56546 7.42008 9.76324 7.50008 9.99935 7.50008ZM9.99935 18.3334C8.84657 18.3334 7.76324 18.1145 6.74935 17.6767C5.73546 17.2395 4.85352 16.6459 4.10352 15.8959C3.35352 15.1459 2.7599 14.264 2.32268 13.2501C1.8849 12.2362 1.66602 11.1529 1.66602 10.0001C1.66602 8.8473 1.8849 7.76397 2.32268 6.75008C2.7599 5.73619 3.35352 4.85425 4.10352 4.10425C4.85352 3.35425 5.73546 2.76036 6.74935 2.32258C7.76324 1.88536 8.84657 1.66675 9.99935 1.66675C11.1521 1.66675 12.2355 1.88536 13.2493 2.32258C14.2632 2.76036 15.1452 3.35425 15.8952 4.10425C16.6452 4.85425 17.2388 5.73619 17.676 6.75008C18.1138 7.76397 18.3327 8.8473 18.3327 10.0001C18.3327 11.1529 18.1138 12.2362 17.676 13.2501C17.2388 14.264 16.6452 15.1459 15.8952 15.8959C15.1452 16.6459 14.2632 17.2395 13.2493 17.6767C12.2355 18.1145 11.1521 18.3334 9.99935 18.3334Z" fill="#365AFF"/>
</g>
</svg>
