<svg width="1774" height="652" viewBox="0 0 1774 652" fill="none" xmlns="http://www.w3.org/2000/svg">
<path d="M154.207 599.611V0C175.233 0.412246 193.166 15.047 206.153 31.7429C219.139 48.4389 226.56 68.845 232.126 89.2512C251.915 162.425 249.853 239.309 247.586 315.162C252.739 280.121 258.717 243.225 280.773 215.811C288.4 206.329 298.089 198.084 309.838 195.611C327.978 191.9 346.53 202.825 357.043 218.284C367.556 233.743 371.472 252.5 374.564 271.052C384.665 331.445 387.757 393.076 383.634 454.089C407.133 342.164 470.623 341.133 493.916 343.813C524.63 347.317 549.366 373.082 560.909 402.146C572.453 431.209 573.277 463.364 573.896 494.695C618.009 487.068 664.801 489.336 706.44 506.65C748.079 523.964 784.771 556.738 803.941 599.611H154.207Z" fill="#8EC152"/>
<path opacity="0.65" d="M154 599.611L154.206 199.527C172.964 199.733 188.837 211.894 200.38 222.819C211.924 233.743 218.726 247.347 223.673 260.952C241.195 309.39 239.546 360.509 237.484 410.803C242.019 387.511 247.379 363.188 267.168 344.843C273.97 338.66 282.628 333.094 293.14 331.445C309.219 328.972 325.916 336.392 335.192 346.492C344.468 356.593 348.178 369.166 350.858 381.327C359.928 421.315 362.608 462.333 359.103 502.734C380.129 428.529 436.816 427.911 457.635 429.56C485.051 431.827 507.108 448.936 517.414 468.311C527.721 487.687 528.546 508.917 529.164 529.736C568.742 524.583 610.381 526.232 647.691 537.774C685.001 549.317 717.57 570.96 734.68 599.405L154 599.611Z" fill="#739553"/>
<path d="M192.134 271.464L190.691 352.264C190.279 379.266 190.279 406.062 190.279 433.064C190.073 460.066 190.073 486.862 190.279 513.864L191.103 594.664C191.103 595.283 190.485 595.901 189.867 595.901C189.248 595.901 188.63 595.283 188.63 594.664L187.393 554.264L186.775 513.864C186.362 486.862 186.156 460.066 186.156 433.064C186.362 406.062 186.775 379.266 187.187 352.264L188.218 311.864L189.661 271.464C189.661 270.845 190.279 270.227 190.897 270.433C191.516 270.227 192.134 270.845 192.134 271.464Z" fill="#8EC152"/>
<path d="M299.529 381.327C299.941 390.191 300.148 399.054 300.354 407.917C300.56 416.78 300.56 425.644 300.766 434.507C300.972 452.234 300.56 470.166 300.354 487.893C299.941 505.619 299.323 523.552 298.498 541.279C298.086 550.142 297.468 559.005 297.056 567.868C296.437 576.732 295.819 585.595 294.994 594.458C294.994 595.077 294.376 595.695 293.551 595.695C292.933 595.695 292.314 595.077 292.314 594.458C292.727 585.595 293.139 576.732 293.551 567.868C293.964 559.005 294.376 550.142 294.582 541.279C295.2 523.552 295.819 505.825 296.231 488.099C296.643 470.372 296.849 452.646 297.056 434.919L297.262 408.329C297.262 399.466 297.262 390.603 297.262 381.74C297.262 381.121 297.674 380.503 298.498 380.503C298.911 380.297 299.529 380.709 299.529 381.327Z" fill="#8EC152"/>
<path d="M454.748 483.152C454.336 492.427 453.512 501.703 452.893 511.184C452.275 520.46 451.244 529.735 450.626 539.011L447.946 566.838C446.915 576.113 445.885 585.389 444.854 594.664C444.854 595.283 444.029 595.901 443.411 595.695C442.793 595.695 442.174 595.076 442.38 594.458C442.793 585.183 443.617 575.907 444.236 566.631L446.709 538.805C447.74 529.529 448.564 520.254 449.389 510.978C450.42 501.703 451.45 492.427 452.481 483.152C452.481 482.533 453.099 482.121 453.718 482.121C454.336 482.121 454.748 482.533 454.748 483.152Z" fill="#8EC152"/>
<path d="M601.516 555.707C601.929 559.005 602.135 562.303 602.135 565.601C602.135 568.899 601.929 572.197 601.516 575.495C601.104 578.793 600.692 582.091 599.867 585.389C599.043 588.687 598.218 591.779 596.981 594.87C596.775 595.489 595.951 595.901 595.332 595.489C594.714 595.283 594.508 594.664 594.508 594.046C595.126 590.748 595.745 587.656 596.157 584.564C596.569 581.472 597.187 578.174 597.6 575.083C598.012 571.785 598.218 568.693 598.63 565.395C598.837 562.097 599.043 559.005 599.249 555.707C599.249 555.089 599.867 554.47 600.486 554.676C601.104 554.676 601.516 555.089 601.516 555.707Z" fill="#8EC152"/>
<path d="M0 651.723C0 651.723 738.833 276.876 1773.33 311.58L1773.78 651.723H0Z" fill="#3C793D"/>
<path d="M781.992 599.667C786.664 592.103 790.669 583.872 793.338 575.196C796.231 566.743 798.01 557.844 798.9 548.946C799.345 544.497 799.568 540.047 799.568 535.598C799.568 533.373 799.123 531.371 798.455 529.592C797.788 527.812 796.453 526.7 794.896 526.477C793.338 526.255 791.336 526.7 789.779 527.812C788.222 528.924 786.887 530.259 785.774 532.039C783.55 535.598 781.992 540.27 777.988 543.829C777.098 544.496 775.986 544.496 775.318 543.829C775.096 543.607 774.873 543.162 774.873 542.939C772.871 532.039 776.208 521.361 774.206 512.017C773.093 507.346 770.869 502.674 767.309 500.004C763.75 497.335 758.855 497.112 754.851 499.114C750.624 501.117 747.286 504.676 745.062 509.125C742.837 513.574 741.28 518.246 739.5 523.363L729.711 552.95C729.266 554.062 728.154 554.73 727.042 554.285C726.374 554.062 725.707 553.395 725.707 552.728C724.817 548.278 723.259 543.829 720.59 540.492C719.255 538.935 717.698 537.6 715.918 537.155C714.138 536.71 712.136 536.71 710.356 537.6C706.796 539.38 704.127 543.162 703.459 547.388C702.792 551.615 703.459 556.287 704.127 561.181C704.349 562.293 703.459 563.183 702.569 563.406C701.68 563.628 701.012 563.183 700.567 562.293C699.01 559.179 697.008 556.287 694.56 553.84C692.336 551.393 689.444 549.168 686.551 548.946C683.659 548.501 680.545 549.836 678.987 552.505C677.208 555.175 676.763 558.512 676.763 561.848C676.763 565.185 677.653 568.745 678.542 572.082C679.432 575.419 680.767 578.755 682.547 581.87C685.884 588.099 690.333 593.66 695.895 598.332C696.563 598.777 696.563 599.667 696.118 600.334C695.673 601.002 694.783 601.002 694.116 600.557C688.109 595.885 683.214 590.101 679.655 583.427C677.875 580.09 676.318 576.753 675.205 572.971C674.093 569.412 673.203 565.63 673.203 561.848C673.203 558.067 673.648 553.84 676.095 550.28C677.207 548.501 678.987 546.944 680.99 546.054C682.992 545.164 685.217 544.719 687.441 545.164C689.666 545.386 691.668 546.276 693.226 547.388C695.005 548.501 696.34 549.836 697.675 551.17C700.345 554.062 702.347 557.177 704.349 560.514L700.567 561.848C699.9 557.177 699.01 552.06 699.9 546.944C700.79 541.827 703.682 536.488 709.021 534.041C711.691 532.706 714.806 532.484 717.475 533.373C720.367 534.263 722.592 536.043 724.372 538.045C727.709 542.272 729.489 547.166 730.379 552.06L726.152 551.838L735.718 522.25C737.275 517.356 738.833 512.24 741.502 507.346C743.949 502.451 747.954 498.002 753.293 495.555C755.963 494.22 758.855 493.553 761.97 493.775C765.084 493.998 767.977 495.11 770.201 496.89C772.649 498.669 774.428 501.117 775.763 503.564C777.098 506.011 777.988 508.68 778.655 511.35C779.768 516.911 779.323 522.25 779.1 527.367C778.655 532.484 778.433 537.6 779.323 542.494L775.986 541.382C778.878 538.712 780.435 534.486 783.105 530.481C784.44 528.479 786.219 526.477 788.444 524.92C790.669 523.585 793.338 522.473 796.231 522.918C799.123 523.363 801.57 525.81 802.682 528.257C803.795 530.704 804.017 533.151 804.017 535.598C804.017 540.27 803.795 544.941 803.35 549.391C801.347 567.855 794.896 585.652 784.884 601.002C784.44 601.669 783.772 601.669 783.105 601.446C781.77 601.224 781.77 600.334 781.992 599.667Z" fill="#8EC152"/>
<path d="M452.509 603.893C455.401 598.777 458.071 593.438 460.296 587.876C461.408 585.207 462.52 582.315 463.633 579.645C464.745 576.753 465.635 574.083 466.08 571.414C466.525 568.744 466.747 565.852 466.08 563.405C465.413 560.958 463.855 559.179 461.63 558.511C459.406 557.844 456.959 558.511 454.511 559.846C452.064 561.181 449.839 562.96 447.837 564.963C446.947 565.63 445.612 565.63 444.945 564.963C444.5 564.518 444.278 563.628 444.5 563.183C446.057 556.509 447.837 549.835 446.057 543.829C445.612 542.272 444.945 540.937 444.055 539.824C443.165 538.712 442.053 537.6 440.718 536.71C438.271 535.153 435.156 534.263 432.709 535.153C431.597 535.598 430.484 536.265 429.594 537.377C428.704 538.49 428.037 539.824 427.592 541.382C426.48 544.496 425.367 547.833 424.255 551.17C422.03 557.844 420.25 564.295 418.471 570.969C418.248 572.081 416.913 572.749 415.801 572.526C414.911 572.304 414.244 571.414 414.244 570.302C414.244 567.855 412.909 565.407 410.907 563.628C408.904 561.848 406.235 560.958 403.787 561.403C401.34 561.848 399.116 563.405 397.558 565.852C396.223 568.077 395.556 570.969 396.446 573.416L392.441 573.639C392.886 571.859 391.551 569.857 389.772 568.744C387.769 567.632 385.322 567.187 383.32 567.855C381.318 568.522 379.315 570.302 378.203 572.526C376.868 574.751 376.201 577.198 375.978 579.867C375.533 584.984 376.423 590.546 378.648 595.44C379.76 597.887 381.095 600.334 382.653 602.336C383.542 603.448 384.432 604.561 385.1 605.006C385.322 605.006 385.322 605.006 385.322 605.006C385.1 605.006 384.877 605.45 384.877 605.673C384.877 606.118 384.877 605.895 384.877 605.895C384.877 605.895 384.877 606.118 385.322 606.118C385.545 606.118 385.99 605.895 386.212 605.895C386.435 605.673 386.435 605.673 386.435 605.45C386.212 606.118 385.322 606.563 384.655 606.34C383.987 606.118 383.542 605.228 383.765 604.561C383.987 604.338 383.987 604.116 384.21 603.671C384.432 603.448 385.1 603.226 385.545 603.226C386.435 603.226 386.657 603.671 386.88 603.893C387.324 604.338 387.769 605.006 387.547 606.118C387.547 606.563 387.102 607.23 386.657 607.453C386.212 607.675 385.99 607.898 385.545 607.898C384.877 608.12 384.21 607.898 383.765 607.675C382.875 607.23 382.208 606.563 381.763 605.895C381.318 605.45 380.873 604.783 380.428 604.116C378.648 601.891 377.091 599.222 375.756 596.552C373.309 591.213 371.974 585.206 372.419 579.2C372.641 576.086 373.531 573.194 374.866 570.302C376.423 567.632 378.648 564.963 381.985 563.85C385.322 562.738 388.882 563.405 391.774 564.963C393.331 565.852 394.666 566.965 395.556 568.522C396.446 570.079 396.891 572.081 396.668 574.083C396.446 575.196 395.333 576.086 394.221 575.863C393.331 575.641 392.886 575.196 392.664 574.528C391.551 570.747 392.219 566.742 394.221 563.628C396.223 560.513 399.338 557.844 403.343 557.176C407.347 556.509 411.129 557.844 414.021 560.291C416.913 562.738 418.916 566.297 419.138 570.302L414.689 569.857C416.468 563.183 418.471 556.287 420.473 549.613C421.585 546.276 422.698 542.939 424.032 539.602C424.7 537.822 425.59 536.043 426.925 534.485C428.26 532.928 430.039 531.371 432.264 530.926C436.491 529.591 440.718 530.926 444.055 533.151C445.612 534.263 447.17 535.598 448.282 537.155C449.394 538.712 450.284 540.714 450.952 542.494C452.064 546.276 452.064 550.058 451.619 553.617C451.174 557.176 450.284 560.736 449.394 564.073L446.057 562.071C448.282 560.068 450.729 558.066 453.621 556.509C456.514 554.952 460.073 553.84 463.855 555.174C465.635 555.842 467.192 556.731 468.305 558.289C469.417 559.623 470.307 561.403 470.752 562.96C471.419 566.297 471.197 569.634 470.529 572.749C469.862 575.863 468.75 578.755 467.637 581.425C466.525 584.317 465.412 586.986 464.078 589.656C461.63 595.217 458.738 600.556 455.624 605.673C455.179 606.34 454.511 606.563 453.844 606.118C452.509 605.228 452.287 604.561 452.509 603.893Z" fill="#8EC152"/>
<path d="M1473.88 562.96C1486.34 547.388 1494.57 528.701 1497.69 509.125C1498.13 506.678 1498.35 504.231 1498.58 501.784C1498.8 499.337 1498.8 496.889 1498.35 494.665C1497.91 492.44 1497.24 490.216 1495.91 488.881C1494.57 487.546 1492.57 486.656 1490.57 486.879C1488.56 487.101 1486.56 487.991 1484.78 489.548C1483 490.883 1481.44 492.663 1480.11 494.665C1477.44 498.669 1475.22 503.563 1470.77 507.123C1469.88 507.79 1468.76 507.568 1468.1 506.9C1467.65 506.455 1467.65 505.788 1467.65 505.343C1470.32 493.108 1471.88 480.427 1472.1 467.969C1472.1 464.855 1472.1 461.963 1471.43 459.071C1470.77 456.179 1469.65 453.51 1467.65 452.175C1465.65 450.84 1462.98 450.618 1460.75 451.952C1458.53 453.065 1456.31 455.289 1454.75 457.736C1452.97 460.183 1451.63 463.075 1450.08 465.745C1448.52 468.637 1447.18 471.306 1445.85 474.198C1443.18 479.982 1440.73 485.766 1438.51 491.55C1434.06 503.341 1430.5 515.354 1427.83 527.812C1427.61 528.924 1426.49 529.814 1425.38 529.369C1424.71 529.146 1424.27 528.924 1424.05 528.479C1422.27 525.587 1421.15 522.25 1420.49 519.136C1419.82 516.021 1419.15 513.129 1418.04 510.237C1417.15 507.568 1415.59 505.121 1413.59 503.118C1411.59 501.339 1409.14 500.226 1406.69 500.449L1408.03 499.559C1401.13 509.125 1398.02 521.583 1399.8 533.373C1400.02 534.485 1399.35 535.375 1398.24 535.598C1397.35 535.82 1396.24 535.153 1396.02 534.263C1394.68 530.036 1393.57 526.032 1391.34 522.472C1390.23 520.693 1389.12 519.136 1387.56 517.801C1386.23 516.466 1384.45 515.576 1382.67 515.131C1379.11 514.019 1374.66 514.686 1372.66 517.578C1370.43 520.248 1370.65 524.697 1370.88 528.924C1371.77 537.155 1376.22 544.719 1382 550.947C1387.78 557.399 1394.46 562.738 1401.35 568.077C1402.02 568.522 1402.02 569.412 1401.58 570.079C1401.13 570.747 1400.24 570.746 1399.57 570.302C1392.46 565.185 1385.56 559.623 1379.55 553.172C1373.55 546.721 1368.43 538.712 1367.32 529.369C1367.09 528.256 1367.09 527.144 1367.09 526.032C1367.09 524.92 1367.09 523.807 1367.09 522.472C1367.32 520.025 1367.98 517.578 1369.54 515.354C1371.1 513.129 1373.55 511.794 1375.99 511.349C1378.44 510.904 1381.11 510.904 1383.33 511.572C1385.78 512.239 1388.01 513.352 1389.79 515.131C1391.57 516.688 1393.12 518.691 1394.24 520.693C1396.68 524.697 1398.02 529.146 1399.13 533.151L1395.35 534.04C1393.35 521.36 1396.46 507.79 1404.02 497.334C1404.25 496.889 1404.91 496.667 1405.36 496.445C1407.36 496.222 1409.36 496.444 1410.92 497.112C1412.7 497.779 1414.26 498.892 1415.59 500.004C1418.26 502.451 1420.04 505.343 1421.15 508.68C1422.27 511.794 1422.93 514.909 1423.6 518.023C1424.27 520.915 1425.16 523.807 1426.72 526.032L1422.71 526.699C1425.38 514.019 1428.94 501.784 1433.39 489.771C1435.62 483.764 1438.29 477.98 1440.95 472.196C1442.29 469.304 1443.85 466.412 1445.18 463.52C1446.74 460.628 1448.07 457.736 1450.08 455.067C1452.08 452.397 1454.3 449.728 1457.64 447.948C1459.2 447.058 1461.2 446.613 1463.2 446.613C1465.2 446.836 1467.21 447.503 1468.76 448.615C1472.1 451.062 1473.44 454.622 1474.1 457.959C1474.77 461.296 1474.99 464.855 1474.77 467.969C1474.55 480.872 1472.99 493.553 1470.1 506.233L1466.98 504.231C1470.54 501.561 1472.77 496.889 1475.66 492.663C1478.55 488.213 1482.78 483.987 1489.01 483.319C1492.12 483.097 1495.24 484.209 1497.24 486.434C1499.24 488.658 1500.36 491.55 1500.8 494.22C1501.24 496.889 1501.25 499.559 1501.02 502.229C1500.8 504.676 1500.36 507.345 1499.91 509.792C1496.57 530.036 1487.67 549.168 1474.77 564.74C1474.33 565.185 1473.44 565.407 1472.99 564.962C1473.44 564.295 1473.44 563.405 1473.88 562.96Z" fill="#8EC152"/>
<path d="M640.054 459.516C643.391 457.959 646.505 457.069 649.842 456.179C651.4 455.734 653.179 455.289 654.959 455.067C656.739 454.844 658.296 454.622 660.076 454.622C661.189 454.622 662.301 455.511 662.301 456.846C662.301 457.514 661.856 458.181 661.411 458.626C659.854 459.738 658.296 460.628 656.517 461.295C654.737 461.963 653.18 462.408 651.4 462.853C647.84 463.52 644.281 463.965 640.499 463.52C639.386 463.298 638.719 462.408 638.719 461.295C639.164 460.406 639.609 459.961 640.054 459.516Z" fill="#8EC152"/>
<path d="M609.796 489.548C613.133 487.323 616.915 485.988 620.474 484.876C622.254 484.209 624.256 483.764 626.036 483.541C628.038 483.096 629.818 482.874 631.821 482.874C632.933 482.874 634.045 483.764 634.045 485.099C634.045 485.766 633.6 486.656 632.933 486.878C631.153 487.991 629.373 488.88 627.594 489.548C625.814 490.215 624.034 490.883 622.032 491.328C618.25 492.44 614.468 493.107 610.463 493.33C609.351 493.33 608.461 492.44 608.461 491.328C608.906 490.438 609.128 489.77 609.796 489.548Z" fill="#8EC152"/>
<path d="M555.515 475.311C558.852 473.309 562.634 472.196 566.193 471.306C567.973 470.861 569.975 470.417 571.755 470.194C573.757 469.972 575.537 469.749 577.539 469.972C578.652 469.972 579.764 471.084 579.542 472.196C579.542 472.864 579.097 473.531 578.429 473.976C576.65 474.866 574.87 475.756 573.09 476.423C571.31 477.09 569.53 477.535 567.528 477.98C563.746 478.87 559.964 479.315 556.182 479.315C555.07 479.315 554.18 478.425 554.18 477.313C554.625 476.201 554.847 475.533 555.515 475.311Z" fill="#8EC152"/>
<path d="M1420.71 343.169C1424.05 341.834 1427.61 341.389 1430.95 341.167C1432.72 341.167 1434.28 340.944 1436.06 341.167C1437.84 341.167 1439.62 341.389 1441.18 341.834C1442.29 342.057 1442.96 343.391 1442.74 344.504C1442.51 345.171 1442.07 345.838 1441.4 346.061C1439.62 346.728 1438.06 347.173 1436.28 347.396C1434.5 347.618 1432.95 347.841 1431.17 347.841C1427.83 347.841 1424.27 347.841 1420.71 346.951C1419.6 346.728 1418.93 345.616 1419.15 344.504C1419.6 344.059 1420.27 343.391 1420.71 343.169Z" fill="#8EC152"/>
<path d="M1443.63 368.529C1447.41 367.862 1450.97 367.639 1454.53 367.417C1456.31 367.194 1458.09 367.194 1459.87 366.972C1461.65 366.749 1463.43 366.749 1465.43 366.749C1466.54 366.749 1467.65 367.862 1467.65 368.974C1467.65 369.641 1467.21 370.309 1466.54 370.754C1464.76 371.866 1462.98 372.533 1460.98 372.978C1458.98 373.423 1456.97 373.868 1454.97 373.868C1450.97 374.091 1446.96 373.646 1443.18 372.088C1442.07 371.643 1441.62 370.531 1442.07 369.419C1442.29 368.974 1442.96 368.529 1443.63 368.529Z" fill="#8EC152"/>
<path d="M1479 340.277C1481.45 339.165 1484.12 338.942 1486.56 338.72C1487.9 338.72 1489.01 338.72 1490.35 338.942C1491.68 339.165 1492.79 339.387 1494.13 340.054C1495.24 340.499 1495.91 342.057 1495.24 343.169C1495.02 343.614 1494.57 344.059 1494.13 344.281C1492.79 344.949 1491.68 345.171 1490.35 345.394C1489.01 345.616 1487.9 345.616 1486.56 345.616C1484.12 345.616 1481.45 345.171 1479 344.059C1477.89 343.614 1477.44 342.279 1477.89 341.389C1478.33 340.944 1478.55 340.499 1479 340.277Z" fill="#8EC152"/>
<path d="M218.244 591.435C220.469 590.546 222.249 590.323 224.251 589.878C225.141 589.656 226.253 589.656 227.143 589.433C228.033 589.433 229.145 589.211 230.258 589.433H230.48C231.815 589.433 232.705 590.768 232.705 591.88C232.705 592.325 232.483 592.77 232.038 593.215C231.148 594.328 230.035 594.995 228.923 595.44C227.811 595.885 226.476 596.33 225.141 596.552C222.694 596.775 220.024 596.552 217.799 595.217C216.909 594.55 216.464 593.215 217.132 592.325C217.354 591.88 217.799 591.658 218.244 591.435Z" fill="#8EC152"/>
<path d="M276.088 592.102C278.313 590.323 280.76 589.433 283.207 588.543C284.542 588.098 285.655 587.876 286.989 587.653C288.324 587.431 289.659 587.431 290.994 587.653C292.329 587.876 293.219 588.988 292.996 590.323C292.996 590.99 292.551 591.435 292.106 591.88C290.994 592.77 289.882 593.437 288.769 593.882C287.657 594.327 286.322 594.772 285.21 595.217C282.762 595.884 280.093 596.329 277.423 596.107C276.311 595.884 275.421 594.994 275.643 593.882C275.198 592.992 275.643 592.325 276.088 592.102Z" fill="#8EC152"/>
<path d="M283.429 560.291C285.654 558.066 288.323 556.732 290.993 555.619C292.328 554.952 293.663 554.507 295.22 554.062C296.555 553.617 298.112 553.395 299.67 553.395C301.004 553.395 301.894 554.285 301.894 555.619C301.894 556.287 301.672 556.954 301.227 557.399C300.115 558.511 298.78 559.401 297.445 560.069C296.11 560.736 294.775 561.403 293.44 562.071C290.771 563.183 287.879 564.073 284.764 564.073C283.652 564.073 282.762 563.183 282.539 562.071C282.762 561.181 282.984 560.736 283.429 560.291Z" fill="#8EC152"/>
<mask id="mask0_1_2" style="mask-type:luminance" maskUnits="userSpaceOnUse" x="1454" y="82" width="320" height="570">
<path d="M1774 82H1454.75V651.945H1774V82Z" fill="white"/>
</mask>
<g mask="url(#mask0_1_2)">
<path d="M1578.89 669.964C1563.09 648.608 1549.08 621.69 1561.76 599.222C1563.76 595.662 1566.65 592.325 1571.1 590.991C1573.99 590.101 1577.33 590.546 1580.45 591.213C1593.57 593.883 1605.14 601.224 1612.26 611.012C1614.71 602.781 1616.93 594.55 1619.38 586.541C1620.05 583.872 1621.16 580.98 1623.83 579.423C1629.61 575.863 1637.18 581.425 1640.51 586.764C1643.63 592.325 1646.52 598.999 1653.42 600.556C1654.97 590.101 1656.53 579.645 1657.87 569.189C1659.2 559.401 1663.21 547.166 1674.77 545.831C1684.56 544.719 1692.35 552.727 1696.8 560.291C1704.81 574.306 1707.92 590.323 1705.25 605.673C1710.15 603.893 1712.59 599.222 1715.71 595.44C1718.82 591.658 1724.83 588.544 1729.5 590.991C1733.73 593.215 1733.51 598.554 1732.84 602.781C1729.28 621.69 1724.61 640.377 1718.82 658.841C1718.82 658.841 1692.57 710.897 1648.97 709.562C1604.69 708.45 1578.89 669.964 1578.89 669.964Z" fill="#8EC152"/>
</g>
<path d="M1487.09 328.283C1472.63 305.147 1459.73 276.005 1471.74 251.534C1473.52 247.752 1476.42 243.97 1480.42 242.635C1483.09 241.746 1486.2 242.191 1489.1 242.635C1501.11 245.305 1512.01 253.314 1518.46 263.769C1520.69 254.871 1522.91 245.972 1525.36 237.074C1526.03 234.182 1526.92 230.845 1529.59 229.288C1534.93 225.506 1542.05 231.29 1544.94 237.074C1547.83 243.08 1550.28 250.422 1556.73 251.979C1558.29 240.633 1559.84 229.065 1561.4 217.72C1562.74 207.042 1566.74 193.694 1577.42 192.137C1586.54 190.802 1593.88 199.478 1597.89 207.487C1605.23 222.614 1607.9 239.966 1605.23 256.651C1609.9 254.648 1612.12 249.532 1615.02 245.305C1617.91 241.301 1623.47 237.741 1627.92 240.411C1631.92 242.858 1631.7 248.642 1630.81 253.314C1627.25 273.78 1622.8 294.246 1617.24 314.268C1617.24 314.268 1592.1 370.995 1551.61 370.328C1510.68 369.661 1487.09 328.283 1487.09 328.283Z" fill="#3C793D"/>
</svg>
