<svg width="96" height="96" viewBox="0 0 96 96" fill="none" xmlns="http://www.w3.org/2000/svg">
<mask id="mask0_723_1661" style="mask-type:alpha" maskUnits="userSpaceOnUse" x="16" y="16" width="64" height="64">
<rect x="16" y="16" width="64" height="64" fill="#D9D9D9"/>
</mask>
<g mask="url(#mask0_723_1661)">
<path d="M45.2 50.8413L40.872 46.554C40.5027 46.1847 40.0453 45.9958 39.5 45.9873C38.9547 45.9789 38.4751 46.1813 38.0613 46.5947C37.6751 46.9813 37.482 47.4498 37.482 48C37.482 48.5502 37.6751 49.0187 38.0613 49.4053L43.5127 54.8567C43.9949 55.3384 44.5573 55.5793 45.2 55.5793C45.8427 55.5793 46.4051 55.3384 46.8873 54.8567L57.9387 43.8053C58.3351 43.4084 58.5307 42.9442 58.5253 42.4127C58.5204 41.8811 58.3249 41.4084 57.9387 40.9947C57.5249 40.5813 57.0496 40.3678 56.5127 40.354C55.9762 40.3402 55.5011 40.5402 55.0873 40.954L45.2 50.8413ZM38.426 72.4873L34.7387 66.2873L27.764 64.7893C27.1658 64.6733 26.688 64.3589 26.3307 63.846C25.9733 63.3331 25.8307 62.7776 25.9027 62.1793L26.5847 55.0053L21.8413 49.5793C21.4311 49.142 21.226 48.6156 21.226 48C21.226 47.3844 21.4311 46.858 21.8413 46.4207L26.5847 40.9947L25.9027 33.8207C25.8307 33.2224 25.9733 32.6669 26.3307 32.154C26.688 31.6411 27.1658 31.3267 27.764 31.2107L34.7387 29.7127L38.426 23.5127C38.7473 22.9864 39.1849 22.6275 39.7387 22.436C40.2924 22.2444 40.8549 22.2735 41.426 22.5233L48 25.3027L54.574 22.5233C55.1451 22.2735 55.7076 22.2444 56.2613 22.436C56.8151 22.6275 57.2527 22.9864 57.574 23.5127L61.2613 29.7127L68.236 31.2107C68.8342 31.3267 69.312 31.6411 69.6693 32.154C70.0267 32.6669 70.1693 33.2224 70.0973 33.8207L69.4153 40.9947L74.1587 46.4207C74.5689 46.858 74.774 47.3844 74.774 48C74.774 48.6156 74.5689 49.142 74.1587 49.5793L69.4153 55.0053L70.0973 62.1793C70.1693 62.7776 70.0267 63.3331 69.6693 63.846C69.312 64.3589 68.8342 64.6733 68.236 64.7893L61.2613 66.2873L57.574 72.4873C57.2527 73.0136 56.8151 73.3724 56.2613 73.564C55.7076 73.7556 55.1451 73.7264 54.574 73.4767L48 70.6973L41.426 73.4767C40.8549 73.7264 40.2924 73.7556 39.7387 73.564C39.1849 73.3724 38.7473 73.0136 38.426 72.4873ZM41.2 69.2L48 66.318L54.882 69.2L58.6667 62.8L66 61.118L65.3333 53.6L70.2667 48L65.3333 42.318L66 34.8L58.6667 33.2L54.8 26.8L48 29.682L41.118 26.8L37.3333 33.2L30 34.8L30.6667 42.318L25.7333 48L30.6667 53.6L30 61.2L37.3333 62.8L41.2 69.2Z" fill="#478C5C"/>
</g>
</svg>
