<svg width="96" height="96" viewBox="0 0 96 96" fill="none" xmlns="http://www.w3.org/2000/svg">
<mask id="mask0_723_1677" style="mask-type:alpha" maskUnits="userSpaceOnUse" x="16" y="16" width="64" height="64">
<rect x="16" y="16" width="64" height="64" fill="#D9D9D9"/>
</mask>
<g mask="url(#mask0_723_1677)">
<path d="M52.9951 70.9388C53.0808 70.973 53.1577 70.9901 53.2257 70.9901C53.2942 70.9901 53.3713 70.973 53.4571 70.9388L69.1437 66.0821C69.0073 65.4772 68.7253 65.0132 68.2977 64.6901C67.8702 64.367 67.3864 64.2054 66.8464 64.2054H53.7871C52.6235 64.2054 51.6348 64.161 50.8211 64.0721C50.0073 63.9832 49.1713 63.7883 48.3131 63.4874L44.1284 62.1181C43.5906 61.947 43.2042 61.6052 42.9691 61.0928C42.7335 60.5799 42.7013 60.0576 42.8724 59.5261C43.0431 58.9941 43.3737 58.6043 43.8644 58.3568C44.3551 58.1087 44.8704 58.0703 45.4104 58.2414L48.8771 59.4567C49.6842 59.7132 50.5868 59.8952 51.5851 60.0028C52.5833 60.1103 53.8771 60.1779 55.4664 60.2054H56.1797C56.1797 59.5454 56.0311 58.9761 55.7337 58.4974C55.4364 58.0187 55.0448 57.6956 54.5591 57.5281L39.0877 51.8461C39.0362 51.8292 38.9891 51.8165 38.9464 51.8081C38.9037 51.7992 38.8568 51.7948 38.8057 51.7948H33.8724V65.5388L52.9951 70.9388ZM51.9544 74.8567L33.8724 69.6721C33.5679 70.7761 32.9491 71.6623 32.0157 72.3307C31.0824 72.9992 30.0944 73.3334 29.0517 73.3334H25.3597C24.034 73.3334 22.8991 72.8614 21.9551 71.9174C21.0111 70.9734 20.5391 69.8385 20.5391 68.5128V52.6154C20.5391 51.2901 21.0111 50.1554 21.9551 49.2114C22.8991 48.2674 24.034 47.7954 25.3597 47.7954H38.7757C39.0553 47.7954 39.3386 47.8261 39.6257 47.8874C39.9133 47.9492 40.18 48.021 40.4257 48.1028L55.9644 53.8261C57.1746 54.2736 58.1797 55.0659 58.9797 56.2028C59.7797 57.3396 60.1797 58.6739 60.1797 60.2054H66.8464C68.7611 60.2054 70.3208 60.8234 71.5257 62.0594C72.7311 63.295 73.3337 64.8992 73.3337 66.8721C73.3337 67.6276 73.1337 68.2361 72.7337 68.6974C72.3337 69.1592 71.7286 69.525 70.9184 69.7948L54.7391 74.8154C54.3013 74.959 53.8413 75.035 53.3591 75.0434C52.8773 75.0523 52.4091 74.9901 51.9544 74.8567ZM24.5391 68.5128C24.5391 68.7523 24.616 68.949 24.7697 69.1027C24.9235 69.2565 25.1202 69.3334 25.3597 69.3334H29.0517C29.2908 69.3334 29.4875 69.2694 29.6417 69.1414C29.7955 69.013 29.8724 68.8034 29.8724 68.5128V51.7948H25.3597C25.1202 51.7948 24.9235 51.8719 24.7697 52.0261C24.616 52.1799 24.5391 52.3763 24.5391 52.6154V68.5128ZM58.2564 47.9434C57.6582 47.9434 57.0702 47.8341 56.4924 47.6154C55.9146 47.3967 55.3866 47.0685 54.9084 46.6307L47.7031 39.6361C46.428 38.4054 45.3553 37.0354 44.4851 35.5261C43.6148 34.0167 43.1797 32.373 43.1797 30.5947C43.1797 28.3925 43.9506 26.5207 45.4924 24.9794C47.0337 23.4376 48.9055 22.6667 51.1077 22.6667C52.5473 22.6667 53.8764 23.0139 55.0951 23.7081C56.3142 24.4019 57.3682 25.2856 58.2571 26.3594C59.1459 25.2856 60.1997 24.4019 61.4184 23.7081C62.6371 23.0139 63.9662 22.6667 65.4057 22.6667C67.608 22.6667 69.4797 23.4376 71.0211 24.9794C72.5628 26.5207 73.3337 28.3925 73.3337 30.5947C73.3337 32.373 72.9055 34.0167 72.0491 35.5261C71.1926 37.0354 70.1268 38.4054 68.8517 39.6361L61.6057 46.6307C61.1271 47.0685 60.5986 47.3967 60.0204 47.6154C59.4426 47.8341 58.8546 47.9434 58.2564 47.9434ZM58.8211 43.7388L65.8824 36.8874C66.7779 36.0087 67.5771 35.0532 68.2797 34.0207C68.9824 32.9883 69.3337 31.8463 69.3337 30.5947C69.3337 29.4974 68.9533 28.5685 68.1924 27.8081C67.4319 27.0472 66.5031 26.6667 65.4057 26.6667C64.5613 26.6667 63.7886 26.8872 63.0877 27.3281C62.3868 27.7694 61.768 28.3285 61.2311 29.0054L60.0411 30.4414C59.5819 30.9952 58.9886 31.2721 58.2611 31.2721C57.5335 31.2721 56.9373 30.9952 56.4724 30.4414L55.2824 29.0054C54.7455 28.3285 54.1266 27.7694 53.4257 27.3281C52.7253 26.8872 51.9526 26.6667 51.1077 26.6667C50.0104 26.6667 49.0815 27.0472 48.3211 27.8081C47.5602 28.5685 47.1797 29.4974 47.1797 30.5947C47.1797 31.8463 47.5311 32.9883 48.2337 34.0207C48.9364 35.0532 49.7355 36.0087 50.6311 36.8874L57.6924 43.7388C57.8466 43.8925 58.0348 43.9694 58.2571 43.9694C58.4793 43.9694 58.6673 43.8925 58.8211 43.7388Z" fill="#478C5C"/>
</g>
</svg>
