<svg width="1440" height="535" viewBox="0 0 1440 535" fill="none" xmlns="http://www.w3.org/2000/svg">
<path d="M-203 569.723C-203 569.723 535.833 194.876 1570.33 229.58L1570.78 569.723H-203Z" fill="#3C793D"/>
<path d="M578.992 517.667C583.664 510.103 587.669 501.872 590.338 493.196C593.231 484.743 595.01 475.844 595.9 466.946C596.345 462.496 596.568 458.047 596.568 453.598C596.568 451.373 596.123 449.371 595.455 447.592C594.788 445.812 593.453 444.7 591.896 444.477C590.338 444.255 588.336 444.7 586.779 445.812C585.222 446.924 583.887 448.259 582.774 450.039C580.55 453.598 578.992 458.27 574.988 461.829C574.098 462.496 572.986 462.496 572.318 461.829C572.096 461.607 571.873 461.162 571.873 460.939C569.871 450.039 573.208 439.36 571.206 430.017C570.093 425.345 567.869 420.674 564.309 418.004C560.749 415.335 555.855 415.112 551.851 417.114C547.624 419.117 544.286 422.676 542.062 427.125C539.837 431.574 538.28 436.246 536.5 441.363L526.711 470.95C526.266 472.062 525.154 472.73 524.041 472.285C523.374 472.062 522.707 471.395 522.707 470.727C521.817 466.278 520.259 461.829 517.59 458.492C516.255 456.935 514.698 455.6 512.918 455.155C511.138 454.71 509.136 454.71 507.356 455.6C503.796 457.38 501.127 461.162 500.459 465.388C499.792 469.615 500.459 474.287 501.127 479.181C501.349 480.293 500.459 481.183 499.569 481.406C498.68 481.628 498.012 481.183 497.567 480.293C496.01 477.179 494.008 474.287 491.56 471.84C489.336 469.393 486.444 467.168 483.551 466.946C480.659 466.501 477.545 467.835 475.987 470.505C474.208 473.175 473.763 476.511 473.763 479.848C473.763 483.185 474.652 486.745 475.542 490.082C476.432 493.419 477.767 496.755 479.547 499.87C482.884 506.099 487.333 511.66 492.895 516.332C493.563 516.777 493.563 517.667 493.118 518.334C492.673 519.001 491.783 519.002 491.115 518.557C485.109 513.885 480.214 508.101 476.655 501.427C474.875 498.09 473.318 494.753 472.205 490.971C471.093 487.412 470.203 483.63 470.203 479.848C470.203 476.067 470.648 471.84 473.095 468.28C474.207 466.501 475.987 464.943 477.99 464.054C479.992 463.164 482.217 462.719 484.441 463.164C486.666 463.386 488.668 464.276 490.226 465.388C492.005 466.501 493.34 467.836 494.675 469.17C497.345 472.062 499.347 475.177 501.349 478.514L497.567 479.848C496.9 475.177 496.01 470.06 496.9 464.943C497.79 459.827 500.682 454.488 506.021 452.041C508.691 450.706 511.805 450.484 514.475 451.373C517.367 452.263 519.592 454.043 521.372 456.045C524.709 460.272 526.489 465.166 527.379 470.06L523.152 469.838L532.718 440.25C534.275 435.356 535.833 430.24 538.502 425.345C540.949 420.451 544.954 416.002 550.293 413.555C552.963 412.22 555.855 411.553 558.97 411.775C562.084 411.998 564.977 413.11 567.201 414.89C569.649 416.669 571.428 419.117 572.763 421.564C574.098 424.011 574.988 426.68 575.655 429.35C576.768 434.911 576.323 440.25 576.1 445.367C575.655 450.484 575.433 455.6 576.323 460.494L572.986 459.382C575.878 456.712 577.435 452.486 580.105 448.481C581.44 446.479 583.219 444.477 585.444 442.92C587.669 441.585 590.338 440.473 593.231 440.918C596.123 441.363 598.57 443.81 599.682 446.257C600.795 448.704 601.017 451.151 601.017 453.598C601.017 458.27 600.795 462.941 600.35 467.391C598.347 485.855 591.896 503.652 581.884 519.002C581.44 519.669 580.772 519.669 580.105 519.446C578.77 519.224 578.77 518.334 578.992 517.667Z" fill="#8EC152"/>
<path d="M249.509 521.893C252.401 516.777 255.071 511.438 257.296 505.876C258.408 503.207 259.52 500.315 260.633 497.645C261.745 494.753 262.635 492.083 263.08 489.414C263.525 486.744 263.747 483.852 263.08 481.405C262.413 478.958 260.855 477.179 258.63 476.511C256.406 475.844 253.959 476.511 251.511 477.846C249.064 479.181 246.839 480.96 244.837 482.963C243.947 483.63 242.612 483.63 241.945 482.963C241.5 482.518 241.278 481.628 241.5 481.183C243.057 474.509 244.837 467.835 243.057 461.829C242.612 460.272 241.945 458.937 241.055 457.825C240.165 456.712 239.053 455.6 237.718 454.71C235.271 453.153 232.156 452.263 229.709 453.153C228.597 453.598 227.484 454.265 226.594 455.377C225.704 456.49 225.037 457.824 224.592 459.382C223.48 462.496 222.367 465.833 221.255 469.17C219.03 475.844 217.25 482.295 215.471 488.969C215.248 490.081 213.913 490.749 212.801 490.526C211.911 490.304 211.244 489.414 211.244 488.302C211.244 485.855 209.909 483.408 207.907 481.628C205.904 479.848 203.235 478.958 200.787 479.403C198.34 479.848 196.116 481.405 194.558 483.852C193.223 486.077 192.556 488.969 193.446 491.416L189.441 491.639C189.886 489.859 188.551 487.857 186.772 486.744C184.769 485.632 182.322 485.187 180.32 485.855C178.318 486.522 176.315 488.302 175.203 490.526C173.868 492.751 173.201 495.198 172.978 497.868C172.533 502.984 173.423 508.546 175.648 513.44C176.76 515.887 178.095 518.334 179.653 520.336C180.542 521.448 181.432 522.561 182.1 523.006C182.322 523.006 182.322 523.006 182.322 523.006C182.1 523.006 181.877 523.451 181.877 523.673C181.877 524.118 181.877 523.895 181.877 523.895C181.877 523.895 181.877 524.118 182.322 524.118C182.545 524.118 182.99 523.895 183.212 523.895C183.435 523.673 183.435 523.673 183.435 523.451C183.212 524.118 182.322 524.563 181.655 524.34C180.987 524.118 180.542 523.228 180.765 522.561C180.987 522.338 180.987 522.116 181.21 521.671C181.432 521.448 182.1 521.226 182.545 521.226C183.435 521.226 183.657 521.671 183.88 521.893C184.324 522.338 184.769 523.006 184.547 524.118C184.547 524.563 184.102 525.23 183.657 525.453C183.212 525.675 182.99 525.898 182.545 525.898C181.877 526.12 181.21 525.898 180.765 525.675C179.875 525.23 179.208 524.563 178.763 523.895C178.318 523.45 177.873 522.783 177.428 522.116C175.648 519.891 174.091 517.222 172.756 514.552C170.309 509.213 168.974 503.207 169.419 497.2C169.641 494.086 170.531 491.194 171.866 488.302C173.423 485.632 175.648 482.963 178.985 481.85C182.322 480.738 185.882 481.405 188.774 482.963C190.331 483.852 191.666 484.965 192.556 486.522C193.446 488.079 193.891 490.081 193.668 492.084C193.446 493.196 192.333 494.086 191.221 493.863C190.331 493.641 189.886 493.196 189.664 492.528C188.551 488.747 189.219 484.742 191.221 481.628C193.223 478.513 196.338 475.844 200.343 475.176C204.347 474.509 208.129 475.844 211.021 478.291C213.913 480.738 215.916 484.297 216.138 488.302L211.689 487.857C213.468 481.183 215.471 474.287 217.473 467.613C218.585 464.276 219.698 460.939 221.032 457.602C221.7 455.822 222.59 454.043 223.925 452.485C225.26 450.928 227.039 449.371 229.264 448.926C233.491 447.591 237.718 448.926 241.055 451.151C242.612 452.263 244.17 453.598 245.282 455.155C246.394 456.712 247.284 458.714 247.952 460.494C249.064 464.276 249.064 468.058 248.619 471.617C248.174 475.176 247.284 478.736 246.394 482.073L243.057 480.071C245.282 478.068 247.729 476.066 250.621 474.509C253.514 472.952 257.073 471.84 260.855 473.174C262.635 473.842 264.192 474.732 265.305 476.289C266.417 477.624 267.307 479.403 267.752 480.96C268.419 484.297 268.197 487.634 267.529 490.749C266.862 493.863 265.75 496.755 264.637 499.425C263.525 502.317 262.412 504.986 261.078 507.656C258.63 513.217 255.738 518.556 252.624 523.673C252.179 524.34 251.511 524.563 250.844 524.118C249.509 523.228 249.287 522.561 249.509 521.893Z" fill="#8EC152"/>
<path d="M1270.88 480.96C1283.34 465.388 1291.57 446.701 1294.69 427.125C1295.13 424.678 1295.35 422.231 1295.58 419.784C1295.8 417.337 1295.8 414.889 1295.35 412.665C1294.91 410.44 1294.24 408.216 1292.91 406.881C1291.57 405.546 1289.57 404.656 1287.57 404.879C1285.56 405.101 1283.56 405.991 1281.78 407.548C1280 408.883 1278.44 410.663 1277.11 412.665C1274.44 416.669 1272.22 421.563 1267.77 425.123C1266.88 425.79 1265.76 425.568 1265.1 424.9C1264.65 424.455 1264.65 423.788 1264.65 423.343C1267.32 411.108 1268.88 398.427 1269.1 385.969C1269.1 382.855 1269.1 379.963 1268.43 377.071C1267.77 374.179 1266.65 371.51 1264.65 370.175C1262.65 368.84 1259.98 368.618 1257.75 369.952C1255.53 371.065 1253.31 373.289 1251.75 375.736C1249.97 378.183 1248.63 381.075 1247.08 383.745C1245.52 386.637 1244.18 389.306 1242.85 392.198C1240.18 397.982 1237.73 403.766 1235.51 409.55C1231.06 421.341 1227.5 433.354 1224.83 445.812C1224.61 446.924 1223.49 447.814 1222.38 447.369C1221.71 447.146 1221.27 446.924 1221.05 446.479C1219.27 443.587 1218.15 440.25 1217.49 437.136C1216.82 434.021 1216.15 431.129 1215.04 428.237C1214.15 425.568 1212.59 423.121 1210.59 421.118C1208.59 419.339 1206.14 418.226 1203.69 418.449L1205.03 417.559C1198.13 427.125 1195.02 439.583 1196.8 451.373C1197.02 452.485 1196.35 453.375 1195.24 453.598C1194.35 453.82 1193.24 453.153 1193.02 452.263C1191.68 448.036 1190.57 444.032 1188.34 440.472C1187.23 438.693 1186.12 437.136 1184.56 435.801C1183.23 434.466 1181.45 433.576 1179.67 433.131C1176.11 432.019 1171.66 432.686 1169.66 435.578C1167.43 438.248 1167.65 442.697 1167.88 446.924C1168.77 455.155 1173.22 462.719 1179 468.947C1184.78 475.399 1191.46 480.738 1198.35 486.077C1199.02 486.522 1199.02 487.412 1198.58 488.079C1198.13 488.747 1197.24 488.746 1196.57 488.302C1189.46 483.185 1182.56 477.623 1176.55 471.172C1170.55 464.721 1165.43 456.712 1164.32 447.369C1164.09 446.256 1164.09 445.144 1164.09 444.032C1164.09 442.92 1164.09 441.807 1164.09 440.472C1164.32 438.025 1164.98 435.578 1166.54 433.354C1168.1 431.129 1170.55 429.794 1172.99 429.349C1175.44 428.904 1178.11 428.904 1180.33 429.572C1182.78 430.239 1185.01 431.352 1186.79 433.131C1188.57 434.688 1190.12 436.691 1191.24 438.693C1193.68 442.697 1195.02 447.146 1196.13 451.151L1192.35 452.04C1190.35 439.36 1193.46 425.79 1201.02 415.334C1201.25 414.889 1201.91 414.667 1202.36 414.445C1204.36 414.222 1206.36 414.444 1207.92 415.112C1209.7 415.779 1211.26 416.892 1212.59 418.004C1215.26 420.451 1217.04 423.343 1218.15 426.68C1219.27 429.794 1219.93 432.909 1220.6 436.023C1221.27 438.915 1222.16 441.807 1223.72 444.032L1219.71 444.699C1222.38 432.019 1225.94 419.784 1230.39 407.771C1232.62 401.764 1235.29 395.98 1237.95 390.196C1239.29 387.304 1240.85 384.412 1242.18 381.52C1243.74 378.628 1245.07 375.736 1247.08 373.067C1249.08 370.397 1251.3 367.728 1254.64 365.948C1256.2 365.058 1258.2 364.613 1260.2 364.613C1262.2 364.836 1264.21 365.503 1265.76 366.615C1269.1 369.062 1270.44 372.622 1271.1 375.959C1271.77 379.296 1271.99 382.855 1271.77 385.969C1271.55 398.872 1269.99 411.553 1267.1 424.233L1263.98 422.231C1267.54 419.561 1269.77 414.889 1272.66 410.663C1275.55 406.213 1279.78 401.987 1286.01 401.319C1289.12 401.097 1292.24 402.209 1294.24 404.434C1296.24 406.658 1297.36 409.55 1297.8 412.22C1298.24 414.889 1298.25 417.559 1298.02 420.229C1297.8 422.676 1297.36 425.345 1296.91 427.792C1293.57 448.036 1284.67 467.168 1271.77 482.74C1271.33 483.185 1270.44 483.407 1269.99 482.962C1270.44 482.295 1270.44 481.405 1270.88 480.96Z" fill="#8EC152"/>
<path d="M437.054 377.516C440.391 375.959 443.505 375.069 446.842 374.179C448.4 373.734 450.179 373.289 451.959 373.067C453.739 372.844 455.296 372.622 457.076 372.622C458.189 372.622 459.301 373.511 459.301 374.846C459.301 375.514 458.856 376.181 458.411 376.626C456.854 377.738 455.296 378.628 453.517 379.295C451.737 379.963 450.18 380.408 448.4 380.853C444.84 381.52 441.281 381.965 437.499 381.52C436.386 381.298 435.719 380.408 435.719 379.295C436.164 378.406 436.609 377.961 437.054 377.516Z" fill="#8EC152"/>
<path d="M406.796 407.548C410.133 405.323 413.915 403.988 417.474 402.876C419.254 402.209 421.256 401.764 423.036 401.541C425.038 401.096 426.818 400.874 428.821 400.874C429.933 400.874 431.045 401.764 431.045 403.099C431.045 403.766 430.6 404.656 429.933 404.878C428.153 405.991 426.373 406.88 424.594 407.548C422.814 408.215 421.034 408.883 419.032 409.328C415.25 410.44 411.468 411.107 407.463 411.33C406.351 411.33 405.461 410.44 405.461 409.328C405.906 408.438 406.128 407.77 406.796 407.548Z" fill="#8EC152"/>
<path d="M352.515 393.311C355.852 391.308 359.634 390.196 363.193 389.306C364.973 388.861 366.975 388.416 368.755 388.194C370.757 387.971 372.537 387.749 374.539 387.972C375.652 387.972 376.764 389.084 376.542 390.196C376.542 390.864 376.097 391.531 375.429 391.976C373.649 392.866 371.87 393.756 370.09 394.423C368.31 395.09 366.53 395.535 364.528 395.98C360.746 396.87 356.964 397.315 353.182 397.315C352.07 397.315 351.18 396.425 351.18 395.313C351.625 394.2 351.847 393.533 352.515 393.311Z" fill="#8EC152"/>
<path d="M1217.71 261.169C1221.05 259.834 1224.61 259.389 1227.95 259.167C1229.72 259.167 1231.28 258.944 1233.06 259.167C1234.84 259.167 1236.62 259.389 1238.18 259.834C1239.29 260.057 1239.96 261.391 1239.74 262.504C1239.51 263.171 1239.07 263.838 1238.4 264.061C1236.62 264.728 1235.06 265.173 1233.28 265.396C1231.5 265.618 1229.95 265.841 1228.17 265.841C1224.83 265.841 1221.27 265.841 1217.71 264.951C1216.6 264.728 1215.93 263.616 1216.15 262.504C1216.6 262.059 1217.27 261.391 1217.71 261.169Z" fill="#8EC152"/>
<path d="M1240.63 286.529C1244.41 285.862 1247.97 285.639 1251.53 285.417C1253.31 285.194 1255.09 285.194 1256.87 284.972C1258.65 284.749 1260.43 284.749 1262.43 284.749C1263.54 284.749 1264.65 285.862 1264.65 286.974C1264.65 287.641 1264.21 288.309 1263.54 288.754C1261.76 289.866 1259.98 290.533 1257.98 290.978C1255.98 291.423 1253.97 291.868 1251.97 291.868C1247.97 292.091 1243.96 291.646 1240.18 290.088C1239.07 289.643 1238.62 288.531 1239.07 287.419C1239.29 286.974 1239.96 286.529 1240.63 286.529Z" fill="#8EC152"/>
<path d="M1276 258.277C1278.45 257.165 1281.12 256.942 1283.56 256.72C1284.9 256.72 1286.01 256.72 1287.35 256.942C1288.68 257.165 1289.79 257.387 1291.13 258.054C1292.24 258.499 1292.91 260.057 1292.24 261.169C1292.02 261.614 1291.57 262.059 1291.13 262.281C1289.79 262.949 1288.68 263.171 1287.35 263.394C1286.01 263.616 1284.9 263.616 1283.56 263.616C1281.12 263.616 1278.45 263.171 1276 262.059C1274.89 261.614 1274.44 260.279 1274.89 259.389C1275.33 258.944 1275.55 258.499 1276 258.277Z" fill="#8EC152"/>
<path d="M15.2443 509.435C17.469 508.546 19.2488 508.323 21.2511 507.878C22.1409 507.656 23.2533 507.656 24.1432 507.433C25.0331 507.433 26.1455 507.211 27.2579 507.433H27.4803C28.8151 507.433 29.705 508.768 29.705 509.88C29.705 510.325 29.4826 510.77 29.0376 511.215C28.1477 512.328 27.0354 512.995 25.923 513.44C24.8106 513.885 23.4758 514.33 22.1409 514.552C19.6937 514.775 17.0241 514.552 14.7993 513.217C13.9095 512.55 13.4645 511.215 14.1319 510.325C14.3544 509.88 14.7993 509.658 15.2443 509.435Z" fill="#8EC152"/>
<path d="M73.0882 510.102C75.3129 508.323 77.7602 507.433 80.2074 506.543C81.5422 506.098 82.6546 505.876 83.9894 505.653C85.3243 505.431 86.6591 505.431 87.9939 505.653C89.3288 505.876 90.2186 506.988 89.9962 508.323C89.9962 508.99 89.5512 509.435 89.1063 509.88C87.9939 510.77 86.8816 511.437 85.7692 511.882C84.6568 512.327 83.322 512.772 82.2096 513.217C79.7624 513.884 77.0927 514.329 74.4231 514.107C73.3107 513.884 72.4208 512.994 72.6433 511.882C72.1983 510.992 72.6433 510.325 73.0882 510.102Z" fill="#8EC152"/>
<path d="M80.4291 478.291C82.6538 476.066 85.3235 474.732 87.9931 473.619C89.328 472.952 90.6628 472.507 92.2201 472.062C93.555 471.617 95.1123 471.395 96.6696 471.395C98.0044 471.395 98.8943 472.285 98.8943 473.619C98.8943 474.287 98.6719 474.954 98.2269 475.399C97.1146 476.511 95.7797 477.401 94.4449 478.069C93.11 478.736 91.7752 479.403 90.4404 480.071C87.7707 481.183 84.8786 482.073 81.7639 482.073C80.6516 482.073 79.7617 481.183 79.5392 480.071C79.7617 479.181 79.9841 478.736 80.4291 478.291Z" fill="#8EC152"/>
<mask id="mask0_723_1786" style="mask-type:luminance" maskUnits="userSpaceOnUse" x="1251" y="0" width="320" height="570">
<path d="M1571 0H1251.75V569.945H1571V0Z" fill="white"/>
</mask>
<g mask="url(#mask0_723_1786)">
<path d="M1375.89 587.964C1360.09 566.608 1346.08 539.69 1358.76 517.222C1360.76 513.662 1363.65 510.325 1368.1 508.991C1370.99 508.101 1374.33 508.546 1377.45 509.213C1390.57 511.883 1402.14 519.224 1409.26 529.012C1411.71 520.781 1413.93 512.55 1416.38 504.541C1417.05 501.872 1418.16 498.98 1420.83 497.423C1426.61 493.863 1434.18 499.425 1437.51 504.764C1440.63 510.325 1443.52 516.999 1450.42 518.556C1451.97 508.101 1453.53 497.645 1454.87 487.189C1456.2 477.401 1460.21 465.166 1471.77 463.831C1481.56 462.719 1489.35 470.727 1493.8 478.291C1501.81 492.306 1504.92 508.323 1502.25 523.673C1507.15 521.893 1509.59 517.222 1512.71 513.44C1515.82 509.658 1521.83 506.544 1526.5 508.991C1530.73 511.215 1530.51 516.554 1529.84 520.781C1526.28 539.69 1521.61 558.377 1515.82 576.841C1515.82 576.841 1489.57 628.897 1445.97 627.562C1401.69 626.45 1375.89 587.964 1375.89 587.964Z" fill="#8EC152"/>
</g>
<path d="M1284.09 246.283C1269.63 223.147 1256.73 194.005 1268.74 169.534C1270.52 165.752 1273.42 161.97 1277.42 160.635C1280.09 159.746 1283.2 160.191 1286.1 160.635C1298.11 163.305 1309.01 171.314 1315.46 181.769C1317.69 172.871 1319.91 163.972 1322.36 155.074C1323.03 152.182 1323.92 148.845 1326.59 147.288C1331.93 143.506 1339.05 149.29 1341.94 155.074C1344.83 161.08 1347.28 168.422 1353.73 169.979C1355.29 158.633 1356.84 147.065 1358.4 135.72C1359.74 125.042 1363.74 111.694 1374.42 110.137C1383.54 108.802 1390.88 117.478 1394.89 125.487C1402.23 140.614 1404.9 157.966 1402.23 174.651C1406.9 172.648 1409.12 167.532 1412.02 163.305C1414.91 159.301 1420.47 155.741 1424.92 158.411C1428.92 160.858 1428.7 166.642 1427.81 171.314C1424.25 191.78 1419.8 212.246 1414.24 232.268C1414.24 232.268 1389.1 288.995 1348.61 288.328C1307.68 287.661 1284.09 246.283 1284.09 246.283Z" fill="#3C793D"/>
</svg>
