<svg width="96" height="96" viewBox="0 0 96 96" fill="none" xmlns="http://www.w3.org/2000/svg">
<mask id="mask0_723_1669" style="mask-type:alpha" maskUnits="userSpaceOnUse" x="16" y="16" width="64" height="64">
<rect x="16" y="16" width="64" height="64" fill="#D9D9D9"/>
</mask>
<g mask="url(#mask0_723_1669)">
<path d="M32.8207 73.3333C31.4909 73.3333 30.3549 72.8624 29.4127 71.9206C28.4709 70.9784 28 69.8424 28 68.5126V43.4873C28 42.1575 28.4709 41.0215 29.4127 40.0793C30.3549 39.1375 31.4909 38.6666 32.8207 38.6666H36V33.3333C36 30.0035 37.1676 27.171 39.5027 24.8359C41.8378 22.5008 44.6702 21.3333 48 21.3333C51.3298 21.3333 54.1622 22.5008 56.4973 24.8359C58.8324 27.171 60 30.0035 60 33.3333V38.6666H63.1793C64.5091 38.6666 65.6451 39.1375 66.5873 40.0793C67.5291 41.0215 68 42.1575 68 43.4873V68.5126C68 69.8424 67.5291 70.9784 66.5873 71.9206C65.6451 72.8624 64.5091 73.3333 63.1793 73.3333H32.8207ZM32.8207 69.3333H63.1793C63.4189 69.3333 63.6156 69.2564 63.7693 69.1026C63.9231 68.9488 64 68.7521 64 68.5126V43.4873C64 43.2477 63.9231 43.051 63.7693 42.8973C63.6156 42.7435 63.4189 42.6666 63.1793 42.6666H32.8207C32.5811 42.6666 32.3844 42.7435 32.2307 42.8973C32.0769 43.051 32 43.2477 32 43.4873V68.5126C32 68.7521 32.0769 68.9488 32.2307 69.1026C32.3844 69.2564 32.5811 69.3333 32.8207 69.3333ZM48 60.6666C49.2956 60.6666 50.3973 60.2128 51.3053 59.3053C52.2129 58.3973 52.6667 57.2955 52.6667 55.9999C52.6667 54.7044 52.2129 53.6026 51.3053 52.6946C50.3973 51.787 49.2956 51.3333 48 51.3333C46.7044 51.3333 45.6027 51.787 44.6947 52.6946C43.7871 53.6026 43.3333 54.7044 43.3333 55.9999C43.3333 57.2955 43.7871 58.3973 44.6947 59.3053C45.6027 60.2128 46.7044 60.6666 48 60.6666ZM40 38.6666H56V33.3333C56 31.111 55.2222 29.2221 53.6667 27.6666C52.1111 26.111 50.2222 25.3333 48 25.3333C45.7778 25.3333 43.8889 26.111 42.3333 27.6666C40.7778 29.2221 40 31.111 40 33.3333V38.6666Z" fill="#478C5C"/>
</g>
</svg>
