<svg width="32" height="32" viewBox="0 0 32 32" fill="none" xmlns="http://www.w3.org/2000/svg">
<mask id="mask0_832_2827" style="mask-type:alpha" maskUnits="userSpaceOnUse" x="0" y="0" width="32" height="32">
<rect width="32" height="32" fill="#D9D9D9"/>
</mask>
<g mask="url(#mask0_832_2827)">
<path d="M14.6003 17.4207L12.4363 15.277C12.2516 15.0923 12.0229 14.9979 11.7503 14.9937C11.4776 14.9894 11.2378 15.0907 11.0309 15.2973C10.8378 15.4907 10.7413 15.7249 10.7413 16C10.7413 16.2751 10.8378 16.5093 11.0309 16.7027L13.7566 19.4283C13.9977 19.6692 14.2789 19.7897 14.6003 19.7897C14.9216 19.7897 15.2028 19.6692 15.4439 19.4283L20.9696 13.9027C21.1678 13.7042 21.2656 13.4721 21.2629 13.2063C21.2605 12.9406 21.1627 12.7042 20.9696 12.4973C20.7627 12.2907 20.5251 12.1839 20.2566 12.177C19.9884 12.1701 19.7508 12.2701 19.5439 12.477L14.6003 17.4207ZM11.2133 28.2437L9.36961 25.1437L5.88228 24.3947C5.58317 24.3367 5.34428 24.1794 5.16562 23.923C4.98695 23.6666 4.91561 23.3888 4.95161 23.0897L5.29261 19.5027L2.92095 16.7897C2.71584 16.571 2.61328 16.3078 2.61328 16C2.61328 15.6922 2.71584 15.429 2.92095 15.2103L5.29261 12.4973L4.95161 8.91033C4.91561 8.61122 4.98695 8.33344 5.16562 8.077C5.34428 7.82055 5.58317 7.66333 5.88228 7.60533L9.36961 6.85633L11.2133 3.75633C11.3739 3.49322 11.5927 3.31377 11.8696 3.218C12.1465 3.12222 12.4277 3.13677 12.7133 3.26166L16.0003 4.65133L19.2873 3.26166C19.5728 3.13677 19.8541 3.12222 20.1309 3.218C20.4078 3.31377 20.6266 3.49322 20.7873 3.75633L22.6309 6.85633L26.1183 7.60533C26.4174 7.66333 26.6563 7.82055 26.8349 8.077C27.0136 8.33344 27.0849 8.61122 27.0489 8.91033L26.7079 12.4973L29.0796 15.2103C29.2847 15.429 29.3873 15.6922 29.3873 16C29.3873 16.3078 29.2847 16.571 29.0796 16.7897L26.7079 19.5027L27.0489 23.0897C27.0849 23.3888 27.0136 23.6666 26.8349 23.923C26.6563 24.1794 26.4174 24.3367 26.1183 24.3947L22.6309 25.1437L20.7873 28.2437C20.6266 28.5068 20.4078 28.6862 20.1309 28.782C19.8541 28.8778 19.5728 28.8632 19.2873 28.7383L16.0003 27.3487L12.7133 28.7383C12.4277 28.8632 12.1465 28.8778 11.8696 28.782C11.5927 28.6862 11.3739 28.5068 11.2133 28.2437ZM12.6003 26.6L16.0003 25.159L19.4413 26.6L21.3336 23.4L25.0003 22.559L24.667 18.8L27.1336 16L24.667 13.159L25.0003 9.4L21.3336 8.6L19.4003 5.4L16.0003 6.841L12.5593 5.4L10.6669 8.6L7.00028 9.4L7.33361 13.159L4.86695 16L7.33361 18.8L7.00028 22.6L10.6669 23.4L12.6003 26.6Z" fill="#478C5C"/>
</g>
</svg>
