<svg width="54" height="55" viewBox="0 0 54 55" fill="none" xmlns="http://www.w3.org/2000/svg">
<path fill-rule="evenodd" clip-rule="evenodd" d="M0 27.9363C0 42.848 12.0883 54.9363 27 54.9363C41.9117 54.9363 54 42.848 54 27.9363C54 13.0246 41.9117 0.936279 27 0.936279C12.0883 0.936279 0 13.0246 0 27.9363ZM43.9449 26.903C43.9414 35.7531 36.7419 42.9542 27.89 42.9579H27.8833C25.1963 42.9569 22.556 42.2828 20.211 41.0037L11.7 43.2363L13.9777 34.9167C12.5727 32.4819 11.8334 29.72 11.8346 26.8903C11.8381 18.0382 19.0404 10.8363 27.8898 10.8363C32.1847 10.8381 36.2158 12.5101 39.247 15.5449C42.2782 18.5795 43.9466 22.6132 43.9449 26.903Z" fill="white"/>
<path fill-rule="evenodd" clip-rule="evenodd" d="M15.5544 39.4221L20.6049 38.0972L21.0922 38.3864C23.1411 39.6022 25.4896 40.2456 27.8842 40.2465H27.8896C35.2445 40.2465 41.2308 34.2601 41.2337 26.9021C41.2351 23.3365 39.8484 19.9838 37.329 17.4615C34.8096 14.9391 31.4591 13.5493 27.8948 13.5481C20.5341 13.5481 14.5478 19.5339 14.5449 26.8913C14.5439 29.4128 15.2494 31.8684 16.5852 33.9929L16.9025 34.4978L15.5544 39.4221ZM35.4286 30.3597C35.7084 30.4949 35.8973 30.5862 35.978 30.7209C36.0782 30.8881 36.0782 31.6913 35.7441 32.6286C35.4097 33.5656 33.807 34.4208 33.0362 34.536C32.3451 34.6393 31.4705 34.6824 30.5095 34.377C29.9269 34.1922 29.1797 33.9453 28.2226 33.532C24.4618 31.9081 21.9203 28.263 21.4399 27.5741C21.4063 27.5259 21.3827 27.4921 21.3696 27.4746L21.3664 27.4703C21.1541 27.187 19.7316 25.289 19.7316 23.3247C19.7316 21.4769 20.6392 20.5083 21.0571 20.0625C21.0857 20.032 21.112 20.0039 21.1356 19.9781C21.5033 19.5765 21.9379 19.4761 22.2053 19.4761C22.4728 19.4761 22.7405 19.4785 22.9742 19.4903C23.0031 19.4917 23.033 19.4916 23.0641 19.4914C23.2978 19.49 23.5893 19.4883 23.8768 20.1789C23.9874 20.4447 24.1493 20.8387 24.32 21.2543C24.6652 22.0947 25.0466 23.0232 25.1137 23.1576C25.214 23.3584 25.2808 23.5926 25.1471 23.8604C25.127 23.9006 25.1085 23.9385 25.0907 23.9747C24.9903 24.1797 24.9164 24.3306 24.7459 24.5296C24.6789 24.6079 24.6096 24.6922 24.5404 24.7766C24.4024 24.9447 24.2644 25.1127 24.1442 25.2324C23.9434 25.4325 23.7343 25.6495 23.9683 26.0511C24.2023 26.4528 25.0074 27.7664 26.2 28.8302C27.482 29.9736 28.5962 30.4569 29.1609 30.7019C29.2712 30.7497 29.3605 30.7885 29.4261 30.8213C29.8271 31.0221 30.0611 30.9885 30.2951 30.7209C30.5292 30.4531 31.298 29.5494 31.5654 29.1479C31.8327 28.7464 32.1003 28.8133 32.4679 28.9471C32.8357 29.0811 34.808 30.0515 35.2092 30.2523C35.2875 30.2915 35.3607 30.3269 35.4286 30.3597Z" fill="white"/>
</svg>
