<svg width="1440" height="1768" viewBox="0 0 1440 1768" fill="none" xmlns="http://www.w3.org/2000/svg">
<rect y="100" width="1440" height="400" fill="#478C5C"/>
<path d="M1292.97 383.38C1287.95 375.337 1283.48 365.205 1287.65 356.698C1288.26 355.383 1289.27 354.068 1290.65 353.604C1291.58 353.295 1292.66 353.449 1293.66 353.604C1297.83 354.532 1301.61 357.316 1303.85 360.951C1304.62 357.858 1305.39 354.764 1306.24 351.671C1306.47 350.665 1306.78 349.505 1307.71 348.964C1309.56 347.649 1312.03 349.66 1313.03 351.671C1314.03 353.759 1314.88 356.311 1317.12 356.852C1317.66 352.908 1318.2 348.886 1318.74 344.942C1319.2 341.229 1320.59 336.589 1324.3 336.048C1327.46 335.584 1330.01 338.6 1331.39 341.384C1333.94 346.643 1334.87 352.676 1333.94 358.477C1335.56 357.78 1336.33 356.002 1337.34 354.532C1338.34 353.14 1340.27 351.903 1341.81 352.831C1343.2 353.681 1343.12 355.692 1342.81 357.316C1341.58 364.432 1340.04 371.547 1338.11 378.508C1338.11 378.508 1329.39 398.23 1315.35 397.998C1301.15 397.766 1292.97 383.38 1292.97 383.38Z" fill="#407E53"/>
<path d="M675 500C675 500 393.842 380.964 0.169312 389.431L0 500H675Z" fill="#356945"/>
<path d="M28.9694 393.38C23.954 385.337 19.4788 375.205 23.6454 366.698C24.2627 365.383 25.2657 364.068 26.6546 363.604C27.5805 363.295 28.6607 363.449 29.6638 363.604C33.8304 364.532 37.6111 367.316 39.8487 370.951C40.6203 367.858 41.3919 364.764 42.2407 361.671C42.4721 360.665 42.7808 359.505 43.7067 358.964C45.5585 357.649 48.0276 359.66 49.0306 361.671C50.0337 363.759 50.8824 366.311 53.12 366.852C53.6602 362.908 54.2003 358.886 54.7404 354.942C55.2033 351.229 56.5922 346.589 60.2958 346.048C63.4593 345.584 66.0056 348.6 67.3944 351.384C69.9407 356.643 70.8666 362.676 69.9407 368.477C71.561 367.78 72.3326 366.002 73.3357 364.532C74.3387 363.14 76.2677 361.903 77.8109 362.831C79.1997 363.681 79.1225 365.692 78.8139 367.316C77.5794 374.432 76.0362 381.547 74.1072 388.508C74.1072 388.508 65.3883 408.23 51.3454 407.998C37.1482 407.766 28.9694 393.38 28.9694 393.38Z" fill="#356945"/>
<path d="M521.844 449.521C520.038 448.799 518.593 448.619 516.968 448.257C516.246 448.077 515.343 448.077 514.621 447.896C513.898 447.896 512.995 447.716 512.092 447.896H511.912C510.828 447.896 510.106 448.98 510.106 449.883C510.106 450.244 510.286 450.605 510.648 450.966C511.37 451.869 512.273 452.411 513.176 452.772C514.079 453.133 515.162 453.494 516.246 453.675C518.232 453.855 520.399 453.675 522.205 452.591C522.928 452.049 523.289 450.966 522.747 450.244C522.566 449.883 522.205 449.702 521.844 449.521Z" fill="#BACC81"/>
<path d="M474.888 450.063C473.082 448.618 471.095 447.896 469.109 447.173C468.025 446.812 467.122 446.632 466.039 446.451C464.955 446.271 463.872 446.271 462.788 446.451C461.705 446.632 460.982 447.535 461.163 448.618C461.163 449.16 461.524 449.521 461.885 449.882C462.788 450.604 463.691 451.146 464.594 451.507C465.497 451.868 466.581 452.23 467.484 452.591C469.47 453.132 471.637 453.494 473.804 453.313C474.707 453.132 475.429 452.41 475.249 451.507C475.61 450.785 475.249 450.243 474.888 450.063Z" fill="#BACC81"/>
<path d="M531.989 476.598C530.183 474.792 528.016 473.709 525.849 472.806C524.765 472.264 523.682 471.903 522.418 471.542C521.334 471.181 520.07 471 518.806 471C517.722 471 517 471.722 517 472.806C517 473.348 517.18 473.889 517.542 474.25C518.445 475.153 519.528 475.876 520.612 476.417C521.695 476.959 522.779 477.501 523.862 478.042C526.029 478.945 528.377 479.668 530.905 479.668C531.808 479.668 532.53 478.945 532.711 478.042C532.53 477.32 532.35 476.959 531.989 476.598Z" fill="#BACC81"/>
<path d="M180.634 457.814C178.857 454.938 177.334 451.808 176.319 448.509C175.22 445.295 174.543 441.911 174.204 438.528C174.035 436.836 173.951 435.144 173.951 433.453C173.951 432.607 174.12 431.845 174.374 431.169C174.627 430.492 175.135 430.069 175.727 429.984C176.319 429.9 177.081 430.069 177.673 430.492C178.265 430.915 178.772 431.422 179.195 432.099C180.041 433.453 180.634 435.229 182.156 436.582C182.495 436.836 182.918 436.836 183.171 436.582C183.256 436.498 183.341 436.329 183.341 436.244C184.102 432.099 182.833 428.039 183.594 424.486C184.017 422.71 184.863 420.933 186.217 419.918C187.57 418.903 189.431 418.819 190.954 419.58C192.561 420.341 193.83 421.695 194.676 423.386C195.522 425.078 196.114 426.855 196.791 428.8L200.513 440.05C200.682 440.473 201.105 440.727 201.528 440.558C201.782 440.473 202.036 440.22 202.036 439.966C202.374 438.274 202.966 436.582 203.982 435.313C204.489 434.721 205.081 434.214 205.758 434.045C206.435 433.875 207.196 433.875 207.873 434.214C209.226 434.891 210.241 436.329 210.495 437.936C210.749 439.543 210.495 441.319 210.241 443.18C210.157 443.603 210.495 443.942 210.834 444.026C211.172 444.111 211.426 443.942 211.595 443.603C212.187 442.419 212.948 441.319 213.879 440.389C214.725 439.458 215.825 438.612 216.924 438.528C218.024 438.359 219.208 438.866 219.801 439.881C220.477 440.896 220.646 442.165 220.646 443.434C220.646 444.703 220.308 446.056 219.97 447.325C219.631 448.594 219.124 449.863 218.447 451.047C217.178 453.416 215.486 455.53 213.371 457.307C213.118 457.476 213.118 457.814 213.287 458.068C213.456 458.322 213.794 458.322 214.048 458.153C216.332 456.376 218.193 454.177 219.547 451.639C220.224 450.37 220.816 449.102 221.239 447.664C221.662 446.31 222 444.872 222 443.434C222 441.996 221.831 440.389 220.9 439.035C220.477 438.359 219.801 437.767 219.039 437.428C218.278 437.09 217.432 436.921 216.586 437.09C215.74 437.174 214.979 437.513 214.387 437.936C213.71 438.359 213.202 438.866 212.695 439.374C211.68 440.473 210.918 441.658 210.157 442.927L211.595 443.434C211.849 441.658 212.187 439.712 211.849 437.767C211.51 435.821 210.411 433.791 208.38 432.86C207.365 432.353 206.181 432.268 205.166 432.607C204.066 432.945 203.22 433.622 202.543 434.383C201.274 435.99 200.598 437.851 200.259 439.712L201.867 439.628L198.229 428.377C197.637 426.516 197.045 424.571 196.03 422.71C195.099 420.849 193.576 419.157 191.546 418.226C190.531 417.719 189.431 417.465 188.247 417.55C187.063 417.634 185.963 418.057 185.117 418.734C184.186 419.411 183.51 420.341 183.002 421.272C182.495 422.202 182.156 423.217 181.902 424.232C181.479 426.347 181.649 428.377 181.733 430.323C181.902 432.268 181.987 434.214 181.649 436.075L182.918 435.652C181.818 434.637 181.226 433.03 180.211 431.507C179.703 430.746 179.026 429.984 178.18 429.392C177.334 428.885 176.319 428.462 175.22 428.631C174.12 428.8 173.189 429.731 172.766 430.661C172.343 431.592 172.259 432.522 172.259 433.453C172.259 435.229 172.343 437.005 172.513 438.697C173.274 445.718 175.727 452.485 179.534 458.322C179.703 458.576 179.957 458.576 180.211 458.491C180.718 458.406 180.718 458.068 180.634 457.814Z" fill="#478C5C"/>
<path d="M37 500C37 500 621.393 376.296 1439.65 387.749L1440 500H37Z" fill="#407E53"/>
<path d="M598.983 491.645C601.173 488.1 603.05 484.243 604.301 480.177C605.656 476.215 606.49 472.045 606.907 467.875C607.116 465.79 607.22 463.705 607.22 461.62C607.22 460.577 607.012 459.639 606.699 458.805C606.386 457.971 605.76 457.45 605.031 457.345C604.301 457.241 603.362 457.45 602.633 457.971C601.903 458.492 601.277 459.118 600.756 459.952C599.713 461.62 598.984 463.809 597.107 465.477C596.69 465.79 596.168 465.79 595.856 465.477C595.751 465.373 595.647 465.164 595.647 465.06C594.709 459.952 596.273 454.947 595.334 450.569C594.813 448.379 593.77 446.19 592.102 444.939C590.434 443.688 588.14 443.584 586.264 444.522C584.283 445.46 582.719 447.128 581.676 449.213C580.634 451.298 579.904 453.488 579.07 455.886L574.482 469.752C574.274 470.273 573.752 470.586 573.231 470.377C572.918 470.273 572.606 469.96 572.606 469.647C572.189 467.562 571.459 465.477 570.208 463.913C569.582 463.184 568.852 462.558 568.018 462.349C567.184 462.141 566.246 462.141 565.412 462.558C563.743 463.392 562.492 465.164 562.179 467.145C561.867 469.126 562.179 471.315 562.492 473.609C562.597 474.13 562.179 474.547 561.762 474.652C561.345 474.756 561.033 474.547 560.824 474.13C560.094 472.671 559.156 471.315 558.009 470.169C556.966 469.022 555.611 467.979 554.256 467.875C552.9 467.667 551.441 468.292 550.711 469.543C549.877 470.794 549.668 472.358 549.668 473.922C549.668 475.486 550.085 477.154 550.502 478.718C550.919 480.281 551.545 481.845 552.379 483.305C553.943 486.224 556.028 488.83 558.635 491.02C558.947 491.228 558.947 491.645 558.739 491.958C558.53 492.271 558.113 492.271 557.801 492.062C554.985 489.873 552.692 487.162 551.024 484.035C550.189 482.471 549.46 480.907 548.938 479.135C548.417 477.466 548 475.694 548 473.922C548 472.149 548.209 470.169 549.355 468.501C549.877 467.666 550.711 466.937 551.649 466.52C552.587 466.103 553.63 465.894 554.673 466.103C555.715 466.207 556.654 466.624 557.383 467.145C558.218 467.666 558.843 468.292 559.469 468.918C560.72 470.273 561.658 471.732 562.596 473.296L560.824 473.922C560.511 471.732 560.094 469.335 560.511 466.937C560.928 464.539 562.284 462.037 564.786 460.89C566.037 460.264 567.497 460.16 568.748 460.577C570.103 460.994 571.146 461.828 571.98 462.766C573.544 464.747 574.378 467.041 574.795 469.335L572.814 469.23L577.297 455.364C578.027 453.071 578.757 450.673 580.008 448.379C581.155 446.086 583.032 444.001 585.534 442.854C586.785 442.228 588.14 441.916 589.6 442.02C591.06 442.124 592.415 442.645 593.458 443.479C594.605 444.313 595.439 445.46 596.064 446.607C596.69 447.754 597.107 449.005 597.42 450.256C597.941 452.862 597.732 455.364 597.628 457.762C597.42 460.16 597.315 462.558 597.732 464.852L596.168 464.33C597.524 463.079 598.254 461.098 599.505 459.222C600.13 458.284 600.964 457.345 602.007 456.615C603.05 455.99 604.301 455.469 605.656 455.677C607.012 455.886 608.158 457.032 608.68 458.179C609.201 459.326 609.305 460.473 609.305 461.62C609.305 463.809 609.201 465.998 608.992 468.084C608.054 476.737 605.031 485.077 600.339 492.271C600.13 492.583 599.818 492.583 599.505 492.479C598.879 492.375 598.879 491.958 598.983 491.645Z" fill="#BACC81"/>
<path d="M1243.68 457.442C1253.79 444.801 1260.48 429.633 1263 413.742C1263.37 411.756 1263.55 409.769 1263.73 407.783C1263.91 405.797 1263.91 403.81 1263.55 402.005C1263.19 400.199 1262.64 398.393 1261.56 397.31C1260.48 396.226 1258.85 395.504 1257.23 395.684C1255.6 395.865 1253.98 396.587 1252.53 397.851C1251.09 398.935 1249.82 400.379 1248.74 402.005C1246.57 405.255 1244.77 409.228 1241.15 412.117C1240.43 412.659 1239.53 412.478 1238.99 411.936C1238.63 411.575 1238.63 411.033 1238.63 410.672C1240.79 400.741 1242.06 390.448 1242.24 380.335C1242.24 377.807 1242.24 375.46 1241.7 373.112C1241.15 370.765 1240.25 368.598 1238.63 367.514C1237 366.431 1234.83 366.25 1233.03 367.334C1231.22 368.237 1229.42 370.043 1228.15 372.029C1226.71 374.015 1225.62 376.363 1224.36 378.53C1223.09 380.877 1222.01 383.044 1220.93 385.392C1218.76 390.087 1216.77 394.782 1214.97 399.477C1211.36 409.047 1208.47 418.798 1206.3 428.911C1206.12 429.814 1205.22 430.536 1204.31 430.175C1203.77 429.994 1203.41 429.813 1203.23 429.452C1201.79 427.105 1200.88 424.396 1200.34 421.868C1199.8 419.34 1199.26 416.993 1198.35 414.645C1197.63 412.478 1196.37 410.492 1194.74 408.867C1193.12 407.422 1191.13 406.519 1189.14 406.7L1190.23 405.977C1184.63 413.742 1182.1 423.854 1183.55 433.425C1183.73 434.328 1183.19 435.05 1182.28 435.231C1181.56 435.411 1180.66 434.87 1180.48 434.147C1179.39 430.716 1178.49 427.466 1176.68 424.577C1175.78 423.132 1174.88 421.868 1173.61 420.785C1172.53 419.701 1171.09 418.979 1169.64 418.618C1166.75 417.715 1163.14 418.257 1161.51 420.604C1159.71 422.771 1159.89 426.383 1160.07 429.814C1160.79 436.495 1164.4 442.634 1169.1 447.691C1173.79 452.927 1179.21 457.261 1184.81 461.595C1185.35 461.956 1185.35 462.679 1184.99 463.22C1184.63 463.762 1183.91 463.762 1183.37 463.401C1177.59 459.248 1171.99 454.733 1167.11 449.496C1162.24 444.26 1158.08 437.759 1157.18 430.175C1157 429.272 1157 428.369 1157 427.466C1157 426.563 1157 425.66 1157 424.577C1157.18 422.59 1157.72 420.604 1158.99 418.798C1160.25 416.993 1162.24 415.909 1164.22 415.548C1166.21 415.187 1168.38 415.187 1170.18 415.728C1172.17 416.27 1173.98 417.173 1175.42 418.618C1176.86 419.882 1178.13 421.507 1179.03 423.132C1181.02 426.383 1182.1 429.994 1183 433.244L1179.93 433.967C1178.31 423.674 1180.84 412.659 1186.98 404.172C1187.16 403.81 1187.7 403.63 1188.06 403.449C1189.69 403.269 1191.31 403.449 1192.58 403.991C1194.02 404.533 1195.28 405.436 1196.37 406.339C1198.53 408.325 1199.98 410.672 1200.88 413.381C1201.79 415.909 1202.33 418.437 1202.87 420.965C1203.41 423.313 1204.13 425.66 1205.4 427.466L1202.15 428.008C1204.31 417.715 1207.2 407.783 1210.81 398.032C1212.62 393.156 1214.79 388.461 1216.95 383.766C1218.04 381.419 1219.3 379.071 1220.39 376.724C1221.65 374.376 1222.73 372.029 1224.36 369.862C1225.98 367.695 1227.79 365.528 1230.5 364.083C1231.76 363.361 1233.39 363 1235.01 363C1236.64 363.181 1238.26 363.722 1239.53 364.625C1242.24 366.612 1243.32 369.501 1243.86 372.209C1244.4 374.918 1244.58 377.807 1244.4 380.335C1244.22 390.809 1242.96 401.102 1240.61 411.395L1238.08 409.769C1240.97 407.603 1242.78 403.81 1245.13 400.379C1247.47 396.768 1250.91 393.337 1255.96 392.795C1258.49 392.615 1261.02 393.518 1262.64 395.323C1264.27 397.129 1265.17 399.477 1265.53 401.643C1265.89 403.81 1265.89 405.977 1265.71 408.144C1265.53 410.131 1265.17 412.298 1264.81 414.284C1262.1 430.716 1254.88 446.246 1244.4 458.886C1244.04 459.248 1243.32 459.428 1242.96 459.067C1243.32 458.525 1243.32 457.803 1243.68 457.442Z" fill="#BACC81"/>
<path d="M61.7047 437.973C64.4135 436.709 66.9416 435.986 69.6504 435.264C70.9145 434.903 72.3592 434.542 73.8039 434.361C75.2486 434.181 76.5128 434 77.9575 434C78.8604 434 79.7634 434.722 79.7634 435.806C79.7634 436.348 79.4022 436.889 79.041 437.25C77.7769 438.153 76.5127 438.876 75.068 439.417C73.6234 439.959 72.3593 440.32 70.9146 440.681C68.0252 441.223 65.1357 441.584 62.0658 441.223C61.1628 441.043 60.6211 440.32 60.6211 439.417C60.9823 438.695 61.3435 438.334 61.7047 437.973Z" fill="#478C5C"/>
<path d="M37.1421 462.351C39.8509 460.545 42.9208 459.461 45.8102 458.558C47.2549 458.017 48.8802 457.656 50.3249 457.475C51.9502 457.114 53.3949 456.933 55.0202 456.933C55.9232 456.933 56.8261 457.656 56.8261 458.739C56.8261 459.281 56.4649 460.003 55.9232 460.184C54.4785 461.086 53.0337 461.809 51.589 462.351C50.1443 462.892 48.6996 463.434 47.0743 463.795C44.0044 464.698 40.9344 465.24 37.6838 465.42C36.7809 465.42 36.0586 464.698 36.0586 463.795C36.4198 463.073 36.6003 462.531 37.1421 462.351Z" fill="#478C5C"/>
<path d="M9.08353 450.794C11.7923 449.169 14.8623 448.266 17.7517 447.543C19.1964 447.182 20.8217 446.821 22.2664 446.641C23.8917 446.46 25.3363 446.279 26.9616 446.46C27.8646 446.46 28.7675 447.363 28.587 448.266C28.587 448.808 28.2258 449.349 27.684 449.71C26.2393 450.433 24.7946 451.155 23.3499 451.697C21.9052 452.239 20.4605 452.6 18.8352 452.961C15.7652 453.683 12.6953 454.044 9.62533 454.044C8.72239 454.044 8 453.322 8 452.419C8.36117 451.516 8.54177 450.974 9.08353 450.794Z" fill="#478C5C"/>
<path d="M1117.04 443.264C1119.03 442.361 1121.19 442.181 1123.18 442C1124.26 442 1125.17 442 1126.25 442.181C1127.33 442.361 1128.24 442.542 1129.32 443.083C1130.22 443.445 1130.77 444.709 1130.22 445.612C1130.04 445.973 1129.68 446.334 1129.32 446.514C1128.24 447.056 1127.33 447.237 1126.25 447.417C1125.17 447.598 1124.26 447.598 1123.18 447.598C1121.19 447.598 1119.03 447.237 1117.04 446.334C1116.14 445.973 1115.78 444.889 1116.14 444.167C1116.5 443.806 1116.68 443.445 1117.04 443.264Z" fill="#BACC81"/>
<path d="M1073.4 446.445C1076.47 445.903 1079.36 445.722 1082.25 445.542C1083.7 445.361 1085.14 445.361 1086.59 445.181C1088.03 445 1089.47 445 1091.1 445C1092 445 1092.91 445.903 1092.91 446.806C1092.91 447.348 1092.54 447.889 1092 448.25C1090.56 449.153 1089.11 449.695 1087.49 450.056C1085.86 450.417 1084.24 450.778 1082.61 450.778C1079.36 450.959 1076.11 450.598 1073.04 449.334C1072.14 448.973 1071.78 448.07 1072.14 447.167C1072.32 446.806 1072.86 446.445 1073.4 446.445Z" fill="#BACC81"/>
<path d="M426.164 475.879C427.97 475.156 429.414 474.976 431.04 474.615C431.762 474.434 432.665 474.434 433.387 474.253C434.11 474.253 435.013 474.073 435.916 474.253H436.096C437.18 474.253 437.902 475.337 437.902 476.24C437.902 476.601 437.721 476.962 437.36 477.323C436.638 478.226 435.735 478.768 434.832 479.129C433.929 479.49 432.845 479.851 431.762 480.032C429.776 480.213 427.609 480.032 425.803 478.948C425.08 478.407 424.719 477.323 425.261 476.601C425.441 476.24 425.803 476.059 426.164 475.879Z" fill="#BACC81"/>
<path d="M473.112 476.42C474.918 474.975 476.905 474.253 478.891 473.531C479.975 473.17 480.878 472.989 481.961 472.808C483.045 472.628 484.128 472.628 485.212 472.808C486.295 472.989 487.018 473.892 486.837 474.975C486.837 475.517 486.476 475.878 486.115 476.239C485.212 476.962 484.309 477.503 483.406 477.865C482.503 478.226 481.419 478.587 480.516 478.948C478.53 479.49 476.363 479.851 474.196 479.67C473.293 479.49 472.571 478.767 472.751 477.865C472.39 477.142 472.751 476.601 473.112 476.42Z" fill="#BACC81"/>
<path d="M479.074 450.598C480.88 448.792 483.047 447.709 485.214 446.806C486.297 446.264 487.381 445.903 488.645 445.542C489.729 445.181 490.993 445 492.257 445C493.34 445 494.063 445.722 494.063 446.806C494.063 447.348 493.882 447.889 493.521 448.25C492.618 449.153 491.534 449.876 490.451 450.417C489.367 450.959 488.284 451.501 487.2 452.042C485.033 452.945 482.686 453.668 480.157 453.668C479.254 453.668 478.532 452.945 478.352 452.042C478.532 451.32 478.713 450.959 479.074 450.598Z" fill="#BACC81"/>
<g filter="url(#filter0_f_930_5818)">
<path d="M1718 459.5C1718 629.88 1579.88 768 1409.5 768C1239.12 768 1101 629.88 1101 459.5C1101 289.12 1239.12 151 1409.5 151C1579.88 151 1718 289.12 1718 459.5Z" fill="#BACC81"/>
</g>
<path d="M1094.3 422.705C1097.01 421.622 1099.9 421.261 1102.61 421.08C1104.05 421.08 1105.31 420.9 1106.76 421.08C1108.2 421.08 1109.65 421.261 1110.91 421.622C1111.82 421.803 1112.36 422.886 1112.18 423.789C1112 424.331 1111.64 424.872 1111.09 425.053C1109.65 425.595 1108.38 425.956 1106.94 426.136C1105.5 426.317 1104.23 426.498 1102.79 426.498C1100.08 426.498 1097.19 426.498 1094.3 425.775C1093.4 425.595 1092.85 424.692 1093.03 423.789C1093.4 423.428 1093.94 422.886 1094.3 422.705Z" fill="#BACC81"/>
<path d="M241.644 278.68C241.644 280.76 240.884 282.52 239.364 283.96C237.844 285.32 236.084 286 234.084 286C231.844 286 230.044 285.32 228.684 283.96C227.324 282.52 226.644 280.76 226.644 278.68V209.32C226.644 207.24 227.364 205.52 228.804 204.16C230.244 202.72 232.084 202 234.324 202C236.244 202 237.924 202.72 239.364 204.16C240.884 205.52 241.644 207.24 241.644 209.32V278.68ZM285.011 220.6C291.411 220.6 296.131 222.16 299.171 225.28C302.211 228.32 304.211 232.28 305.171 237.16L303.131 236.08L304.091 234.16C305.051 232.32 306.531 230.36 308.531 228.28C310.531 226.12 312.931 224.32 315.731 222.88C318.611 221.36 321.811 220.6 325.331 220.6C331.091 220.6 335.451 221.84 338.411 224.32C341.451 226.8 343.531 230.12 344.651 234.28C345.771 238.36 346.331 242.92 346.331 247.96V278.68C346.331 280.76 345.651 282.52 344.291 283.96C342.931 285.32 341.211 286 339.131 286C337.051 286 335.331 285.32 333.971 283.96C332.611 282.52 331.931 280.76 331.931 278.68V247.96C331.931 245.32 331.611 242.96 330.971 240.88C330.331 238.72 329.171 237 327.491 235.72C325.811 234.44 323.411 233.8 320.291 233.8C317.251 233.8 314.651 234.44 312.491 235.72C310.331 237 308.691 238.72 307.571 240.88C306.531 242.96 306.011 245.32 306.011 247.96V278.68C306.011 280.76 305.331 282.52 303.971 283.96C302.611 285.32 300.891 286 298.811 286C296.731 286 295.011 285.32 293.651 283.96C292.291 282.52 291.611 280.76 291.611 278.68V247.96C291.611 245.32 291.291 242.96 290.651 240.88C290.011 238.72 288.851 237 287.171 235.72C285.491 234.44 283.091 233.8 279.971 233.8C276.931 233.8 274.331 234.44 272.171 235.72C270.011 237 268.371 238.72 267.251 240.88C266.211 242.96 265.691 245.32 265.691 247.96V278.68C265.691 280.76 265.011 282.52 263.651 283.96C262.291 285.32 260.571 286 258.491 286C256.411 286 254.691 285.32 253.331 283.96C251.971 282.52 251.291 280.76 251.291 278.68V229.12C251.291 227.04 251.971 225.32 253.331 223.96C254.691 222.52 256.411 221.8 258.491 221.8C260.571 221.8 262.291 222.52 263.651 223.96C265.011 225.32 265.691 227.04 265.691 229.12V234.28L263.891 233.92C264.611 232.56 265.611 231.12 266.891 229.6C268.171 228 269.731 226.52 271.571 225.16C273.411 223.8 275.451 222.72 277.691 221.92C279.931 221.04 282.371 220.6 285.011 220.6ZM387.956 220.6C393.556 220.6 398.556 222.04 402.956 224.92C407.436 227.72 410.956 231.6 413.516 236.56C416.156 241.52 417.476 247.28 417.476 253.84C417.476 260.4 416.156 266.2 413.516 271.24C410.956 276.2 407.476 280.12 403.076 283C398.756 285.8 393.876 287.2 388.436 287.2C385.236 287.2 382.236 286.68 379.436 285.64C376.636 284.6 374.156 283.28 371.996 281.68C369.916 280.08 368.276 278.48 367.076 276.88C365.956 275.2 365.396 273.8 365.396 272.68L369.116 271.12V302.68C369.116 304.76 368.436 306.48 367.076 307.84C365.716 309.28 363.996 310 361.916 310C359.836 310 358.116 309.32 356.756 307.96C355.396 306.6 354.716 304.84 354.716 302.68V229.12C354.716 227.04 355.396 225.32 356.756 223.96C358.116 222.52 359.836 221.8 361.916 221.8C363.996 221.8 365.716 222.52 367.076 223.96C368.436 225.32 369.116 227.04 369.116 229.12V235L367.076 233.92C367.076 232.88 367.636 231.64 368.756 230.2C369.876 228.68 371.396 227.2 373.316 225.76C375.236 224.24 377.436 223 379.916 222.04C382.476 221.08 385.156 220.6 387.956 220.6ZM386.156 233.8C382.636 233.8 379.556 234.68 376.916 236.44C374.276 238.2 372.196 240.6 370.676 243.64C369.236 246.6 368.516 250 368.516 253.84C368.516 257.6 369.236 261.04 370.676 264.16C372.196 267.2 374.276 269.6 376.916 271.36C379.556 273.12 382.636 274 386.156 274C389.676 274 392.716 273.12 395.276 271.36C397.916 269.6 399.956 267.2 401.396 264.16C402.916 261.04 403.676 257.6 403.676 253.84C403.676 250 402.916 246.6 401.396 243.64C399.956 240.6 397.916 238.2 395.276 236.44C392.716 234.68 389.676 233.8 386.156 233.8ZM470.507 221.8C472.587 221.8 474.307 222.52 475.667 223.96C477.027 225.32 477.707 227.04 477.707 229.12V259.6C477.707 268.08 475.347 274.8 470.627 279.76C465.907 284.72 459.107 287.2 450.227 287.2C441.347 287.2 434.547 284.72 429.827 279.76C425.187 274.8 422.867 268.08 422.867 259.6V229.12C422.867 227.04 423.547 225.32 424.907 223.96C426.267 222.52 427.987 221.8 430.067 221.8C432.147 221.8 433.867 222.52 435.227 223.96C436.587 225.32 437.267 227.04 437.267 229.12V259.6C437.267 264.48 438.347 268.12 440.507 270.52C442.667 272.84 445.907 274 450.227 274C454.627 274 457.907 272.84 460.067 270.52C462.227 268.12 463.307 264.48 463.307 259.6V229.12C463.307 227.04 463.987 225.32 465.347 223.96C466.707 222.52 468.427 221.8 470.507 221.8ZM501.697 278.68C501.697 280.76 500.977 282.52 499.537 283.96C498.177 285.32 496.457 286 494.377 286C492.377 286 490.697 285.32 489.337 283.96C487.977 282.52 487.297 280.76 487.297 278.68V204.52C487.297 202.44 487.977 200.72 489.337 199.36C490.777 197.92 492.537 197.2 494.617 197.2C496.697 197.2 498.377 197.92 499.657 199.36C501.017 200.72 501.697 202.44 501.697 204.52V278.68ZM507.521 276.04C506.721 274.92 506.361 273.48 506.441 271.72C506.521 269.96 507.561 268.44 509.561 267.16C510.841 266.36 512.201 266.04 513.641 266.2C515.081 266.28 516.481 267 517.841 268.36C520.161 270.68 522.601 272.48 525.161 273.76C527.721 275.04 530.921 275.68 534.761 275.68C535.961 275.6 537.281 275.44 538.721 275.2C540.161 274.88 541.401 274.24 542.441 273.28C543.561 272.24 544.121 270.68 544.121 268.6C544.121 266.84 543.521 265.44 542.321 264.4C541.121 263.36 539.521 262.48 537.521 261.76C535.601 261.04 533.441 260.36 531.041 259.72C528.561 259 526.001 258.2 523.361 257.32C520.801 256.44 518.441 255.32 516.281 253.96C514.121 252.52 512.361 250.64 511.001 248.32C509.641 246 508.961 243.08 508.961 239.56C508.961 235.56 510.081 232.16 512.321 229.36C514.561 226.56 517.441 224.4 520.961 222.88C524.561 221.36 528.321 220.6 532.241 220.6C534.721 220.6 537.321 220.92 540.041 221.56C542.761 222.12 545.361 223.08 547.841 224.44C550.321 225.72 552.401 227.44 554.081 229.6C554.961 230.8 555.481 232.24 555.641 233.92C555.801 235.6 555.041 237.12 553.361 238.48C552.161 239.44 550.761 239.88 549.161 239.8C547.561 239.64 546.241 239.08 545.201 238.12C543.841 236.36 542.001 234.96 539.681 233.92C537.441 232.88 534.841 232.36 531.881 232.36C530.681 232.36 529.361 232.52 527.921 232.84C526.561 233.08 525.361 233.68 524.321 234.64C523.281 235.52 522.761 236.96 522.761 238.96C522.761 240.8 523.361 242.28 524.561 243.4C525.761 244.44 527.361 245.32 529.361 246.04C531.441 246.68 533.641 247.32 535.961 247.96C538.361 248.6 540.801 249.36 543.281 250.24C545.761 251.12 548.041 252.28 550.121 253.72C552.201 255.16 553.881 257.04 555.161 259.36C556.441 261.6 557.081 264.48 557.081 268C557.081 272.08 555.881 275.56 553.481 278.44C551.081 281.32 548.081 283.52 544.481 285.04C540.881 286.48 537.201 287.2 533.441 287.2C528.721 287.2 524.001 286.4 519.281 284.8C514.561 283.12 510.641 280.2 507.521 276.04ZM615.429 220.6C617.509 220.6 619.229 221.28 620.589 222.64C621.949 224 622.629 225.76 622.629 227.92V278.68C622.629 280.76 621.949 282.52 620.589 283.96C619.229 285.32 617.509 286 615.429 286C613.349 286 611.629 285.32 610.269 283.96C608.909 282.52 608.229 280.76 608.229 278.68V272.8L610.869 273.88C610.869 274.92 610.309 276.2 609.189 277.72C608.069 279.16 606.549 280.6 604.629 282.04C602.709 283.48 600.429 284.72 597.789 285.76C595.229 286.72 592.429 287.2 589.389 287.2C583.869 287.2 578.869 285.8 574.389 283C569.909 280.12 566.349 276.2 563.709 271.24C561.149 266.2 559.869 260.44 559.869 253.96C559.869 247.4 561.149 241.64 563.709 236.68C566.349 231.64 569.869 227.72 574.269 224.92C578.669 222.04 583.549 220.6 588.909 220.6C592.349 220.6 595.509 221.12 598.389 222.16C601.269 223.2 603.749 224.52 605.829 226.12C607.989 227.72 609.629 229.36 610.749 231.04C611.949 232.64 612.549 234 612.549 235.12L608.229 236.68V227.92C608.229 225.84 608.909 224.12 610.269 222.76C611.629 221.32 613.349 220.6 615.429 220.6ZM591.189 274C594.709 274 597.789 273.12 600.429 271.36C603.069 269.6 605.109 267.2 606.549 264.16C608.069 261.12 608.829 257.72 608.829 253.96C608.829 250.12 608.069 246.68 606.549 243.64C605.109 240.6 603.069 238.2 600.429 236.44C597.789 234.68 594.709 233.8 591.189 233.8C587.749 233.8 584.709 234.68 582.069 236.44C579.429 238.2 577.349 240.6 575.829 243.64C574.389 246.68 573.669 250.12 573.669 253.96C573.669 257.72 574.389 261.12 575.829 264.16C577.349 267.2 579.429 269.6 582.069 271.36C584.709 273.12 587.749 274 591.189 274ZM653.733 276.04C652.933 274.92 652.573 273.48 652.653 271.72C652.733 269.96 653.773 268.44 655.773 267.16C657.053 266.36 658.413 266.04 659.853 266.2C661.293 266.28 662.693 267 664.053 268.36C666.373 270.68 668.813 272.48 671.373 273.76C673.933 275.04 677.133 275.68 680.973 275.68C682.173 275.6 683.493 275.44 684.933 275.2C686.373 274.88 687.613 274.24 688.653 273.28C689.773 272.24 690.333 270.68 690.333 268.6C690.333 266.84 689.733 265.44 688.533 264.4C687.333 263.36 685.733 262.48 683.733 261.76C681.813 261.04 679.653 260.36 677.253 259.72C674.773 259 672.213 258.2 669.573 257.32C667.013 256.44 664.653 255.32 662.493 253.96C660.333 252.52 658.573 250.64 657.213 248.32C655.853 246 655.173 243.08 655.173 239.56C655.173 235.56 656.293 232.16 658.533 229.36C660.773 226.56 663.653 224.4 667.173 222.88C670.773 221.36 674.533 220.6 678.453 220.6C680.933 220.6 683.533 220.92 686.253 221.56C688.973 222.12 691.573 223.08 694.053 224.44C696.533 225.72 698.613 227.44 700.293 229.6C701.173 230.8 701.693 232.24 701.853 233.92C702.013 235.6 701.253 237.12 699.573 238.48C698.373 239.44 696.973 239.88 695.373 239.8C693.773 239.64 692.453 239.08 691.413 238.12C690.053 236.36 688.213 234.96 685.893 233.92C683.653 232.88 681.053 232.36 678.093 232.36C676.893 232.36 675.573 232.52 674.133 232.84C672.773 233.08 671.573 233.68 670.533 234.64C669.493 235.52 668.973 236.96 668.973 238.96C668.973 240.8 669.573 242.28 670.773 243.4C671.973 244.44 673.573 245.32 675.573 246.04C677.653 246.68 679.853 247.32 682.173 247.96C684.573 248.6 687.013 249.36 689.493 250.24C691.973 251.12 694.253 252.28 696.333 253.72C698.413 255.16 700.093 257.04 701.373 259.36C702.653 261.6 703.293 264.48 703.293 268C703.293 272.08 702.093 275.56 699.693 278.44C697.293 281.32 694.293 283.52 690.693 285.04C687.093 286.48 683.413 287.2 679.653 287.2C674.933 287.2 670.213 286.4 665.493 284.8C660.773 283.12 656.853 280.2 653.733 276.04ZM755.784 221.8C757.864 221.8 759.584 222.52 760.944 223.96C762.304 225.32 762.984 227.04 762.984 229.12V259.6C762.984 268.08 760.624 274.8 755.904 279.76C751.184 284.72 744.384 287.2 735.504 287.2C726.624 287.2 719.824 284.72 715.104 279.76C710.464 274.8 708.144 268.08 708.144 259.6V229.12C708.144 227.04 708.824 225.32 710.184 223.96C711.544 222.52 713.264 221.8 715.344 221.8C717.424 221.8 719.144 222.52 720.504 223.96C721.864 225.32 722.544 227.04 722.544 229.12V259.6C722.544 264.48 723.624 268.12 725.784 270.52C727.944 272.84 731.184 274 735.504 274C739.904 274 743.184 272.84 745.344 270.52C747.504 268.12 748.584 264.48 748.584 259.6V229.12C748.584 227.04 749.264 225.32 750.624 223.96C751.984 222.52 753.704 221.8 755.784 221.8ZM801.613 287.2C794.813 287.2 788.893 285.8 783.853 283C778.893 280.12 775.053 276.24 772.333 271.36C769.693 266.48 768.373 260.96 768.373 254.8C768.373 247.6 769.813 241.48 772.693 236.44C775.653 231.32 779.493 227.4 784.213 224.68C788.933 221.96 793.933 220.6 799.213 220.6C803.293 220.6 807.133 221.44 810.733 223.12C814.413 224.8 817.653 227.12 820.453 230.08C823.253 232.96 825.453 236.32 827.053 240.16C828.733 244 829.573 248.08 829.573 252.4C829.493 254.32 828.733 255.88 827.293 257.08C825.853 258.28 824.173 258.88 822.253 258.88H776.413L772.813 246.88H816.853L814.213 249.28V246.04C814.053 243.72 813.213 241.64 811.693 239.8C810.253 237.96 808.413 236.52 806.173 235.48C804.013 234.36 801.693 233.8 799.213 233.8C796.813 233.8 794.573 234.12 792.493 234.76C790.413 235.4 788.613 236.48 787.093 238C785.573 239.52 784.373 241.56 783.493 244.12C782.613 246.68 782.173 249.92 782.173 253.84C782.173 258.16 783.053 261.84 784.813 264.88C786.653 267.84 788.973 270.12 791.773 271.72C794.653 273.24 797.693 274 800.893 274C803.853 274 806.213 273.76 807.973 273.28C809.733 272.8 811.133 272.24 812.173 271.6C813.293 270.88 814.293 270.28 815.173 269.8C816.613 269.08 817.973 268.72 819.253 268.72C821.013 268.72 822.453 269.32 823.573 270.52C824.773 271.72 825.373 273.12 825.373 274.72C825.373 276.88 824.253 278.84 822.013 280.6C819.933 282.36 817.013 283.92 813.253 285.28C809.493 286.56 805.613 287.2 801.613 287.2ZM869.275 220.6C875.195 220.6 879.675 221.84 882.715 224.32C885.835 226.8 887.955 230.12 889.075 234.28C890.275 238.36 890.875 242.92 890.875 247.96V278.68C890.875 280.76 890.195 282.52 888.835 283.96C887.475 285.32 885.755 286 883.675 286C881.595 286 879.875 285.32 878.515 283.96C877.155 282.52 876.475 280.76 876.475 278.68V247.96C876.475 245.32 876.115 242.96 875.395 240.88C874.755 238.72 873.555 237 871.795 235.72C870.035 234.44 867.515 233.8 864.235 233.8C861.035 233.8 858.315 234.44 856.075 235.72C853.915 237 852.235 238.72 851.035 240.88C849.915 242.96 849.355 245.32 849.355 247.96V278.68C849.355 280.76 848.675 282.52 847.315 283.96C845.955 285.32 844.235 286 842.155 286C840.075 286 838.355 285.32 836.995 283.96C835.635 282.52 834.955 280.76 834.955 278.68V229.12C834.955 227.04 835.635 225.32 836.995 223.96C838.355 222.52 840.075 221.8 842.155 221.8C844.235 221.8 845.955 222.52 847.315 223.96C848.675 225.32 849.355 227.04 849.355 229.12V234.28L847.555 233.92C848.275 232.56 849.315 231.12 850.675 229.6C852.035 228 853.635 226.52 855.475 225.16C857.315 223.8 859.395 222.72 861.715 221.92C864.035 221.04 866.555 220.6 869.275 220.6ZM848.635 215.2C846.875 215.2 845.315 214.48 843.955 213.04C842.675 211.6 842.035 209.6 842.035 207.04C842.035 204.48 843.235 202.08 845.635 199.84C848.035 197.6 851.755 196.48 856.795 196.48C858.875 196.48 860.755 196.88 862.435 197.68C864.115 198.48 865.635 199.4 866.995 200.44C868.435 201.4 869.755 202.28 870.955 203.08C872.235 203.88 873.395 204.28 874.435 204.28C875.315 204.28 875.995 204.08 876.475 203.68C876.955 203.2 877.075 202.56 876.835 201.76C876.275 199.92 876.475 198.48 877.435 197.44C878.395 196.4 879.595 195.88 881.035 195.88C882.875 195.88 884.435 196.6 885.715 198.04C886.995 199.4 887.635 201.32 887.635 203.8C887.635 205.16 887.195 206.68 886.315 208.36C885.435 210.04 883.995 211.52 881.995 212.8C879.995 214 877.315 214.6 873.955 214.6C872.275 214.6 870.555 214.2 868.795 213.4C867.115 212.6 865.435 211.72 863.755 210.76C862.075 209.72 860.515 208.8 859.075 208C857.635 207.2 856.355 206.8 855.235 206.8C854.435 206.8 853.755 207.04 853.195 207.52C852.715 207.92 852.595 208.52 852.835 209.32C853.395 211.08 853.195 212.52 852.235 213.64C851.275 214.68 850.075 215.2 848.635 215.2ZM961.519 253.96C961.519 260.52 960.039 266.32 957.079 271.36C954.199 276.32 950.279 280.2 945.319 283C940.439 285.8 934.959 287.2 928.879 287.2C922.799 287.2 917.279 285.8 912.319 283C907.439 280.2 903.519 276.32 900.559 271.36C897.679 266.32 896.239 260.52 896.239 253.96C896.239 247.4 897.679 241.64 900.559 236.68C903.519 231.64 907.439 227.72 912.319 224.92C917.279 222.04 922.799 220.6 928.879 220.6C934.959 220.6 940.439 222.04 945.319 224.92C950.279 227.72 954.199 231.64 957.079 236.68C960.039 241.64 961.519 247.4 961.519 253.96ZM947.119 253.96C947.119 249.88 946.279 246.36 944.599 243.4C942.999 240.36 940.799 238 937.999 236.32C935.279 234.64 932.239 233.8 928.879 233.8C925.519 233.8 922.439 234.64 919.639 236.32C916.919 238 914.719 240.36 913.039 243.4C911.439 246.36 910.639 249.88 910.639 253.96C910.639 257.96 911.439 261.48 913.039 264.52C914.719 267.48 916.919 269.8 919.639 271.48C922.439 273.16 925.519 274 928.879 274C932.239 274 935.279 273.16 937.999 271.48C940.799 269.8 942.999 267.48 944.599 264.52C946.279 261.48 947.119 257.96 947.119 253.96ZM963.202 276.04C962.402 274.92 962.042 273.48 962.122 271.72C962.202 269.96 963.242 268.44 965.242 267.16C966.522 266.36 967.882 266.04 969.322 266.2C970.762 266.28 972.162 267 973.522 268.36C975.842 270.68 978.282 272.48 980.842 273.76C983.402 275.04 986.602 275.68 990.442 275.68C991.642 275.6 992.962 275.44 994.402 275.2C995.842 274.88 997.082 274.24 998.122 273.28C999.242 272.24 999.802 270.68 999.802 268.6C999.802 266.84 999.202 265.44 998.002 264.4C996.802 263.36 995.202 262.48 993.202 261.76C991.282 261.04 989.122 260.36 986.722 259.72C984.242 259 981.682 258.2 979.042 257.32C976.482 256.44 974.122 255.32 971.962 253.96C969.802 252.52 968.042 250.64 966.682 248.32C965.322 246 964.642 243.08 964.642 239.56C964.642 235.56 965.762 232.16 968.002 229.36C970.242 226.56 973.122 224.4 976.642 222.88C980.242 221.36 984.002 220.6 987.922 220.6C990.402 220.6 993.002 220.92 995.722 221.56C998.442 222.12 1001.04 223.08 1003.52 224.44C1006 225.72 1008.08 227.44 1009.76 229.6C1010.64 230.8 1011.16 232.24 1011.32 233.92C1011.48 235.6 1010.72 237.12 1009.04 238.48C1007.84 239.44 1006.44 239.88 1004.84 239.8C1003.24 239.64 1001.92 239.08 1000.88 238.12C999.522 236.36 997.682 234.96 995.362 233.92C993.122 232.88 990.522 232.36 987.562 232.36C986.362 232.36 985.042 232.52 983.602 232.84C982.242 233.08 981.042 233.68 980.002 234.64C978.962 235.52 978.442 236.96 978.442 238.96C978.442 240.8 979.042 242.28 980.242 243.4C981.442 244.44 983.042 245.32 985.042 246.04C987.122 246.68 989.322 247.32 991.642 247.96C994.042 248.6 996.482 249.36 998.962 250.24C1001.44 251.12 1003.72 252.28 1005.8 253.72C1007.88 255.16 1009.56 257.04 1010.84 259.36C1012.12 261.6 1012.76 264.48 1012.76 268C1012.76 272.08 1011.56 275.56 1009.16 278.44C1006.76 281.32 1003.76 283.52 1000.16 285.04C996.562 286.48 992.882 287.2 989.122 287.2C984.402 287.2 979.682 286.4 974.962 284.8C970.242 283.12 966.322 280.2 963.202 276.04ZM1072.61 220.6C1077.17 220.6 1081.13 221.08 1084.49 222.04C1087.93 223 1090.57 224.36 1092.41 226.12C1094.33 227.8 1095.29 229.84 1095.29 232.24C1095.29 233.84 1094.81 235.36 1093.85 236.8C1092.89 238.16 1091.49 238.84 1089.65 238.84C1088.37 238.84 1087.29 238.68 1086.41 238.36C1085.61 237.96 1084.89 237.48 1084.25 236.92C1083.61 236.36 1082.85 235.84 1081.97 235.36C1081.17 234.88 1079.93 234.52 1078.25 234.28C1076.65 233.96 1075.45 233.8 1074.65 233.8C1070.57 233.8 1067.09 234.68 1064.21 236.44C1061.41 238.2 1059.25 240.6 1057.73 243.64C1056.21 246.6 1055.45 250.04 1055.45 253.96C1055.45 257.8 1056.21 261.24 1057.73 264.28C1059.33 267.24 1061.49 269.6 1064.21 271.36C1067.01 273.12 1070.21 274 1073.81 274C1075.81 274 1077.53 273.88 1078.97 273.64C1080.41 273.4 1081.61 273.04 1082.57 272.56C1083.69 271.92 1084.69 271.24 1085.57 270.52C1086.45 269.8 1087.77 269.44 1089.53 269.44C1091.61 269.44 1093.21 270.12 1094.33 271.48C1095.45 272.76 1096.01 274.36 1096.01 276.28C1096.01 278.28 1094.89 280.12 1092.65 281.8C1090.41 283.4 1087.45 284.72 1083.77 285.76C1080.17 286.72 1076.25 287.2 1072.01 287.2C1065.69 287.2 1060.21 285.76 1055.57 282.88C1050.93 279.92 1047.33 275.92 1044.77 270.88C1042.29 265.84 1041.05 260.2 1041.05 253.96C1041.05 247.4 1042.37 241.64 1045.01 236.68C1047.73 231.64 1051.45 227.72 1056.17 224.92C1060.97 222.04 1066.45 220.6 1072.61 220.6ZM1161.47 253.96C1161.47 260.52 1159.99 266.32 1157.03 271.36C1154.15 276.32 1150.23 280.2 1145.27 283C1140.39 285.8 1134.91 287.2 1128.83 287.2C1122.75 287.2 1117.23 285.8 1112.27 283C1107.39 280.2 1103.47 276.32 1100.51 271.36C1097.63 266.32 1096.19 260.52 1096.19 253.96C1096.19 247.4 1097.63 241.64 1100.51 236.68C1103.47 231.64 1107.39 227.72 1112.27 224.92C1117.23 222.04 1122.75 220.6 1128.83 220.6C1134.91 220.6 1140.39 222.04 1145.27 224.92C1150.23 227.72 1154.15 231.64 1157.03 236.68C1159.99 241.64 1161.47 247.4 1161.47 253.96ZM1147.07 253.96C1147.07 249.88 1146.23 246.36 1144.55 243.4C1142.95 240.36 1140.75 238 1137.95 236.32C1135.23 234.64 1132.19 233.8 1128.83 233.8C1125.47 233.8 1122.39 234.64 1119.59 236.32C1116.87 238 1114.67 240.36 1112.99 243.4C1111.39 246.36 1110.59 249.88 1110.59 253.96C1110.59 257.96 1111.39 261.48 1112.99 264.52C1114.67 267.48 1116.87 269.8 1119.59 271.48C1122.39 273.16 1125.47 274 1128.83 274C1132.19 274 1135.23 273.16 1137.95 271.48C1140.75 269.8 1142.95 267.48 1144.55 264.52C1146.23 261.48 1147.07 257.96 1147.07 253.96ZM1201.19 220.6C1207.11 220.6 1211.59 221.84 1214.63 224.32C1217.75 226.8 1219.87 230.12 1220.99 234.28C1222.19 238.36 1222.79 242.92 1222.79 247.96V278.68C1222.79 280.76 1222.11 282.52 1220.75 283.96C1219.39 285.32 1217.67 286 1215.59 286C1213.51 286 1211.79 285.32 1210.43 283.96C1209.07 282.52 1208.39 280.76 1208.39 278.68V247.96C1208.39 245.32 1208.03 242.96 1207.31 240.88C1206.67 238.72 1205.47 237 1203.71 235.72C1201.95 234.44 1199.43 233.8 1196.15 233.8C1192.95 233.8 1190.23 234.44 1187.99 235.72C1185.83 237 1184.15 238.72 1182.95 240.88C1181.83 242.96 1181.27 245.32 1181.27 247.96V278.68C1181.27 280.76 1180.59 282.52 1179.23 283.96C1177.87 285.32 1176.15 286 1174.07 286C1171.99 286 1170.27 285.32 1168.91 283.96C1167.55 282.52 1166.87 280.76 1166.87 278.68V229.12C1166.87 227.04 1167.55 225.32 1168.91 223.96C1170.27 222.52 1171.99 221.8 1174.07 221.8C1176.15 221.8 1177.87 222.52 1179.23 223.96C1180.59 225.32 1181.27 227.04 1181.27 229.12V234.28L1179.47 233.92C1180.19 232.56 1181.23 231.12 1182.59 229.6C1183.95 228 1185.55 226.52 1187.39 225.16C1189.23 223.8 1191.31 222.72 1193.63 221.92C1195.95 221.04 1198.47 220.6 1201.19 220.6ZM421.368 343H449.808C451.728 343 453.328 343.64 454.608 344.92C455.888 346.2 456.528 347.8 456.528 349.72C456.528 351.56 455.888 353.12 454.608 354.4C453.328 355.6 451.728 356.2 449.808 356.2H421.368C419.448 356.2 417.848 355.56 416.568 354.28C415.288 353 414.648 351.4 414.648 349.48C414.648 347.64 415.288 346.12 416.568 344.92C417.848 343.64 419.448 343 421.368 343ZM434.208 328C436.288 328 437.968 328.72 439.248 330.16C440.608 331.52 441.288 333.24 441.288 335.32V388.72C441.288 389.84 441.488 390.76 441.888 391.48C442.368 392.2 442.968 392.72 443.688 393.04C444.488 393.36 445.328 393.52 446.208 393.52C447.168 393.52 448.048 393.36 448.848 393.04C449.648 392.64 450.568 392.44 451.608 392.44C452.728 392.44 453.728 392.96 454.608 394C455.568 395.04 456.048 396.48 456.048 398.32C456.048 400.56 454.808 402.4 452.328 403.84C449.928 405.28 447.328 406 444.528 406C442.848 406 440.968 405.88 438.888 405.64C436.888 405.32 434.968 404.64 433.128 403.6C431.368 402.48 429.888 400.8 428.688 398.56C427.488 396.32 426.888 393.24 426.888 389.32V335.32C426.888 333.24 427.568 331.52 428.928 330.16C430.368 328.72 432.128 328 434.208 328ZM510.189 341.8C512.269 341.8 513.989 342.52 515.349 343.96C516.709 345.32 517.389 347.04 517.389 349.12V379.6C517.389 388.08 515.029 394.8 510.309 399.76C505.589 404.72 498.789 407.2 489.909 407.2C481.029 407.2 474.229 404.72 469.509 399.76C464.869 394.8 462.549 388.08 462.549 379.6V349.12C462.549 347.04 463.229 345.32 464.589 343.96C465.949 342.52 467.669 341.8 469.749 341.8C471.829 341.8 473.549 342.52 474.909 343.96C476.269 345.32 476.949 347.04 476.949 349.12V379.6C476.949 384.48 478.029 388.12 480.189 390.52C482.349 392.84 485.589 394 489.909 394C494.309 394 497.589 392.84 499.749 390.52C501.909 388.12 502.989 384.48 502.989 379.6V349.12C502.989 347.04 503.669 345.32 505.029 343.96C506.389 342.52 508.109 341.8 510.189 341.8ZM604.772 317.2C606.852 317.2 608.572 317.88 609.932 319.24C611.292 320.6 611.972 322.36 611.972 324.52V398.68C611.972 400.76 611.292 402.52 609.932 403.96C608.572 405.32 606.852 406 604.772 406C602.692 406 600.972 405.32 599.612 403.96C598.252 402.52 597.572 400.76 597.572 398.68V392.8L600.212 393.88C600.212 394.92 599.652 396.2 598.532 397.72C597.412 399.16 595.892 400.6 593.972 402.04C592.052 403.48 589.772 404.72 587.132 405.76C584.572 406.72 581.772 407.2 578.732 407.2C573.212 407.2 568.212 405.8 563.732 403C559.252 400.12 555.692 396.2 553.052 391.24C550.492 386.2 549.212 380.44 549.212 373.96C549.212 367.4 550.492 361.64 553.052 356.68C555.692 351.64 559.212 347.72 563.612 344.92C568.012 342.04 572.892 340.6 578.252 340.6C581.692 340.6 584.852 341.12 587.732 342.16C590.612 343.2 593.092 344.52 595.172 346.12C597.332 347.72 598.972 349.36 600.092 351.04C601.292 352.64 601.892 354 601.892 355.12L597.572 356.68V324.52C597.572 322.44 598.252 320.72 599.612 319.36C600.972 317.92 602.692 317.2 604.772 317.2ZM580.532 394C584.052 394 587.132 393.12 589.772 391.36C592.412 389.6 594.452 387.2 595.892 384.16C597.412 381.12 598.172 377.72 598.172 373.96C598.172 370.12 597.412 366.68 595.892 363.64C594.452 360.6 592.412 358.2 589.772 356.44C587.132 354.68 584.052 353.8 580.532 353.8C577.092 353.8 574.052 354.68 571.412 356.44C568.772 358.2 566.692 360.6 565.172 363.64C563.732 366.68 563.012 370.12 563.012 373.96C563.012 377.72 563.732 381.12 565.172 384.16C566.692 387.2 568.772 389.6 571.412 391.36C574.052 393.12 577.092 394 580.532 394ZM682.643 373.96C682.643 380.52 681.163 386.32 678.203 391.36C675.323 396.32 671.403 400.2 666.443 403C661.563 405.8 656.083 407.2 650.003 407.2C643.923 407.2 638.403 405.8 633.443 403C628.563 400.2 624.643 396.32 621.683 391.36C618.803 386.32 617.363 380.52 617.363 373.96C617.363 367.4 618.803 361.64 621.683 356.68C624.643 351.64 628.563 347.72 633.443 344.92C638.403 342.04 643.923 340.6 650.003 340.6C656.083 340.6 661.563 342.04 666.443 344.92C671.403 347.72 675.323 351.64 678.203 356.68C681.163 361.64 682.643 367.4 682.643 373.96ZM668.243 373.96C668.243 369.88 667.403 366.36 665.723 363.4C664.123 360.36 661.923 358 659.123 356.32C656.403 354.64 653.363 353.8 650.003 353.8C646.643 353.8 643.563 354.64 640.763 356.32C638.043 358 635.843 360.36 634.163 363.4C632.563 366.36 631.763 369.88 631.763 373.96C631.763 377.96 632.563 381.48 634.163 384.52C635.843 387.48 638.043 389.8 640.763 391.48C643.563 393.16 646.643 394 650.003 394C653.363 394 656.403 393.16 659.123 391.48C661.923 389.8 664.123 387.48 665.723 384.52C667.403 381.48 668.243 377.96 668.243 373.96ZM722.366 340.6C728.286 340.6 732.766 341.84 735.806 344.32C738.926 346.8 741.046 350.12 742.166 354.28C743.366 358.36 743.966 362.92 743.966 367.96V398.68C743.966 400.76 743.286 402.52 741.926 403.96C740.566 405.32 738.846 406 736.766 406C734.686 406 732.966 405.32 731.606 403.96C730.246 402.52 729.566 400.76 729.566 398.68V367.96C729.566 365.32 729.206 362.96 728.486 360.88C727.846 358.72 726.646 357 724.886 355.72C723.126 354.44 720.606 353.8 717.326 353.8C714.126 353.8 711.406 354.44 709.166 355.72C707.006 357 705.326 358.72 704.126 360.88C703.006 362.96 702.446 365.32 702.446 367.96V398.68C702.446 400.76 701.766 402.52 700.406 403.96C699.046 405.32 697.326 406 695.246 406C693.166 406 691.446 405.32 690.086 403.96C688.726 402.52 688.046 400.76 688.046 398.68V349.12C688.046 347.04 688.726 345.32 690.086 343.96C691.446 342.52 693.166 341.8 695.246 341.8C697.326 341.8 699.046 342.52 700.406 343.96C701.766 345.32 702.446 347.04 702.446 349.12V354.28L700.646 353.92C701.366 352.56 702.406 351.12 703.766 349.6C705.126 348 706.726 346.52 708.566 345.16C710.406 343.8 712.486 342.72 714.806 341.92C717.126 341.04 719.646 340.6 722.366 340.6ZM804.89 340.6C806.97 340.6 808.69 341.28 810.05 342.64C811.41 344 812.09 345.76 812.09 347.92V398.68C812.09 400.76 811.41 402.52 810.05 403.96C808.69 405.32 806.97 406 804.89 406C802.81 406 801.09 405.32 799.73 403.96C798.37 402.52 797.69 400.76 797.69 398.68V392.8L800.33 393.88C800.33 394.92 799.77 396.2 798.65 397.72C797.53 399.16 796.01 400.6 794.09 402.04C792.17 403.48 789.89 404.72 787.25 405.76C784.69 406.72 781.89 407.2 778.85 407.2C773.33 407.2 768.33 405.8 763.85 403C759.37 400.12 755.81 396.2 753.17 391.24C750.61 386.2 749.33 380.44 749.33 373.96C749.33 367.4 750.61 361.64 753.17 356.68C755.81 351.64 759.33 347.72 763.73 344.92C768.13 342.04 773.01 340.6 778.37 340.6C781.81 340.6 784.97 341.12 787.85 342.16C790.73 343.2 793.21 344.52 795.29 346.12C797.45 347.72 799.09 349.36 800.21 351.04C801.41 352.64 802.01 354 802.01 355.12L797.69 356.68V347.92C797.69 345.84 798.37 344.12 799.73 342.76C801.09 341.32 802.81 340.6 804.89 340.6ZM780.65 394C784.17 394 787.25 393.12 789.89 391.36C792.53 389.6 794.57 387.2 796.01 384.16C797.53 381.12 798.29 377.72 798.29 373.96C798.29 370.12 797.53 366.68 796.01 363.64C794.57 360.6 792.53 358.2 789.89 356.44C787.25 354.68 784.17 353.8 780.65 353.8C777.21 353.8 774.17 354.68 771.53 356.44C768.89 358.2 766.81 360.6 765.29 363.64C763.85 366.68 763.13 370.12 763.13 373.96C763.13 377.72 763.85 381.12 765.29 384.16C766.81 387.2 768.89 389.6 771.53 391.36C774.17 393.12 777.21 394 780.65 394ZM849.042 340.6C853.602 340.6 857.562 341.08 860.922 342.04C864.362 343 867.002 344.36 868.842 346.12C870.762 347.8 871.722 349.84 871.722 352.24C871.722 353.84 871.242 355.36 870.282 356.8C869.322 358.16 867.922 358.84 866.082 358.84C864.802 358.84 863.722 358.68 862.842 358.36C862.042 357.96 861.322 357.48 860.682 356.92C860.042 356.36 859.282 355.84 858.402 355.36C857.602 354.88 856.362 354.52 854.682 354.28C853.082 353.96 851.882 353.8 851.082 353.8C847.002 353.8 843.522 354.68 840.642 356.44C837.842 358.2 835.682 360.6 834.162 363.64C832.642 366.6 831.882 370.04 831.882 373.96C831.882 377.8 832.642 381.24 834.162 384.28C835.762 387.24 837.922 389.6 840.642 391.36C843.442 393.12 846.642 394 850.242 394C852.242 394 853.962 393.88 855.402 393.64C856.842 393.4 858.042 393.04 859.002 392.56C860.122 391.92 861.122 391.24 862.002 390.52C862.882 389.8 864.202 389.44 865.962 389.44C868.042 389.44 869.642 390.12 870.762 391.48C871.882 392.76 872.442 394.36 872.442 396.28C872.442 398.28 871.322 400.12 869.082 401.8C866.842 403.4 863.882 404.72 860.202 405.76C856.602 406.72 852.682 407.2 848.442 407.2C842.122 407.2 836.642 405.76 832.002 402.88C827.362 399.92 823.762 395.92 821.202 390.88C818.722 385.84 817.482 380.2 817.482 373.96C817.482 367.4 818.802 361.64 821.442 356.68C824.162 351.64 827.882 347.72 832.602 344.92C837.402 342.04 842.882 340.6 849.042 340.6ZM889.186 398.68C889.186 400.76 888.506 402.52 887.146 403.96C885.786 405.32 884.066 406 881.986 406C879.906 406 878.186 405.32 876.826 403.96C875.466 402.52 874.786 400.76 874.786 398.68V349.12C874.786 347.04 875.466 345.32 876.826 343.96C878.186 342.52 879.906 341.8 881.986 341.8C884.066 341.8 885.786 342.52 887.146 343.96C888.506 345.32 889.186 347.04 889.186 349.12V398.68ZM881.866 334C879.146 334 877.226 333.56 876.106 332.68C874.986 331.8 874.426 330.24 874.426 328V325.72C874.426 323.4 875.026 321.84 876.226 321.04C877.506 320.16 879.426 319.72 881.986 319.72C884.786 319.72 886.746 320.16 887.866 321.04C888.986 321.92 889.546 323.48 889.546 325.72V328C889.546 330.32 888.946 331.92 887.746 332.8C886.546 333.6 884.586 334 881.866 334ZM959.065 373.96C959.065 380.52 957.585 386.32 954.625 391.36C951.745 396.32 947.825 400.2 942.865 403C937.985 405.8 932.505 407.2 926.425 407.2C920.345 407.2 914.825 405.8 909.865 403C904.985 400.2 901.065 396.32 898.105 391.36C895.225 386.32 893.785 380.52 893.785 373.96C893.785 367.4 895.225 361.64 898.105 356.68C901.065 351.64 904.985 347.72 909.865 344.92C914.825 342.04 920.345 340.6 926.425 340.6C932.505 340.6 937.985 342.04 942.865 344.92C947.825 347.72 951.745 351.64 954.625 356.68C957.585 361.64 959.065 367.4 959.065 373.96ZM944.665 373.96C944.665 369.88 943.825 366.36 942.145 363.4C940.545 360.36 938.345 358 935.545 356.32C932.825 354.64 929.785 353.8 926.425 353.8C923.065 353.8 919.985 354.64 917.185 356.32C914.465 358 912.265 360.36 910.585 363.4C908.985 366.36 908.185 369.88 908.185 373.96C908.185 377.96 908.985 381.48 910.585 384.52C912.265 387.48 914.465 389.8 917.185 391.48C919.985 393.16 923.065 394 926.425 394C929.785 394 932.825 393.16 935.545 391.48C938.345 389.8 940.545 387.48 942.145 384.52C943.825 381.48 944.665 377.96 944.665 373.96ZM927.025 337.72C926.385 337.72 925.545 337.4 924.505 336.76C923.545 336.04 923.105 335.04 923.185 333.76C923.185 333.04 923.425 332.28 923.905 331.48L930.865 319.24C931.585 317.96 932.505 316.84 933.625 315.88C934.745 314.92 936.025 314.44 937.465 314.44C939.705 314.44 941.345 315.04 942.385 316.24C943.425 317.36 943.905 318.76 943.825 320.44C943.745 321.24 943.505 322.08 943.105 322.96C942.785 323.84 942.265 324.72 941.545 325.6L932.425 335.68C931.625 336.56 930.745 337.12 929.785 337.36C928.825 337.6 927.905 337.72 927.025 337.72ZM998.788 340.6C1004.71 340.6 1009.19 341.84 1012.23 344.32C1015.35 346.8 1017.47 350.12 1018.59 354.28C1019.79 358.36 1020.39 362.92 1020.39 367.96V398.68C1020.39 400.76 1019.71 402.52 1018.35 403.96C1016.99 405.32 1015.27 406 1013.19 406C1011.11 406 1009.39 405.32 1008.03 403.96C1006.67 402.52 1005.99 400.76 1005.99 398.68V367.96C1005.99 365.32 1005.63 362.96 1004.91 360.88C1004.27 358.72 1003.07 357 1001.31 355.72C999.548 354.44 997.028 353.8 993.748 353.8C990.548 353.8 987.828 354.44 985.588 355.72C983.428 357 981.748 358.72 980.548 360.88C979.428 362.96 978.868 365.32 978.868 367.96V398.68C978.868 400.76 978.188 402.52 976.828 403.96C975.468 405.32 973.748 406 971.668 406C969.588 406 967.868 405.32 966.508 403.96C965.148 402.52 964.468 400.76 964.468 398.68V349.12C964.468 347.04 965.148 345.32 966.508 343.96C967.868 342.52 969.588 341.8 971.668 341.8C973.748 341.8 975.468 342.52 976.828 343.96C978.188 345.32 978.868 347.04 978.868 349.12V354.28L977.068 353.92C977.788 352.56 978.828 351.12 980.188 349.6C981.548 348 983.148 346.52 984.988 345.16C986.828 343.8 988.908 342.72 991.228 341.92C993.548 341.04 996.068 340.6 998.788 340.6Z" fill="white"/>
<path fill-rule="evenodd" clip-rule="evenodd" d="M1417.4 500H1297.81C1287.93 484.45 1281.39 466.674 1290 451.423C1291.62 448.534 1293.97 445.825 1297.58 444.742C1299.93 444.019 1302.64 444.38 1305.17 444.922C1315.82 447.089 1325.21 453.048 1330.99 460.994C1331.86 458.07 1332.69 455.146 1333.52 452.238C1334.59 448.5 1335.65 444.786 1336.77 441.13C1337.31 438.963 1338.21 436.616 1340.38 435.352C1345.08 432.462 1351.22 436.977 1353.92 441.311C1354.2 441.801 1354.47 442.302 1354.75 442.808C1357 446.953 1359.41 451.38 1364.4 452.506C1365.66 444.019 1366.93 435.532 1368.01 427.045C1369.09 419.1 1372.34 409.168 1381.73 408.084C1389.68 407.182 1396 413.682 1399.61 419.822C1406.11 431.198 1408.64 444.2 1406.48 456.66C1409.56 455.539 1411.44 453.006 1413.32 450.493C1413.86 449.766 1414.4 449.042 1414.96 448.353C1417.49 445.283 1422.37 442.755 1426.16 444.742C1429.59 446.547 1429.41 450.881 1428.87 454.312C1425.98 469.661 1422.19 484.83 1417.49 499.818C1417.49 499.818 1417.46 499.88 1417.4 500Z" fill="#BACC81"/>
<g filter="url(#filter1_f_930_5818)">
<path d="M165 310.5C165 385.887 103.887 447 28.5 447C-46.8869 447 -108 385.887 -108 310.5C-108 235.113 -46.8869 174 28.5 174C103.887 174 165 235.113 165 310.5Z" fill="#BACC81"/>
</g>
<defs>
<filter id="filter0_f_930_5818" x="101" y="-849" width="2617" height="2617" filterUnits="userSpaceOnUse" color-interpolation-filters="sRGB">
<feFlood flood-opacity="0" result="BackgroundImageFix"/>
<feBlend mode="normal" in="SourceGraphic" in2="BackgroundImageFix" result="shape"/>
<feGaussianBlur stdDeviation="500" result="effect1_foregroundBlur_930_5818"/>
</filter>
<filter id="filter1_f_930_5818" x="-1108" y="-826" width="2273" height="2273" filterUnits="userSpaceOnUse" color-interpolation-filters="sRGB">
<feFlood flood-opacity="0" result="BackgroundImageFix"/>
<feBlend mode="normal" in="SourceGraphic" in2="BackgroundImageFix" result="shape"/>
<feGaussianBlur stdDeviation="500" result="effect1_foregroundBlur_930_5818"/>
</filter>
</defs>
</svg>
