<svg width="21" height="20" viewBox="0 0 21 20" fill="none" xmlns="http://www.w3.org/2000/svg">
<g clip-path="url(#clip0_2765_3911)">
<path d="M19.674 9.71052C19.674 8.93165 19.6121 8.36328 19.4782 7.77386H10.7725V11.2893H15.8825C15.7796 12.1629 15.2232 13.4786 13.9869 14.3627L13.9695 14.4804L16.7221 16.6589L16.9128 16.6784C18.6643 15.0258 19.674 12.5945 19.674 9.71052Z" fill="#4285F4"/>
<path d="M10.7726 18.9729C13.2761 18.9729 15.3779 18.1308 16.913 16.6783L13.987 14.3627C13.2041 14.9205 12.1532 15.31 10.7726 15.31C8.32061 15.31 6.23948 13.6575 5.49762 11.3735L5.38888 11.383L2.52669 13.6459L2.48926 13.7522C4.01404 16.8467 7.14606 18.9729 10.7726 18.9729Z" fill="#34A853"/>
<path d="M5.4974 11.3735C5.30165 10.7841 5.18836 10.1525 5.18836 9.49998C5.18836 8.84736 5.30165 8.21586 5.4871 7.62645L5.48191 7.50092L2.58385 5.2016L2.48903 5.24768C1.8606 6.53179 1.5 7.9738 1.5 9.49998C1.5 11.0262 1.8606 12.4681 2.48903 13.7522L5.4974 11.3735Z" fill="#FBBC05"/>
<path d="M10.7726 3.68997C12.5138 3.68997 13.6882 4.45832 14.3579 5.10042L16.9748 2.4901C15.3676 0.963925 13.2761 0.0271606 10.7726 0.0271606C7.14606 0.0271606 4.01404 2.15327 2.48926 5.24772L5.48732 7.62649C6.23949 5.34248 8.32061 3.68997 10.7726 3.68997Z" fill="#EB4335"/>
</g>
<defs>
<clipPath id="clip0_2765_3911">
<rect x="1.5" width="18.1739" height="19" rx="9.08696" fill="white"/>
</clipPath>
</defs>
</svg>
